<?xml version="1.0" encoding="UTF-8"?>
<svg xmlns="http://www.w3.org/2000/svg" width="600" height="500" viewBox="0 0 600 500">
  <rect x="0" y="0" width="600" height="500" fill="#F7F7F7"/>
  <text x="300" y="40" font-size="20" font-family="Arial, sans-serif" text-anchor="middle" dominant-baseline="central" fill="#000000">MoonBit VG Library - Complete Showcase</text>
  <text x="100" y="70" font-size="16" font-family="Arial, sans-serif" text-anchor="middle" dominant-baseline="central" fill="#000000">Basic Shapes</text>
  <circle cx="80" cy="110" r="25" fill="#FF0000"/>
  <rect x="130" y="85" width="50" height="50" fill="#00FF00"/>
  <ellipse cx="230" cy="110" rx="35" ry="20" fill="#0000FF"/>
  <text x="350" y="70" font-size="16" font-family="Arial, sans-serif" text-anchor="middle" dominant-baseline="central" fill="#000000">Polygons</text>
  <polygon points="330,95 370,95 375,118 350,130 325,118" fill="#FFA400"/>
  <polygon points="420,90 400,130 440,130" fill="#7F007F"/>
  <polygon points="490,90 505,110 490,130 475,110" fill="#00FFFF"/>
  <text x="100" y="180" font-size="16" font-family="Arial, sans-serif" text-anchor="middle" dominant-baseline="central" fill="#000000">Lines & Strokes</text>
  <line x1="50" y1="210" x2="250" y2="210" stroke="#000000" stroke-width="3" stroke-linecap="round" fill="none"/>
  <line x1="50" y1="230" x2="200" y2="250" stroke="#FF0000" stroke-width="2" stroke-linecap="round" fill="none"/>
  <line x1="50" y1="270" x2="150" y2="230" stroke="#0000FF" stroke-width="4" stroke-linecap="round" fill="none"/>
  <text x="350" y="180" font-size="16" font-family="Arial, sans-serif" text-anchor="middle" dominant-baseline="central" fill="#000000">Custom Paths</text>
  <path d="M 300,220 C 320,200 340,240 360,220 C 380,200 400,240 420,220 C 440,200 460,240 480,220 " fill="#FF00FF" stroke="none"/>
  <path d="M 380,270 C 370,260 355,260 345,270 C 335,280 335,295 345,305 L 380,340 L 415,305 C 425,295 425,280 415,270 C 405,260 390,260 380,270 Z " fill="#FF0000" stroke="none"/>
  <text x="100" y="320" font-size="16" font-family="Arial, sans-serif" text-anchor="middle" dominant-baseline="central" fill="#000000">Typography Examples</text>
  <text x="100" y="350" font-size="12" font-family="Arial, sans-serif" text-anchor="middle" dominant-baseline="central" fill="#000000">Regular Text</text>
  <text x="200" y="350" font-size="12" font-family="Arial, sans-serif" text-anchor="middle" dominant-baseline="central" fill="#0000FF">Colored Text</text>
  <text x="100" y="380" font-size="18" font-family="Arial, sans-serif" text-anchor="middle" dominant-baseline="central" fill="#00FF00">Large Text</text>
  <text x="250" y="380" font-size="14" font-family="Arial, sans-serif" text-anchor="middle" dominant-baseline="central" fill="#7F007F">Purple Text</text>
  <line x1="50" y1="420" x2="550" y2="420" stroke="#B2B2B2" stroke-width="1" stroke-linecap="round" fill="none"/>
  <text x="300" y="450" font-size="12" font-family="Arial, sans-serif" text-anchor="middle" dominant-baseline="central" fill="#7F7F7F">Generated by MoonBit VG - Declarative 2D Vector Graphics</text>
  <text x="300" y="470" font-size="10" font-family="Arial, sans-serif" text-anchor="middle" dominant-baseline="central" fill="#999999">Snapshot Testing Showcase</text>
</svg>