<?xml version="1.0" encoding="UTF-8"?>
<svg xmlns="http://www.w3.org/2000/svg" width="200" height="100" viewBox="0 0 200 100">
  <rect x="0" y="0" width="6.666666666666667" height="6.666666666666667" fill="#E5E5E5"/>
  <rect x="0" y="6.666666666666667" width="6.666666666666667" height="6.666666666666667" fill="#E5E5E5"/>
  <rect x="0" y="13.333333333333334" width="6.666666666666667" height="6.666666666666667" fill="#E5E5E5"/>
  <rect x="0" y="20" width="6.666666666666667" height="6.666666666666667" fill="#E5E5E5"/>
  <rect x="0" y="26.666666666666668" width="6.666666666666667" height="6.666666666666667" fill="#E5E5E5"/>
  <rect x="0" y="33.333333333333336" width="6.666666666666667" height="6.666666666666667" fill="#E5E5E5"/>
  <rect x="0" y="40" width="6.666666666666667" height="6.666666666666667" fill="#E5E5E5"/>
  <rect x="0" y="46.66666666666667" width="6.666666666666667" height="6.666666666666667" fill="#E5E5E5"/>
  <rect x="0" y="53.333333333333336" width="6.666666666666667" height="6.666666666666667" fill="#E5E5E5"/>
  <rect x="0" y="60" width="6.666666666666667" height="6.666666666666667" fill="#E5E5E5"/>
  <rect x="0" y="66.66666666666667" width="6.666666666666667" height="6.666666666666667" fill="#E5E5E5"/>
  <rect x="0" y="73.33333333333334" width="6.666666666666667" height="6.666666666666667" fill="#E5E5E5"/>
  <rect x="0" y="80" width="6.666666666666667" height="6.666666666666667" fill="#E5E5E5"/>
  <rect x="0" y="86.66666666666667" width="6.666666666666667" height="6.666666666666667" fill="#E5E5E5"/>
  <rect x="0" y="93.33333333333334" width="6.666666666666667" height="6.666666666666667" fill="#E5E5E5"/>
  <rect x="0" y="100" width="6.666666666666667" height="6.666666666666667" fill="#E5E5E5"/>
  <rect x="6.666666666666667" y="0" width="6.666666666666667" height="6.666666666666667" fill="#E5E5E5"/>
  <rect x="6.666666666666667" y="6.666666666666667" width="6.666666666666667" height="6.666666666666667" fill="#E5E5E5"/>
  <rect x="6.666666666666667" y="13.333333333333334" width="6.666666666666667" height="6.666666666666667" fill="#E5E5E5"/>
  <rect x="6.666666666666667" y="20" width="6.666666666666667" height="6.666666666666667" fill="#E5E5E5"/>
  <rect x="6.666666666666667" y="26.666666666666668" width="6.666666666666667" height="6.666666666666667" fill="#E5E5E5"/>
  <rect x="6.666666666666667" y="33.333333333333336" width="6.666666666666667" height="6.666666666666667" fill="#E5E5E5"/>
  <rect x="6.666666666666667" y="40" width="6.666666666666667" height="6.666666666666667" fill="#E5E5E5"/>
  <rect x="6.666666666666667" y="46.66666666666667" width="6.666666666666667" height="6.666666666666667" fill="#E5E5E5"/>
  <rect x="6.666666666666667" y="53.333333333333336" width="6.666666666666667" height="6.666666666666667" fill="#E5E5E5"/>
  <rect x="6.666666666666667" y="60" width="6.666666666666667" height="6.666666666666667" fill="#E5E5E5"/>
  <rect x="6.666666666666667" y="66.66666666666667" width="6.666666666666667" height="6.666666666666667" fill="#E5E5E5"/>
  <rect x="6.666666666666667" y="73.33333333333334" width="6.666666666666667" height="6.666666666666667" fill="#E5E5E5"/>
  <rect x="6.666666666666667" y="80" width="6.666666666666667" height="6.666666666666667" fill="#E5E5E5"/>
  <rect x="6.666666666666667" y="86.66666666666667" width="6.666666666666667" height="6.666666666666667" fill="#E5E5E5"/>
  <rect x="6.666666666666667" y="93.33333333333334" width="6.666666666666667" height="6.666666666666667" fill="#E5E5E5"/>
  <rect x="6.666666666666667" y="100" width="6.666666666666667" height="6.666666666666667" fill="#E5E5E5"/>
  <rect x="13.333333333333334" y="0" width="6.666666666666667" height="6.666666666666667" fill="#E5E5E5"/>
  <rect x="13.333333333333334" y="6.666666666666667" width="6.666666666666667" height="6.666666666666667" fill="#E5E5E5"/>
  <rect x="13.333333333333334" y="13.333333333333334" width="6.666666666666667" height="6.666666666666667" fill="#E5E5E5"/>
  <rect x="13.333333333333334" y="20" width="6.666666666666667" height="6.666666666666667" fill="#E5E5E5"/>
  <rect x="13.333333333333334" y="26.666666666666668" width="6.666666666666667" height="6.666666666666667" fill="#E5E5E5"/>
  <rect x="13.333333333333334" y="33.333333333333336" width="6.666666666666667" height="6.666666666666667" fill="#E5E5E5"/>
  <rect x="13.333333333333334" y="40" width="6.666666666666667" height="6.666666666666667" fill="#E5E5E5"/>
  <rect x="13.333333333333334" y="46.66666666666667" width="6.666666666666667" height="6.666666666666667" fill="#E5E5E5"/>
  <rect x="13.333333333333334" y="53.333333333333336" width="6.666666666666667" height="6.666666666666667" fill="#E5E5E5"/>
  <rect x="13.333333333333334" y="60" width="6.666666666666667" height="6.666666666666667" fill="#E5E5E5"/>
  <rect x="13.333333333333334" y="66.66666666666667" width="6.666666666666667" height="6.666666666666667" fill="#E5E5E5"/>
  <rect x="13.333333333333334" y="73.33333333333334" width="6.666666666666667" height="6.666666666666667" fill="#E5E5E5"/>
  <rect x="13.333333333333334" y="80" width="6.666666666666667" height="6.666666666666667" fill="#E5E5E5"/>
  <rect x="13.333333333333334" y="86.66666666666667" width="6.666666666666667" height="6.666666666666667" fill="#E5E5E5"/>
  <rect x="13.333333333333334" y="93.33333333333334" width="6.666666666666667" height="6.666666666666667" fill="#E5E5E5"/>
  <rect x="13.333333333333334" y="100" width="6.666666666666667" height="6.666666666666667" fill="#E5E5E5"/>
  <rect x="20" y="0" width="6.666666666666667" height="6.666666666666667" fill="#E5E5E5"/>
  <rect x="20" y="6.666666666666667" width="6.666666666666667" height="6.666666666666667" fill="#E5E5E5"/>
  <rect x="20" y="13.333333333333334" width="6.666666666666667" height="6.666666666666667" fill="#E5E5E5"/>
  <rect x="20" y="20" width="6.666666666666667" height="6.666666666666667" fill="#E5E5E5"/>
  <rect x="20" y="26.666666666666668" width="6.666666666666667" height="6.666666666666667" fill="#E5E5E5"/>
  <rect x="20" y="33.333333333333336" width="6.666666666666667" height="6.666666666666667" fill="#E5E5E5"/>
  <rect x="20" y="40" width="6.666666666666667" height="6.666666666666667" fill="#E5E5E5"/>
  <rect x="20" y="46.66666666666667" width="6.666666666666667" height="6.666666666666667" fill="#E5E5E5"/>
  <rect x="20" y="53.333333333333336" width="6.666666666666667" height="6.666666666666667" fill="#E5E5E5"/>
  <rect x="20" y="60" width="6.666666666666667" height="6.666666666666667" fill="#E5E5E5"/>
  <rect x="20" y="66.66666666666667" width="6.666666666666667" height="6.666666666666667" fill="#E5E5E5"/>
  <rect x="20" y="73.33333333333334" width="6.666666666666667" height="6.666666666666667" fill="#E5E5E5"/>
  <rect x="20" y="80" width="6.666666666666667" height="6.666666666666667" fill="#E5E5E5"/>
  <rect x="20" y="86.66666666666667" width="6.666666666666667" height="6.666666666666667" fill="#E5E5E5"/>
  <rect x="20" y="93.33333333333334" width="6.666666666666667" height="6.666666666666667" fill="#E5E5E5"/>
  <rect x="20" y="100" width="6.666666666666667" height="6.666666666666667" fill="#E5E5E5"/>
  <rect x="26.666666666666668" y="0" width="6.666666666666667" height="6.666666666666667" fill="#E5E5E5"/>
  <rect x="26.666666666666668" y="6.666666666666667" width="6.666666666666667" height="6.666666666666667" fill="#E5E5E5"/>
  <rect x="26.666666666666668" y="13.333333333333334" width="6.666666666666667" height="6.666666666666667" fill="#E5E5E5"/>
  <rect x="26.666666666666668" y="20" width="6.666666666666667" height="6.666666666666667" fill="#E5E5E5"/>
  <rect x="26.666666666666668" y="26.666666666666668" width="6.666666666666667" height="6.666666666666667" fill="#E5E5E5"/>
  <rect x="26.666666666666668" y="33.333333333333336" width="6.666666666666667" height="6.666666666666667" fill="#E5E5E5"/>
  <rect x="26.666666666666668" y="40" width="6.666666666666667" height="6.666666666666667" fill="#E5E5E5"/>
  <rect x="26.666666666666668" y="46.66666666666667" width="6.666666666666667" height="6.666666666666667" fill="#E5E5E5"/>
  <rect x="26.666666666666668" y="53.333333333333336" width="6.666666666666667" height="6.666666666666667" fill="#E5E5E5"/>
  <rect x="26.666666666666668" y="60" width="6.666666666666667" height="6.666666666666667" fill="#E5E5E5"/>
  <rect x="26.666666666666668" y="66.66666666666667" width="6.666666666666667" height="6.666666666666667" fill="#E5E5E5"/>
  <rect x="26.666666666666668" y="73.33333333333334" width="6.666666666666667" height="6.666666666666667" fill="#E5E5E5"/>
  <rect x="26.666666666666668" y="80" width="6.666666666666667" height="6.666666666666667" fill="#E5E5E5"/>
  <rect x="26.666666666666668" y="86.66666666666667" width="6.666666666666667" height="6.666666666666667" fill="#E5E5E5"/>
  <rect x="26.666666666666668" y="93.33333333333334" width="6.666666666666667" height="6.666666666666667" fill="#E5E5E5"/>
  <rect x="26.666666666666668" y="100" width="6.666666666666667" height="6.666666666666667" fill="#E5E5E5"/>
  <rect x="33.333333333333336" y="0" width="6.666666666666667" height="6.666666666666667" fill="#E5E5E5"/>
  <rect x="33.333333333333336" y="6.666666666666667" width="6.666666666666667" height="6.666666666666667" fill="#E5E5E5"/>
  <rect x="33.333333333333336" y="13.333333333333334" width="6.666666666666667" height="6.666666666666667" fill="#E5E5E5"/>
  <rect x="33.333333333333336" y="20" width="6.666666666666667" height="6.666666666666667" fill="#E5E5E5"/>
  <rect x="33.333333333333336" y="26.666666666666668" width="6.666666666666667" height="6.666666666666667" fill="#E5E5E5"/>
  <rect x="33.333333333333336" y="33.333333333333336" width="6.666666666666667" height="6.666666666666667" fill="#E5E5E5"/>
  <rect x="33.333333333333336" y="40" width="6.666666666666667" height="6.666666666666667" fill="#E5E5E5"/>
  <rect x="33.333333333333336" y="46.66666666666667" width="6.666666666666667" height="6.666666666666667" fill="#E5E5E5"/>
  <rect x="33.333333333333336" y="53.333333333333336" width="6.666666666666667" height="6.666666666666667" fill="#E5E5E5"/>
  <rect x="33.333333333333336" y="60" width="6.666666666666667" height="6.666666666666667" fill="#E5E5E5"/>
  <rect x="33.333333333333336" y="66.66666666666667" width="6.666666666666667" height="6.666666666666667" fill="#E5E5E5"/>
  <rect x="33.333333333333336" y="73.33333333333334" width="6.666666666666667" height="6.666666666666667" fill="#E5E5E5"/>
  <rect x="33.333333333333336" y="80" width="6.666666666666667" height="6.666666666666667" fill="#E5E5E5"/>
  <rect x="33.333333333333336" y="86.66666666666667" width="6.666666666666667" height="6.666666666666667" fill="#E5E5E5"/>
  <rect x="33.333333333333336" y="93.33333333333334" width="6.666666666666667" height="6.666666666666667" fill="#E5E5E5"/>
  <rect x="33.333333333333336" y="100" width="6.666666666666667" height="6.666666666666667" fill="#E5E5E5"/>
  <rect x="40" y="0" width="6.666666666666667" height="6.666666666666667" fill="#E5E5E5"/>
  <rect x="40" y="6.666666666666667" width="6.666666666666667" height="6.666666666666667" fill="#E5E5E5"/>
  <rect x="40" y="13.333333333333334" width="6.666666666666667" height="6.666666666666667" fill="#E5E5E5"/>
  <rect x="40" y="20" width="6.666666666666667" height="6.666666666666667" fill="#E5E5E5"/>
  <rect x="40" y="26.666666666666668" width="6.666666666666667" height="6.666666666666667" fill="#E5E5E5"/>
  <rect x="40" y="33.333333333333336" width="6.666666666666667" height="6.666666666666667" fill="#E5E5E5"/>
  <rect x="40" y="40" width="6.666666666666667" height="6.666666666666667" fill="#E5E5E5"/>
  <rect x="40" y="46.66666666666667" width="6.666666666666667" height="6.666666666666667" fill="#E5E5E5"/>
  <rect x="40" y="53.333333333333336" width="6.666666666666667" height="6.666666666666667" fill="#E5E5E5"/>
  <rect x="40" y="60" width="6.666666666666667" height="6.666666666666667" fill="#E5E5E5"/>
  <rect x="40" y="66.66666666666667" width="6.666666666666667" height="6.666666666666667" fill="#E5E5E5"/>
  <rect x="40" y="73.33333333333334" width="6.666666666666667" height="6.666666666666667" fill="#E5E5E5"/>
  <rect x="40" y="80" width="6.666666666666667" height="6.666666666666667" fill="#E5E5E5"/>
  <rect x="40" y="86.66666666666667" width="6.666666666666667" height="6.666666666666667" fill="#E5E5E5"/>
  <rect x="40" y="93.33333333333334" width="6.666666666666667" height="6.666666666666667" fill="#E5E5E5"/>
  <rect x="40" y="100" width="6.666666666666667" height="6.666666666666667" fill="#E5E5E5"/>
  <rect x="46.66666666666667" y="0" width="6.666666666666667" height="6.666666666666667" fill="#E5E5E5"/>
  <rect x="46.66666666666667" y="6.666666666666667" width="6.666666666666667" height="6.666666666666667" fill="#E5E5E5"/>
  <rect x="46.66666666666667" y="13.333333333333334" width="6.666666666666667" height="6.666666666666667" fill="#E5E5E5"/>
  <rect x="46.66666666666667" y="20" width="6.666666666666667" height="6.666666666666667" fill="#E5E5E5"/>
  <rect x="46.66666666666667" y="26.666666666666668" width="6.666666666666667" height="6.666666666666667" fill="#E5E5E5"/>
  <rect x="46.66666666666667" y="33.333333333333336" width="6.666666666666667" height="6.666666666666667" fill="#E5E5E5"/>
  <rect x="46.66666666666667" y="40" width="6.666666666666667" height="6.666666666666667" fill="#E5E5E5"/>
  <rect x="46.66666666666667" y="46.66666666666667" width="6.666666666666667" height="6.666666666666667" fill="#E5E5E5"/>
  <rect x="46.66666666666667" y="53.333333333333336" width="6.666666666666667" height="6.666666666666667" fill="#E5E5E5"/>
  <rect x="46.66666666666667" y="60" width="6.666666666666667" height="6.666666666666667" fill="#E5E5E5"/>
  <rect x="46.66666666666667" y="66.66666666666667" width="6.666666666666667" height="6.666666666666667" fill="#E5E5E5"/>
  <rect x="46.66666666666667" y="73.33333333333334" width="6.666666666666667" height="6.666666666666667" fill="#E5E5E5"/>
  <rect x="46.66666666666667" y="80" width="6.666666666666667" height="6.666666666666667" fill="#E5E5E5"/>
  <rect x="46.66666666666667" y="86.66666666666667" width="6.666666666666667" height="6.666666666666667" fill="#E5E5E5"/>
  <rect x="46.66666666666667" y="93.33333333333334" width="6.666666666666667" height="6.666666666666667" fill="#E5E5E5"/>
  <rect x="46.66666666666667" y="100" width="6.666666666666667" height="6.666666666666667" fill="#E5E5E5"/>
  <rect x="53.333333333333336" y="0" width="6.666666666666667" height="6.666666666666667" fill="#E5E5E5"/>
  <rect x="53.333333333333336" y="6.666666666666667" width="6.666666666666667" height="6.666666666666667" fill="#E5E5E5"/>
  <rect x="53.333333333333336" y="13.333333333333334" width="6.666666666666667" height="6.666666666666667" fill="#E5E5E5"/>
  <rect x="53.333333333333336" y="20" width="6.666666666666667" height="6.666666666666667" fill="#E5E5E5"/>
  <rect x="53.333333333333336" y="26.666666666666668" width="6.666666666666667" height="6.666666666666667" fill="#E5E5E5"/>
  <rect x="53.333333333333336" y="33.333333333333336" width="6.666666666666667" height="6.666666666666667" fill="#E5E5E5"/>
  <rect x="53.333333333333336" y="40" width="6.666666666666667" height="6.666666666666667" fill="#E5E5E5"/>
  <rect x="53.333333333333336" y="46.66666666666667" width="6.666666666666667" height="6.666666666666667" fill="#E5E5E5"/>
  <rect x="53.333333333333336" y="53.333333333333336" width="6.666666666666667" height="6.666666666666667" fill="#E5E5E5"/>
  <rect x="53.333333333333336" y="60" width="6.666666666666667" height="6.666666666666667" fill="#E5E5E5"/>
  <rect x="53.333333333333336" y="66.66666666666667" width="6.666666666666667" height="6.666666666666667" fill="#E5E5E5"/>
  <rect x="53.333333333333336" y="73.33333333333334" width="6.666666666666667" height="6.666666666666667" fill="#E5E5E5"/>
  <rect x="53.333333333333336" y="80" width="6.666666666666667" height="6.666666666666667" fill="#E5E5E5"/>
  <rect x="53.333333333333336" y="86.66666666666667" width="6.666666666666667" height="6.666666666666667" fill="#E5E5E5"/>
  <rect x="53.333333333333336" y="93.33333333333334" width="6.666666666666667" height="6.666666666666667" fill="#E5E5E5"/>
  <rect x="53.333333333333336" y="100" width="6.666666666666667" height="6.666666666666667" fill="#E5E5E5"/>
  <rect x="60" y="0" width="6.666666666666667" height="6.666666666666667" fill="#E5E5E5"/>
  <rect x="60" y="6.666666666666667" width="6.666666666666667" height="6.666666666666667" fill="#E5E5E5"/>
  <rect x="60" y="13.333333333333334" width="6.666666666666667" height="6.666666666666667" fill="#E5E5E5"/>
  <rect x="60" y="20" width="6.666666666666667" height="6.666666666666667" fill="#E5E5E5"/>
  <rect x="60" y="26.666666666666668" width="6.666666666666667" height="6.666666666666667" fill="#E5E5E5"/>
  <rect x="60" y="33.333333333333336" width="6.666666666666667" height="6.666666666666667" fill="#E5E5E5"/>
  <rect x="60" y="40" width="6.666666666666667" height="6.666666666666667" fill="#E5E5E5"/>
  <rect x="60" y="46.66666666666667" width="6.666666666666667" height="6.666666666666667" fill="#E5E5E5"/>
  <rect x="60" y="53.333333333333336" width="6.666666666666667" height="6.666666666666667" fill="#E5E5E5"/>
  <rect x="60" y="60" width="6.666666666666667" height="6.666666666666667" fill="#E5E5E5"/>
  <rect x="60" y="66.66666666666667" width="6.666666666666667" height="6.666666666666667" fill="#E5E5E5"/>
  <rect x="60" y="73.33333333333334" width="6.666666666666667" height="6.666666666666667" fill="#E5E5E5"/>
  <rect x="60" y="80" width="6.666666666666667" height="6.666666666666667" fill="#E5E5E5"/>
  <rect x="60" y="86.66666666666667" width="6.666666666666667" height="6.666666666666667" fill="#E5E5E5"/>
  <rect x="60" y="93.33333333333334" width="6.666666666666667" height="6.666666666666667" fill="#E5E5E5"/>
  <rect x="60" y="100" width="6.666666666666667" height="6.666666666666667" fill="#E5E5E5"/>
  <rect x="66.66666666666667" y="0" width="6.666666666666667" height="6.666666666666667" fill="#E5E5E5"/>
  <rect x="66.66666666666667" y="6.666666666666667" width="6.666666666666667" height="6.666666666666667" fill="#E5E5E5"/>
  <rect x="66.66666666666667" y="13.333333333333334" width="6.666666666666667" height="6.666666666666667" fill="#E5E5E5"/>
  <rect x="66.66666666666667" y="20" width="6.666666666666667" height="6.666666666666667" fill="#E5E5E5"/>
  <rect x="66.66666666666667" y="26.666666666666668" width="6.666666666666667" height="6.666666666666667" fill="#E5E5E5"/>
  <rect x="66.66666666666667" y="33.333333333333336" width="6.666666666666667" height="6.666666666666667" fill="#E5E5E5"/>
  <rect x="66.66666666666667" y="40" width="6.666666666666667" height="6.666666666666667" fill="#E5E5E5"/>
  <rect x="66.66666666666667" y="46.66666666666667" width="6.666666666666667" height="6.666666666666667" fill="#E5E5E5"/>
  <rect x="66.66666666666667" y="53.333333333333336" width="6.666666666666667" height="6.666666666666667" fill="#E5E5E5"/>
  <rect x="66.66666666666667" y="60" width="6.666666666666667" height="6.666666666666667" fill="#E5E5E5"/>
  <rect x="66.66666666666667" y="66.66666666666667" width="6.666666666666667" height="6.666666666666667" fill="#E5E5E5"/>
  <rect x="66.66666666666667" y="73.33333333333334" width="6.666666666666667" height="6.666666666666667" fill="#E5E5E5"/>
  <rect x="66.66666666666667" y="80" width="6.666666666666667" height="6.666666666666667" fill="#E5E5E5"/>
  <rect x="66.66666666666667" y="86.66666666666667" width="6.666666666666667" height="6.666666666666667" fill="#E5E5E5"/>
  <rect x="66.66666666666667" y="93.33333333333334" width="6.666666666666667" height="6.666666666666667" fill="#E5E5E5"/>
  <rect x="66.66666666666667" y="100" width="6.666666666666667" height="6.666666666666667" fill="#E5E5E5"/>
  <rect x="73.33333333333334" y="0" width="6.666666666666667" height="6.666666666666667" fill="#E5E5E5"/>
  <rect x="73.33333333333334" y="6.666666666666667" width="6.666666666666667" height="6.666666666666667" fill="#E5E5E5"/>
  <rect x="73.33333333333334" y="13.333333333333334" width="6.666666666666667" height="6.666666666666667" fill="#E5E5E5"/>
  <rect x="73.33333333333334" y="20" width="6.666666666666667" height="6.666666666666667" fill="#E5E5E5"/>
  <rect x="73.33333333333334" y="26.666666666666668" width="6.666666666666667" height="6.666666666666667" fill="#E5E5E5"/>
  <rect x="73.33333333333334" y="33.333333333333336" width="6.666666666666667" height="6.666666666666667" fill="#E5E5E5"/>
  <rect x="73.33333333333334" y="40" width="6.666666666666667" height="6.666666666666667" fill="#E5E5E5"/>
  <rect x="73.33333333333334" y="46.66666666666667" width="6.666666666666667" height="6.666666666666667" fill="#E5E5E5"/>
  <rect x="73.33333333333334" y="53.333333333333336" width="6.666666666666667" height="6.666666666666667" fill="#E5E5E5"/>
  <rect x="73.33333333333334" y="60" width="6.666666666666667" height="6.666666666666667" fill="#E5E5E5"/>
  <rect x="73.33333333333334" y="66.66666666666667" width="6.666666666666667" height="6.666666666666667" fill="#E5E5E5"/>
  <rect x="73.33333333333334" y="73.33333333333334" width="6.666666666666667" height="6.666666666666667" fill="#E5E5E5"/>
  <rect x="73.33333333333334" y="80" width="6.666666666666667" height="6.666666666666667" fill="#E5E5E5"/>
  <rect x="73.33333333333334" y="86.66666666666667" width="6.666666666666667" height="6.666666666666667" fill="#E5E5E5"/>
  <rect x="73.33333333333334" y="93.33333333333334" width="6.666666666666667" height="6.666666666666667" fill="#E5E5E5"/>
  <rect x="73.33333333333334" y="100" width="6.666666666666667" height="6.666666666666667" fill="#E5E5E5"/>
  <rect x="80" y="0" width="6.666666666666667" height="6.666666666666667" fill="#E5E5E5"/>
  <rect x="80" y="6.666666666666667" width="6.666666666666667" height="6.666666666666667" fill="#E5E5E5"/>
  <rect x="80" y="13.333333333333334" width="6.666666666666667" height="6.666666666666667" fill="#E5E5E5"/>
  <rect x="80" y="20" width="6.666666666666667" height="6.666666666666667" fill="#E5E5E5"/>
  <rect x="80" y="26.666666666666668" width="6.666666666666667" height="6.666666666666667" fill="#E5E5E5"/>
  <rect x="80" y="33.333333333333336" width="6.666666666666667" height="6.666666666666667" fill="#E5E5E5"/>
  <rect x="80" y="40" width="6.666666666666667" height="6.666666666666667" fill="#E5E5E5"/>
  <rect x="80" y="46.66666666666667" width="6.666666666666667" height="6.666666666666667" fill="#E5E5E5"/>
  <rect x="80" y="53.333333333333336" width="6.666666666666667" height="6.666666666666667" fill="#E5E5E5"/>
  <rect x="80" y="60" width="6.666666666666667" height="6.666666666666667" fill="#E5E5E5"/>
  <rect x="80" y="66.66666666666667" width="6.666666666666667" height="6.666666666666667" fill="#E5E5E5"/>
  <rect x="80" y="73.33333333333334" width="6.666666666666667" height="6.666666666666667" fill="#E5E5E5"/>
  <rect x="80" y="80" width="6.666666666666667" height="6.666666666666667" fill="#E5E5E5"/>
  <rect x="80" y="86.66666666666667" width="6.666666666666667" height="6.666666666666667" fill="#E5E5E5"/>
  <rect x="80" y="93.33333333333334" width="6.666666666666667" height="6.666666666666667" fill="#E5E5E5"/>
  <rect x="80" y="100" width="6.666666666666667" height="6.666666666666667" fill="#E5E5E5"/>
  <rect x="86.66666666666667" y="0" width="6.666666666666667" height="6.666666666666667" fill="#E5E5E5"/>
  <rect x="86.66666666666667" y="6.666666666666667" width="6.666666666666667" height="6.666666666666667" fill="#E5E5E5"/>
  <rect x="86.66666666666667" y="13.333333333333334" width="6.666666666666667" height="6.666666666666667" fill="#E5E5E5"/>
  <rect x="86.66666666666667" y="20" width="6.666666666666667" height="6.666666666666667" fill="#E5E5E5"/>
  <rect x="86.66666666666667" y="26.666666666666668" width="6.666666666666667" height="6.666666666666667" fill="#E5E5E5"/>
  <rect x="86.66666666666667" y="33.333333333333336" width="6.666666666666667" height="6.666666666666667" fill="#E5E5E5"/>
  <rect x="86.66666666666667" y="40" width="6.666666666666667" height="6.666666666666667" fill="#E5E5E5"/>
  <rect x="86.66666666666667" y="46.66666666666667" width="6.666666666666667" height="6.666666666666667" fill="#E5E5E5"/>
  <rect x="86.66666666666667" y="53.333333333333336" width="6.666666666666667" height="6.666666666666667" fill="#E5E5E5"/>
  <rect x="86.66666666666667" y="60" width="6.666666666666667" height="6.666666666666667" fill="#E5E5E5"/>
  <rect x="86.66666666666667" y="66.66666666666667" width="6.666666666666667" height="6.666666666666667" fill="#E5E5E5"/>
  <rect x="86.66666666666667" y="73.33333333333334" width="6.666666666666667" height="6.666666666666667" fill="#E5E5E5"/>
  <rect x="86.66666666666667" y="80" width="6.666666666666667" height="6.666666666666667" fill="#E5E5E5"/>
  <rect x="86.66666666666667" y="86.66666666666667" width="6.666666666666667" height="6.666666666666667" fill="#E5E5E5"/>
  <rect x="86.66666666666667" y="93.33333333333334" width="6.666666666666667" height="6.666666666666667" fill="#E5E5E5"/>
  <rect x="86.66666666666667" y="100" width="6.666666666666667" height="6.666666666666667" fill="#E5E5E5"/>
  <rect x="93.33333333333334" y="0" width="6.666666666666667" height="6.666666666666667" fill="#E5E5E5"/>
  <rect x="93.33333333333334" y="6.666666666666667" width="6.666666666666667" height="6.666666666666667" fill="#E5E5E5"/>
  <rect x="93.33333333333334" y="13.333333333333334" width="6.666666666666667" height="6.666666666666667" fill="#E5E5E5"/>
  <rect x="93.33333333333334" y="20" width="6.666666666666667" height="6.666666666666667" fill="#E5E5E5"/>
  <rect x="93.33333333333334" y="26.666666666666668" width="6.666666666666667" height="6.666666666666667" fill="#E5E5E5"/>
  <rect x="93.33333333333334" y="33.333333333333336" width="6.666666666666667" height="6.666666666666667" fill="#E5E5E5"/>
  <rect x="93.33333333333334" y="40" width="6.666666666666667" height="6.666666666666667" fill="#E5E5E5"/>
  <rect x="93.33333333333334" y="46.66666666666667" width="6.666666666666667" height="6.666666666666667" fill="#E5E5E5"/>
  <rect x="93.33333333333334" y="53.333333333333336" width="6.666666666666667" height="6.666666666666667" fill="#E5E5E5"/>
  <rect x="93.33333333333334" y="60" width="6.666666666666667" height="6.666666666666667" fill="#E5E5E5"/>
  <rect x="93.33333333333334" y="66.66666666666667" width="6.666666666666667" height="6.666666666666667" fill="#E5E5E5"/>
  <rect x="93.33333333333334" y="73.33333333333334" width="6.666666666666667" height="6.666666666666667" fill="#E5E5E5"/>
  <rect x="93.33333333333334" y="80" width="6.666666666666667" height="6.666666666666667" fill="#E5E5E5"/>
  <rect x="93.33333333333334" y="86.66666666666667" width="6.666666666666667" height="6.666666666666667" fill="#E5E5E5"/>
  <rect x="93.33333333333334" y="93.33333333333334" width="6.666666666666667" height="6.666666666666667" fill="#E5E5E5"/>
  <rect x="93.33333333333334" y="100" width="6.666666666666667" height="6.666666666666667" fill="#E5E5E5"/>
  <rect x="100" y="0" width="6.666666666666667" height="6.666666666666667" fill="#E5E5E5"/>
  <rect x="100" y="6.666666666666667" width="6.666666666666667" height="6.666666666666667" fill="#E5E5E5"/>
  <rect x="100" y="13.333333333333334" width="6.666666666666667" height="6.666666666666667" fill="#E5E5E5"/>
  <rect x="100" y="20" width="6.666666666666667" height="6.666666666666667" fill="#E5E5E5"/>
  <rect x="100" y="26.666666666666668" width="6.666666666666667" height="6.666666666666667" fill="#E5E5E5"/>
  <rect x="100" y="33.333333333333336" width="6.666666666666667" height="6.666666666666667" fill="#E5E5E5"/>
  <rect x="100" y="40" width="6.666666666666667" height="6.666666666666667" fill="#E5E5E5"/>
  <rect x="100" y="46.66666666666667" width="6.666666666666667" height="6.666666666666667" fill="#E5E5E5"/>
  <rect x="100" y="53.333333333333336" width="6.666666666666667" height="6.666666666666667" fill="#E5E5E5"/>
  <rect x="100" y="60" width="6.666666666666667" height="6.666666666666667" fill="#E5E5E5"/>
  <rect x="100" y="66.66666666666667" width="6.666666666666667" height="6.666666666666667" fill="#E5E5E5"/>
  <rect x="100" y="73.33333333333334" width="6.666666666666667" height="6.666666666666667" fill="#E5E5E5"/>
  <rect x="100" y="80" width="6.666666666666667" height="6.666666666666667" fill="#E5E5E5"/>
  <rect x="100" y="86.66666666666667" width="6.666666666666667" height="6.666666666666667" fill="#E5E5E5"/>
  <rect x="100" y="93.33333333333334" width="6.666666666666667" height="6.666666666666667" fill="#E5E5E5"/>
  <rect x="100" y="100" width="6.666666666666667" height="6.666666666666667" fill="#E5E5E5"/>
  <rect x="106.66666666666667" y="0" width="6.666666666666667" height="6.666666666666667" fill="#E5E5E5"/>
  <rect x="106.66666666666667" y="6.666666666666667" width="6.666666666666667" height="6.666666666666667" fill="#E5E5E5"/>
  <rect x="106.66666666666667" y="13.333333333333334" width="6.666666666666667" height="6.666666666666667" fill="#E5E5E5"/>
  <rect x="106.66666666666667" y="20" width="6.666666666666667" height="6.666666666666667" fill="#E5E5E5"/>
  <rect x="106.66666666666667" y="26.666666666666668" width="6.666666666666667" height="6.666666666666667" fill="#E5E5E5"/>
  <rect x="106.66666666666667" y="33.333333333333336" width="6.666666666666667" height="6.666666666666667" fill="#E5E5E5"/>
  <rect x="106.66666666666667" y="40" width="6.666666666666667" height="6.666666666666667" fill="#E5E5E5"/>
  <rect x="106.66666666666667" y="46.66666666666667" width="6.666666666666667" height="6.666666666666667" fill="#E5E5E5"/>
  <rect x="106.66666666666667" y="53.333333333333336" width="6.666666666666667" height="6.666666666666667" fill="#E5E5E5"/>
  <rect x="106.66666666666667" y="60" width="6.666666666666667" height="6.666666666666667" fill="#E5E5E5"/>
  <rect x="106.66666666666667" y="66.66666666666667" width="6.666666666666667" height="6.666666666666667" fill="#E5E5E5"/>
  <rect x="106.66666666666667" y="73.33333333333334" width="6.666666666666667" height="6.666666666666667" fill="#E5E5E5"/>
  <rect x="106.66666666666667" y="80" width="6.666666666666667" height="6.666666666666667" fill="#E5E5E5"/>
  <rect x="106.66666666666667" y="86.66666666666667" width="6.666666666666667" height="6.666666666666667" fill="#E5E5E5"/>
  <rect x="106.66666666666667" y="93.33333333333334" width="6.666666666666667" height="6.666666666666667" fill="#E5E5E5"/>
  <rect x="106.66666666666667" y="100" width="6.666666666666667" height="6.666666666666667" fill="#E5E5E5"/>
  <rect x="113.33333333333334" y="0" width="6.666666666666667" height="6.666666666666667" fill="#E5E5E5"/>
  <rect x="113.33333333333334" y="6.666666666666667" width="6.666666666666667" height="6.666666666666667" fill="#E5E5E5"/>
  <rect x="113.33333333333334" y="13.333333333333334" width="6.666666666666667" height="6.666666666666667" fill="#E5E5E5"/>
  <rect x="113.33333333333334" y="20" width="6.666666666666667" height="6.666666666666667" fill="#E5E5E5"/>
  <rect x="113.33333333333334" y="26.666666666666668" width="6.666666666666667" height="6.666666666666667" fill="#E5E5E5"/>
  <rect x="113.33333333333334" y="33.333333333333336" width="6.666666666666667" height="6.666666666666667" fill="#E5E5E5"/>
  <rect x="113.33333333333334" y="40" width="6.666666666666667" height="6.666666666666667" fill="#E5E5E5"/>
  <rect x="113.33333333333334" y="46.66666666666667" width="6.666666666666667" height="6.666666666666667" fill="#E5E5E5"/>
  <rect x="113.33333333333334" y="53.333333333333336" width="6.666666666666667" height="6.666666666666667" fill="#E5E5E5"/>
  <rect x="113.33333333333334" y="60" width="6.666666666666667" height="6.666666666666667" fill="#E5E5E5"/>
  <rect x="113.33333333333334" y="66.66666666666667" width="6.666666666666667" height="6.666666666666667" fill="#E5E5E5"/>
  <rect x="113.33333333333334" y="73.33333333333334" width="6.666666666666667" height="6.666666666666667" fill="#F27272"/>
  <rect x="113.33333333333334" y="80" width="6.666666666666667" height="6.666666666666667" fill="#F27272"/>
  <rect x="113.33333333333334" y="86.66666666666667" width="6.666666666666667" height="6.666666666666667" fill="#F27272"/>
  <rect x="113.33333333333334" y="93.33333333333334" width="6.666666666666667" height="6.666666666666667" fill="#E5E5E5"/>
  <rect x="113.33333333333334" y="100" width="6.666666666666667" height="6.666666666666667" fill="#E5E5E5"/>
  <rect x="120" y="0" width="6.666666666666667" height="6.666666666666667" fill="#E5E5E5"/>
  <rect x="120" y="6.666666666666667" width="6.666666666666667" height="6.666666666666667" fill="#E5E5E5"/>
  <rect x="120" y="13.333333333333334" width="6.666666666666667" height="6.666666666666667" fill="#E5E5E5"/>
  <rect x="120" y="20" width="6.666666666666667" height="6.666666666666667" fill="#E5E5E5"/>
  <rect x="120" y="26.666666666666668" width="6.666666666666667" height="6.666666666666667" fill="#E5E5E5"/>
  <rect x="120" y="33.333333333333336" width="6.666666666666667" height="6.666666666666667" fill="#E5E5E5"/>
  <rect x="120" y="40" width="6.666666666666667" height="6.666666666666667" fill="#E5E5E5"/>
  <rect x="120" y="46.66666666666667" width="6.666666666666667" height="6.666666666666667" fill="#E5E5E5"/>
  <rect x="120" y="53.333333333333336" width="6.666666666666667" height="6.666666666666667" fill="#E5E5E5"/>
  <rect x="120" y="60" width="6.666666666666667" height="6.666666666666667" fill="#E5E5E5"/>
  <rect x="120" y="66.66666666666667" width="6.666666666666667" height="6.666666666666667" fill="#E5E5E5"/>
  <rect x="120" y="73.33333333333334" width="6.666666666666667" height="6.666666666666667" fill="#F27272"/>
  <rect x="120" y="80" width="6.666666666666667" height="6.666666666666667" fill="#F27272"/>
  <rect x="120" y="86.66666666666667" width="6.666666666666667" height="6.666666666666667" fill="#F27272"/>
  <rect x="120" y="93.33333333333334" width="6.666666666666667" height="6.666666666666667" fill="#E5E5E5"/>
  <rect x="120" y="100" width="6.666666666666667" height="6.666666666666667" fill="#F27272"/>
  <rect x="126.66666666666667" y="0" width="6.666666666666667" height="6.666666666666667" fill="#E5E5E5"/>
  <rect x="126.66666666666667" y="6.666666666666667" width="6.666666666666667" height="6.666666666666667" fill="#E5E5E5"/>
  <rect x="126.66666666666667" y="13.333333333333334" width="6.666666666666667" height="6.666666666666667" fill="#E5E5E5"/>
  <rect x="126.66666666666667" y="20" width="6.666666666666667" height="6.666666666666667" fill="#E5E5E5"/>
  <rect x="126.66666666666667" y="26.666666666666668" width="6.666666666666667" height="6.666666666666667" fill="#E5E5E5"/>
  <rect x="126.66666666666667" y="33.333333333333336" width="6.666666666666667" height="6.666666666666667" fill="#E5E5E5"/>
  <rect x="126.66666666666667" y="40" width="6.666666666666667" height="6.666666666666667" fill="#E5E5E5"/>
  <rect x="126.66666666666667" y="46.66666666666667" width="6.666666666666667" height="6.666666666666667" fill="#E5E5E5"/>
  <rect x="126.66666666666667" y="53.333333333333336" width="6.666666666666667" height="6.666666666666667" fill="#E5E5E5"/>
  <rect x="126.66666666666667" y="60" width="6.666666666666667" height="6.666666666666667" fill="#E5E5E5"/>
  <rect x="126.66666666666667" y="66.66666666666667" width="6.666666666666667" height="6.666666666666667" fill="#F27272"/>
  <rect x="126.66666666666667" y="73.33333333333334" width="6.666666666666667" height="6.666666666666667" fill="#F27272"/>
  <rect x="126.66666666666667" y="80" width="6.666666666666667" height="6.666666666666667" fill="#F27272"/>
  <rect x="126.66666666666667" y="86.66666666666667" width="6.666666666666667" height="6.666666666666667" fill="#F83939"/>
  <rect x="126.66666666666667" y="93.33333333333334" width="6.666666666666667" height="6.666666666666667" fill="#F83939"/>
  <rect x="126.66666666666667" y="100" width="6.666666666666667" height="6.666666666666667" fill="#F27272"/>
  <rect x="126.66666666666667" y="106.66666666666667" width="6.666666666666667" height="6.666666666666667" fill="#FF0000"/>
  <rect x="126.66666666666667" y="113.33333333333334" width="6.666666666666667" height="6.666666666666667" fill="#FF0000"/>
  <rect x="133.33333333333334" y="0" width="6.666666666666667" height="6.666666666666667" fill="#E5E5E5"/>
  <rect x="133.33333333333334" y="6.666666666666667" width="6.666666666666667" height="6.666666666666667" fill="#E5E5E5"/>
  <rect x="133.33333333333334" y="13.333333333333334" width="6.666666666666667" height="6.666666666666667" fill="#E5E5E5"/>
  <rect x="133.33333333333334" y="20" width="6.666666666666667" height="6.666666666666667" fill="#E5E5E5"/>
  <rect x="133.33333333333334" y="26.666666666666668" width="6.666666666666667" height="6.666666666666667" fill="#E5E5E5"/>
  <rect x="133.33333333333334" y="33.333333333333336" width="6.666666666666667" height="6.666666666666667" fill="#E5E5E5"/>
  <rect x="133.33333333333334" y="40" width="6.666666666666667" height="6.666666666666667" fill="#E5E5E5"/>
  <rect x="133.33333333333334" y="46.66666666666667" width="6.666666666666667" height="6.666666666666667" fill="#E5E5E5"/>
  <rect x="133.33333333333334" y="53.333333333333336" width="6.666666666666667" height="6.666666666666667" fill="#E5E5E5"/>
  <rect x="133.33333333333334" y="60" width="6.666666666666667" height="6.666666666666667" fill="#E5E5E5"/>
  <rect x="133.33333333333334" y="66.66666666666667" width="6.666666666666667" height="6.666666666666667" fill="#F27272"/>
  <rect x="133.33333333333334" y="73.33333333333334" width="6.666666666666667" height="6.666666666666667" fill="#F27272"/>
  <rect x="133.33333333333334" y="80" width="6.666666666666667" height="6.666666666666667" fill="#F27272"/>
  <rect x="133.33333333333334" y="86.66666666666667" width="6.666666666666667" height="6.666666666666667" fill="#F83939"/>
  <rect x="133.33333333333334" y="93.33333333333334" width="6.666666666666667" height="6.666666666666667" fill="#F83939"/>
  <rect x="133.33333333333334" y="100" width="6.666666666666667" height="6.666666666666667" fill="#F27272"/>
  <rect x="133.33333333333334" y="106.66666666666667" width="6.666666666666667" height="6.666666666666667" fill="#FF0000"/>
  <rect x="133.33333333333334" y="113.33333333333334" width="6.666666666666667" height="6.666666666666667" fill="#FF0000"/>
  <rect x="140" y="0" width="6.666666666666667" height="6.666666666666667" fill="#E5E5E5"/>
  <rect x="140" y="6.666666666666667" width="6.666666666666667" height="6.666666666666667" fill="#E5E5E5"/>
  <rect x="140" y="13.333333333333334" width="6.666666666666667" height="6.666666666666667" fill="#E5E5E5"/>
  <rect x="140" y="20" width="6.666666666666667" height="6.666666666666667" fill="#E5E5E5"/>
  <rect x="140" y="26.666666666666668" width="6.666666666666667" height="6.666666666666667" fill="#E5E5E5"/>
  <rect x="140" y="33.333333333333336" width="6.666666666666667" height="6.666666666666667" fill="#E5E5E5"/>
  <rect x="140" y="40" width="6.666666666666667" height="6.666666666666667" fill="#E5E5E5"/>
  <rect x="140" y="46.66666666666667" width="6.666666666666667" height="6.666666666666667" fill="#E5E5E5"/>
  <rect x="140" y="53.333333333333336" width="6.666666666666667" height="6.666666666666667" fill="#E5E5E5"/>
  <rect x="140" y="60" width="6.666666666666667" height="6.666666666666667" fill="#E5E5E5"/>
  <rect x="140" y="66.66666666666667" width="6.666666666666667" height="6.666666666666667" fill="#F27272"/>
  <rect x="140" y="73.33333333333334" width="6.666666666666667" height="6.666666666666667" fill="#F27272"/>
  <rect x="140" y="80" width="6.666666666666667" height="6.666666666666667" fill="#F83939"/>
  <rect x="140" y="86.66666666666667" width="6.666666666666667" height="6.666666666666667" fill="#F83939"/>
  <rect x="140" y="93.33333333333334" width="6.666666666666667" height="6.666666666666667" fill="#F83939"/>
  <rect x="140" y="100" width="6.666666666666667" height="6.666666666666667" fill="#F27272"/>
  <rect x="140" y="106.66666666666667" width="6.666666666666667" height="6.666666666666667" fill="#FF0000"/>
  <rect x="140" y="113.33333333333334" width="6.666666666666667" height="6.666666666666667" fill="#FF0000"/>
  <rect x="140" y="120" width="6.666666666666667" height="6.666666666666667" fill="#FF0000"/>
  <rect x="146.66666666666669" y="0" width="6.666666666666667" height="6.666666666666667" fill="#E5E5E5"/>
  <rect x="146.66666666666669" y="6.666666666666667" width="6.666666666666667" height="6.666666666666667" fill="#E5E5E5"/>
  <rect x="146.66666666666669" y="13.333333333333334" width="6.666666666666667" height="6.666666666666667" fill="#E5E5E5"/>
  <rect x="146.66666666666669" y="20" width="6.666666666666667" height="6.666666666666667" fill="#E5E5E5"/>
  <rect x="146.66666666666669" y="26.666666666666668" width="6.666666666666667" height="6.666666666666667" fill="#E5E5E5"/>
  <rect x="146.66666666666669" y="33.333333333333336" width="6.666666666666667" height="6.666666666666667" fill="#E5E5E5"/>
  <rect x="146.66666666666669" y="40" width="6.666666666666667" height="6.666666666666667" fill="#E5E5E5"/>
  <rect x="146.66666666666669" y="46.66666666666667" width="6.666666666666667" height="6.666666666666667" fill="#E5E5E5"/>
  <rect x="146.66666666666669" y="53.333333333333336" width="6.666666666666667" height="6.666666666666667" fill="#E5E5E5"/>
  <rect x="146.66666666666669" y="60" width="6.666666666666667" height="6.666666666666667" fill="#E5E5E5"/>
  <rect x="146.66666666666669" y="66.66666666666667" width="6.666666666666667" height="6.666666666666667" fill="#F27272"/>
  <rect x="146.66666666666669" y="73.33333333333334" width="6.666666666666667" height="6.666666666666667" fill="#F27272"/>
  <rect x="146.66666666666669" y="80" width="6.666666666666667" height="6.666666666666667" fill="#F27272"/>
  <rect x="146.66666666666669" y="86.66666666666667" width="6.666666666666667" height="6.666666666666667" fill="#F83939"/>
  <rect x="146.66666666666669" y="93.33333333333334" width="6.666666666666667" height="6.666666666666667" fill="#F83939"/>
  <rect x="146.66666666666669" y="100" width="6.666666666666667" height="6.666666666666667" fill="#F27272"/>
  <rect x="146.66666666666669" y="106.66666666666667" width="6.666666666666667" height="6.666666666666667" fill="#FF0000"/>
  <rect x="146.66666666666669" y="113.33333333333334" width="6.666666666666667" height="6.666666666666667" fill="#FF0000"/>
  <rect x="153.33333333333334" y="0" width="6.666666666666667" height="6.666666666666667" fill="#E5E5E5"/>
  <rect x="153.33333333333334" y="6.666666666666667" width="6.666666666666667" height="6.666666666666667" fill="#E5E5E5"/>
  <rect x="153.33333333333334" y="13.333333333333334" width="6.666666666666667" height="6.666666666666667" fill="#E5E5E5"/>
  <rect x="153.33333333333334" y="20" width="6.666666666666667" height="6.666666666666667" fill="#E5E5E5"/>
  <rect x="153.33333333333334" y="26.666666666666668" width="6.666666666666667" height="6.666666666666667" fill="#E5E5E5"/>
  <rect x="153.33333333333334" y="33.333333333333336" width="6.666666666666667" height="6.666666666666667" fill="#E5E5E5"/>
  <rect x="153.33333333333334" y="40" width="6.666666666666667" height="6.666666666666667" fill="#E5E5E5"/>
  <rect x="153.33333333333334" y="46.66666666666667" width="6.666666666666667" height="6.666666666666667" fill="#E5E5E5"/>
  <rect x="153.33333333333334" y="53.333333333333336" width="6.666666666666667" height="6.666666666666667" fill="#E5E5E5"/>
  <rect x="153.33333333333334" y="60" width="6.666666666666667" height="6.666666666666667" fill="#E5E5E5"/>
  <rect x="153.33333333333334" y="66.66666666666667" width="6.666666666666667" height="6.666666666666667" fill="#F27272"/>
  <rect x="153.33333333333334" y="73.33333333333334" width="6.666666666666667" height="6.666666666666667" fill="#F27272"/>
  <rect x="153.33333333333334" y="80" width="6.666666666666667" height="6.666666666666667" fill="#F27272"/>
  <rect x="153.33333333333334" y="86.66666666666667" width="6.666666666666667" height="6.666666666666667" fill="#F83939"/>
  <rect x="153.33333333333334" y="93.33333333333334" width="6.666666666666667" height="6.666666666666667" fill="#F83939"/>
  <rect x="153.33333333333334" y="100" width="6.666666666666667" height="6.666666666666667" fill="#F27272"/>
  <rect x="153.33333333333334" y="106.66666666666667" width="6.666666666666667" height="6.666666666666667" fill="#FF0000"/>
  <rect x="153.33333333333334" y="113.33333333333334" width="6.666666666666667" height="6.666666666666667" fill="#FF0000"/>
  <rect x="160" y="0" width="6.666666666666667" height="6.666666666666667" fill="#E5E5E5"/>
  <rect x="160" y="6.666666666666667" width="6.666666666666667" height="6.666666666666667" fill="#E5E5E5"/>
  <rect x="160" y="13.333333333333334" width="6.666666666666667" height="6.666666666666667" fill="#E5E5E5"/>
  <rect x="160" y="20" width="6.666666666666667" height="6.666666666666667" fill="#E5E5E5"/>
  <rect x="160" y="26.666666666666668" width="6.666666666666667" height="6.666666666666667" fill="#E5E5E5"/>
  <rect x="160" y="33.333333333333336" width="6.666666666666667" height="6.666666666666667" fill="#E5E5E5"/>
  <rect x="160" y="40" width="6.666666666666667" height="6.666666666666667" fill="#E5E5E5"/>
  <rect x="160" y="46.66666666666667" width="6.666666666666667" height="6.666666666666667" fill="#E5E5E5"/>
  <rect x="160" y="53.333333333333336" width="6.666666666666667" height="6.666666666666667" fill="#E5E5E5"/>
  <rect x="160" y="60" width="6.666666666666667" height="6.666666666666667" fill="#E5E5E5"/>
  <rect x="160" y="66.66666666666667" width="6.666666666666667" height="6.666666666666667" fill="#E5E5E5"/>
  <rect x="160" y="73.33333333333334" width="6.666666666666667" height="6.666666666666667" fill="#F27272"/>
  <rect x="160" y="80" width="6.666666666666667" height="6.666666666666667" fill="#F27272"/>
  <rect x="160" y="86.66666666666667" width="6.666666666666667" height="6.666666666666667" fill="#F27272"/>
  <rect x="160" y="93.33333333333334" width="6.666666666666667" height="6.666666666666667" fill="#E5E5E5"/>
  <rect x="160" y="100" width="6.666666666666667" height="6.666666666666667" fill="#F27272"/>
  <rect x="166.66666666666669" y="0" width="6.666666666666667" height="6.666666666666667" fill="#E5E5E5"/>
  <rect x="166.66666666666669" y="6.666666666666667" width="6.666666666666667" height="6.666666666666667" fill="#E5E5E5"/>
  <rect x="166.66666666666669" y="13.333333333333334" width="6.666666666666667" height="6.666666666666667" fill="#E5E5E5"/>
  <rect x="166.66666666666669" y="20" width="6.666666666666667" height="6.666666666666667" fill="#E5E5E5"/>
  <rect x="166.66666666666669" y="26.666666666666668" width="6.666666666666667" height="6.666666666666667" fill="#E5E5E5"/>
  <rect x="166.66666666666669" y="33.333333333333336" width="6.666666666666667" height="6.666666666666667" fill="#E5E5E5"/>
  <rect x="166.66666666666669" y="40" width="6.666666666666667" height="6.666666666666667" fill="#E5E5E5"/>
  <rect x="166.66666666666669" y="46.66666666666667" width="6.666666666666667" height="6.666666666666667" fill="#E5E5E5"/>
  <rect x="166.66666666666669" y="53.333333333333336" width="6.666666666666667" height="6.666666666666667" fill="#E5E5E5"/>
  <rect x="166.66666666666669" y="60" width="6.666666666666667" height="6.666666666666667" fill="#E5E5E5"/>
  <rect x="166.66666666666669" y="66.66666666666667" width="6.666666666666667" height="6.666666666666667" fill="#E5E5E5"/>
  <rect x="166.66666666666669" y="73.33333333333334" width="6.666666666666667" height="6.666666666666667" fill="#F27272"/>
  <rect x="166.66666666666669" y="80" width="6.666666666666667" height="6.666666666666667" fill="#F27272"/>
  <rect x="166.66666666666669" y="86.66666666666667" width="6.666666666666667" height="6.666666666666667" fill="#F27272"/>
  <rect x="166.66666666666669" y="93.33333333333334" width="6.666666666666667" height="6.666666666666667" fill="#E5E5E5"/>
  <rect x="166.66666666666669" y="100" width="6.666666666666667" height="6.666666666666667" fill="#E5E5E5"/>
  <rect x="173.33333333333334" y="0" width="6.666666666666667" height="6.666666666666667" fill="#E5E5E5"/>
  <rect x="173.33333333333334" y="6.666666666666667" width="6.666666666666667" height="6.666666666666667" fill="#E5E5E5"/>
  <rect x="173.33333333333334" y="13.333333333333334" width="6.666666666666667" height="6.666666666666667" fill="#E5E5E5"/>
  <rect x="173.33333333333334" y="20" width="6.666666666666667" height="6.666666666666667" fill="#E5E5E5"/>
  <rect x="173.33333333333334" y="26.666666666666668" width="6.666666666666667" height="6.666666666666667" fill="#E5E5E5"/>
  <rect x="173.33333333333334" y="33.333333333333336" width="6.666666666666667" height="6.666666666666667" fill="#E5E5E5"/>
  <rect x="173.33333333333334" y="40" width="6.666666666666667" height="6.666666666666667" fill="#E5E5E5"/>
  <rect x="173.33333333333334" y="46.66666666666667" width="6.666666666666667" height="6.666666666666667" fill="#E5E5E5"/>
  <rect x="173.33333333333334" y="53.333333333333336" width="6.666666666666667" height="6.666666666666667" fill="#E5E5E5"/>
  <rect x="173.33333333333334" y="60" width="6.666666666666667" height="6.666666666666667" fill="#E5E5E5"/>
  <rect x="173.33333333333334" y="66.66666666666667" width="6.666666666666667" height="6.666666666666667" fill="#E5E5E5"/>
  <rect x="173.33333333333334" y="73.33333333333334" width="6.666666666666667" height="6.666666666666667" fill="#E5E5E5"/>
  <rect x="173.33333333333334" y="80" width="6.666666666666667" height="6.666666666666667" fill="#E5E5E5"/>
  <rect x="173.33333333333334" y="86.66666666666667" width="6.666666666666667" height="6.666666666666667" fill="#E5E5E5"/>
  <rect x="173.33333333333334" y="93.33333333333334" width="6.666666666666667" height="6.666666666666667" fill="#E5E5E5"/>
  <rect x="173.33333333333334" y="100" width="6.666666666666667" height="6.666666666666667" fill="#E5E5E5"/>
  <rect x="180" y="0" width="6.666666666666667" height="6.666666666666667" fill="#E5E5E5"/>
  <rect x="180" y="6.666666666666667" width="6.666666666666667" height="6.666666666666667" fill="#E5E5E5"/>
  <rect x="180" y="13.333333333333334" width="6.666666666666667" height="6.666666666666667" fill="#E5E5E5"/>
  <rect x="180" y="20" width="6.666666666666667" height="6.666666666666667" fill="#E5E5E5"/>
  <rect x="180" y="26.666666666666668" width="6.666666666666667" height="6.666666666666667" fill="#E5E5E5"/>
  <rect x="180" y="33.333333333333336" width="6.666666666666667" height="6.666666666666667" fill="#E5E5E5"/>
  <rect x="180" y="40" width="6.666666666666667" height="6.666666666666667" fill="#E5E5E5"/>
  <rect x="180" y="46.66666666666667" width="6.666666666666667" height="6.666666666666667" fill="#E5E5E5"/>
  <rect x="180" y="53.333333333333336" width="6.666666666666667" height="6.666666666666667" fill="#E5E5E5"/>
  <rect x="180" y="60" width="6.666666666666667" height="6.666666666666667" fill="#E5E5E5"/>
  <rect x="180" y="66.66666666666667" width="6.666666666666667" height="6.666666666666667" fill="#E5E5E5"/>
  <rect x="180" y="73.33333333333334" width="6.666666666666667" height="6.666666666666667" fill="#E5E5E5"/>
  <rect x="180" y="80" width="6.666666666666667" height="6.666666666666667" fill="#E5E5E5"/>
  <rect x="180" y="86.66666666666667" width="6.666666666666667" height="6.666666666666667" fill="#E5E5E5"/>
  <rect x="180" y="93.33333333333334" width="6.666666666666667" height="6.666666666666667" fill="#E5E5E5"/>
  <rect x="180" y="100" width="6.666666666666667" height="6.666666666666667" fill="#E5E5E5"/>
  <rect x="186.66666666666669" y="0" width="6.666666666666667" height="6.666666666666667" fill="#E5E5E5"/>
  <rect x="186.66666666666669" y="6.666666666666667" width="6.666666666666667" height="6.666666666666667" fill="#E5E5E5"/>
  <rect x="186.66666666666669" y="13.333333333333334" width="6.666666666666667" height="6.666666666666667" fill="#E5E5E5"/>
  <rect x="186.66666666666669" y="20" width="6.666666666666667" height="6.666666666666667" fill="#E5E5E5"/>
  <rect x="186.66666666666669" y="26.666666666666668" width="6.666666666666667" height="6.666666666666667" fill="#E5E5E5"/>
  <rect x="186.66666666666669" y="33.333333333333336" width="6.666666666666667" height="6.666666666666667" fill="#E5E5E5"/>
  <rect x="186.66666666666669" y="40" width="6.666666666666667" height="6.666666666666667" fill="#E5E5E5"/>
  <rect x="186.66666666666669" y="46.66666666666667" width="6.666666666666667" height="6.666666666666667" fill="#E5E5E5"/>
  <rect x="186.66666666666669" y="53.333333333333336" width="6.666666666666667" height="6.666666666666667" fill="#E5E5E5"/>
  <rect x="186.66666666666669" y="60" width="6.666666666666667" height="6.666666666666667" fill="#E5E5E5"/>
  <rect x="186.66666666666669" y="66.66666666666667" width="6.666666666666667" height="6.666666666666667" fill="#E5E5E5"/>
  <rect x="186.66666666666669" y="73.33333333333334" width="6.666666666666667" height="6.666666666666667" fill="#E5E5E5"/>
  <rect x="186.66666666666669" y="80" width="6.666666666666667" height="6.666666666666667" fill="#E5E5E5"/>
  <rect x="186.66666666666669" y="86.66666666666667" width="6.666666666666667" height="6.666666666666667" fill="#E5E5E5"/>
  <rect x="186.66666666666669" y="93.33333333333334" width="6.666666666666667" height="6.666666666666667" fill="#E5E5E5"/>
  <rect x="186.66666666666669" y="100" width="6.666666666666667" height="6.666666666666667" fill="#E5E5E5"/>
  <rect x="193.33333333333334" y="0" width="6.666666666666667" height="6.666666666666667" fill="#E5E5E5"/>
  <rect x="193.33333333333334" y="6.666666666666667" width="6.666666666666667" height="6.666666666666667" fill="#E5E5E5"/>
  <rect x="193.33333333333334" y="13.333333333333334" width="6.666666666666667" height="6.666666666666667" fill="#E5E5E5"/>
  <rect x="193.33333333333334" y="20" width="6.666666666666667" height="6.666666666666667" fill="#E5E5E5"/>
  <rect x="193.33333333333334" y="26.666666666666668" width="6.666666666666667" height="6.666666666666667" fill="#E5E5E5"/>
  <rect x="193.33333333333334" y="33.333333333333336" width="6.666666666666667" height="6.666666666666667" fill="#E5E5E5"/>
  <rect x="193.33333333333334" y="40" width="6.666666666666667" height="6.666666666666667" fill="#E5E5E5"/>
  <rect x="193.33333333333334" y="46.66666666666667" width="6.666666666666667" height="6.666666666666667" fill="#E5E5E5"/>
  <rect x="193.33333333333334" y="53.333333333333336" width="6.666666666666667" height="6.666666666666667" fill="#E5E5E5"/>
  <rect x="193.33333333333334" y="60" width="6.666666666666667" height="6.666666666666667" fill="#E5E5E5"/>
  <rect x="193.33333333333334" y="66.66666666666667" width="6.666666666666667" height="6.666666666666667" fill="#E5E5E5"/>
  <rect x="193.33333333333334" y="73.33333333333334" width="6.666666666666667" height="6.666666666666667" fill="#E5E5E5"/>
  <rect x="193.33333333333334" y="80" width="6.666666666666667" height="6.666666666666667" fill="#E5E5E5"/>
  <rect x="193.33333333333334" y="86.66666666666667" width="6.666666666666667" height="6.666666666666667" fill="#E5E5E5"/>
  <rect x="193.33333333333334" y="93.33333333333334" width="6.666666666666667" height="6.666666666666667" fill="#E5E5E5"/>
  <rect x="193.33333333333334" y="100" width="6.666666666666667" height="6.666666666666667" fill="#E5E5E5"/>
</svg>