<?xml version="1.0" encoding="UTF-8"?>
<svg xmlns="http://www.w3.org/2000/svg" width="300" height="300" viewBox="0 0 300 300"><path d="M 208,185 L 208,180 L 212.33012701892218,177.5 L 208,175 L 208,170 L 212.33012701892218,167.5 L 216.6602540378444,169.99999999999997 L 216.6602540378444,164.99999999999997 L 220.99038105676658,162.49999999999997 L 216.6602540378444,159.99999999999997 L 216.6602540378444,154.99999999999997 L 212.33012701892218,157.49999999999997 L 208,154.99999999999994 L 208,149.99999999999994 L 212.33012701892218,147.49999999999994 L 208,144.99999999999994 L 208,139.99999999999994 L 212.3301270189222,137.49999999999994 L 216.6602540378444,139.99999999999994 L 216.6602540378444,134.99999999999994 L 220.99038105676658,132.49999999999994 L 225.3205080756888,134.99999999999991 L 225.3205080756888,139.99999999999991 L 229.650635094611,137.49999999999991 L 233.9807621135332,139.99999999999991 L 233.9807621135332,134.99999999999991 L 238.31088913245537,132.4999999999999 L 233.9807621135332,129.9999999999999 L 233.9807621135332,124.99999999999989 L 238.31088913245537,122.49999999999989 L 242.64101615137758,124.99999999999989 L 242.64101615137758,119.99999999999989 L 246.97114317029977,117.49999999999989 L 242.64101615137758,114.99999999999989 L 242.64101615137758,109.99999999999989 L 238.31088913245537,112.49999999999987 L 233.9807621135332,109.99999999999987 L 233.9807621135332,104.99999999999987 L 238.31088913245537,102.49999999999987 L 233.9807621135332,99.99999999999987 L 233.9807621135332,94.99999999999987 L 229.650635094611,97.49999999999986 L 225.3205080756888,94.99999999999986 L 225.3205080756888,99.99999999999986 L 220.99038105676658,102.49999999999984 L 216.6602540378444,99.99999999999984 L 216.6602540378444,94.99999999999984 L 212.33012701892218,97.49999999999983 L 208,94.99999999999983 L 208,89.99999999999983 L 212.33012701892218,87.49999999999983 L 208,84.99999999999983 L 208,79.99999999999983 L 212.3301270189222,77.49999999999983 L 216.6602540378444,79.99999999999982 L 216.6602540378444,74.99999999999982 L 220.99038105676658,72.49999999999982 L 216.6602540378444,69.99999999999982 L 216.6602540378444,64.99999999999982 L 212.3301270189222,67.4999999999998 L 208,64.9999999999998 L 208,59.9999999999998 L 212.3301270189222,57.4999999999998 L 208,54.9999999999998 L 208.00000000000003,49.9999999999998 L 203.66987298107782,52.4999999999998 L 199.33974596215563,49.9999999999998 L 199.3397459621556,54.9999999999998 L 195.00961894323342,57.49999999999979 L 190.6794919243112,54.99999999999977 L 190.6794919243112,49.99999999999977 L 186.34936490538902,52.49999999999977 L 182.01923788646684,49.99999999999977 L 182.0192378864668,54.99999999999977 L 177.6891108675446,57.49999999999976 L 182.01923788646678,59.99999999999979 L 182.01923788646678,64.99999999999979 L 177.68911086754457,67.49999999999977 L 173.3589838486224,64.99999999999977 L 173.35898384862236,69.99999999999977 L 169.02885682970015,72.49999999999976 L 164.69872981077796,69.99999999999976 L 164.69872981077796,64.99999999999976 L 160.36860279185578,67.49999999999974 L 156.03847577293357,64.99999999999974 L 156.03847577293357,59.999999999999744 L 160.36860279185578,57.499999999999744 L 156.03847577293357,54.999999999999744 L 156.03847577293357,49.999999999999744 L 151.70834875401138,52.499999999999744 L 147.3782217350892,49.999999999999744 L 147.37822173508917,54.999999999999744 L 143.048094716167,57.49999999999973 L 138.71796769724477,54.999999999999716 L 138.71796769724477,49.999999999999716 L 134.3878406783226,52.499999999999716 L 130.0577136594004,49.999999999999716 L 130.0577136594004,54.999999999999716 L 125.7275866404782,57.4999999999997 L 130.05771365940038,59.99999999999973 L 130.05771365940035,64.99999999999973 L 125.72758664047817,67.49999999999972 L 121.39745962155598,64.99999999999972 L 121.39745962155597,69.99999999999972 L 117.06733260263377,72.4999999999997 L 121.39745962155595,74.99999999999973 L 121.39745962155594,79.99999999999973 L 125.72758664047815,77.49999999999976 L 130.05771365940035,79.99999999999979 L 130.05771365940032,84.99999999999979 L 125.72758664047812,87.49999999999977 L 130.0577136594003,89.9999999999998 L 130.0577136594003,94.9999999999998 L 125.7275866404781,97.49999999999979 L 121.39745962155591,94.99999999999979 L 121.3974596215559,99.99999999999979 L 117.0673326026337,102.49999999999977 L 112.73720558371151,99.99999999999977 L 112.73720558371151,94.99999999999977 L 108.40707856478932,97.49999999999976 L 104.07695154586713,94.99999999999976 L 104.07695154586712,99.99999999999976 L 99.74682452694492,102.49999999999974 L 104.0769515458671,104.99999999999977 L 104.07695154586709,109.99999999999977 L 99.74682452694489,112.49999999999976 L 95.41669750802271,109.99999999999976 L 95.4166975080227,114.99999999999976 L 91.0865704891005,117.49999999999974 L 95.41669750802268,119.99999999999977 L 95.41669750802266,124.99999999999977 L 99.74682452694488,122.4999999999998 L 104.07695154586706,124.99999999999983 L 104.07695154586705,129.99999999999983 L 99.74682452694485,132.49999999999983 L 104.07695154586703,134.99999999999983 L 104.07695154586702,139.99999999999983 L 108.40707856478923,137.49999999999986 L 112.73720558371141,139.9999999999999 L 112.73720558371146,134.9999999999999 L 117.06733260263367,132.49999999999991 L 121.39745962155585,134.99999999999994 L 121.39745962155584,139.99999999999994 L 125.72758664047805,137.49999999999997 L 130.05771365940024,140 L 130.05771365940024,145 L 125.72758664047802,147.49999999999997 L 130.0577136594002,150 L 130.05771365940018,155 L 125.727586640478,157.49999999999997 L 121.39745962155581,154.99999999999997 L 121.3974596215558,159.99999999999997 L 117.0673326026336,162.49999999999997 L 121.39745962155578,165 L 121.39745962155577,170 L 125.72758664047798,167.50000000000003 L 130.05771365940018,170.00000000000003 L 130.05771365940015,175.00000000000003 L 125.72758664047795,177.50000000000003 L 130.05771365940012,180.00000000000006 L 130.05771365940012,185.00000000000006 L 134.38784067832233,182.50000000000009 L 138.71796769724452,185.00000000000009 L 138.71796769724455,180.00000000000009 L 143.04809471616676,177.5000000000001 L 147.37822173508897,180.00000000000014 L 147.37822173508894,185.00000000000014 L 151.70834875401113,182.50000000000017 L 156.03847577293334,185.0000000000002 L 156.03847577293337,180.0000000000002 L 160.36860279185555,177.50000000000023 L 156.0384757729334,175.0000000000002 L 156.03847577293342,170.0000000000002 L 160.36860279185564,167.50000000000023 L 164.69872981077782,170.00000000000023 L 164.69872981077785,165.00000000000023 L 169.02885682970006,162.50000000000026 L 173.35898384862224,165.00000000000028 L 173.35898384862222,170.00000000000028 L 177.68911086754443,167.5000000000003 L 182.0192378864666,170.00000000000034 L 182.01923788646658,175.00000000000034 L 177.6891108675444,177.5000000000003 L 182.01923788646658,180.00000000000034 L 182.01923788646656,185.00000000000034 L 186.34936490538877,182.50000000000037 L 190.67949192431095,185.0000000000004 L 190.67949192431098,180.0000000000004 L 195.0096189432332,177.50000000000043 L 199.33974596215538,180.00000000000045 L 199.33974596215535,185.00000000000045 L 203.66987298107756,182.50000000000048 L 207.99999999999974,185.00000000000048" fill="none" stroke="#194CCC" stroke-width="1.5" stroke-linecap="round" stroke-linejoin="round"/></svg>