<?xml version="1.0" encoding="UTF-8"?>
<svg xmlns="http://www.w3.org/2000/svg" width="400" height="400" viewBox="0 0 400 400"><path d="M 240,360 L 240,356.5 L 240,353 L 240,349.5 L 240,346 L 240,342.5 L 240,339 L 240,335.5 L 240,332 L 240,328.5 L 240,325 L 240,321.5 L 240,318 L 240,314.5 L 240,311 L 240,307.5 L 240,304 L 238.52093858400758,300.82787495080623 L 237.04187716801516,297.65574990161247 L 235.56281575202277,294.4836248524187 L 234.08375433603035,291.31149980322493 L 232.60469292003793,288.13937475403117 L 231.12563150404551,284.9672497048374 L 229.6465700880531,281.79512465564363 L 228.16750867206068,278.62299960644987 L 225.48649851950896,276.3730697048942 L 222.80548836695723,274.12313980333846 L 220.12447821440549,271.87320990178273 L 217.44346806185376,269.623280000227 L 214.06281549953067,268.7170856210465 L 210.68216293720758,267.810891241866 L 207.2352572751501,268.41821434934343 M 207.2352572751501,268.41821434934343 M 207.2352572751501,268.41821434934343 L 203.7883516130926,269.0255374568208 L 200.4076990507695,268.1193430776403 M 203.7883516130926,269.0255374568208 M 210.68216293720758,267.810891241866 L 207.3015103748845,266.9046968626855 M 207.3015103748845,266.9046968626855 M 207.3015103748845,266.9046968626855 L 203.9208578125614,265.998502483505 L 201.23984766000967,263.74857258194925 M 203.9208578125614,265.998502483505 M 210.68216293720758,267.810891241866 L 207.3015103748845,266.9046968626855 L 203.9208578125614,265.998502483505 L 201.23984766000967,263.74857258194925 L 198.55883750745795,261.4986426803936 L 195.8778273549062,259.24871277883784 M 195.8778273549062,259.24871277883784 M 195.8778273549062,259.24871277883784 L 193.19681720235445,256.9987828772821 L 191.71775578636206,253.82665782808834 M 193.19681720235445,256.9987828772821 M 203.9208578125614,265.998502483505 L 200.47395215050392,266.60582559098236 M 200.47395215050392,266.60582559098236 M 200.47395215050392,266.60582559098236 L 197.02704648844644,267.2131486984598 L 193.64639392612332,266.30695431927927 M 197.02704648844644,267.2131486984598 M 217.44346806185376,269.623280000227 L 214.76245790930204,267.37335009867127 L 212.0814477567503,265.1234201971156 L 208.7007951944272,264.21722581793506 M 208.7007951944272,264.21722581793506 M 208.7007951944272,264.21722581793506 L 205.32014263210414,263.3110314387546 L 202.6391324795524,261.06110153719885 M 205.32014263210414,263.3110314387546 M 212.0814477567503,265.1234201971156 L 209.40043760419857,262.87349029555986 M 209.40043760419857,262.87349029555986 M 209.40043760419857,262.87349029555986 L 206.71942745164682,260.62356039400413 L 205.24036603565443,257.45143534481036 M 206.71942745164682,260.62356039400413 M 212.0814477567503,265.1234201971156 L 209.40043760419857,262.87349029555986 L 206.71942745164682,260.62356039400413 L 205.24036603565443,257.45143534481036 L 203.761304619662,254.2793102956166 L 202.2822432036696,251.10718524642283 M 202.2822432036696,251.10718524642283 M 202.2822432036696,251.10718524642283 L 200.8031817876772,247.93506019722906 L 200.8031817876772,244.43506019722906 M 200.8031817876772,247.93506019722906 M 206.71942745164682,260.62356039400413 L 203.33877488932376,259.71736601482365 M 203.33877488932376,259.71736601482365 M 203.33877488932376,259.71736601482365 L 199.95812232700064,258.8111716356431 L 197.27711217444892,256.5612417340874 M 199.95812232700064,258.8111716356431 M 217.44346806185376,269.623280000227 L 214.76245790930204,267.37335009867127 L 212.0814477567503,265.1234201971156 L 209.40043760419857,262.87349029555986 L 206.71942745164682,260.62356039400413 L 205.24036603565443,257.45143534481036 L 203.761304619662,254.2793102956166 L 202.2822432036696,251.10718524642283 L 200.8031817876772,247.93506019722906 L 199.32412037168478,244.7629351480353 L 197.84505895569237,241.59081009884153 L 195.16404880314064,239.34088019728583 M 195.16404880314064,239.34088019728583 M 195.16404880314064,239.34088019728583 L 192.4830386505889,237.09095029573012 L 191.00397723459648,233.91882524653636 M 192.4830386505889,237.09095029573012 M 197.84505895569237,241.59081009884153 L 196.36599753969995,238.41868504964776 M 196.36599753969995,238.41868504964776 M 196.36599753969995,238.41868504964776 L 194.88693612370753,235.246560000454 L 194.88693612370753,231.746560000454 M 194.88693612370753,235.246560000454 M 197.84505895569237,241.59081009884153 L 196.36599753969995,238.41868504964776 L 194.88693612370753,235.246560000454 L 194.88693612370753,231.746560000454 L 194.88693612370753,228.246560000454 L 194.88693612370753,224.746560000454 M 194.88693612370753,224.746560000454 M 194.88693612370753,224.746560000454 L 194.88693612370753,221.246560000454 L 196.36599753969995,218.07443495126023 M 194.88693612370753,221.246560000454 M 194.88693612370753,235.246560000454 L 192.2059259711558,232.9966300988983 M 192.2059259711558,232.9966300988983 M 192.2059259711558,232.9966300988983 L 189.5249158186041,230.74670019734256 L 188.04585440261167,227.5745751481488 M 189.5249158186041,230.74670019734256 M 206.71942745164682,260.62356039400413 L 203.33877488932376,259.71736601482365 L 199.95812232700064,258.8111716356431 L 196.51121666494316,259.4184947431205 M 196.51121666494316,259.4184947431205 M 196.51121666494316,259.4184947431205 L 193.0643110028857,260.02581785059795 L 189.68365844056257,259.1196234714174 M 193.0643110028857,260.02581785059795 M 199.95812232700064,258.8111716356431 L 196.57746976467757,257.90497725646264 M 196.57746976467757,257.90497725646264 M 196.57746976467757,257.90497725646264 L 193.19681720235445,256.9987828772821 L 190.51580704980273,254.7488529757264 M 193.19681720235445,256.9987828772821 M 199.95812232700064,258.8111716356431 L 196.57746976467757,257.90497725646264 L 193.19681720235445,256.9987828772821 L 190.51580704980273,254.7488529757264 L 187.834796897251,252.4989230741707 L 185.15378674469926,250.24899317261497 M 185.15378674469926,250.24899317261497 M 185.15378674469926,250.24899317261497 L 182.4727765921475,247.99906327105924 L 180.99371517615512,244.82693822186548 M 182.4727765921475,247.99906327105924 M 193.19681720235445,256.9987828772821 L 189.74991154029698,257.60610598475955 M 189.74991154029698,257.60610598475955 M 189.74991154029698,257.60610598475955 L 186.3030058782395,258.21342909223694 L 182.92235331591638,257.3072347130564 M 186.3030058782395,258.21342909223694 M 228.16750867206068,278.62299960644987 L 226.6884472560683,275.4508745572561 L 225.20938584007587,272.27874950806233 L 223.73032442408345,269.10662445886857 L 222.25126300809103,265.9344994096748 L 219.5702528555393,263.6845695081191 L 216.88924270298756,261.4346396065634 L 213.50859014066447,260.52844522738286 M 213.50859014066447,260.52844522738286 M 213.50859014066447,260.52844522738286 L 210.12793757834137,259.6222508482024 L 207.44692742578965,257.37232094664665 M 210.12793757834137,259.6222508482024 M 216.88924270298756,261.4346396065634 L 214.20823255043584,259.18470970500766 M 214.20823255043584,259.18470970500766 M 214.20823255043584,259.18470970500766 L 211.5272223978841,256.93477980345193 L 210.04816098189167,253.76265475425816 M 211.5272223978841,256.93477980345193 M 216.88924270298756,261.4346396065634 L 214.20823255043584,259.18470970500766 L 211.5272223978841,256.93477980345193 L 210.04816098189167,253.76265475425816 L 208.56909956589928,250.5905297050644 L 207.09003814990686,247.41840465587063 M 207.09003814990686,247.41840465587063 M 207.09003814990686,247.41840465587063 L 205.61097673391444,244.24627960667686 L 205.61097673391444,240.74627960667686 M 205.61097673391444,244.24627960667686 M 211.5272223978841,256.93477980345193 L 208.14656983556102,256.02858542427145 M 208.14656983556102,256.02858542427145 M 208.14656983556102,256.02858542427145 L 204.7659172732379,255.12239104509092 L 202.08490712068618,252.87246114353522 M 204.7659172732379,255.12239104509092 M 222.25126300809103,265.9344994096748 L 220.7722015920986,262.76237436048103 L 219.2931401761062,259.59024931128727 L 216.61213002355447,257.3403194097316 M 216.61213002355447,257.3403194097316 M 216.61213002355447,257.3403194097316 L 213.93111987100272,255.09038950817586 L 212.45205845501033,251.9182644589821 M 213.93111987100272,255.09038950817586 M 219.2931401761062,259.59024931128727 L 217.81407876011377,256.4181242620935 M 217.81407876011377,256.4181242620935 M 217.81407876011377,256.4181242620935 L 216.33501734412135,253.24599921289973 L 216.33501734412135,249.74599921289973 M 216.33501734412135,253.24599921289973 M 219.2931401761062,259.59024931128727 L 217.81407876011377,256.4181242620935 L 216.33501734412135,253.24599921289973 L 216.33501734412135,249.74599921289973 L 216.33501734412135,246.24599921289973 L 216.33501734412135,242.74599921289973 M 216.33501734412135,242.74599921289973 M 216.33501734412135,242.74599921289973 L 216.33501734412135,239.24599921289973 L 217.81407876011377,236.073874163706 M 216.33501734412135,239.24599921289973 M 216.33501734412135,253.24599921289973 L 213.65400719156963,250.99606931134403 M 213.65400719156963,250.99606931134403 M 213.65400719156963,250.99606931134403 L 210.9729970390179,248.74613940978833 L 209.4939356230255,245.57401436059456 M 210.9729970390179,248.74613940978833 M 222.25126300809103,265.9344994096748 L 220.7722015920986,262.76237436048103 L 219.2931401761062,259.59024931128727 L 217.81407876011377,256.4181242620935 L 216.33501734412135,253.24599921289973 L 216.33501734412135,249.74599921289973 L 216.33501734412135,246.24599921289973 L 216.33501734412135,242.74599921289973 L 216.33501734412135,239.24599921289973 L 216.33501734412135,235.74599921289973 L 216.33501734412135,232.24599921289973 L 214.85595592812894,229.073874163706 M 214.85595592812894,229.073874163706 M 214.85595592812894,229.073874163706 L 213.37689451213654,225.90174911451223 L 213.37689451213654,222.40174911451223 M 213.37689451213654,225.90174911451223 M 216.33501734412135,232.24599921289973 L 216.33501734412135,228.74599921289973 M 216.33501734412135,228.74599921289973 M 216.33501734412135,228.74599921289973 L 216.33501734412135,225.24599921289973 L 217.81407876011377,222.07387416370597 M 216.33501734412135,225.24599921289973 M 216.33501734412135,232.24599921289973 L 216.33501734412135,228.74599921289973 L 216.33501734412135,225.24599921289973 L 217.81407876011377,222.07387416370597 L 219.2931401761062,218.9017491145122 L 220.7722015920986,215.72962406531843 M 220.7722015920986,215.72962406531843 M 220.7722015920986,215.72962406531843 L 222.25126300809103,212.55749901612467 L 224.93227316064275,210.30756911456893 M 222.25126300809103,212.55749901612467 M 216.33501734412135,225.24599921289973 L 214.85595592812894,222.07387416370597 M 214.85595592812894,222.07387416370597 M 214.85595592812894,222.07387416370597 L 213.37689451213654,218.9017491145122 L 213.37689451213654,215.4017491145122 M 213.37689451213654,218.9017491145122 M 216.33501734412135,253.24599921289973 L 213.65400719156963,250.99606931134403 L 210.9729970390179,248.74613940978833 L 207.59234447669482,247.8399450306078 M 207.59234447669482,247.8399450306078 M 207.59234447669482,247.8399450306078 L 204.21169191437173,246.93375065142732 L 201.53068176182,244.6838207498716 M 204.21169191437173,246.93375065142732 M 210.9729970390179,248.74613940978833 L 208.29198688646616,246.4962095082326 M 208.29198688646616,246.4962095082326 M 208.29198688646616,246.4962095082326 L 205.61097673391444,244.24627960667686 L 204.13191531792202,241.0741545574831 M 205.61097673391444,244.24627960667686 M 210.9729970390179,248.74613940978833 L 208.29198688646616,246.4962095082326 L 205.61097673391444,244.24627960667686 L 204.13191531792202,241.0741545574831 L 202.65285390192963,237.90202950828933 L 201.1737924859372,234.72990445909556 M 201.1737924859372,234.72990445909556 M 201.1737924859372,234.72990445909556 L 199.6947310699448,231.55777940990183 L 199.6947310699448,228.05777940990183 M 199.6947310699448,231.55777940990183 M 205.61097673391444,244.24627960667686 L 202.23032417159135,243.3400852274964 M 202.23032417159135,243.3400852274964 M 202.23032417159135,243.3400852274964 L 198.84967160926826,242.43389084831585 L 196.1686614567165,240.18396094676015 M 198.84967160926826,242.43389084831585 M 228.16750867206068,278.62299960644987 L 226.6884472560683,275.4508745572561 L 225.20938584007587,272.27874950806233 L 223.73032442408345,269.10662445886857 L 222.25126300809103,265.9344994096748 L 220.7722015920986,262.76237436048103 L 219.2931401761062,259.59024931128727 L 217.81407876011377,256.4181242620935 L 216.33501734412135,253.24599921289973 L 216.33501734412135,249.74599921289973 L 216.33501734412135,246.24599921289973 L 216.33501734412135,242.74599921289973 L 216.33501734412135,239.24599921289973 L 216.33501734412135,235.74599921289973 L 216.33501734412135,232.24599921289973 L 216.33501734412135,228.74599921289973 L 216.33501734412135,225.24599921289973 L 216.33501734412135,221.74599921289973 L 216.33501734412135,218.24599921289973 L 216.33501734412135,214.74599921289973 L 216.33501734412135,211.24599921289973 L 214.85595592812894,208.07387416370597 L 213.37689451213654,204.9017491145122 L 210.6958843595848,202.65181921295647 M 210.6958843595848,202.65181921295647 M 210.6958843595848,202.65181921295647 L 208.01487420703307,200.40188931140074 L 206.53581279104066,197.22976426220697 M 208.01487420703307,200.40188931140074 M 213.37689451213654,204.9017491145122 L 211.89783309614413,201.72962406531843 M 211.89783309614413,201.72962406531843 M 211.89783309614413,201.72962406531843 L 210.4187716801517,198.55749901612467 L 210.4187716801517,195.05749901612467 M 210.4187716801517,198.55749901612467 M 213.37689451213654,204.9017491145122 L 211.89783309614413,201.72962406531843 L 210.4187716801517,198.55749901612467 L 210.4187716801517,195.05749901612467 L 210.4187716801517,191.55749901612467 L 210.4187716801517,188.05749901612467 M 210.4187716801517,188.05749901612467 M 210.4187716801517,188.05749901612467 L 210.4187716801517,184.55749901612467 L 211.89783309614413,181.3853739669309 M 210.4187716801517,184.55749901612467 M 210.4187716801517,198.55749901612467 L 207.73776152759996,196.30756911456893 M 207.73776152759996,196.30756911456893 M 207.73776152759996,196.30756911456893 L 205.05675137504824,194.0576392130132 L 203.57768995905582,190.88551416381944 M 205.05675137504824,194.0576392130132 M 216.33501734412135,211.24599921289973 L 216.33501734412135,207.74599921289973 L 216.33501734412135,204.24599921289973 L 214.85595592812894,201.07387416370597 M 214.85595592812894,201.07387416370597 M 214.85595592812894,201.07387416370597 L 213.37689451213654,197.9017491145122 L 213.37689451213654,194.4017491145122 M 213.37689451213654,197.9017491145122 M 216.33501734412135,204.24599921289973 L 216.33501734412135,200.74599921289973 M 216.33501734412135,200.74599921289973 M 216.33501734412135,200.74599921289973 L 216.33501734412135,197.24599921289973 L 217.81407876011377,194.07387416370597 M 216.33501734412135,197.24599921289973 M 216.33501734412135,204.24599921289973 L 216.33501734412135,200.74599921289973 L 216.33501734412135,197.24599921289973 L 217.81407876011377,194.07387416370597 L 219.2931401761062,190.9017491145122 L 220.7722015920986,187.72962406531843 M 220.7722015920986,187.72962406531843 M 220.7722015920986,187.72962406531843 L 222.25126300809103,184.55749901612467 L 224.93227316064275,182.30756911456893 M 222.25126300809103,184.55749901612467 M 216.33501734412135,197.24599921289973 L 214.85595592812894,194.07387416370597 M 214.85595592812894,194.07387416370597 M 214.85595592812894,194.07387416370597 L 213.37689451213654,190.9017491145122 L 213.37689451213654,187.4017491145122 M 213.37689451213654,190.9017491145122 M 216.33501734412135,211.24599921289973 L 216.33501734412135,207.74599921289973 L 216.33501734412135,204.24599921289973 L 216.33501734412135,200.74599921289973 L 216.33501734412135,197.24599921289973 L 217.81407876011377,194.07387416370597 L 219.2931401761062,190.9017491145122 L 220.7722015920986,187.72962406531843 L 222.25126300809103,184.55749901612467 L 223.73032442408345,181.3853739669309 L 225.20938584007587,178.21324891773713 L 225.20938584007587,174.71324891773713 M 225.20938584007587,174.71324891773713 M 225.20938584007587,174.71324891773713 L 225.20938584007587,171.21324891773713 L 226.6884472560683,168.04112386854337 M 225.20938584007587,171.21324891773713 M 225.20938584007587,178.21324891773713 L 226.6884472560683,175.04112386854337 M 226.6884472560683,175.04112386854337 M 226.6884472560683,175.04112386854337 L 228.16750867206068,171.8689988193496 L 230.84851882461243,169.61906891779387 M 228.16750867206068,171.8689988193496 M 225.20938584007587,178.21324891773713 L 226.6884472560683,175.04112386854337 L 228.16750867206068,171.8689988193496 L 230.84851882461243,169.61906891779387 L 233.52952897716415,167.36913901623814 L 236.21053912971587,165.1192091146824 M 236.21053912971587,165.1192091146824 M 236.21053912971587,165.1192091146824 L 238.89154928226762,162.86927921312667 L 242.2722018445907,161.96308483394617 M 238.89154928226762,162.86927921312667 M 228.16750867206068,171.8689988193496 L 228.16750867206068,168.3689988193496 M 228.16750867206068,168.3689988193496 M 228.16750867206068,168.3689988193496 L 228.16750867206068,164.8689988193496 L 229.6465700880531,161.69687377015583 M 228.16750867206068,164.8689988193496 M 216.33501734412135,197.24599921289973 L 214.85595592812894,194.07387416370597 L 213.37689451213654,190.9017491145122 L 210.6958843595848,188.65181921295647 M 210.6958843595848,188.65181921295647 M 210.6958843595848,188.65181921295647 L 208.01487420703307,186.40188931140074 L 206.53581279104066,183.22976426220697 M 208.01487420703307,186.40188931140074 M 213.37689451213654,190.9017491145122 L 211.89783309614413,187.72962406531843 M 211.89783309614413,187.72962406531843 M 211.89783309614413,187.72962406531843 L 210.4187716801517,184.55749901612467 L 210.4187716801517,181.05749901612467 M 210.4187716801517,184.55749901612467 M 213.37689451213654,190.9017491145122 L 211.89783309614413,187.72962406531843 L 210.4187716801517,184.55749901612467 L 210.4187716801517,181.05749901612467 L 210.4187716801517,177.55749901612467 L 210.4187716801517,174.05749901612467 M 210.4187716801517,174.05749901612467 M 210.4187716801517,174.05749901612467 L 210.4187716801517,170.55749901612467 L 211.89783309614413,167.3853739669309 M 210.4187716801517,170.55749901612467 M 210.4187716801517,184.55749901612467 L 207.73776152759996,182.30756911456893 M 207.73776152759996,182.30756911456893 M 207.73776152759996,182.30756911456893 L 205.05675137504824,180.0576392130132 L 203.57768995905582,176.88551416381944 M 205.05675137504824,180.0576392130132 M 216.33501734412135,253.24599921289973 L 213.65400719156963,250.99606931134403 L 210.9729970390179,248.74613940978833 L 208.29198688646616,246.4962095082326 L 205.61097673391444,244.24627960667686 L 202.23032417159135,243.3400852274964 L 198.84967160926826,242.43389084831585 L 195.40276594721075,243.04121395579327 M 195.40276594721075,243.04121395579327 M 195.40276594721075,243.04121395579327 L 191.95586028515328,243.64853706327068 L 188.57520772283019,242.74234268409015 M 191.95586028515328,243.64853706327068 M 198.84967160926826,242.43389084831585 L 195.46901904694516,241.52769646913538 M 195.46901904694516,241.52769646913538 M 195.46901904694516,241.52769646913538 L 192.08836648462207,240.62150208995484 L 189.40735633207032,238.37157218839914 M 192.08836648462207,240.62150208995484 M 198.84967160926826,242.43389084831585 L 195.46901904694516,241.52769646913538 L 192.08836648462207,240.62150208995484 L 189.40735633207032,238.37157218839914 L 186.7263461795186,236.12164228684344 L 184.04533602696688,233.8717123852877 M 184.04533602696688,233.8717123852877 M 184.04533602696688,233.8717123852877 L 181.36432587441513,231.62178248373198 L 179.8852644584227,228.4496574345382 M 181.36432587441513,231.62178248373198 M 192.08836648462207,240.62150208995484 L 188.64146082256457,241.22882519743226 M 188.64146082256457,241.22882519743226 M 188.64146082256457,241.22882519743226 L 185.1945551605071,241.83614830490967 L 181.813902598184,240.92995392572914 M 185.1945551605071,241.83614830490967 M 205.61097673391444,244.24627960667686 L 202.9299665813627,241.99634970512116 L 200.24895642881097,239.74641980356546 L 196.86830386648788,238.84022542438493 M 196.86830386648788,238.84022542438493 M 196.86830386648788,238.84022542438493 L 193.48765130416479,237.93403104520445 L 190.80664115161306,235.68410114364872 M 193.48765130416479,237.93403104520445 M 200.24895642881097,239.74641980356546 L 197.56794627625925,237.49648990200973 M 197.56794627625925,237.49648990200973 M 197.56794627625925,237.49648990200973 L 194.8869361237075,235.246560000454 L 193.40787470771508,232.07443495126023 M 194.8869361237075,235.246560000454 M 200.24895642881097,239.74641980356546 L 197.56794627625925,237.49648990200973 L 194.8869361237075,235.246560000454 L 193.40787470771508,232.07443495126023 L 191.9288132917227,228.9023099020665 L 190.44975187573027,225.73018485287272 M 190.44975187573027,225.73018485287272 M 190.44975187573027,225.73018485287272 L 188.97069045973785,222.55805980367896 L 188.97069045973785,219.05805980367896 M 188.97069045973785,222.55805980367896 M 194.8869361237075,235.246560000454 L 191.5062835613844,234.34036562127352 M 191.5062835613844,234.34036562127352 M 191.5062835613844,234.34036562127352 L 188.12563099906131,233.434171242093 L 185.44462084650957,231.18424134053728 M 188.12563099906131,233.434171242093 M 205.61097673391444,244.24627960667686 L 202.9299665813627,241.99634970512116 L 200.24895642881097,239.74641980356546 L 197.56794627625925,237.49648990200973 L 194.8869361237075,235.246560000454 L 193.40787470771508,232.07443495126023 L 191.9288132917227,228.9023099020665 L 190.44975187573027,225.73018485287272 L 188.97069045973785,222.55805980367896 L 187.49162904374543,219.3859347544852 L 186.01256762775301,216.21380970529142 L 183.3315574752013,213.9638798037357 M 183.3315574752013,213.9638798037357 M 183.3315574752013,213.9638798037357 L 180.65054732264957,211.71394990217996 L 179.17148590665715,208.5418248529862 M 180.65054732264957,211.71394990217996 M 186.01256762775301,216.21380970529142 L 184.53350621176062,213.04168465609766 M 184.53350621176062,213.04168465609766 M 184.53350621176062,213.04168465609766 L 183.0544447957682,209.8695596069039 L 183.0544447957682,206.3695596069039 M 183.0544447957682,209.8695596069039 M 186.01256762775301,216.21380970529142 L 184.53350621176062,213.04168465609766 L 183.0544447957682,209.8695596069039 L 183.0544447957682,206.3695596069039 L 183.0544447957682,202.8695596069039 L 183.0544447957682,199.3695596069039 M 183.0544447957682,199.3695596069039 M 183.0544447957682,199.3695596069039 L 183.0544447957682,195.8695596069039 L 184.53350621176062,192.69743455771012 M 183.0544447957682,195.8695596069039 M 183.0544447957682,209.8695596069039 L 180.37343464321646,207.61962970534816 M 180.37343464321646,207.61962970534816 M 180.37343464321646,207.61962970534816 L 177.69242449066473,205.36969980379243 L 176.21336307467232,202.19757475459866 M 177.69242449066473,205.36969980379243 M 194.8869361237075,235.246560000454 L 191.5062835613844,234.34036562127352 L 188.12563099906131,233.434171242093 L 184.6787253370038,234.0414943495704 M 184.6787253370038,234.0414943495704 M 184.6787253370038,234.0414943495704 L 181.23181967494634,234.6488174570478 L 177.85116711262324,233.74262307786728 M 181.23181967494634,234.6488174570478 M 188.12563099906131,233.434171242093 L 184.74497843673822,232.5279768629125 M 184.74497843673822,232.5279768629125 M 184.74497843673822,232.5279768629125 L 181.36432587441513,231.621782483732 L 178.68331572186338,229.37185258217627 M 181.36432587441513,231.621782483732 M 188.12563099906131,233.434171242093 L 184.74497843673822,232.5279768629125 L 181.36432587441513,231.621782483732 L 178.68331572186338,229.37185258217627 L 176.00230556931166,227.12192268062054 L 173.32129541675994,224.8719927790648 M 173.32129541675994,224.8719927790648 M 173.32129541675994,224.8719927790648 L 170.6402852642082,222.62206287750908 L 169.16122384821577,219.4499378283153 M 170.6402852642082,222.62206287750908 M 181.36432587441513,231.621782483732 L 177.91742021235763,232.22910559120942 M 177.91742021235763,232.22910559120942 M 177.91742021235763,232.22910559120942 L 174.47051455030015,232.8364286986868 L 171.08986198797706,231.9302343195063 M 174.47051455030015,232.8364286986868 M 240,304 L 240,300.5 L 240,297 L 240,293.5 L 240,290 L 240,286.5 L 240,283 L 240,279.5 L 240,276 L 238.52093858400758,272.82787495080623 L 237.04187716801516,269.65574990161247 L 235.56281575202277,266.4836248524187 L 234.08375433603035,263.31149980322493 L 231.4027441834786,261.0615699016692 L 228.72173403092688,258.81164000011347 L 225.3410814686038,257.905445620933 M 225.3410814686038,257.905445620933 M 225.3410814686038,257.905445620933 L 221.9604289062807,256.9992512417525 L 219.27941875372898,254.7493213401968 M 221.9604289062807,256.9992512417525 M 228.72173403092688,258.81164000011347 L 226.04072387837516,256.5617100985578 M 226.04072387837516,256.5617100985578 M 226.04072387837516,256.5617100985578 L 223.3597137258234,254.31178019700207 L 221.880652309831,251.1396551478083 M 223.3597137258234,254.31178019700207 M 228.72173403092688,258.81164000011347 L 226.04072387837516,256.5617100985578 L 223.3597137258234,254.31178019700207 L 221.880652309831,251.1396551478083 L 220.4015908938386,247.96753009861453 L 218.92252947784618,244.79540504942076 M 218.92252947784618,244.79540504942076 M 218.92252947784618,244.79540504942076 L 217.44346806185376,241.623280000227 L 217.44346806185376,238.123280000227 M 217.44346806185376,241.623280000227 M 223.3597137258234,254.31178019700207 L 219.97906116350032,253.40558581782156 M 219.97906116350032,253.40558581782156 M 219.97906116350032,253.40558581782156 L 216.59840860117725,252.49939143864106 L 213.9173984486255,250.24946153708532 M 216.59840860117725,252.49939143864106 M 234.08375433603035,263.31149980322493 L 232.60469292003793,260.13937475403117 L 231.12563150404551,256.9672497048374 L 228.4446213514938,254.71731980328167 M 228.4446213514938,254.71731980328167 M 228.4446213514938,254.71731980328167 L 225.76361119894204,252.46738990172597 L 224.28454978294963,249.2952648525322 M 225.76361119894204,252.46738990172597 M 231.12563150404551,256.9672497048374 L 229.6465700880531,253.79512465564363 M 229.6465700880531,253.79512465564363 M 229.6465700880531,253.79512465564363 L 228.16750867206068,250.62299960644987 L 228.16750867206068,247.12299960644987 M 228.16750867206068,250.62299960644987 M 231.12563150404551,256.9672497048374 L 229.6465700880531,253.79512465564363 L 228.16750867206068,250.62299960644987 L 228.16750867206068,247.12299960644987 L 228.16750867206068,243.62299960644987 L 228.16750867206068,240.12299960644987 M 228.16750867206068,240.12299960644987 M 228.16750867206068,240.12299960644987 L 228.16750867206068,236.62299960644987 L 229.6465700880531,233.4508745572561 M 228.16750867206068,236.62299960644987 M 228.16750867206068,250.62299960644987 L 225.48649851950896,248.37306970489414 M 225.48649851950896,248.37306970489414 M 225.48649851950896,248.37306970489414 L 222.80548836695723,246.12313980333843 L 221.32642695096482,242.95101475414467 M 222.80548836695723,246.12313980333843 M 234.08375433603035,263.31149980322493 L 232.60469292003793,260.13937475403117 L 231.12563150404551,256.9672497048374 L 229.6465700880531,253.79512465564363 L 228.16750867206068,250.62299960644987 L 228.16750867206068,247.12299960644987 L 228.16750867206068,243.62299960644987 L 228.16750867206068,240.12299960644987 L 228.16750867206068,236.62299960644987 L 228.16750867206068,233.12299960644987 L 228.16750867206068,229.62299960644987 L 226.6884472560683,226.4508745572561 M 226.6884472560683,226.4508745572561 M 226.6884472560683,226.4508745572561 L 225.20938584007587,223.27874950806233 L 225.20938584007587,219.77874950806233 M 225.20938584007587,223.27874950806233 M 228.16750867206068,229.62299960644987 L 228.16750867206068,226.12299960644987 M 228.16750867206068,226.12299960644987 M 228.16750867206068,226.12299960644987 L 228.16750867206068,222.62299960644987 L 229.6465700880531,219.4508745572561 M 228.16750867206068,222.62299960644987 M 228.16750867206068,229.62299960644987 L 228.16750867206068,226.12299960644987 L 228.16750867206068,222.62299960644987 L 229.6465700880531,219.4508745572561 L 231.12563150404551,216.27874950806233 L 232.60469292003793,213.10662445886857 M 232.60469292003793,213.10662445886857 M 232.60469292003793,213.10662445886857 L 234.08375433603035,209.9344994096748 L 236.76476448858207,207.68456950811907 M 234.08375433603035,209.9344994096748 M 228.16750867206068,222.62299960644987 L 226.6884472560683,219.4508745572561 M 226.6884472560683,219.4508745572561 M 226.6884472560683,219.4508745572561 L 225.20938584007587,216.27874950806233 L 225.20938584007587,212.77874950806233 M 225.20938584007587,216.27874950806233 M 228.16750867206068,250.62299960644987 L 225.48649851950896,248.37306970489414 L 222.80548836695723,246.12313980333843 L 219.42483580463414,245.21694542415793 M 219.42483580463414,245.21694542415793 M 219.42483580463414,245.21694542415793 L 216.04418324231105,244.31075104497742 L 213.3631730897593,242.06082114342172 M 216.04418324231105,244.31075104497742 M 222.80548836695723,246.12313980333843 L 220.12447821440549,243.87320990178273 M 220.12447821440549,243.87320990178273 M 220.12447821440549,243.87320990178273 L 217.44346806185376,241.623280000227 L 215.96440664586135,238.45115495103323 M 217.44346806185376,241.623280000227 M 222.80548836695723,246.12313980333843 L 220.12447821440549,243.87320990178273 L 217.44346806185376,241.623280000227 L 215.96440664586135,238.45115495103323 L 214.48534522986893,235.27902990183946 L 213.0062838138765,232.1069048526457 M 213.0062838138765,232.1069048526457 M 213.0062838138765,232.1069048526457 L 211.5272223978841,228.93477980345193 L 211.5272223978841,225.43477980345193 M 211.5272223978841,228.93477980345193 M 217.44346806185376,241.623280000227 L 214.06281549953067,240.7170856210465 M 214.06281549953067,240.7170856210465 M 214.06281549953067,240.7170856210465 L 210.68216293720758,239.810891241866 L 208.00115278465586,237.56096134031026 M 210.68216293720758,239.810891241866 M 240,276 L 240,272.5 L 240,269 L 240,265.5 L 240,262 L 238.52093858400758,258.82787495080623 L 237.0418771680152,255.65574990161247 L 234.36086701546344,253.40582000005674 M 234.36086701546344,253.40582000005674 M 234.36086701546344,253.40582000005674 L 231.67985686291172,251.15589009850103 L 230.2007954469193,247.98376504930727 M 231.67985686291172,251.15589009850103 M 237.0418771680152,255.65574990161247 L 235.56281575202277,252.4836248524187 M 235.56281575202277,252.4836248524187 M 235.56281575202277,252.4836248524187 L 234.08375433603035,249.31149980322493 L 234.08375433603035,245.81149980322493 M 234.08375433603035,249.31149980322493 M 237.0418771680152,255.65574990161247 L 235.56281575202277,252.4836248524187 L 234.08375433603035,249.31149980322493 L 234.08375433603035,245.81149980322493 L 234.08375433603035,242.31149980322493 L 234.08375433603035,238.81149980322493 M 234.08375433603035,238.81149980322493 M 234.08375433603035,238.81149980322493 L 234.08375433603035,235.31149980322493 L 235.56281575202277,232.13937475403117 M 234.08375433603035,235.31149980322493 M 234.08375433603035,249.31149980322493 L 231.4027441834786,247.0615699016692 M 231.4027441834786,247.0615699016692 M 231.4027441834786,247.0615699016692 L 228.72173403092688,244.8116400001135 L 227.24267261493446,241.63951495091973 M 228.72173403092688,244.8116400001135 M 240,262 L 240,258.5 L 240,255 L 238.52093858400758,251.82787495080623 M 238.52093858400758,251.82787495080623 M 238.52093858400758,251.82787495080623 L 237.0418771680152,248.65574990161247 L 237.0418771680152,245.15574990161247 M 237.0418771680152,248.65574990161247 M 240,255 L 240,251.5 M 240,251.5 M 240,251.5 L 240,248 L 241.47906141599242,244.82787495080623 M 240,248 M 240,255 L 240,251.5 L 240,248 L 241.47906141599242,244.82787495080623 L 242.95812283198484,241.65574990161247 L 244.43718424797726,238.4836248524187 M 244.43718424797726,238.4836248524187 M 244.43718424797726,238.4836248524187 L 245.91624566396968,235.31149980322493 L 248.5972558165214,233.0615699016692 M 245.91624566396968,235.31149980322493 M 240,248 L 238.52093858400758,244.82787495080623 M 238.52093858400758,244.82787495080623 M 238.52093858400758,244.82787495080623 L 237.0418771680152,241.65574990161247 L 237.0418771680152,238.15574990161247 M 237.0418771680152,241.65574990161247 M 240,262 L 240,258.5 L 240,255 L 240,251.5 L 240,248 L 241.47906141599242,244.82787495080623 L 242.95812283198484,241.65574990161247 L 244.43718424797726,238.4836248524187 L 245.91624566396968,235.31149980322493 L 247.39530707996207,232.13937475403117 L 248.87436849595449,228.9672497048374 L 248.87436849595449,225.4672497048374 M 248.87436849595449,225.4672497048374 M 248.87436849595449,225.4672497048374 L 248.87436849595449,221.9672497048374 L 250.3534299119469,218.79512465564363 M 248.87436849595449,221.9672497048374 M 248.87436849595449,228.9672497048374 L 250.3534299119469,225.79512465564363 M 250.3534299119469,225.79512465564363 M 250.3534299119469,225.79512465564363 L 251.83249132793932,222.62299960644987 L 254.51350148049104,220.37306970489414 M 251.83249132793932,222.62299960644987 M 248.87436849595449,228.9672497048374 L 250.3534299119469,225.79512465564363 L 251.83249132793932,222.62299960644987 L 254.51350148049104,220.37306970489414 L 257.1945116330428,218.1231398033384 L 259.8755217855945,215.87320990178267 M 259.8755217855945,215.87320990178267 M 259.8755217855945,215.87320990178267 L 262.55653193814624,213.62328000022694 L 265.93718450046936,212.71708562104644 M 262.55653193814624,213.62328000022694 M 251.83249132793932,222.62299960644987 L 251.83249132793932,219.12299960644987 M 251.83249132793932,219.12299960644987 M 251.83249132793932,219.12299960644987 L 251.83249132793932,215.62299960644987 L 253.31155274393174,212.4508745572561 M 251.83249132793932,215.62299960644987 M 240,248 L 238.52093858400758,244.82787495080623 L 237.0418771680152,241.65574990161247 L 234.36086701546344,239.40582000005674 M 234.36086701546344,239.40582000005674 M 234.36086701546344,239.40582000005674 L 231.67985686291172,237.15589009850103 L 230.2007954469193,233.98376504930727 M 231.67985686291172,237.15589009850103 M 237.0418771680152,241.65574990161247 L 235.56281575202277,238.4836248524187 M 235.56281575202277,238.4836248524187 M 235.56281575202277,238.4836248524187 L 234.08375433603035,235.31149980322493 L 234.08375433603035,231.81149980322493 M 234.08375433603035,235.31149980322493 M 237.0418771680152,241.65574990161247 L 235.56281575202277,238.4836248524187 L 234.08375433603035,235.31149980322493 L 234.08375433603035,231.81149980322493 L 234.08375433603035,228.31149980322493 L 234.08375433603035,224.81149980322493 M 234.08375433603035,224.81149980322493 M 234.08375433603035,224.81149980322493 L 234.08375433603035,221.31149980322493 L 235.56281575202277,218.13937475403117 M 234.08375433603035,221.31149980322493 M 234.08375433603035,235.31149980322493 L 231.4027441834786,233.0615699016692 M 231.4027441834786,233.0615699016692 M 231.4027441834786,233.0615699016692 L 228.72173403092688,230.8116400001135 L 227.24267261493446,227.63951495091973 M 228.72173403092688,230.8116400001135 M 240,276 L 240,272.5 L 240,269 L 240,265.5 L 240,262 L 240,258.5 L 240,255 L 240,251.5 L 240,248 L 241.47906141599242,244.82787495080623 L 242.95812283198484,241.65574990161247 L 244.43718424797726,238.4836248524187 L 245.91624566396968,235.31149980322493 L 247.39530707996207,232.13937475403117 L 248.87436849595449,228.9672497048374 L 250.3534299119469,225.79512465564363 L 251.83249132793932,222.62299960644987 L 253.31155274393174,219.4508745572561 L 254.79061415992416,216.27874950806233 L 256.26967557591655,213.10662445886857 L 257.74873699190897,209.9344994096748 L 257.74873699190897,206.4344994096748 L 257.74873699190897,202.9344994096748 L 256.26967557591655,199.76237436048103 M 256.26967557591655,199.76237436048103 M 256.26967557591655,199.76237436048103 L 254.79061415992416,196.59024931128727 L 254.79061415992416,193.09024931128727 M 254.79061415992416,196.59024931128727 M 257.74873699190897,202.9344994096748 L 257.74873699190897,199.4344994096748 M 257.74873699190897,199.4344994096748 M 257.74873699190897,199.4344994096748 L 257.74873699190897,195.9344994096748 L 259.2277984079014,192.76237436048103 M 257.74873699190897,195.9344994096748 M 257.74873699190897,202.9344994096748 L 257.74873699190897,199.4344994096748 L 257.74873699190897,195.9344994096748 L 259.2277984079014,192.76237436048103 L 260.7068598238938,189.59024931128727 L 262.1859212398862,186.4181242620935 M 262.1859212398862,186.4181242620935 M 262.1859212398862,186.4181242620935 L 263.66498265587865,183.24599921289973 L 266.34599280843037,180.996069311344 M 263.66498265587865,183.24599921289973 M 257.74873699190897,195.9344994096748 L 256.26967557591655,192.76237436048103 M 256.26967557591655,192.76237436048103 M 256.26967557591655,192.76237436048103 L 254.79061415992416,189.59024931128727 L 254.79061415992416,186.09024931128727 M 254.79061415992416,189.59024931128727 M 257.74873699190897,209.9344994096748 L 259.2277984079014,206.76237436048103 L 260.7068598238938,203.59024931128727 L 260.7068598238938,200.09024931128727 M 260.7068598238938,200.09024931128727 M 260.7068598238938,200.09024931128727 L 260.7068598238938,196.59024931128727 L 262.1859212398862,193.4181242620935 M 260.7068598238938,196.59024931128727 M 260.7068598238938,203.59024931128727 L 262.1859212398862,200.4181242620935 M 262.1859212398862,200.4181242620935 M 262.1859212398862,200.4181242620935 L 263.66498265587865,197.24599921289973 L 266.34599280843037,194.996069311344 M 263.66498265587865,197.24599921289973 M 260.7068598238938,203.59024931128727 L 262.1859212398862,200.4181242620935 L 263.66498265587865,197.24599921289973 L 266.34599280843037,194.996069311344 L 269.0270029609821,192.74613940978827 L 271.70801311353387,190.49620950823254 M 271.70801311353387,190.49620950823254 M 271.70801311353387,190.49620950823254 L 274.3890232660856,188.2462796066768 L 277.76967582840865,187.3400852274963 M 274.3890232660856,188.2462796066768 M 263.66498265587865,197.24599921289973 L 263.66498265587865,193.74599921289973 M 263.66498265587865,193.74599921289973 M 263.66498265587865,193.74599921289973 L 263.66498265587865,190.24599921289973 L 265.14404407187106,187.07387416370597 M 263.66498265587865,190.24599921289973 M 257.74873699190897,209.9344994096748 L 259.2277984079014,206.76237436048103 L 260.7068598238938,203.59024931128727 L 262.1859212398862,200.4181242620935 L 263.66498265587865,197.24599921289973 L 266.34599280843037,194.996069311344 L 269.0270029609821,192.74613940978827 L 271.70801311353387,190.49620950823254 L 274.3890232660856,188.2462796066768 L 277.0700334186373,185.99634970512108 L 279.75104357118903,183.74641980356535 L 281.23010498718145,180.57429475437158 M 281.23010498718145,180.57429475437158 M 281.23010498718145,180.57429475437158 L 282.70916640317387,177.4021697051778 L 285.3901765557256,175.15223980362208 M 282.70916640317387,177.4021697051778 M 279.75104357118903,183.74641980356535 L 282.43205372374075,181.4964899020096 M 282.43205372374075,181.4964899020096 M 282.43205372374075,181.4964899020096 L 285.11306387629253,179.24656000045388 L 288.4937164386156,178.34036562127338 M 285.11306387629253,179.24656000045388 M 279.75104357118903,183.74641980356535 L 282.43205372374075,181.4964899020096 L 285.11306387629253,179.24656000045388 L 288.4937164386156,178.34036562127338 L 291.8743690009387,177.43417124209287 L 295.2550215632618,176.52797686291237 M 295.2550215632618,176.52797686291237 M 295.2550215632618,176.52797686291237 L 298.6356741255849,175.62178248373186 L 302.0825797876424,176.22910559120928 M 298.6356741255849,175.62178248373186 M 285.11306387629253,179.24656000045388 L 286.59212529228495,176.07443495126012 M 286.59212529228495,176.07443495126012 M 286.59212529228495,176.07443495126012 L 288.0711867082773,172.90230990206635 L 290.7521968608291,170.65238000051062 M 288.0711867082773,172.90230990206635 M 263.66498265587865,197.24599921289973 L 263.66498265587865,193.74599921289973 L 263.66498265587865,190.24599921289973 L 262.1859212398862,187.07387416370597 M 262.1859212398862,187.07387416370597 M 262.1859212398862,187.07387416370597 L 260.7068598238938,183.9017491145122 L 260.7068598238938,180.4017491145122 M 260.7068598238938,183.9017491145122 M 263.66498265587865,190.24599921289973 L 263.66498265587865,186.74599921289973 M 263.66498265587865,186.74599921289973 M 263.66498265587865,186.74599921289973 L 263.66498265587865,183.24599921289973 L 265.14404407187106,180.07387416370597 M 263.66498265587865,183.24599921289973 M 263.66498265587865,190.24599921289973 L 263.66498265587865,186.74599921289973 L 263.66498265587865,183.24599921289973 L 265.14404407187106,180.07387416370597 L 266.6231054878635,176.9017491145122 L 268.1021669038559,173.72962406531843 M 268.1021669038559,173.72962406531843 M 268.1021669038559,173.72962406531843 L 269.5812283198483,170.55749901612467 L 272.26223847240004,168.30756911456893 M 269.5812283198483,170.55749901612467 M 263.66498265587865,183.24599921289973 L 262.1859212398862,180.07387416370597 M 262.1859212398862,180.07387416370597 M 262.1859212398862,180.07387416370597 L 260.7068598238938,176.9017491145122 L 260.7068598238938,173.4017491145122 M 260.7068598238938,176.9017491145122 M 240,248 L 238.52093858400758,244.82787495080623 L 237.0418771680152,241.65574990161247 L 235.56281575202277,238.4836248524187 L 234.08375433603035,235.31149980322493 L 231.4027441834786,233.0615699016692 L 228.72173403092688,230.8116400001135 L 225.3410814686038,229.905445620933 M 225.3410814686038,229.905445620933 M 225.3410814686038,229.905445620933 L 221.9604289062807,228.9992512417525 L 219.27941875372898,226.74932134019676 M 221.9604289062807,228.9992512417525 M 228.72173403092688,230.8116400001135 L 226.04072387837516,228.56171009855777 M 226.04072387837516,228.56171009855777 M 226.04072387837516,228.56171009855777 L 223.3597137258234,226.31178019700204 L 221.88065230983102,223.13965514780827 M 223.3597137258234,226.31178019700204 M 228.72173403092688,230.8116400001135 L 226.04072387837516,228.56171009855777 L 223.3597137258234,226.31178019700204 L 221.88065230983102,223.13965514780827 L 220.4015908938386,219.9675300986145 L 218.92252947784618,216.79540504942074 M 218.92252947784618,216.79540504942074 M 218.92252947784618,216.79540504942074 L 217.44346806185376,213.62328000022697 L 217.44346806185376,210.12328000022697 M 217.44346806185376,213.62328000022697 M 223.3597137258234,226.31178019700204 L 219.97906116350032,225.40558581782153 M 219.97906116350032,225.40558581782153 M 219.97906116350032,225.40558581782153 L 216.59840860117725,224.49939143864103 L 213.9173984486255,222.2494615370853 M 216.59840860117725,224.49939143864103 M 234.08375433603035,235.31149980322493 L 232.60469292003793,232.13937475403117 L 231.12563150404551,228.9672497048374 L 228.4446213514938,226.71731980328167 M 228.4446213514938,226.71731980328167 M 228.4446213514938,226.71731980328167 L 225.76361119894204,224.46738990172594 L 224.28454978294965,221.29526485253217 M 225.76361119894204,224.46738990172594 M 231.12563150404551,228.9672497048374 L 229.6465700880531,225.79512465564363 M 229.6465700880531,225.79512465564363 M 229.6465700880531,225.79512465564363 L 228.1675086720607,222.62299960644987 L 228.1675086720607,219.12299960644987 M 228.1675086720607,222.62299960644987 M 231.12563150404551,228.9672497048374 L 229.6465700880531,225.79512465564363 L 228.1675086720607,222.62299960644987 L 228.1675086720607,219.12299960644987 L 228.1675086720607,215.62299960644987 L 228.1675086720607,212.12299960644987 M 228.1675086720607,212.12299960644987 M 228.1675086720607,212.12299960644987 L 228.1675086720607,208.62299960644987 L 229.6465700880531,205.4508745572561 M 228.1675086720607,208.62299960644987 M 228.1675086720607,222.62299960644987 L 225.48649851950896,220.37306970489414 M 225.48649851950896,220.37306970489414 M 225.48649851950896,220.37306970489414 L 222.80548836695723,218.1231398033384 L 221.32642695096482,214.95101475414464 M 222.80548836695723,218.1231398033384 M 234.08375433603035,235.31149980322493 L 232.60469292003793,232.13937475403117 L 231.12563150404551,228.9672497048374 L 229.6465700880531,225.79512465564363 L 228.1675086720607,222.62299960644987 L 228.1675086720607,219.12299960644987 L 228.1675086720607,215.62299960644987 L 228.1675086720607,212.12299960644987 L 228.1675086720607,208.62299960644987 L 228.1675086720607,205.12299960644987 L 228.1675086720607,201.62299960644987 L 226.6884472560683,198.4508745572561 M 226.6884472560683,198.4508745572561 M 226.6884472560683,198.4508745572561 L 225.20938584007587,195.27874950806233 L 225.20938584007587,191.77874950806233 M 225.20938584007587,195.27874950806233 M 228.1675086720607,201.62299960644987 L 228.1675086720607,198.12299960644987 M 228.1675086720607,198.12299960644987 M 228.1675086720607,198.12299960644987 L 228.1675086720607,194.62299960644987 L 229.6465700880531,191.4508745572561 M 228.1675086720607,194.62299960644987 M 228.1675086720607,201.62299960644987 L 228.1675086720607,198.12299960644987 L 228.1675086720607,194.62299960644987 L 229.6465700880531,191.4508745572561 L 231.12563150404551,188.27874950806233 L 232.60469292003793,185.10662445886857 M 232.60469292003793,185.10662445886857 M 232.60469292003793,185.10662445886857 L 234.08375433603035,181.9344994096748 L 236.76476448858207,179.68456950811907 M 234.08375433603035,181.9344994096748 M 228.1675086720607,194.62299960644987 L 226.6884472560683,191.4508745572561 M 226.6884472560683,191.4508745572561 M 226.6884472560683,191.4508745572561 L 225.20938584007587,188.27874950806233 L 225.20938584007587,184.77874950806233 M 225.20938584007587,188.27874950806233 M 228.1675086720607,222.62299960644987 L 225.48649851950896,220.37306970489414 L 222.80548836695723,218.1231398033384 L 219.42483580463414,217.2169454241579 M 219.42483580463414,217.2169454241579 M 219.42483580463414,217.2169454241579 L 216.04418324231105,216.3107510449774 L 213.36317308975933,214.06082114342166 M 216.04418324231105,216.3107510449774 M 222.80548836695723,218.1231398033384 L 220.12447821440549,215.87320990178267 M 220.12447821440549,215.87320990178267 M 220.12447821440549,215.87320990178267 L 217.44346806185376,213.62328000022694 L 215.96440664586135,210.45115495103317 M 217.44346806185376,213.62328000022694 M 222.80548836695723,218.1231398033384 L 220.12447821440549,215.87320990178267 L 217.44346806185376,213.62328000022694 L 215.96440664586135,210.45115495103317 L 214.48534522986893,207.2790299018394 L 213.0062838138765,204.10690485264564 M 213.0062838138765,204.10690485264564 M 213.0062838138765,204.10690485264564 L 211.5272223978841,200.93477980345187 L 211.5272223978841,197.43477980345187 M 211.5272223978841,200.93477980345187 M 217.44346806185376,213.62328000022694 L 214.06281549953067,212.71708562104644 M 214.06281549953067,212.71708562104644 M 214.06281549953067,212.71708562104644 L 210.68216293720758,211.81089124186593 L 208.00115278465586,209.5609613403102 M 210.68216293720758,211.81089124186593 M 240,304 L 240,300.5 L 240,297 L 240,293.5 L 240,290 L 240,286.5 L 240,283 L 240,279.5 L 240,276 L 240,272.5 L 240,269 L 240,265.5 L 240,262 L 240,258.5 L 240,255 L 240,251.5 L 240,248 L 241.47906141599242,244.82787495080623 L 242.95812283198484,241.65574990161247 L 244.43718424797726,238.4836248524187 L 245.91624566396968,235.31149980322493 L 247.39530707996207,232.13937475403117 L 248.87436849595449,228.9672497048374 L 250.3534299119469,225.79512465564363 L 251.83249132793932,222.62299960644987 L 253.31155274393174,219.4508745572561 L 254.79061415992416,216.27874950806233 L 256.26967557591655,213.10662445886857 L 257.74873699190897,209.9344994096748 L 259.2277984079014,206.76237436048103 L 260.7068598238938,203.59024931128727 L 262.1859212398862,200.4181242620935 L 263.66498265587865,197.24599921289973 L 265.14404407187106,194.07387416370597 L 266.6231054878635,190.9017491145122 L 268.1021669038559,187.72962406531843 L 269.5812283198483,184.55749901612467 L 271.06028973584074,181.3853739669309 L 272.53935115183316,178.21324891773713 L 274.0184125678255,175.04112386854337 L 275.49747398381794,171.8689988193496 L 275.49747398381794,168.3689988193496 L 275.49747398381794,164.8689988193496 L 275.49747398381794,161.3689988193496 L 275.49747398381794,157.8689988193496 L 274.0184125678255,154.69687377015583 L 272.53935115183316,151.52474872096207 L 269.8583409992814,149.27481881940633 M 269.8583409992814,149.27481881940633 M 269.8583409992814,149.27481881940633 L 267.17733084672966,147.0248889178506 L 265.69826943073724,143.85276386865684 M 267.17733084672966,147.0248889178506 M 272.53935115183316,151.52474872096207 L 271.06028973584074,148.3526236717683 M 271.06028973584074,148.3526236717683 M 271.06028973584074,148.3526236717683 L 269.5812283198483,145.18049862257453 L 269.5812283198483,141.68049862257453 M 269.5812283198483,145.18049862257453 M 272.53935115183316,151.52474872096207 L 271.06028973584074,148.3526236717683 L 269.5812283198483,145.18049862257453 L 269.5812283198483,141.68049862257453 L 269.5812283198483,138.18049862257453 L 269.5812283198483,134.68049862257453 M 269.5812283198483,134.68049862257453 M 269.5812283198483,134.68049862257453 L 269.5812283198483,131.18049862257453 L 271.06028973584074,128.00837357338077 M 269.5812283198483,131.18049862257453 M 269.5812283198483,145.18049862257453 L 266.9002181672966,142.9305687210188 M 266.9002181672966,142.9305687210188 M 266.9002181672966,142.9305687210188 L 264.2192080147448,140.68063881946307 L 262.7401465987524,137.5085137702693 M 264.2192080147448,140.68063881946307 M 275.49747398381794,157.8689988193496 L 275.49747398381794,154.3689988193496 L 275.49747398381794,150.8689988193496 L 274.0184125678255,147.69687377015583 M 274.0184125678255,147.69687377015583 M 274.0184125678255,147.69687377015583 L 272.53935115183316,144.52474872096207 L 272.53935115183316,141.02474872096207 M 272.53935115183316,144.52474872096207 M 275.49747398381794,150.8689988193496 L 275.49747398381794,147.3689988193496 M 275.49747398381794,147.3689988193496 M 275.49747398381794,147.3689988193496 L 275.49747398381794,143.8689988193496 L 276.97653539981036,140.69687377015583 M 275.49747398381794,143.8689988193496 M 275.49747398381794,150.8689988193496 L 275.49747398381794,147.3689988193496 L 275.49747398381794,143.8689988193496 L 276.97653539981036,140.69687377015583 L 278.4555968158028,137.52474872096207 L 279.9346582317952,134.3526236717683 M 279.9346582317952,134.3526236717683 M 279.9346582317952,134.3526236717683 L 281.4137196477876,131.18049862257453 L 284.09472980033934,128.9305687210188 M 281.4137196477876,131.18049862257453 M 275.49747398381794,143.8689988193496 L 274.0184125678255,140.69687377015583 M 274.0184125678255,140.69687377015583 M 274.0184125678255,140.69687377015583 L 272.53935115183316,137.52474872096207 L 272.53935115183316,134.02474872096207 M 272.53935115183316,137.52474872096207 M 275.49747398381794,157.8689988193496 L 275.49747398381794,154.3689988193496 L 275.49747398381794,150.8689988193496 L 275.49747398381794,147.3689988193496 L 275.49747398381794,143.8689988193496 L 276.97653539981036,140.69687377015583 L 278.4555968158028,137.52474872096207 L 279.9346582317952,134.3526236717683 L 281.4137196477876,131.18049862257453 L 282.89278106378003,128.00837357338077 L 284.37184247977245,124.836248524187 L 284.37184247977245,121.336248524187 M 284.37184247977245,121.336248524187 M 284.37184247977245,121.336248524187 L 284.37184247977245,117.836248524187 L 285.8509038957649,114.66412347499323 M 284.37184247977245,117.836248524187 M 284.37184247977245,124.836248524187 L 285.8509038957649,121.66412347499323 M 285.8509038957649,121.66412347499323 M 285.8509038957649,121.66412347499323 L 287.32996531175723,118.49199842579947 L 290.010975464309,116.24206852424373 M 287.32996531175723,118.49199842579947 M 284.37184247977245,124.836248524187 L 285.8509038957649,121.66412347499323 L 287.32996531175723,118.49199842579947 L 290.010975464309,116.24206852424373 L 292.69198561686073,113.992138622688 L 295.37299576941246,111.74220872113227 M 295.37299576941246,111.74220872113227 M 295.37299576941246,111.74220872113227 L 298.0540059219642,109.49227881957654 L 301.4346584842873,108.58608444039604 M 298.0540059219642,109.49227881957654 M 287.32996531175723,118.49199842579947 L 287.32996531175723,114.99199842579947 M 287.32996531175723,114.99199842579947 M 287.32996531175723,114.99199842579947 L 287.32996531175723,111.49199842579947 L 288.80902672774965,108.3198733766057 M 287.32996531175723,111.49199842579947 M 275.49747398381794,143.8689988193496 L 274.0184125678255,140.69687377015583 L 272.53935115183316,137.52474872096207 L 269.8583409992814,135.27481881940633 M 269.8583409992814,135.27481881940633 M 269.8583409992814,135.27481881940633 L 267.17733084672966,133.0248889178506 L 265.69826943073724,129.85276386865684 M 267.17733084672966,133.0248889178506 M 272.53935115183316,137.52474872096207 L 271.06028973584074,134.3526236717683 M 271.06028973584074,134.3526236717683 M 271.06028973584074,134.3526236717683 L 269.5812283198483,131.18049862257453 L 269.5812283198483,127.68049862257453 M 269.5812283198483,131.18049862257453 M 272.53935115183316,137.52474872096207 L 271.06028973584074,134.3526236717683 L 269.5812283198483,131.18049862257453 L 269.5812283198483,127.68049862257453 L 269.5812283198483,124.18049862257453 L 269.5812283198483,120.68049862257453 M 269.5812283198483,120.68049862257453 M 269.5812283198483,120.68049862257453 L 269.5812283198483,117.18049862257453 L 271.06028973584074,114.00837357338077 M 269.5812283198483,117.18049862257453 M 269.5812283198483,131.18049862257453 L 266.9002181672966,128.9305687210188 M 266.9002181672966,128.9305687210188 M 266.9002181672966,128.9305687210188 L 264.2192080147448,126.68063881946307 L 262.7401465987524,123.5085137702693 M 264.2192080147448,126.68063881946307 M 275.49747398381794,171.8689988193496 L 276.97653539981036,168.69687377015583 L 278.4555968158028,165.52474872096207 L 279.9346582317952,162.3526236717683 L 281.4137196477876,159.18049862257453 L 281.4137196477876,155.68049862257453 L 281.4137196477876,152.18049862257453 L 279.9346582317952,149.00837357338077 M 279.9346582317952,149.00837357338077 M 279.9346582317952,149.00837357338077 L 278.4555968158028,145.836248524187 L 278.4555968158028,142.336248524187 M 278.4555968158028,145.836248524187 M 281.4137196477876,152.18049862257453 L 281.4137196477876,148.68049862257453 M 281.4137196477876,148.68049862257453 M 281.4137196477876,148.68049862257453 L 281.4137196477876,145.18049862257453 L 282.89278106378003,142.00837357338077 M 281.4137196477876,145.18049862257453 M 281.4137196477876,152.18049862257453 L 281.4137196477876,148.68049862257453 L 281.4137196477876,145.18049862257453 L 282.89278106378003,142.00837357338077 L 284.37184247977245,138.836248524187 L 285.8509038957649,135.66412347499323 M 285.8509038957649,135.66412347499323 M 285.8509038957649,135.66412347499323 L 287.32996531175723,132.49199842579947 L 290.010975464309,130.24206852424373 M 287.32996531175723,132.49199842579947 M 281.4137196477876,145.18049862257453 L 279.9346582317952,142.00837357338077 M 279.9346582317952,142.00837357338077 M 279.9346582317952,142.00837357338077 L 278.4555968158028,138.836248524187 L 278.4555968158028,135.336248524187 M 278.4555968158028,138.836248524187 M 281.4137196477876,159.18049862257453 L 282.89278106378003,156.00837357338077 L 284.37184247977245,152.836248524187 L 284.37184247977245,149.336248524187 M 284.37184247977245,149.336248524187 M 284.37184247977245,149.336248524187 L 284.37184247977245,145.836248524187 L 285.8509038957649,142.66412347499323 M 284.37184247977245,145.836248524187 M 284.37184247977245,152.836248524187 L 285.8509038957649,149.66412347499323 M 285.8509038957649,149.66412347499323 M 285.8509038957649,149.66412347499323 L 287.32996531175723,146.49199842579947 L 290.010975464309,144.24206852424373 M 287.32996531175723,146.49199842579947 M 284.37184247977245,152.836248524187 L 285.8509038957649,149.66412347499323 L 287.32996531175723,146.49199842579947 L 290.010975464309,144.24206852424373 L 292.69198561686073,141.992138622688 L 295.37299576941246,139.74220872113227 M 295.37299576941246,139.74220872113227 M 295.37299576941246,139.74220872113227 L 298.0540059219642,137.49227881957654 L 301.4346584842873,136.58608444039604 M 298.0540059219642,137.49227881957654 M 287.32996531175723,146.49199842579947 L 287.32996531175723,142.99199842579947 M 287.32996531175723,142.99199842579947 M 287.32996531175723,142.99199842579947 L 287.32996531175723,139.49199842579947 L 288.80902672774965,136.3198733766057 M 287.32996531175723,139.49199842579947 M 281.4137196477876,159.18049862257453 L 282.89278106378003,156.00837357338077 L 284.37184247977245,152.836248524187 L 285.8509038957649,149.66412347499323 L 287.32996531175723,146.49199842579947 L 290.010975464309,144.24206852424373 L 292.69198561686073,141.992138622688 L 295.37299576941246,139.74220872113227 L 298.0540059219642,137.49227881957654 L 300.7350160745159,135.2423489180208 L 303.4160262270677,132.99241901646508 L 304.8950876430601,129.8202939672713 M 304.8950876430601,129.8202939672713 M 304.8950876430601,129.8202939672713 L 306.3741490590525,126.64816891807754 L 309.05515921160423,124.39823901652181 M 306.3741490590525,126.64816891807754 M 303.4160262270677,132.99241901646508 L 306.0970363796194,130.74248911490935 M 306.0970363796194,130.74248911490935 M 306.0970363796194,130.74248911490935 L 308.7780465321711,128.49255921335362 L 312.15869909449424,127.58636483417311 M 308.7780465321711,128.49255921335362 M 303.4160262270677,132.99241901646508 L 306.0970363796194,130.74248911490935 L 308.7780465321711,128.49255921335362 L 312.15869909449424,127.58636483417311 L 315.5393516568173,126.6801704549926 L 318.9200042191404,125.7739760758121 M 318.9200042191404,125.7739760758121 M 318.9200042191404,125.7739760758121 L 322.3006567814635,124.8677816966316 L 325.747562443521,125.47510480410901 M 322.3006567814635,124.8677816966316 M 308.7780465321711,128.49255921335362 L 310.25710794816354,125.32043416415985 M 310.25710794816354,125.32043416415985 M 310.25710794816354,125.32043416415985 L 311.73616936415596,122.14830911496608 L 314.41717951670773,119.89837921341035 M 311.73616936415596,122.14830911496608 M 287.32996531175723,146.49199842579947 L 287.32996531175723,142.99199842579947 L 287.32996531175723,139.49199842579947 L 285.8509038957649,136.3198733766057 M 285.8509038957649,136.3198733766057 M 285.8509038957649,136.3198733766057 L 284.37184247977245,133.14774832741193 L 284.37184247977245,129.64774832741193 M 284.37184247977245,133.14774832741193 M 287.32996531175723,139.49199842579947 L 287.32996531175723,135.99199842579947 M 287.32996531175723,135.99199842579947 M 287.32996531175723,135.99199842579947 L 287.32996531175723,132.49199842579947 L 288.80902672774965,129.3198733766057 M 287.32996531175723,132.49199842579947 M 287.32996531175723,139.49199842579947 L 287.32996531175723,135.99199842579947 L 287.32996531175723,132.49199842579947 L 288.80902672774965,129.3198733766057 L 290.2880881437421,126.14774832741193 L 291.7671495597345,122.97562327821817 M 291.7671495597345,122.97562327821817 M 291.7671495597345,122.97562327821817 L 293.2462109757269,119.8034982290244 L 295.92722112827863,117.55356832746867 M 293.2462109757269,119.8034982290244 M 287.32996531175723,132.49199842579947 L 285.8509038957649,129.3198733766057 M 285.8509038957649,129.3198733766057 M 285.8509038957649,129.3198733766057 L 284.37184247977245,126.14774832741193 L 284.37184247977245,122.64774832741193 M 284.37184247977245,126.14774832741193 M 275.49747398381794,171.8689988193496 L 276.97653539981036,168.69687377015583 L 278.4555968158028,165.52474872096207 L 279.9346582317952,162.3526236717683 L 281.4137196477876,159.18049862257453 L 282.89278106378003,156.00837357338077 L 284.37184247977245,152.836248524187 L 285.8509038957649,149.66412347499323 L 287.32996531175723,146.49199842579947 L 290.010975464309,144.24206852424373 L 292.69198561686073,141.992138622688 L 295.37299576941246,139.74220872113227 L 298.0540059219642,137.49227881957654 L 300.7350160745159,135.2423489180208 L 303.4160262270677,132.99241901646508 L 306.0970363796194,130.74248911490935 L 308.7780465321711,128.49255921335362 L 311.4590566847229,126.24262931179788 L 314.1400668372746,123.99269941024215 L 316.82107698982634,121.74276950868642 L 319.50208714237806,119.49283960713069 L 320.9811485583705,116.32071455793692 L 322.4602099743629,113.14858950874316 L 322.4602099743629,109.64858950874316 M 322.4602099743629,109.64858950874316 M 322.4602099743629,109.64858950874316 L 322.4602099743629,106.14858950874316 L 323.9392713903553,102.97646445954939 M 322.4602099743629,106.14858950874316 M 322.4602099743629,113.14858950874316 L 323.9392713903553,109.97646445954939 M 323.9392713903553,109.97646445954939 M 323.9392713903553,109.97646445954939 L 325.41833280634773,106.80433941035562 L 328.09934295889946,104.55440950879989 M 325.41833280634773,106.80433941035562 M 322.4602099743629,113.14858950874316 L 323.9392713903553,109.97646445954939 L 325.41833280634773,106.80433941035562 L 328.09934295889946,104.55440950879989 L 330.78035311145123,102.30447960724416 L 333.46136326400296,100.05454970568843 M 333.46136326400296,100.05454970568843 M 333.46136326400296,100.05454970568843 L 336.1423734165547,97.8046198041327 L 339.5230259788778,96.89842542495222 M 336.1423734165547,97.8046198041327 M 325.41833280634773,106.80433941035562 L 325.41833280634773,103.30433941035562 M 325.41833280634773,103.30433941035562 M 325.41833280634773,103.30433941035562 L 325.41833280634773,99.80433941035562 L 326.89739422234015,96.63221436116186 M 325.41833280634773,99.80433941035562 M 319.50208714237806,119.49283960713069 L 322.1830972949298,117.24290970557496 L 324.86410744748156,114.99297980401923 L 326.343168863474,111.82085475482546 M 326.343168863474,111.82085475482546 M 326.343168863474,111.82085475482546 L 327.8222302794664,108.6487297056317 L 330.5032404320181,106.39879980407596 M 327.8222302794664,108.6487297056317 M 324.86410744748156,114.99297980401923 L 327.5451176000333,112.7430499024635 M 327.5451176000333,112.7430499024635 M 327.5451176000333,112.7430499024635 L 330.226127752585,110.49312000090777 L 333.6067803149081,109.58692562172726 M 330.226127752585,110.49312000090777 M 324.86410744748156,114.99297980401923 L 327.5451176000333,112.7430499024635 L 330.226127752585,110.49312000090777 L 333.6067803149081,109.58692562172726 L 336.9874328772312,108.68073124254676 L 340.3680854395543,107.77453686336625 M 340.3680854395543,107.77453686336625 M 340.3680854395543,107.77453686336625 L 343.74873800187737,106.86834248418575 L 347.1956436639349,107.47566559166316 M 343.74873800187737,106.86834248418575 M 330.226127752585,110.49312000090777 L 331.7051891685774,107.320994951714 M 331.7051891685774,107.320994951714 M 331.7051891685774,107.320994951714 L 333.18425058456984,104.14886990252023 L 335.8652607371216,101.8989400009645 M 333.18425058456984,104.14886990252023 M 319.50208714237806,119.49283960713069 L 322.1830972949298,117.24290970557496 L 324.86410744748156,114.99297980401923 L 327.5451176000333,112.7430499024635 L 330.226127752585,110.49312000090777 L 333.6067803149081,109.58692562172726 L 336.9874328772312,108.68073124254676 L 340.3680854395543,107.77453686336625 L 343.74873800187737,106.86834248418575 L 347.1293905642005,105.96214810500524 L 350.51004312652356,105.05595372582474 L 353.1910532790753,102.806023824269 M 353.1910532790753,102.806023824269 M 353.1910532790753,102.806023824269 L 355.87206343162705,100.55609392271327 L 359.2527159939501,99.6498995435328 M 355.87206343162705,100.55609392271327 M 350.51004312652356,105.05595372582474 L 353.8906956888467,104.14975934664423 M 353.8906956888467,104.14975934664423 M 353.8906956888467,104.14975934664423 L 357.27134825116974,103.24356496746373 L 360.7182539132273,103.85088807494111 M 357.27134825116974,103.24356496746373 M 350.51004312652356,105.05595372582474 L 353.8906956888467,104.14975934664423 L 357.27134825116974,103.24356496746373 L 360.7182539132273,103.85088807494111 L 364.16515957528475,104.45821118241852 L 367.6120652373422,105.06553428989594 M 367.6120652373422,105.06553428989594 M 367.6120652373422,105.06553428989594 L 371.0589708993997,105.67285739737335 L 373.9263273615454,107.67991168637286 M 371.0589708993997,105.67285739737335 M 357.27134825116974,103.24356496746373 L 359.9523584037215,100.993635065908 M 359.9523584037215,100.993635065908 M 359.9523584037215,100.993635065908 L 362.63336855627324,98.74370516435226 L 366.0140211185963,97.83751078517179 M 362.63336855627324,98.74370516435226 M 330.226127752585,110.49312000090777 L 331.7051891685774,107.320994951714 L 333.18425058456984,104.14886990252023 L 333.18425058456984,100.64886990252023 M 333.18425058456984,100.64886990252023 M 333.18425058456984,100.64886990252023 L 333.18425058456984,97.14886990252023 L 334.66331200056226,93.97674485332647 M 333.18425058456984,97.14886990252023 M 333.18425058456984,104.14886990252023 L 334.66331200056226,100.97674485332647 M 334.66331200056226,100.97674485332647 M 334.66331200056226,100.97674485332647 L 336.1423734165547,97.8046198041327 L 338.82338356910645,95.55468990257697 M 336.1423734165547,97.8046198041327 M 333.18425058456984,104.14886990252023 L 334.66331200056226,100.97674485332647 L 336.1423734165547,97.8046198041327 L 338.82338356910645,95.55468990257697 L 341.5043937216582,93.30476000102124 L 344.1854038742099,91.0548300994655 M 344.1854038742099,91.0548300994655 M 344.1854038742099,91.0548300994655 L 346.8664140267616,88.80490019790977 L 350.24706658908474,87.8987058187293 M 346.8664140267616,88.80490019790977 M 336.1423734165547,97.8046198041327 L 336.1423734165547,94.3046198041327 M 336.1423734165547,94.3046198041327 M 336.1423734165547,94.3046198041327 L 336.1423734165547,90.8046198041327 L 337.6214348325471,87.63249475493893 M 336.1423734165547,90.8046198041327 M 287.32996531175723,146.49199842579947 L 287.32996531175723,142.99199842579947 L 287.32996531175723,139.49199842579947 L 287.32996531175723,135.99199842579947 L 287.32996531175723,132.49199842579947 L 285.8509038957649,129.3198733766057 L 284.37184247977245,126.14774832741193 L 281.69083232722073,123.8978184258562 M 281.69083232722073,123.8978184258562 M 281.69083232722073,123.8978184258562 L 279.00982217466895,121.64788852430047 L 277.53076075867654,118.4757634751067 M 279.00982217466895,121.64788852430047 M 284.37184247977245,126.14774832741193 L 282.89278106378003,122.97562327821817 M 282.89278106378003,122.97562327821817 M 282.89278106378003,122.97562327821817 L 281.4137196477876,119.8034982290244 L 281.4137196477876,116.3034982290244 M 281.4137196477876,119.8034982290244 M 284.37184247977245,126.14774832741193 L 282.89278106378003,122.97562327821817 L 281.4137196477876,119.8034982290244 L 281.4137196477876,116.3034982290244 L 281.4137196477876,112.8034982290244 L 281.4137196477876,109.3034982290244 M 281.4137196477876,109.3034982290244 M 281.4137196477876,109.3034982290244 L 281.4137196477876,105.8034982290244 L 282.89278106378003,102.63137317983063 M 281.4137196477876,105.8034982290244 M 281.4137196477876,119.8034982290244 L 278.7327094952359,117.55356832746867 M 278.7327094952359,117.55356832746867 M 278.7327094952359,117.55356832746867 L 276.0516993426842,115.30363842591294 L 274.57263792669175,112.13151337671917 M 276.0516993426842,115.30363842591294 M 287.32996531175723,132.49199842579947 L 287.32996531175723,128.99199842579947 L 287.32996531175723,125.49199842579947 L 285.8509038957649,122.3198733766057 M 285.8509038957649,122.3198733766057 M 285.8509038957649,122.3198733766057 L 284.37184247977245,119.14774832741193 L 284.37184247977245,115.64774832741193 M 284.37184247977245,119.14774832741193 M 287.32996531175723,125.49199842579947 L 287.32996531175723,121.99199842579947 M 287.32996531175723,121.99199842579947 M 287.32996531175723,121.99199842579947 L 287.32996531175723,118.49199842579947 L 288.80902672774965,115.3198733766057 M 287.32996531175723,118.49199842579947 M 287.32996531175723,125.49199842579947 L 287.32996531175723,121.99199842579947 L 287.32996531175723,118.49199842579947 L 288.80902672774965,115.3198733766057 L 290.2880881437421,112.14774832741193 L 291.7671495597345,108.97562327821817 M 291.7671495597345,108.97562327821817 M 291.7671495597345,108.97562327821817 L 293.2462109757269,105.8034982290244 L 295.92722112827863,103.55356832746867 M 293.2462109757269,105.8034982290244 M 287.32996531175723,118.49199842579947 L 285.8509038957649,115.3198733766057 M 285.8509038957649,115.3198733766057 M 285.8509038957649,115.3198733766057 L 284.37184247977245,112.14774832741193 L 284.37184247977245,108.64774832741193 M 284.37184247977245,112.14774832741193 M 287.32996531175723,132.49199842579947 L 287.32996531175723,128.99199842579947 L 287.32996531175723,125.49199842579947 L 287.32996531175723,121.99199842579947 L 287.32996531175723,118.49199842579947 L 288.80902672774965,115.3198733766057 L 290.2880881437421,112.14774832741193 L 291.7671495597345,108.97562327821817 L 293.2462109757269,105.8034982290244 L 294.72527239171933,102.63137317983063 L 296.20433380771175,99.45924813063687 L 296.20433380771175,95.95924813063687 M 296.20433380771175,95.95924813063687 M 296.20433380771175,95.95924813063687 L 296.20433380771175,92.45924813063687 L 297.6833952237041,89.2871230814431 M 296.20433380771175,92.45924813063687 M 296.20433380771175,99.45924813063687 L 297.6833952237041,96.2871230814431 M 297.6833952237041,96.2871230814431 M 297.6833952237041,96.2871230814431 L 299.16245663969653,93.11499803224933 L 301.84346679224825,90.8650681306936 M 299.16245663969653,93.11499803224933 M 296.20433380771175,99.45924813063687 L 297.6833952237041,96.2871230814431 L 299.16245663969653,93.11499803224933 L 301.84346679224825,90.8650681306936 L 304.5244769448,88.61513822913787 L 307.20548709735175,86.36520832758214 M 307.20548709735175,86.36520832758214 M 307.20548709735175,86.36520832758214 L 309.88649724990347,84.1152784260264 L 313.2671498122266,83.20908404684593 M 309.88649724990347,84.1152784260264 M 299.16245663969653,93.11499803224933 L 299.16245663969653,89.61499803224933 M 299.16245663969653,89.61499803224933 M 299.16245663969653,89.61499803224933 L 299.16245663969653,86.11499803224933 L 300.64151805568895,82.94287298305557 M 299.16245663969653,86.11499803224933 M 287.32996531175723,118.49199842579947 L 285.8509038957649,115.3198733766057 L 284.37184247977245,112.14774832741193 L 281.69083232722073,109.8978184258562 M 281.69083232722073,109.8978184258562 M 281.69083232722073,109.8978184258562 L 279.00982217466895,107.64788852430047 L 277.53076075867654,104.4757634751067 M 279.00982217466895,107.64788852430047 M 284.37184247977245,112.14774832741193 L 282.89278106378003,108.97562327821817 M 282.89278106378003,108.97562327821817 M 282.89278106378003,108.97562327821817 L 281.4137196477876,105.8034982290244 L 281.4137196477876,102.3034982290244 M 281.4137196477876,105.8034982290244 M 284.37184247977245,112.14774832741193 L 282.89278106378003,108.97562327821817 L 281.4137196477876,105.8034982290244 L 281.4137196477876,102.3034982290244 L 281.4137196477876,98.8034982290244 L 281.4137196477876,95.3034982290244 M 281.4137196477876,95.3034982290244 M 281.4137196477876,95.3034982290244 L 281.4137196477876,91.8034982290244 L 282.89278106378003,88.63137317983063 M 281.4137196477876,91.8034982290244 M 281.4137196477876,105.8034982290244 L 278.7327094952359,103.55356832746867 M 278.7327094952359,103.55356832746867 M 278.7327094952359,103.55356832746867 L 276.0516993426842,101.30363842591294 L 274.57263792669175,98.13151337671917 M 276.0516993426842,101.30363842591294 M 240,248 L 238.52093858400758,244.82787495080623 L 237.0418771680152,241.65574990161247 L 235.56281575202277,238.4836248524187 L 234.08375433603035,235.31149980322493 L 232.60469292003793,232.13937475403117 L 231.12563150404551,228.9672497048374 L 229.6465700880531,225.79512465564363 L 228.1675086720607,222.62299960644987 L 225.48649851950896,220.37306970489414 L 222.80548836695723,218.1231398033384 L 220.12447821440549,215.87320990178267 L 217.44346806185376,213.62328000022694 L 214.06281549953067,212.71708562104644 L 210.68216293720758,211.81089124186593 L 207.2352572751501,212.41821434934334 M 207.2352572751501,212.41821434934334 M 207.2352572751501,212.41821434934334 L 203.7883516130926,213.02553745682076 L 200.4076990507695,212.11934307764025 M 203.7883516130926,213.02553745682076 M 210.68216293720758,211.81089124186593 L 207.30151037488451,210.90469686268543 M 207.30151037488451,210.90469686268543 M 207.30151037488451,210.90469686268543 L 203.9208578125614,209.99850248350492 L 201.23984766000967,207.7485725819492 M 203.9208578125614,209.99850248350492 M 210.68216293720758,211.81089124186593 L 207.30151037488451,210.90469686268543 L 203.9208578125614,209.99850248350492 L 201.23984766000967,207.7485725819492 L 198.55883750745795,205.49864268039346 L 195.8778273549062,203.24871277883773 M 195.8778273549062,203.24871277883773 M 195.8778273549062,203.24871277883773 L 193.19681720235445,200.998782877282 L 191.71775578636206,197.82665782808823 M 193.19681720235445,200.998782877282 M 203.9208578125614,209.99850248350492 L 200.47395215050392,210.60582559098233 M 200.47395215050392,210.60582559098233 M 200.47395215050392,210.60582559098233 L 197.02704648844644,211.21314869845975 L 193.64639392612332,210.30695431927924 M 197.02704648844644,211.21314869845975 M 217.44346806185376,213.62328000022694 L 214.76245790930204,211.3733500986712 L 212.0814477567503,209.12342019711548 L 208.7007951944272,208.21722581793497 M 208.7007951944272,208.21722581793497 M 208.7007951944272,208.21722581793497 L 205.32014263210414,207.31103143875447 L 202.6391324795524,205.06110153719874 M 205.32014263210414,207.31103143875447 M 212.0814477567503,209.12342019711548 L 209.40043760419857,206.87349029555975 M 209.40043760419857,206.87349029555975 M 209.40043760419857,206.87349029555975 L 206.71942745164682,204.62356039400402 L 205.24036603565443,201.45143534481025 M 206.71942745164682,204.62356039400402 M 212.0814477567503,209.12342019711548 L 209.40043760419857,206.87349029555975 L 206.71942745164682,204.62356039400402 L 205.24036603565443,201.45143534481025 L 203.761304619662,198.27931029561648 L 202.2822432036696,195.10718524642272 M 202.2822432036696,195.10718524642272 M 202.2822432036696,195.10718524642272 L 200.8031817876772,191.93506019722895 L 200.8031817876772,188.43506019722895 M 200.8031817876772,191.93506019722895 M 206.71942745164682,204.62356039400402 L 203.33877488932376,203.7173660148235 M 203.33877488932376,203.7173660148235 M 203.33877488932376,203.7173660148235 L 199.95812232700064,202.811171635643 L 197.27711217444892,200.56124173408728 M 199.95812232700064,202.811171635643 M 217.44346806185376,213.62328000022694 L 214.76245790930204,211.3733500986712 L 212.0814477567503,209.12342019711548 L 209.40043760419857,206.87349029555975 L 206.71942745164682,204.62356039400402 L 205.24036603565443,201.45143534481025 L 203.761304619662,198.27931029561648 L 202.2822432036696,195.10718524642272 L 200.8031817876772,191.93506019722895 L 199.32412037168478,188.76293514803518 L 197.84505895569237,185.59081009884142 L 195.16404880314064,183.34088019728568 M 195.16404880314064,183.34088019728568 M 195.16404880314064,183.34088019728568 L 192.4830386505889,181.09095029572995 L 191.00397723459648,177.9188252465362 M 192.4830386505889,181.09095029572995 M 197.84505895569237,185.59081009884142 L 196.36599753969995,182.41868504964765 M 196.36599753969995,182.41868504964765 M 196.36599753969995,182.41868504964765 L 194.88693612370753,179.24656000045388 L 194.88693612370753,175.74656000045388 M 194.88693612370753,179.24656000045388 M 197.84505895569237,185.59081009884142 L 196.36599753969995,182.41868504964765 L 194.88693612370753,179.24656000045388 L 194.88693612370753,175.74656000045388 L 194.88693612370753,172.24656000045388 L 194.88693612370753,168.74656000045388 M 194.88693612370753,168.74656000045388 M 194.88693612370753,168.74656000045388 L 194.88693612370753,165.24656000045388 L 196.36599753969995,162.07443495126012 M 194.88693612370753,165.24656000045388 M 194.88693612370753,179.24656000045388 L 192.2059259711558,176.99663009889815 M 192.2059259711558,176.99663009889815 M 192.2059259711558,176.99663009889815 L 189.5249158186041,174.74670019734242 L 188.04585440261167,171.57457514814865 M 189.5249158186041,174.74670019734242 M 206.71942745164682,204.62356039400402 L 203.33877488932376,203.7173660148235 L 199.95812232700064,202.811171635643 L 196.51121666494316,203.41849474312042 M 196.51121666494316,203.41849474312042 M 196.51121666494316,203.41849474312042 L 193.0643110028857,204.02581785059783 L 189.68365844056257,203.11962347141733 M 193.0643110028857,204.02581785059783 M 199.95812232700064,202.811171635643 L 196.57746976467757,201.9049772564625 M 196.57746976467757,201.9049772564625 M 196.57746976467757,201.9049772564625 L 193.19681720235445,200.998782877282 L 190.51580704980273,198.74885297572627 M 193.19681720235445,200.998782877282 M 199.95812232700064,202.811171635643 L 196.57746976467757,201.9049772564625 L 193.19681720235445,200.998782877282 L 190.51580704980273,198.74885297572627 L 187.834796897251,196.49892307417053 L 185.15378674469926,194.2489931726148 M 185.15378674469926,194.2489931726148 M 185.15378674469926,194.2489931726148 L 182.4727765921475,191.99906327105907 L 180.99371517615512,188.8269382218653 M 182.4727765921475,191.99906327105907 M 193.19681720235445,200.998782877282 L 189.74991154029698,201.6061059847594 M 189.74991154029698,201.6061059847594 M 189.74991154029698,201.6061059847594 L 186.3030058782395,202.21342909223682 L 182.92235331591638,201.30723471305632 M 186.3030058782395,202.21342909223682 M 228.1675086720607,222.62299960644987 L 226.6884472560683,219.4508745572561 L 225.20938584007587,216.27874950806233 L 223.73032442408345,213.10662445886857 L 222.25126300809103,209.9344994096748 L 219.5702528555393,207.68456950811907 L 216.88924270298756,205.43463960656334 L 213.50859014066447,204.52844522738283 M 213.50859014066447,204.52844522738283 M 213.50859014066447,204.52844522738283 L 210.1279375783414,203.62225084820233 L 207.44692742578965,201.3723209466466 M 210.1279375783414,203.62225084820233 M 216.88924270298756,205.43463960656334 L 214.20823255043584,203.1847097050076 M 214.20823255043584,203.1847097050076 M 214.20823255043584,203.1847097050076 L 211.5272223978841,200.93477980345187 L 210.0481609818917,197.7626547542581 M 211.5272223978841,200.93477980345187 M 216.88924270298756,205.43463960656334 L 214.20823255043584,203.1847097050076 L 211.5272223978841,200.93477980345187 L 210.0481609818917,197.7626547542581 L 208.56909956589928,194.59052970506434 L 207.09003814990686,191.41840465587057 M 207.09003814990686,191.41840465587057 M 207.09003814990686,191.41840465587057 L 205.61097673391444,188.2462796066768 L 205.61097673391444,184.7462796066768 M 205.61097673391444,188.2462796066768 M 211.5272223978841,200.93477980345187 L 208.14656983556102,200.02858542427137 M 208.14656983556102,200.02858542427137 M 208.14656983556102,200.02858542427137 L 204.76591727323793,199.12239104509086 L 202.08490712068618,196.87246114353513 M 204.76591727323793,199.12239104509086 M 222.25126300809103,209.9344994096748 L 220.7722015920986,206.76237436048103 L 219.2931401761062,203.59024931128727 L 216.61213002355447,201.34031940973153 M 216.61213002355447,201.34031940973153 M 216.61213002355447,201.34031940973153 L 213.93111987100275,199.0903895081758 L 212.45205845501033,195.91826445898204 M 213.93111987100275,199.0903895081758 M 219.2931401761062,203.59024931128727 L 217.81407876011377,200.4181242620935 M 217.81407876011377,200.4181242620935 M 217.81407876011377,200.4181242620935 L 216.33501734412135,197.24599921289973 L 216.33501734412135,193.74599921289973 M 216.33501734412135,197.24599921289973 M 219.2931401761062,203.59024931128727 L 217.81407876011377,200.4181242620935 L 216.33501734412135,197.24599921289973 L 216.33501734412135,193.74599921289973 L 216.33501734412135,190.24599921289973 L 216.33501734412135,186.74599921289973 M 216.33501734412135,186.74599921289973 M 216.33501734412135,186.74599921289973 L 216.33501734412135,183.24599921289973 L 217.81407876011377,180.07387416370597 M 216.33501734412135,183.24599921289973 M 216.33501734412135,197.24599921289973 L 213.65400719156963,194.996069311344 M 213.65400719156963,194.996069311344 M 213.65400719156963,194.996069311344 L 210.9729970390179,192.74613940978827 L 209.4939356230255,189.5740143605945 M 210.9729970390179,192.74613940978827 M 222.25126300809103,209.9344994096748 L 220.7722015920986,206.76237436048103 L 219.2931401761062,203.59024931128727 L 217.81407876011377,200.4181242620935 L 216.33501734412135,197.24599921289973 L 216.33501734412135,193.74599921289973 L 216.33501734412135,190.24599921289973 L 216.33501734412135,186.74599921289973 L 216.33501734412135,183.24599921289973 L 216.33501734412135,179.74599921289973 L 216.33501734412135,176.24599921289973 L 214.85595592812896,173.07387416370597 M 214.85595592812896,173.07387416370597 M 214.85595592812896,173.07387416370597 L 213.37689451213654,169.9017491145122 L 213.37689451213654,166.4017491145122 M 213.37689451213654,169.9017491145122 M 216.33501734412135,176.24599921289973 L 216.33501734412135,172.74599921289973 M 216.33501734412135,172.74599921289973 M 216.33501734412135,172.74599921289973 L 216.33501734412135,169.24599921289973 L 217.81407876011377,166.07387416370597 M 216.33501734412135,169.24599921289973 M 216.33501734412135,176.24599921289973 L 216.33501734412135,172.74599921289973 L 216.33501734412135,169.24599921289973 L 217.81407876011377,166.07387416370597 L 219.2931401761062,162.9017491145122 L 220.7722015920986,159.72962406531843 M 220.7722015920986,159.72962406531843 M 220.7722015920986,159.72962406531843 L 222.25126300809103,156.55749901612467 L 224.93227316064275,154.30756911456893 M 222.25126300809103,156.55749901612467 M 216.33501734412135,169.24599921289973 L 214.85595592812896,166.07387416370597 M 214.85595592812896,166.07387416370597 M 214.85595592812896,166.07387416370597 L 213.37689451213654,162.9017491145122 L 213.37689451213654,159.4017491145122 M 213.37689451213654,162.9017491145122 M 216.33501734412135,197.24599921289973 L 213.65400719156963,194.996069311344 L 210.9729970390179,192.74613940978827 L 207.59234447669482,191.83994503060777 M 207.59234447669482,191.83994503060777 M 207.59234447669482,191.83994503060777 L 204.21169191437173,190.93375065142726 L 201.53068176182,188.68382074987153 M 204.21169191437173,190.93375065142726 M 210.9729970390179,192.74613940978827 L 208.29198688646616,190.49620950823254 M 208.29198688646616,190.49620950823254 M 208.29198688646616,190.49620950823254 L 205.61097673391444,188.2462796066768 L 204.13191531792202,185.07415455748304 M 205.61097673391444,188.2462796066768 M 210.9729970390179,192.74613940978827 L 208.29198688646616,190.49620950823254 L 205.61097673391444,188.2462796066768 L 204.13191531792202,185.07415455748304 L 202.65285390192963,181.90202950828927 L 201.1737924859372,178.7299044590955 M 201.1737924859372,178.7299044590955 M 201.1737924859372,178.7299044590955 L 199.6947310699448,175.55777940990174 L 199.6947310699448,172.05777940990174 M 199.6947310699448,175.55777940990174 M 205.61097673391444,188.2462796066768 L 202.23032417159135,187.3400852274963 M 202.23032417159135,187.3400852274963 M 202.23032417159135,187.3400852274963 L 198.84967160926826,186.4338908483158 L 196.1686614567165,184.18396094676007 M 198.84967160926826,186.4338908483158 M 228.1675086720607,222.62299960644987 L 226.6884472560683,219.4508745572561 L 225.20938584007587,216.27874950806233 L 223.73032442408345,213.10662445886857 L 222.25126300809103,209.9344994096748 L 220.7722015920986,206.76237436048103 L 219.2931401761062,203.59024931128727 L 217.81407876011377,200.4181242620935 L 216.33501734412135,197.24599921289973 L 216.33501734412135,193.74599921289973 L 216.33501734412135,190.24599921289973 L 216.33501734412135,186.74599921289973 L 216.33501734412135,183.24599921289973 L 216.33501734412135,179.74599921289973 L 216.33501734412135,176.24599921289973 L 216.33501734412135,172.74599921289973 L 216.33501734412135,169.24599921289973 L 216.33501734412135,165.74599921289973 L 216.33501734412135,162.24599921289973 L 216.33501734412135,158.74599921289973 L 216.33501734412135,155.24599921289973 L 214.85595592812896,152.07387416370597 L 213.37689451213654,148.9017491145122 L 210.6958843595848,146.65181921295647 M 210.6958843595848,146.65181921295647 M 210.6958843595848,146.65181921295647 L 208.01487420703307,144.40188931140074 L 206.53581279104066,141.22976426220697 M 208.01487420703307,144.40188931140074 M 213.37689451213654,148.9017491145122 L 211.89783309614413,145.72962406531843 M 211.89783309614413,145.72962406531843 M 211.89783309614413,145.72962406531843 L 210.4187716801517,142.55749901612467 L 210.4187716801517,139.05749901612467 M 210.4187716801517,142.55749901612467 M 213.37689451213654,148.9017491145122 L 211.89783309614413,145.72962406531843 L 210.4187716801517,142.55749901612467 L 210.4187716801517,139.05749901612467 L 210.4187716801517,135.55749901612467 L 210.4187716801517,132.05749901612467 M 210.4187716801517,132.05749901612467 M 210.4187716801517,132.05749901612467 L 210.4187716801517,128.55749901612467 L 211.89783309614413,125.3853739669309 M 210.4187716801517,128.55749901612467 M 210.4187716801517,142.55749901612467 L 207.73776152759996,140.30756911456893 M 207.73776152759996,140.30756911456893 M 207.73776152759996,140.30756911456893 L 205.05675137504824,138.0576392130132 L 203.57768995905582,134.88551416381944 M 205.05675137504824,138.0576392130132 M 216.33501734412135,155.24599921289973 L 216.33501734412135,151.74599921289973 L 216.33501734412135,148.24599921289973 L 214.85595592812896,145.07387416370597 M 214.85595592812896,145.07387416370597 M 214.85595592812896,145.07387416370597 L 213.37689451213654,141.9017491145122 L 213.37689451213654,138.4017491145122 M 213.37689451213654,141.9017491145122 M 216.33501734412135,148.24599921289973 L 216.33501734412135,144.74599921289973 M 216.33501734412135,144.74599921289973 M 216.33501734412135,144.74599921289973 L 216.33501734412135,141.24599921289973 L 217.81407876011377,138.07387416370597 M 216.33501734412135,141.24599921289973 M 216.33501734412135,148.24599921289973 L 216.33501734412135,144.74599921289973 L 216.33501734412135,141.24599921289973 L 217.81407876011377,138.07387416370597 L 219.2931401761062,134.9017491145122 L 220.7722015920986,131.72962406531843 M 220.7722015920986,131.72962406531843 M 220.7722015920986,131.72962406531843 L 222.25126300809103,128.55749901612467 L 224.93227316064275,126.30756911456893 M 222.25126300809103,128.55749901612467 M 216.33501734412135,141.24599921289973 L 214.85595592812896,138.07387416370597 M 214.85595592812896,138.07387416370597 M 214.85595592812896,138.07387416370597 L 213.37689451213654,134.9017491145122 L 213.37689451213654,131.4017491145122 M 213.37689451213654,134.9017491145122 M 216.33501734412135,155.24599921289973 L 216.33501734412135,151.74599921289973 L 216.33501734412135,148.24599921289973 L 216.33501734412135,144.74599921289973 L 216.33501734412135,141.24599921289973 L 217.81407876011377,138.07387416370597 L 219.2931401761062,134.9017491145122 L 220.7722015920986,131.72962406531843 L 222.25126300809103,128.55749901612467 L 223.73032442408345,125.3853739669309 L 225.20938584007587,122.21324891773713 L 225.20938584007587,118.71324891773713 M 225.20938584007587,118.71324891773713 M 225.20938584007587,118.71324891773713 L 225.20938584007587,115.21324891773713 L 226.6884472560683,112.04112386854337 M 225.20938584007587,115.21324891773713 M 225.20938584007587,122.21324891773713 L 226.6884472560683,119.04112386854337 M 226.6884472560683,119.04112386854337 M 226.6884472560683,119.04112386854337 L 228.1675086720607,115.8689988193496 L 230.84851882461243,113.61906891779387 M 228.1675086720607,115.8689988193496 M 225.20938584007587,122.21324891773713 L 226.6884472560683,119.04112386854337 L 228.1675086720607,115.8689988193496 L 230.84851882461243,113.61906891779387 L 233.52952897716415,111.36913901623814 L 236.2105391297159,109.1192091146824 M 236.2105391297159,109.1192091146824 M 236.2105391297159,109.1192091146824 L 238.89154928226762,106.86927921312667 L 242.2722018445907,105.96308483394617 M 238.89154928226762,106.86927921312667 M 228.1675086720607,115.8689988193496 L 228.1675086720607,112.3689988193496 M 228.1675086720607,112.3689988193496 M 228.1675086720607,112.3689988193496 L 228.1675086720607,108.8689988193496 L 229.6465700880531,105.69687377015583 M 228.1675086720607,108.8689988193496 M 216.33501734412135,141.24599921289973 L 214.85595592812896,138.07387416370597 L 213.37689451213654,134.9017491145122 L 210.6958843595848,132.65181921295647 M 210.6958843595848,132.65181921295647 M 210.6958843595848,132.65181921295647 L 208.01487420703307,130.40188931140074 L 206.53581279104066,127.22976426220697 M 208.01487420703307,130.40188931140074 M 213.37689451213654,134.9017491145122 L 211.89783309614413,131.72962406531843 M 211.89783309614413,131.72962406531843 M 211.89783309614413,131.72962406531843 L 210.4187716801517,128.55749901612467 L 210.4187716801517,125.05749901612467 M 210.4187716801517,128.55749901612467 M 213.37689451213654,134.9017491145122 L 211.89783309614413,131.72962406531843 L 210.4187716801517,128.55749901612467 L 210.4187716801517,125.05749901612467 L 210.4187716801517,121.55749901612467 L 210.4187716801517,118.05749901612467 M 210.4187716801517,118.05749901612467 M 210.4187716801517,118.05749901612467 L 210.4187716801517,114.55749901612467 L 211.89783309614413,111.3853739669309 M 210.4187716801517,114.55749901612467 M 210.4187716801517,128.55749901612467 L 207.73776152759996,126.30756911456893 M 207.73776152759996,126.30756911456893 M 207.73776152759996,126.30756911456893 L 205.05675137504824,124.0576392130132 L 203.57768995905582,120.88551416381944 M 205.05675137504824,124.0576392130132 M 216.33501734412135,197.24599921289973 L 213.65400719156963,194.996069311344 L 210.9729970390179,192.74613940978827 L 208.29198688646616,190.49620950823254 L 205.61097673391444,188.2462796066768 L 202.23032417159135,187.3400852274963 L 198.84967160926826,186.4338908483158 L 195.40276594721075,187.0412139557932 M 195.40276594721075,187.0412139557932 M 195.40276594721075,187.0412139557932 L 191.95586028515328,187.64853706327062 L 188.57520772283019,186.74234268409012 M 191.95586028515328,187.64853706327062 M 198.84967160926826,186.4338908483158 L 195.46901904694516,185.5276964691353 M 195.46901904694516,185.5276964691353 M 195.46901904694516,185.5276964691353 L 192.08836648462207,184.6215020899548 L 189.40735633207032,182.37157218839906 M 192.08836648462207,184.6215020899548 M 198.84967160926826,186.4338908483158 L 195.46901904694516,185.5276964691353 L 192.08836648462207,184.6215020899548 L 189.40735633207032,182.37157218839906 L 186.7263461795186,180.12164228684333 L 184.04533602696688,177.8717123852876 M 184.04533602696688,177.8717123852876 M 184.04533602696688,177.8717123852876 L 181.36432587441513,175.62178248373186 L 179.8852644584227,172.4496574345381 M 181.36432587441513,175.62178248373186 M 192.08836648462207,184.6215020899548 L 188.64146082256457,185.2288251974322 M 188.64146082256457,185.2288251974322 M 188.64146082256457,185.2288251974322 L 185.1945551605071,185.8361483049096 L 181.813902598184,184.9299539257291 M 185.1945551605071,185.8361483049096 M 205.61097673391444,188.2462796066768 L 202.9299665813627,185.99634970512108 L 200.24895642881097,183.74641980356535 L 196.86830386648788,182.84022542438484 M 196.86830386648788,182.84022542438484 M 196.86830386648788,182.84022542438484 L 193.48765130416479,181.93403104520434 L 190.80664115161306,179.6841011436486 M 193.48765130416479,181.93403104520434 M 200.24895642881097,183.74641980356535 L 197.56794627625925,181.4964899020096 M 197.56794627625925,181.4964899020096 M 197.56794627625925,181.4964899020096 L 194.8869361237075,179.24656000045388 L 193.40787470771508,176.07443495126012 M 194.8869361237075,179.24656000045388 M 200.24895642881097,183.74641980356535 L 197.56794627625925,181.4964899020096 L 194.8869361237075,179.24656000045388 L 193.40787470771508,176.07443495126012 L 191.9288132917227,172.90230990206635 L 190.44975187573027,169.73018485287258 M 190.44975187573027,169.73018485287258 M 190.44975187573027,169.73018485287258 L 188.97069045973785,166.55805980367882 L 188.97069045973785,163.05805980367882 M 188.97069045973785,166.55805980367882 M 194.8869361237075,179.24656000045388 L 191.5062835613844,178.34036562127338 M 191.5062835613844,178.34036562127338 M 191.5062835613844,178.34036562127338 L 188.12563099906131,177.43417124209287 L 185.44462084650957,175.18424134053714 M 188.12563099906131,177.43417124209287 M 205.61097673391444,188.2462796066768 L 202.9299665813627,185.99634970512108 L 200.24895642881097,183.74641980356535 L 197.56794627625925,181.4964899020096 L 194.8869361237075,179.24656000045388 L 193.40787470771508,176.07443495126012 L 191.9288132917227,172.90230990206635 L 190.44975187573027,169.73018485287258 L 188.97069045973785,166.55805980367882 L 187.49162904374543,163.38593475448505 L 186.01256762775301,160.21380970529128 L 183.3315574752013,157.96387980373555 M 183.3315574752013,157.96387980373555 M 183.3315574752013,157.96387980373555 L 180.65054732264957,155.71394990217982 L 179.17148590665715,152.54182485298605 M 180.65054732264957,155.71394990217982 M 186.01256762775301,160.21380970529128 L 184.53350621176062,157.04168465609752 M 184.53350621176062,157.04168465609752 M 184.53350621176062,157.04168465609752 L 183.0544447957682,153.86955960690375 L 183.0544447957682,150.36955960690375 M 183.0544447957682,153.86955960690375 M 186.01256762775301,160.21380970529128 L 184.53350621176062,157.04168465609752 L 183.0544447957682,153.86955960690375 L 183.0544447957682,150.36955960690375 L 183.0544447957682,146.86955960690375 L 183.0544447957682,143.36955960690375 M 183.0544447957682,143.36955960690375 M 183.0544447957682,143.36955960690375 L 183.0544447957682,139.86955960690375 L 184.53350621176062,136.69743455770998 M 183.0544447957682,139.86955960690375 M 183.0544447957682,153.86955960690375 L 180.37343464321646,151.61962970534802 M 180.37343464321646,151.61962970534802 M 180.37343464321646,151.61962970534802 L 177.69242449066473,149.3696998037923 L 176.21336307467232,146.19757475459852 M 177.69242449066473,149.3696998037923 M 194.8869361237075,179.24656000045388 L 191.5062835613844,178.34036562127338 L 188.12563099906131,177.43417124209287 L 184.6787253370038,178.04149434957029 M 184.6787253370038,178.04149434957029 M 184.6787253370038,178.04149434957029 L 181.23181967494634,178.6488174570477 L 177.85116711262324,177.7426230778672 M 181.23181967494634,178.6488174570477 M 188.12563099906131,177.43417124209287 L 184.74497843673822,176.52797686291237 M 184.74497843673822,176.52797686291237 M 184.74497843673822,176.52797686291237 L 181.36432587441513,175.62178248373186 L 178.68331572186338,173.37185258217613 M 181.36432587441513,175.62178248373186 M 188.12563099906131,177.43417124209287 L 184.74497843673822,176.52797686291237 L 181.36432587441513,175.62178248373186 L 178.68331572186338,173.37185258217613 L 176.00230556931166,171.1219226806204 L 173.32129541675994,168.87199277906467 M 173.32129541675994,168.87199277906467 M 173.32129541675994,168.87199277906467 L 170.6402852642082,166.62206287750894 L 169.16122384821577,163.44993782831517 M 170.6402852642082,166.62206287750894 M 181.36432587441513,175.62178248373186 L 177.91742021235763,176.22910559120928 M 177.91742021235763,176.22910559120928 M 177.91742021235763,176.22910559120928 L 174.47051455030015,176.8364286986867 L 171.08986198797706,175.93023431950618 M 174.47051455030015,176.8364286986867" fill="none" stroke="#268C33" stroke-width="1.2" stroke-linecap="round" stroke-linejoin="round"/></svg>