<?xml version="1.0" encoding="UTF-8"?>
<svg xmlns="http://www.w3.org/2000/svg" width="400" height="300" viewBox="0 0 400 300">
  <rect x="0" y="0" width="400" height="300" fill="#F9F9F9"/>
  <text x="200" y="30" font-size="18" font-family="Arial, sans-serif" text-anchor="middle" dominant-baseline="central" fill="#000000">Advanced Path Features</text>
  <path d="M 50,80 Q 100,50 150,80 Q 100,110 50,80 Z " fill="#0000FF" stroke="none"/>
  <path d="M 200,80 A 40 25 0 0 1 280,80 A 40 25 0 0 1 200,80 Z " fill="#00FF00" stroke="none"/>
  <path d="M 50,150 C 75,120 100,120 125,150 C 150,180 175,180 200,150 C 225,120 225,120 250,150 " fill="#FF0000" stroke="none"/>
  <text x="100" y="130" font-size="12" font-family="Arial, sans-serif" text-anchor="middle" dominant-baseline="central" fill="#0000FF">Quadratic</text>
  <text x="240" y="130" font-size="12" font-family="Arial, sans-serif" text-anchor="middle" dominant-baseline="central" fill="#00FF00">Elliptical Arc</text>
  <text x="150" y="200" font-size="12" font-family="Arial, sans-serif" text-anchor="middle" dominant-baseline="central" fill="#FF0000">Smooth Curves</text>
</svg>