<?xml version="1.0" encoding="UTF-8"?>
<svg xmlns="http://www.w3.org/2000/svg" width="100" height="60" viewBox="0 0 100 60">
  <rect x="0" y="0" width="4" height="2.4" fill="#FF0000"/>
  <rect x="0" y="2.4" width="4" height="2.4" fill="#FF0000"/>
  <rect x="0" y="4.8" width="4" height="2.4" fill="#FF0000"/>
  <rect x="0" y="7.199999999999999" width="4" height="2.4" fill="#FF0000"/>
  <rect x="0" y="9.6" width="4" height="2.4" fill="#FF0000"/>
  <rect x="0" y="12" width="4" height="2.4" fill="#FF0000"/>
  <rect x="0" y="14.399999999999999" width="4" height="2.4" fill="#FF0000"/>
  <rect x="0" y="16.8" width="4" height="2.4" fill="#FF0000"/>
  <rect x="0" y="19.2" width="4" height="2.4" fill="#FF0000"/>
  <rect x="0" y="21.599999999999998" width="4" height="2.4" fill="#FF0000"/>
  <rect x="0" y="24" width="4" height="2.4" fill="#FF0000"/>
  <rect x="0" y="26.4" width="4" height="2.4" fill="#FF0000"/>
  <rect x="0" y="28.799999999999997" width="4" height="2.4" fill="#FF0000"/>
  <rect x="0" y="31.2" width="4" height="2.4" fill="#FF0000"/>
  <rect x="0" y="33.6" width="4" height="2.4" fill="#FF0000"/>
  <rect x="0" y="36" width="4" height="2.4" fill="#FF0000"/>
  <rect x="0" y="38.4" width="4" height="2.4" fill="#FF0000"/>
  <rect x="0" y="40.8" width="4" height="2.4" fill="#FF0000"/>
  <rect x="0" y="43.199999999999996" width="4" height="2.4" fill="#FF0000"/>
  <rect x="0" y="45.6" width="4" height="2.4" fill="#FF0000"/>
  <rect x="0" y="48" width="4" height="2.4" fill="#FF0000"/>
  <rect x="0" y="50.4" width="4" height="2.4" fill="#FF0000"/>
  <rect x="0" y="52.8" width="4" height="2.4" fill="#FF0000"/>
  <rect x="0" y="55.199999999999996" width="4" height="2.4" fill="#FF0000"/>
  <rect x="0" y="57.599999999999994" width="4" height="2.4" fill="#FF0000"/>
  <rect x="4" y="0" width="4" height="2.4" fill="#FF0A00"/>
  <rect x="4" y="2.4" width="4" height="2.4" fill="#FF0A00"/>
  <rect x="4" y="4.8" width="4" height="2.4" fill="#FF0A00"/>
  <rect x="4" y="7.199999999999999" width="4" height="2.4" fill="#FF0A00"/>
  <rect x="4" y="9.6" width="4" height="2.4" fill="#FF0A00"/>
  <rect x="4" y="12" width="4" height="2.4" fill="#FF0A00"/>
  <rect x="4" y="14.399999999999999" width="4" height="2.4" fill="#FF0A00"/>
  <rect x="4" y="16.8" width="4" height="2.4" fill="#FF0A00"/>
  <rect x="4" y="19.2" width="4" height="2.4" fill="#FF0A00"/>
  <rect x="4" y="21.599999999999998" width="4" height="2.4" fill="#FF0A00"/>
  <rect x="4" y="24" width="4" height="2.4" fill="#FF0A00"/>
  <rect x="4" y="26.4" width="4" height="2.4" fill="#FF0A00"/>
  <rect x="4" y="28.799999999999997" width="4" height="2.4" fill="#FF0A00"/>
  <rect x="4" y="31.2" width="4" height="2.4" fill="#FF0A00"/>
  <rect x="4" y="33.6" width="4" height="2.4" fill="#FF0A00"/>
  <rect x="4" y="36" width="4" height="2.4" fill="#FF0A00"/>
  <rect x="4" y="38.4" width="4" height="2.4" fill="#FF0A00"/>
  <rect x="4" y="40.8" width="4" height="2.4" fill="#FF0A00"/>
  <rect x="4" y="43.199999999999996" width="4" height="2.4" fill="#FF0A00"/>
  <rect x="4" y="45.6" width="4" height="2.4" fill="#FF0A00"/>
  <rect x="4" y="48" width="4" height="2.4" fill="#FF0A00"/>
  <rect x="4" y="50.4" width="4" height="2.4" fill="#FF0A00"/>
  <rect x="4" y="52.8" width="4" height="2.4" fill="#FF0A00"/>
  <rect x="4" y="55.199999999999996" width="4" height="2.4" fill="#FF0A00"/>
  <rect x="4" y="57.599999999999994" width="4" height="2.4" fill="#FF0A00"/>
  <rect x="8" y="0" width="4" height="2.4" fill="#FF1400"/>
  <rect x="8" y="2.4" width="4" height="2.4" fill="#FF1400"/>
  <rect x="8" y="4.8" width="4" height="2.4" fill="#FF1400"/>
  <rect x="8" y="7.199999999999999" width="4" height="2.4" fill="#FF1400"/>
  <rect x="8" y="9.6" width="4" height="2.4" fill="#FF1400"/>
  <rect x="8" y="12" width="4" height="2.4" fill="#FF1400"/>
  <rect x="8" y="14.399999999999999" width="4" height="2.4" fill="#FF1400"/>
  <rect x="8" y="16.8" width="4" height="2.4" fill="#FF1400"/>
  <rect x="8" y="19.2" width="4" height="2.4" fill="#FF1400"/>
  <rect x="8" y="21.599999999999998" width="4" height="2.4" fill="#FF1400"/>
  <rect x="8" y="24" width="4" height="2.4" fill="#FF1400"/>
  <rect x="8" y="26.4" width="4" height="2.4" fill="#FF1400"/>
  <rect x="8" y="28.799999999999997" width="4" height="2.4" fill="#FF1400"/>
  <rect x="8" y="31.2" width="4" height="2.4" fill="#FF1400"/>
  <rect x="8" y="33.6" width="4" height="2.4" fill="#FF1400"/>
  <rect x="8" y="36" width="4" height="2.4" fill="#FF1400"/>
  <rect x="8" y="38.4" width="4" height="2.4" fill="#FF1400"/>
  <rect x="8" y="40.8" width="4" height="2.4" fill="#FF1400"/>
  <rect x="8" y="43.199999999999996" width="4" height="2.4" fill="#FF1400"/>
  <rect x="8" y="45.6" width="4" height="2.4" fill="#FF1400"/>
  <rect x="8" y="48" width="4" height="2.4" fill="#FF1400"/>
  <rect x="8" y="50.4" width="4" height="2.4" fill="#FF1400"/>
  <rect x="8" y="52.8" width="4" height="2.4" fill="#FF1400"/>
  <rect x="8" y="55.199999999999996" width="4" height="2.4" fill="#FF1400"/>
  <rect x="8" y="57.599999999999994" width="4" height="2.4" fill="#FF1400"/>
  <rect x="12" y="0" width="4" height="2.4" fill="#FF1E00"/>
  <rect x="12" y="2.4" width="4" height="2.4" fill="#FF1E00"/>
  <rect x="12" y="4.8" width="4" height="2.4" fill="#FF1E00"/>
  <rect x="12" y="7.199999999999999" width="4" height="2.4" fill="#FF1E00"/>
  <rect x="12" y="9.6" width="4" height="2.4" fill="#FF1E00"/>
  <rect x="12" y="12" width="4" height="2.4" fill="#FF1E00"/>
  <rect x="12" y="14.399999999999999" width="4" height="2.4" fill="#FF1E00"/>
  <rect x="12" y="16.8" width="4" height="2.4" fill="#FF1E00"/>
  <rect x="12" y="19.2" width="4" height="2.4" fill="#FF1E00"/>
  <rect x="12" y="21.599999999999998" width="4" height="2.4" fill="#FF1E00"/>
  <rect x="12" y="24" width="4" height="2.4" fill="#FF1E00"/>
  <rect x="12" y="26.4" width="4" height="2.4" fill="#FF1E00"/>
  <rect x="12" y="28.799999999999997" width="4" height="2.4" fill="#FF1E00"/>
  <rect x="12" y="31.2" width="4" height="2.4" fill="#FF1E00"/>
  <rect x="12" y="33.6" width="4" height="2.4" fill="#FF1E00"/>
  <rect x="12" y="36" width="4" height="2.4" fill="#FF1E00"/>
  <rect x="12" y="38.4" width="4" height="2.4" fill="#FF1E00"/>
  <rect x="12" y="40.8" width="4" height="2.4" fill="#FF1E00"/>
  <rect x="12" y="43.199999999999996" width="4" height="2.4" fill="#FF1E00"/>
  <rect x="12" y="45.6" width="4" height="2.4" fill="#FF1E00"/>
  <rect x="12" y="48" width="4" height="2.4" fill="#FF1E00"/>
  <rect x="12" y="50.4" width="4" height="2.4" fill="#FF1E00"/>
  <rect x="12" y="52.8" width="4" height="2.4" fill="#FF1E00"/>
  <rect x="12" y="55.199999999999996" width="4" height="2.4" fill="#FF1E00"/>
  <rect x="12" y="57.599999999999994" width="4" height="2.4" fill="#FF1E00"/>
  <rect x="16" y="0" width="4" height="2.4" fill="#FF2800"/>
  <rect x="16" y="2.4" width="4" height="2.4" fill="#FF2800"/>
  <rect x="16" y="4.8" width="4" height="2.4" fill="#FF2800"/>
  <rect x="16" y="7.199999999999999" width="4" height="2.4" fill="#FF2800"/>
  <rect x="16" y="9.6" width="4" height="2.4" fill="#FF2800"/>
  <rect x="16" y="12" width="4" height="2.4" fill="#FF2800"/>
  <rect x="16" y="14.399999999999999" width="4" height="2.4" fill="#FF2800"/>
  <rect x="16" y="16.8" width="4" height="2.4" fill="#FF2800"/>
  <rect x="16" y="19.2" width="4" height="2.4" fill="#FF2800"/>
  <rect x="16" y="21.599999999999998" width="4" height="2.4" fill="#FF2800"/>
  <rect x="16" y="24" width="4" height="2.4" fill="#FF2800"/>
  <rect x="16" y="26.4" width="4" height="2.4" fill="#FF2800"/>
  <rect x="16" y="28.799999999999997" width="4" height="2.4" fill="#FF2800"/>
  <rect x="16" y="31.2" width="4" height="2.4" fill="#FF2800"/>
  <rect x="16" y="33.6" width="4" height="2.4" fill="#FF2800"/>
  <rect x="16" y="36" width="4" height="2.4" fill="#FF2800"/>
  <rect x="16" y="38.4" width="4" height="2.4" fill="#FF2800"/>
  <rect x="16" y="40.8" width="4" height="2.4" fill="#FF2800"/>
  <rect x="16" y="43.199999999999996" width="4" height="2.4" fill="#FF2800"/>
  <rect x="16" y="45.6" width="4" height="2.4" fill="#FF2800"/>
  <rect x="16" y="48" width="4" height="2.4" fill="#FF2800"/>
  <rect x="16" y="50.4" width="4" height="2.4" fill="#FF2800"/>
  <rect x="16" y="52.8" width="4" height="2.4" fill="#FF2800"/>
  <rect x="16" y="55.199999999999996" width="4" height="2.4" fill="#FF2800"/>
  <rect x="16" y="57.599999999999994" width="4" height="2.4" fill="#FF2800"/>
  <rect x="20" y="0" width="4" height="2.4" fill="#FF3300"/>
  <rect x="20" y="2.4" width="4" height="2.4" fill="#FF3300"/>
  <rect x="20" y="4.8" width="4" height="2.4" fill="#FF3300"/>
  <rect x="20" y="7.199999999999999" width="4" height="2.4" fill="#FF3300"/>
  <rect x="20" y="9.6" width="4" height="2.4" fill="#FF3300"/>
  <rect x="20" y="12" width="4" height="2.4" fill="#FF3300"/>
  <rect x="20" y="14.399999999999999" width="4" height="2.4" fill="#FF3300"/>
  <rect x="20" y="16.8" width="4" height="2.4" fill="#FF3300"/>
  <rect x="20" y="19.2" width="4" height="2.4" fill="#FF3300"/>
  <rect x="20" y="21.599999999999998" width="4" height="2.4" fill="#FF3300"/>
  <rect x="20" y="24" width="4" height="2.4" fill="#FF3300"/>
  <rect x="20" y="26.4" width="4" height="2.4" fill="#FF3300"/>
  <rect x="20" y="28.799999999999997" width="4" height="2.4" fill="#FF3300"/>
  <rect x="20" y="31.2" width="4" height="2.4" fill="#FF3300"/>
  <rect x="20" y="33.6" width="4" height="2.4" fill="#FF3300"/>
  <rect x="20" y="36" width="4" height="2.4" fill="#FF3300"/>
  <rect x="20" y="38.4" width="4" height="2.4" fill="#FF3300"/>
  <rect x="20" y="40.8" width="4" height="2.4" fill="#FF3300"/>
  <rect x="20" y="43.199999999999996" width="4" height="2.4" fill="#FF3300"/>
  <rect x="20" y="45.6" width="4" height="2.4" fill="#FF3300"/>
  <rect x="20" y="48" width="4" height="2.4" fill="#FF3300"/>
  <rect x="20" y="50.4" width="4" height="2.4" fill="#FF3300"/>
  <rect x="20" y="52.8" width="4" height="2.4" fill="#FF3300"/>
  <rect x="20" y="55.199999999999996" width="4" height="2.4" fill="#FF3300"/>
  <rect x="20" y="57.599999999999994" width="4" height="2.4" fill="#FF3300"/>
  <rect x="24" y="0" width="4" height="2.4" fill="#FF3D00"/>
  <rect x="24" y="2.4" width="4" height="2.4" fill="#FF3D00"/>
  <rect x="24" y="4.8" width="4" height="2.4" fill="#FF3D00"/>
  <rect x="24" y="7.199999999999999" width="4" height="2.4" fill="#FF3D00"/>
  <rect x="24" y="9.6" width="4" height="2.4" fill="#FF3D00"/>
  <rect x="24" y="12" width="4" height="2.4" fill="#FF3D00"/>
  <rect x="24" y="14.399999999999999" width="4" height="2.4" fill="#FF3D00"/>
  <rect x="24" y="16.8" width="4" height="2.4" fill="#FF3D00"/>
  <rect x="24" y="19.2" width="4" height="2.4" fill="#FF3D00"/>
  <rect x="24" y="21.599999999999998" width="4" height="2.4" fill="#FF3D00"/>
  <rect x="24" y="24" width="4" height="2.4" fill="#FF3D00"/>
  <rect x="24" y="26.4" width="4" height="2.4" fill="#FF3D00"/>
  <rect x="24" y="28.799999999999997" width="4" height="2.4" fill="#FF3D00"/>
  <rect x="24" y="31.2" width="4" height="2.4" fill="#FF3D00"/>
  <rect x="24" y="33.6" width="4" height="2.4" fill="#FF3D00"/>
  <rect x="24" y="36" width="4" height="2.4" fill="#FF3D00"/>
  <rect x="24" y="38.4" width="4" height="2.4" fill="#FF3D00"/>
  <rect x="24" y="40.8" width="4" height="2.4" fill="#FF3D00"/>
  <rect x="24" y="43.199999999999996" width="4" height="2.4" fill="#FF3D00"/>
  <rect x="24" y="45.6" width="4" height="2.4" fill="#FF3D00"/>
  <rect x="24" y="48" width="4" height="2.4" fill="#FF3D00"/>
  <rect x="24" y="50.4" width="4" height="2.4" fill="#FF3D00"/>
  <rect x="24" y="52.8" width="4" height="2.4" fill="#FF3D00"/>
  <rect x="24" y="55.199999999999996" width="4" height="2.4" fill="#FF3D00"/>
  <rect x="24" y="57.599999999999994" width="4" height="2.4" fill="#FF3D00"/>
  <rect x="28" y="0" width="4" height="2.4" fill="#FF4700"/>
  <rect x="28" y="2.4" width="4" height="2.4" fill="#FF4700"/>
  <rect x="28" y="4.8" width="4" height="2.4" fill="#FF4700"/>
  <rect x="28" y="7.199999999999999" width="4" height="2.4" fill="#FF4700"/>
  <rect x="28" y="9.6" width="4" height="2.4" fill="#FF4700"/>
  <rect x="28" y="12" width="4" height="2.4" fill="#FF4700"/>
  <rect x="28" y="14.399999999999999" width="4" height="2.4" fill="#FF4700"/>
  <rect x="28" y="16.8" width="4" height="2.4" fill="#FF4700"/>
  <rect x="28" y="19.2" width="4" height="2.4" fill="#FF4700"/>
  <rect x="28" y="21.599999999999998" width="4" height="2.4" fill="#FF4700"/>
  <rect x="28" y="24" width="4" height="2.4" fill="#FF4700"/>
  <rect x="28" y="26.4" width="4" height="2.4" fill="#FF4700"/>
  <rect x="28" y="28.799999999999997" width="4" height="2.4" fill="#FF4700"/>
  <rect x="28" y="31.2" width="4" height="2.4" fill="#FF4700"/>
  <rect x="28" y="33.6" width="4" height="2.4" fill="#FF4700"/>
  <rect x="28" y="36" width="4" height="2.4" fill="#FF4700"/>
  <rect x="28" y="38.4" width="4" height="2.4" fill="#FF4700"/>
  <rect x="28" y="40.8" width="4" height="2.4" fill="#FF4700"/>
  <rect x="28" y="43.199999999999996" width="4" height="2.4" fill="#FF4700"/>
  <rect x="28" y="45.6" width="4" height="2.4" fill="#FF4700"/>
  <rect x="28" y="48" width="4" height="2.4" fill="#FF4700"/>
  <rect x="28" y="50.4" width="4" height="2.4" fill="#FF4700"/>
  <rect x="28" y="52.8" width="4" height="2.4" fill="#FF4700"/>
  <rect x="28" y="55.199999999999996" width="4" height="2.4" fill="#FF4700"/>
  <rect x="28" y="57.599999999999994" width="4" height="2.4" fill="#FF4700"/>
  <rect x="32" y="0" width="4" height="2.4" fill="#FF5100"/>
  <rect x="32" y="2.4" width="4" height="2.4" fill="#FF5100"/>
  <rect x="32" y="4.8" width="4" height="2.4" fill="#FF5100"/>
  <rect x="32" y="7.199999999999999" width="4" height="2.4" fill="#FF5100"/>
  <rect x="32" y="9.6" width="4" height="2.4" fill="#FF5100"/>
  <rect x="32" y="12" width="4" height="2.4" fill="#FF5100"/>
  <rect x="32" y="14.399999999999999" width="4" height="2.4" fill="#FF5100"/>
  <rect x="32" y="16.8" width="4" height="2.4" fill="#FF5100"/>
  <rect x="32" y="19.2" width="4" height="2.4" fill="#FF5100"/>
  <rect x="32" y="21.599999999999998" width="4" height="2.4" fill="#FF5100"/>
  <rect x="32" y="24" width="4" height="2.4" fill="#FF5100"/>
  <rect x="32" y="26.4" width="4" height="2.4" fill="#FF5100"/>
  <rect x="32" y="28.799999999999997" width="4" height="2.4" fill="#FF5100"/>
  <rect x="32" y="31.2" width="4" height="2.4" fill="#FF5100"/>
  <rect x="32" y="33.6" width="4" height="2.4" fill="#FF5100"/>
  <rect x="32" y="36" width="4" height="2.4" fill="#FF5100"/>
  <rect x="32" y="38.4" width="4" height="2.4" fill="#FF5100"/>
  <rect x="32" y="40.8" width="4" height="2.4" fill="#FF5100"/>
  <rect x="32" y="43.199999999999996" width="4" height="2.4" fill="#FF5100"/>
  <rect x="32" y="45.6" width="4" height="2.4" fill="#FF5100"/>
  <rect x="32" y="48" width="4" height="2.4" fill="#FF5100"/>
  <rect x="32" y="50.4" width="4" height="2.4" fill="#FF5100"/>
  <rect x="32" y="52.8" width="4" height="2.4" fill="#FF5100"/>
  <rect x="32" y="55.199999999999996" width="4" height="2.4" fill="#FF5100"/>
  <rect x="32" y="57.599999999999994" width="4" height="2.4" fill="#FF5100"/>
  <rect x="36" y="0" width="4" height="2.4" fill="#FF5B00"/>
  <rect x="36" y="2.4" width="4" height="2.4" fill="#FF5B00"/>
  <rect x="36" y="4.8" width="4" height="2.4" fill="#FF5B00"/>
  <rect x="36" y="7.199999999999999" width="4" height="2.4" fill="#FF5B00"/>
  <rect x="36" y="9.6" width="4" height="2.4" fill="#FF5B00"/>
  <rect x="36" y="12" width="4" height="2.4" fill="#FF5B00"/>
  <rect x="36" y="14.399999999999999" width="4" height="2.4" fill="#FF5B00"/>
  <rect x="36" y="16.8" width="4" height="2.4" fill="#FF5B00"/>
  <rect x="36" y="19.2" width="4" height="2.4" fill="#FF5B00"/>
  <rect x="36" y="21.599999999999998" width="4" height="2.4" fill="#FF5B00"/>
  <rect x="36" y="24" width="4" height="2.4" fill="#FF5B00"/>
  <rect x="36" y="26.4" width="4" height="2.4" fill="#FF5B00"/>
  <rect x="36" y="28.799999999999997" width="4" height="2.4" fill="#FF5B00"/>
  <rect x="36" y="31.2" width="4" height="2.4" fill="#FF5B00"/>
  <rect x="36" y="33.6" width="4" height="2.4" fill="#FF5B00"/>
  <rect x="36" y="36" width="4" height="2.4" fill="#FF5B00"/>
  <rect x="36" y="38.4" width="4" height="2.4" fill="#FF5B00"/>
  <rect x="36" y="40.8" width="4" height="2.4" fill="#FF5B00"/>
  <rect x="36" y="43.199999999999996" width="4" height="2.4" fill="#FF5B00"/>
  <rect x="36" y="45.6" width="4" height="2.4" fill="#FF5B00"/>
  <rect x="36" y="48" width="4" height="2.4" fill="#FF5B00"/>
  <rect x="36" y="50.4" width="4" height="2.4" fill="#FF5B00"/>
  <rect x="36" y="52.8" width="4" height="2.4" fill="#FF5B00"/>
  <rect x="36" y="55.199999999999996" width="4" height="2.4" fill="#FF5B00"/>
  <rect x="36" y="57.599999999999994" width="4" height="2.4" fill="#FF5B00"/>
  <rect x="40" y="0" width="4" height="2.4" fill="#FF6600"/>
  <rect x="40" y="2.4" width="4" height="2.4" fill="#FF6600"/>
  <rect x="40" y="4.8" width="4" height="2.4" fill="#FF6600"/>
  <rect x="40" y="7.199999999999999" width="4" height="2.4" fill="#FF6600"/>
  <rect x="40" y="9.6" width="4" height="2.4" fill="#FF6600"/>
  <rect x="40" y="12" width="4" height="2.4" fill="#FF6600"/>
  <rect x="40" y="14.399999999999999" width="4" height="2.4" fill="#FF6600"/>
  <rect x="40" y="16.8" width="4" height="2.4" fill="#FF6600"/>
  <rect x="40" y="19.2" width="4" height="2.4" fill="#FF6600"/>
  <rect x="40" y="21.599999999999998" width="4" height="2.4" fill="#FF6600"/>
  <rect x="40" y="24" width="4" height="2.4" fill="#FF6600"/>
  <rect x="40" y="26.4" width="4" height="2.4" fill="#FF6600"/>
  <rect x="40" y="28.799999999999997" width="4" height="2.4" fill="#FF6600"/>
  <rect x="40" y="31.2" width="4" height="2.4" fill="#FF6600"/>
  <rect x="40" y="33.6" width="4" height="2.4" fill="#FF6600"/>
  <rect x="40" y="36" width="4" height="2.4" fill="#FF6600"/>
  <rect x="40" y="38.4" width="4" height="2.4" fill="#FF6600"/>
  <rect x="40" y="40.8" width="4" height="2.4" fill="#FF6600"/>
  <rect x="40" y="43.199999999999996" width="4" height="2.4" fill="#FF6600"/>
  <rect x="40" y="45.6" width="4" height="2.4" fill="#FF6600"/>
  <rect x="40" y="48" width="4" height="2.4" fill="#FF6600"/>
  <rect x="40" y="50.4" width="4" height="2.4" fill="#FF6600"/>
  <rect x="40" y="52.8" width="4" height="2.4" fill="#FF6600"/>
  <rect x="40" y="55.199999999999996" width="4" height="2.4" fill="#FF6600"/>
  <rect x="40" y="57.599999999999994" width="4" height="2.4" fill="#FF6600"/>
  <rect x="44" y="0" width="4" height="2.4" fill="#FF7000"/>
  <rect x="44" y="2.4" width="4" height="2.4" fill="#FF7000"/>
  <rect x="44" y="4.8" width="4" height="2.4" fill="#FF7000"/>
  <rect x="44" y="7.199999999999999" width="4" height="2.4" fill="#FF7000"/>
  <rect x="44" y="9.6" width="4" height="2.4" fill="#FF7000"/>
  <rect x="44" y="12" width="4" height="2.4" fill="#FF7000"/>
  <rect x="44" y="14.399999999999999" width="4" height="2.4" fill="#FF7000"/>
  <rect x="44" y="16.8" width="4" height="2.4" fill="#FF7000"/>
  <rect x="44" y="19.2" width="4" height="2.4" fill="#FF7000"/>
  <rect x="44" y="21.599999999999998" width="4" height="2.4" fill="#FF7000"/>
  <rect x="44" y="24" width="4" height="2.4" fill="#FF7000"/>
  <rect x="44" y="26.4" width="4" height="2.4" fill="#FF7000"/>
  <rect x="44" y="28.799999999999997" width="4" height="2.4" fill="#FF7000"/>
  <rect x="44" y="31.2" width="4" height="2.4" fill="#FF7000"/>
  <rect x="44" y="33.6" width="4" height="2.4" fill="#FF7000"/>
  <rect x="44" y="36" width="4" height="2.4" fill="#FF7000"/>
  <rect x="44" y="38.4" width="4" height="2.4" fill="#FF7000"/>
  <rect x="44" y="40.8" width="4" height="2.4" fill="#FF7000"/>
  <rect x="44" y="43.199999999999996" width="4" height="2.4" fill="#FF7000"/>
  <rect x="44" y="45.6" width="4" height="2.4" fill="#FF7000"/>
  <rect x="44" y="48" width="4" height="2.4" fill="#FF7000"/>
  <rect x="44" y="50.4" width="4" height="2.4" fill="#FF7000"/>
  <rect x="44" y="52.8" width="4" height="2.4" fill="#FF7000"/>
  <rect x="44" y="55.199999999999996" width="4" height="2.4" fill="#FF7000"/>
  <rect x="44" y="57.599999999999994" width="4" height="2.4" fill="#FF7000"/>
  <rect x="48" y="0" width="4" height="2.4" fill="#FF7A00"/>
  <rect x="48" y="2.4" width="4" height="2.4" fill="#FF7A00"/>
  <rect x="48" y="4.8" width="4" height="2.4" fill="#FF7A00"/>
  <rect x="48" y="7.199999999999999" width="4" height="2.4" fill="#FF7A00"/>
  <rect x="48" y="9.6" width="4" height="2.4" fill="#FF7A00"/>
  <rect x="48" y="12" width="4" height="2.4" fill="#FF7A00"/>
  <rect x="48" y="14.399999999999999" width="4" height="2.4" fill="#FF7A00"/>
  <rect x="48" y="16.8" width="4" height="2.4" fill="#FF7A00"/>
  <rect x="48" y="19.2" width="4" height="2.4" fill="#FF7A00"/>
  <rect x="48" y="21.599999999999998" width="4" height="2.4" fill="#FF7A00"/>
  <rect x="48" y="24" width="4" height="2.4" fill="#FF7A00"/>
  <rect x="48" y="26.4" width="4" height="2.4" fill="#FF7A00"/>
  <rect x="48" y="28.799999999999997" width="4" height="2.4" fill="#FF7A00"/>
  <rect x="48" y="31.2" width="4" height="2.4" fill="#FF7A00"/>
  <rect x="48" y="33.6" width="4" height="2.4" fill="#FF7A00"/>
  <rect x="48" y="36" width="4" height="2.4" fill="#FF7A00"/>
  <rect x="48" y="38.4" width="4" height="2.4" fill="#FF7A00"/>
  <rect x="48" y="40.8" width="4" height="2.4" fill="#FF7A00"/>
  <rect x="48" y="43.199999999999996" width="4" height="2.4" fill="#FF7A00"/>
  <rect x="48" y="45.6" width="4" height="2.4" fill="#FF7A00"/>
  <rect x="48" y="48" width="4" height="2.4" fill="#FF7A00"/>
  <rect x="48" y="50.4" width="4" height="2.4" fill="#FF7A00"/>
  <rect x="48" y="52.8" width="4" height="2.4" fill="#FF7A00"/>
  <rect x="48" y="55.199999999999996" width="4" height="2.4" fill="#FF7A00"/>
  <rect x="48" y="57.599999999999994" width="4" height="2.4" fill="#FF7A00"/>
  <rect x="52" y="0" width="4" height="2.4" fill="#FF8400"/>
  <rect x="52" y="2.4" width="4" height="2.4" fill="#FF8400"/>
  <rect x="52" y="4.8" width="4" height="2.4" fill="#FF8400"/>
  <rect x="52" y="7.199999999999999" width="4" height="2.4" fill="#FF8400"/>
  <rect x="52" y="9.6" width="4" height="2.4" fill="#FF8400"/>
  <rect x="52" y="12" width="4" height="2.4" fill="#FF8400"/>
  <rect x="52" y="14.399999999999999" width="4" height="2.4" fill="#FF8400"/>
  <rect x="52" y="16.8" width="4" height="2.4" fill="#FF8400"/>
  <rect x="52" y="19.2" width="4" height="2.4" fill="#FF8400"/>
  <rect x="52" y="21.599999999999998" width="4" height="2.4" fill="#FF8400"/>
  <rect x="52" y="24" width="4" height="2.4" fill="#FF8400"/>
  <rect x="52" y="26.4" width="4" height="2.4" fill="#FF8400"/>
  <rect x="52" y="28.799999999999997" width="4" height="2.4" fill="#FF8400"/>
  <rect x="52" y="31.2" width="4" height="2.4" fill="#FF8400"/>
  <rect x="52" y="33.6" width="4" height="2.4" fill="#FF8400"/>
  <rect x="52" y="36" width="4" height="2.4" fill="#FF8400"/>
  <rect x="52" y="38.4" width="4" height="2.4" fill="#FF8400"/>
  <rect x="52" y="40.8" width="4" height="2.4" fill="#FF8400"/>
  <rect x="52" y="43.199999999999996" width="4" height="2.4" fill="#FF8400"/>
  <rect x="52" y="45.6" width="4" height="2.4" fill="#FF8400"/>
  <rect x="52" y="48" width="4" height="2.4" fill="#FF8400"/>
  <rect x="52" y="50.4" width="4" height="2.4" fill="#FF8400"/>
  <rect x="52" y="52.8" width="4" height="2.4" fill="#FF8400"/>
  <rect x="52" y="55.199999999999996" width="4" height="2.4" fill="#FF8400"/>
  <rect x="52" y="57.599999999999994" width="4" height="2.4" fill="#FF8400"/>
  <rect x="56" y="0" width="4" height="2.4" fill="#FF8E00"/>
  <rect x="56" y="2.4" width="4" height="2.4" fill="#FF8E00"/>
  <rect x="56" y="4.8" width="4" height="2.4" fill="#FF8E00"/>
  <rect x="56" y="7.199999999999999" width="4" height="2.4" fill="#FF8E00"/>
  <rect x="56" y="9.6" width="4" height="2.4" fill="#FF8E00"/>
  <rect x="56" y="12" width="4" height="2.4" fill="#FF8E00"/>
  <rect x="56" y="14.399999999999999" width="4" height="2.4" fill="#FF8E00"/>
  <rect x="56" y="16.8" width="4" height="2.4" fill="#FF8E00"/>
  <rect x="56" y="19.2" width="4" height="2.4" fill="#FF8E00"/>
  <rect x="56" y="21.599999999999998" width="4" height="2.4" fill="#FF8E00"/>
  <rect x="56" y="24" width="4" height="2.4" fill="#FF8E00"/>
  <rect x="56" y="26.4" width="4" height="2.4" fill="#FF8E00"/>
  <rect x="56" y="28.799999999999997" width="4" height="2.4" fill="#FF8E00"/>
  <rect x="56" y="31.2" width="4" height="2.4" fill="#FF8E00"/>
  <rect x="56" y="33.6" width="4" height="2.4" fill="#FF8E00"/>
  <rect x="56" y="36" width="4" height="2.4" fill="#FF8E00"/>
  <rect x="56" y="38.4" width="4" height="2.4" fill="#FF8E00"/>
  <rect x="56" y="40.8" width="4" height="2.4" fill="#FF8E00"/>
  <rect x="56" y="43.199999999999996" width="4" height="2.4" fill="#FF8E00"/>
  <rect x="56" y="45.6" width="4" height="2.4" fill="#FF8E00"/>
  <rect x="56" y="48" width="4" height="2.4" fill="#FF8E00"/>
  <rect x="56" y="50.4" width="4" height="2.4" fill="#FF8E00"/>
  <rect x="56" y="52.8" width="4" height="2.4" fill="#FF8E00"/>
  <rect x="56" y="55.199999999999996" width="4" height="2.4" fill="#FF8E00"/>
  <rect x="56" y="57.599999999999994" width="4" height="2.4" fill="#FF8E00"/>
  <rect x="60" y="0" width="4" height="2.4" fill="#FF9900"/>
  <rect x="60" y="2.4" width="4" height="2.4" fill="#FF9900"/>
  <rect x="60" y="4.8" width="4" height="2.4" fill="#FF9900"/>
  <rect x="60" y="7.199999999999999" width="4" height="2.4" fill="#FF9900"/>
  <rect x="60" y="9.6" width="4" height="2.4" fill="#FF9900"/>
  <rect x="60" y="12" width="4" height="2.4" fill="#FF9900"/>
  <rect x="60" y="14.399999999999999" width="4" height="2.4" fill="#FF9900"/>
  <rect x="60" y="16.8" width="4" height="2.4" fill="#FF9900"/>
  <rect x="60" y="19.2" width="4" height="2.4" fill="#FF9900"/>
  <rect x="60" y="21.599999999999998" width="4" height="2.4" fill="#FF9900"/>
  <rect x="60" y="24" width="4" height="2.4" fill="#FF9900"/>
  <rect x="60" y="26.4" width="4" height="2.4" fill="#FF9900"/>
  <rect x="60" y="28.799999999999997" width="4" height="2.4" fill="#FF9900"/>
  <rect x="60" y="31.2" width="4" height="2.4" fill="#FF9900"/>
  <rect x="60" y="33.6" width="4" height="2.4" fill="#FF9900"/>
  <rect x="60" y="36" width="4" height="2.4" fill="#FF9900"/>
  <rect x="60" y="38.4" width="4" height="2.4" fill="#FF9900"/>
  <rect x="60" y="40.8" width="4" height="2.4" fill="#FF9900"/>
  <rect x="60" y="43.199999999999996" width="4" height="2.4" fill="#FF9900"/>
  <rect x="60" y="45.6" width="4" height="2.4" fill="#FF9900"/>
  <rect x="60" y="48" width="4" height="2.4" fill="#FF9900"/>
  <rect x="60" y="50.4" width="4" height="2.4" fill="#FF9900"/>
  <rect x="60" y="52.8" width="4" height="2.4" fill="#FF9900"/>
  <rect x="60" y="55.199999999999996" width="4" height="2.4" fill="#FF9900"/>
  <rect x="60" y="57.599999999999994" width="4" height="2.4" fill="#FF9900"/>
  <rect x="64" y="0" width="4" height="2.4" fill="#FFA300"/>
  <rect x="64" y="2.4" width="4" height="2.4" fill="#FFA300"/>
  <rect x="64" y="4.8" width="4" height="2.4" fill="#FFA300"/>
  <rect x="64" y="7.199999999999999" width="4" height="2.4" fill="#FFA300"/>
  <rect x="64" y="9.6" width="4" height="2.4" fill="#FFA300"/>
  <rect x="64" y="12" width="4" height="2.4" fill="#FFA300"/>
  <rect x="64" y="14.399999999999999" width="4" height="2.4" fill="#FFA300"/>
  <rect x="64" y="16.8" width="4" height="2.4" fill="#FFA300"/>
  <rect x="64" y="19.2" width="4" height="2.4" fill="#FFA300"/>
  <rect x="64" y="21.599999999999998" width="4" height="2.4" fill="#FFA300"/>
  <rect x="64" y="24" width="4" height="2.4" fill="#FFA300"/>
  <rect x="64" y="26.4" width="4" height="2.4" fill="#FFA300"/>
  <rect x="64" y="28.799999999999997" width="4" height="2.4" fill="#FFA300"/>
  <rect x="64" y="31.2" width="4" height="2.4" fill="#FFA300"/>
  <rect x="64" y="33.6" width="4" height="2.4" fill="#FFA300"/>
  <rect x="64" y="36" width="4" height="2.4" fill="#FFA300"/>
  <rect x="64" y="38.4" width="4" height="2.4" fill="#FFA300"/>
  <rect x="64" y="40.8" width="4" height="2.4" fill="#FFA300"/>
  <rect x="64" y="43.199999999999996" width="4" height="2.4" fill="#FFA300"/>
  <rect x="64" y="45.6" width="4" height="2.4" fill="#FFA300"/>
  <rect x="64" y="48" width="4" height="2.4" fill="#FFA300"/>
  <rect x="64" y="50.4" width="4" height="2.4" fill="#FFA300"/>
  <rect x="64" y="52.8" width="4" height="2.4" fill="#FFA300"/>
  <rect x="64" y="55.199999999999996" width="4" height="2.4" fill="#FFA300"/>
  <rect x="64" y="57.599999999999994" width="4" height="2.4" fill="#FFA300"/>
  <rect x="68" y="0" width="4" height="2.4" fill="#FFAD00"/>
  <rect x="68" y="2.4" width="4" height="2.4" fill="#FFAD00"/>
  <rect x="68" y="4.8" width="4" height="2.4" fill="#FFAD00"/>
  <rect x="68" y="7.199999999999999" width="4" height="2.4" fill="#FFAD00"/>
  <rect x="68" y="9.6" width="4" height="2.4" fill="#FFAD00"/>
  <rect x="68" y="12" width="4" height="2.4" fill="#FFAD00"/>
  <rect x="68" y="14.399999999999999" width="4" height="2.4" fill="#FFAD00"/>
  <rect x="68" y="16.8" width="4" height="2.4" fill="#FFAD00"/>
  <rect x="68" y="19.2" width="4" height="2.4" fill="#FFAD00"/>
  <rect x="68" y="21.599999999999998" width="4" height="2.4" fill="#FFAD00"/>
  <rect x="68" y="24" width="4" height="2.4" fill="#FFAD00"/>
  <rect x="68" y="26.4" width="4" height="2.4" fill="#FFAD00"/>
  <rect x="68" y="28.799999999999997" width="4" height="2.4" fill="#FFAD00"/>
  <rect x="68" y="31.2" width="4" height="2.4" fill="#FFAD00"/>
  <rect x="68" y="33.6" width="4" height="2.4" fill="#FFAD00"/>
  <rect x="68" y="36" width="4" height="2.4" fill="#FFAD00"/>
  <rect x="68" y="38.4" width="4" height="2.4" fill="#FFAD00"/>
  <rect x="68" y="40.8" width="4" height="2.4" fill="#FFAD00"/>
  <rect x="68" y="43.199999999999996" width="4" height="2.4" fill="#FFAD00"/>
  <rect x="68" y="45.6" width="4" height="2.4" fill="#FFAD00"/>
  <rect x="68" y="48" width="4" height="2.4" fill="#FFAD00"/>
  <rect x="68" y="50.4" width="4" height="2.4" fill="#FFAD00"/>
  <rect x="68" y="52.8" width="4" height="2.4" fill="#FFAD00"/>
  <rect x="68" y="55.199999999999996" width="4" height="2.4" fill="#FFAD00"/>
  <rect x="68" y="57.599999999999994" width="4" height="2.4" fill="#FFAD00"/>
  <rect x="72" y="0" width="4" height="2.4" fill="#FFB700"/>
  <rect x="72" y="2.4" width="4" height="2.4" fill="#FFB700"/>
  <rect x="72" y="4.8" width="4" height="2.4" fill="#FFB700"/>
  <rect x="72" y="7.199999999999999" width="4" height="2.4" fill="#FFB700"/>
  <rect x="72" y="9.6" width="4" height="2.4" fill="#FFB700"/>
  <rect x="72" y="12" width="4" height="2.4" fill="#FFB700"/>
  <rect x="72" y="14.399999999999999" width="4" height="2.4" fill="#FFB700"/>
  <rect x="72" y="16.8" width="4" height="2.4" fill="#FFB700"/>
  <rect x="72" y="19.2" width="4" height="2.4" fill="#FFB700"/>
  <rect x="72" y="21.599999999999998" width="4" height="2.4" fill="#FFB700"/>
  <rect x="72" y="24" width="4" height="2.4" fill="#FFB700"/>
  <rect x="72" y="26.4" width="4" height="2.4" fill="#FFB700"/>
  <rect x="72" y="28.799999999999997" width="4" height="2.4" fill="#FFB700"/>
  <rect x="72" y="31.2" width="4" height="2.4" fill="#FFB700"/>
  <rect x="72" y="33.6" width="4" height="2.4" fill="#FFB700"/>
  <rect x="72" y="36" width="4" height="2.4" fill="#FFB700"/>
  <rect x="72" y="38.4" width="4" height="2.4" fill="#FFB700"/>
  <rect x="72" y="40.8" width="4" height="2.4" fill="#FFB700"/>
  <rect x="72" y="43.199999999999996" width="4" height="2.4" fill="#FFB700"/>
  <rect x="72" y="45.6" width="4" height="2.4" fill="#FFB700"/>
  <rect x="72" y="48" width="4" height="2.4" fill="#FFB700"/>
  <rect x="72" y="50.4" width="4" height="2.4" fill="#FFB700"/>
  <rect x="72" y="52.8" width="4" height="2.4" fill="#FFB700"/>
  <rect x="72" y="55.199999999999996" width="4" height="2.4" fill="#FFB700"/>
  <rect x="72" y="57.599999999999994" width="4" height="2.4" fill="#FFB700"/>
  <rect x="76" y="0" width="4" height="2.4" fill="#FFC100"/>
  <rect x="76" y="2.4" width="4" height="2.4" fill="#FFC100"/>
  <rect x="76" y="4.8" width="4" height="2.4" fill="#FFC100"/>
  <rect x="76" y="7.199999999999999" width="4" height="2.4" fill="#FFC100"/>
  <rect x="76" y="9.6" width="4" height="2.4" fill="#FFC100"/>
  <rect x="76" y="12" width="4" height="2.4" fill="#FFC100"/>
  <rect x="76" y="14.399999999999999" width="4" height="2.4" fill="#FFC100"/>
  <rect x="76" y="16.8" width="4" height="2.4" fill="#FFC100"/>
  <rect x="76" y="19.2" width="4" height="2.4" fill="#FFC100"/>
  <rect x="76" y="21.599999999999998" width="4" height="2.4" fill="#FFC100"/>
  <rect x="76" y="24" width="4" height="2.4" fill="#FFC100"/>
  <rect x="76" y="26.4" width="4" height="2.4" fill="#FFC100"/>
  <rect x="76" y="28.799999999999997" width="4" height="2.4" fill="#FFC100"/>
  <rect x="76" y="31.2" width="4" height="2.4" fill="#FFC100"/>
  <rect x="76" y="33.6" width="4" height="2.4" fill="#FFC100"/>
  <rect x="76" y="36" width="4" height="2.4" fill="#FFC100"/>
  <rect x="76" y="38.4" width="4" height="2.4" fill="#FFC100"/>
  <rect x="76" y="40.8" width="4" height="2.4" fill="#FFC100"/>
  <rect x="76" y="43.199999999999996" width="4" height="2.4" fill="#FFC100"/>
  <rect x="76" y="45.6" width="4" height="2.4" fill="#FFC100"/>
  <rect x="76" y="48" width="4" height="2.4" fill="#FFC100"/>
  <rect x="76" y="50.4" width="4" height="2.4" fill="#FFC100"/>
  <rect x="76" y="52.8" width="4" height="2.4" fill="#FFC100"/>
  <rect x="76" y="55.199999999999996" width="4" height="2.4" fill="#FFC100"/>
  <rect x="76" y="57.599999999999994" width="4" height="2.4" fill="#FFC100"/>
  <rect x="80" y="0" width="4" height="2.4" fill="#FFCC00"/>
  <rect x="80" y="2.4" width="4" height="2.4" fill="#FFCC00"/>
  <rect x="80" y="4.8" width="4" height="2.4" fill="#FFCC00"/>
  <rect x="80" y="7.199999999999999" width="4" height="2.4" fill="#FFCC00"/>
  <rect x="80" y="9.6" width="4" height="2.4" fill="#FFCC00"/>
  <rect x="80" y="12" width="4" height="2.4" fill="#FFCC00"/>
  <rect x="80" y="14.399999999999999" width="4" height="2.4" fill="#FFCC00"/>
  <rect x="80" y="16.8" width="4" height="2.4" fill="#FFCC00"/>
  <rect x="80" y="19.2" width="4" height="2.4" fill="#FFCC00"/>
  <rect x="80" y="21.599999999999998" width="4" height="2.4" fill="#FFCC00"/>
  <rect x="80" y="24" width="4" height="2.4" fill="#FFCC00"/>
  <rect x="80" y="26.4" width="4" height="2.4" fill="#FFCC00"/>
  <rect x="80" y="28.799999999999997" width="4" height="2.4" fill="#FFCC00"/>
  <rect x="80" y="31.2" width="4" height="2.4" fill="#FFCC00"/>
  <rect x="80" y="33.6" width="4" height="2.4" fill="#FFCC00"/>
  <rect x="80" y="36" width="4" height="2.4" fill="#FFCC00"/>
  <rect x="80" y="38.4" width="4" height="2.4" fill="#FFCC00"/>
  <rect x="80" y="40.8" width="4" height="2.4" fill="#FFCC00"/>
  <rect x="80" y="43.199999999999996" width="4" height="2.4" fill="#FFCC00"/>
  <rect x="80" y="45.6" width="4" height="2.4" fill="#FFCC00"/>
  <rect x="80" y="48" width="4" height="2.4" fill="#FFCC00"/>
  <rect x="80" y="50.4" width="4" height="2.4" fill="#FFCC00"/>
  <rect x="80" y="52.8" width="4" height="2.4" fill="#FFCC00"/>
  <rect x="80" y="55.199999999999996" width="4" height="2.4" fill="#FFCC00"/>
  <rect x="80" y="57.599999999999994" width="4" height="2.4" fill="#FFCC00"/>
  <rect x="84" y="0" width="4" height="2.4" fill="#FFD600"/>
  <rect x="84" y="2.4" width="4" height="2.4" fill="#FFD600"/>
  <rect x="84" y="4.8" width="4" height="2.4" fill="#FFD600"/>
  <rect x="84" y="7.199999999999999" width="4" height="2.4" fill="#FFD600"/>
  <rect x="84" y="9.6" width="4" height="2.4" fill="#FFD600"/>
  <rect x="84" y="12" width="4" height="2.4" fill="#FFD600"/>
  <rect x="84" y="14.399999999999999" width="4" height="2.4" fill="#FFD600"/>
  <rect x="84" y="16.8" width="4" height="2.4" fill="#FFD600"/>
  <rect x="84" y="19.2" width="4" height="2.4" fill="#FFD600"/>
  <rect x="84" y="21.599999999999998" width="4" height="2.4" fill="#FFD600"/>
  <rect x="84" y="24" width="4" height="2.4" fill="#FFD600"/>
  <rect x="84" y="26.4" width="4" height="2.4" fill="#FFD600"/>
  <rect x="84" y="28.799999999999997" width="4" height="2.4" fill="#FFD600"/>
  <rect x="84" y="31.2" width="4" height="2.4" fill="#FFD600"/>
  <rect x="84" y="33.6" width="4" height="2.4" fill="#FFD600"/>
  <rect x="84" y="36" width="4" height="2.4" fill="#FFD600"/>
  <rect x="84" y="38.4" width="4" height="2.4" fill="#FFD600"/>
  <rect x="84" y="40.8" width="4" height="2.4" fill="#FFD600"/>
  <rect x="84" y="43.199999999999996" width="4" height="2.4" fill="#FFD600"/>
  <rect x="84" y="45.6" width="4" height="2.4" fill="#FFD600"/>
  <rect x="84" y="48" width="4" height="2.4" fill="#FFD600"/>
  <rect x="84" y="50.4" width="4" height="2.4" fill="#FFD600"/>
  <rect x="84" y="52.8" width="4" height="2.4" fill="#FFD600"/>
  <rect x="84" y="55.199999999999996" width="4" height="2.4" fill="#FFD600"/>
  <rect x="84" y="57.599999999999994" width="4" height="2.4" fill="#FFD600"/>
  <rect x="88" y="0" width="4" height="2.4" fill="#FFE000"/>
  <rect x="88" y="2.4" width="4" height="2.4" fill="#FFE000"/>
  <rect x="88" y="4.8" width="4" height="2.4" fill="#FFE000"/>
  <rect x="88" y="7.199999999999999" width="4" height="2.4" fill="#FFE000"/>
  <rect x="88" y="9.6" width="4" height="2.4" fill="#FFE000"/>
  <rect x="88" y="12" width="4" height="2.4" fill="#FFE000"/>
  <rect x="88" y="14.399999999999999" width="4" height="2.4" fill="#FFE000"/>
  <rect x="88" y="16.8" width="4" height="2.4" fill="#FFE000"/>
  <rect x="88" y="19.2" width="4" height="2.4" fill="#FFE000"/>
  <rect x="88" y="21.599999999999998" width="4" height="2.4" fill="#FFE000"/>
  <rect x="88" y="24" width="4" height="2.4" fill="#FFE000"/>
  <rect x="88" y="26.4" width="4" height="2.4" fill="#FFE000"/>
  <rect x="88" y="28.799999999999997" width="4" height="2.4" fill="#FFE000"/>
  <rect x="88" y="31.2" width="4" height="2.4" fill="#FFE000"/>
  <rect x="88" y="33.6" width="4" height="2.4" fill="#FFE000"/>
  <rect x="88" y="36" width="4" height="2.4" fill="#FFE000"/>
  <rect x="88" y="38.4" width="4" height="2.4" fill="#FFE000"/>
  <rect x="88" y="40.8" width="4" height="2.4" fill="#FFE000"/>
  <rect x="88" y="43.199999999999996" width="4" height="2.4" fill="#FFE000"/>
  <rect x="88" y="45.6" width="4" height="2.4" fill="#FFE000"/>
  <rect x="88" y="48" width="4" height="2.4" fill="#FFE000"/>
  <rect x="88" y="50.4" width="4" height="2.4" fill="#FFE000"/>
  <rect x="88" y="52.8" width="4" height="2.4" fill="#FFE000"/>
  <rect x="88" y="55.199999999999996" width="4" height="2.4" fill="#FFE000"/>
  <rect x="88" y="57.599999999999994" width="4" height="2.4" fill="#FFE000"/>
  <rect x="92" y="0" width="4" height="2.4" fill="#FFEA00"/>
  <rect x="92" y="2.4" width="4" height="2.4" fill="#FFEA00"/>
  <rect x="92" y="4.8" width="4" height="2.4" fill="#FFEA00"/>
  <rect x="92" y="7.199999999999999" width="4" height="2.4" fill="#FFEA00"/>
  <rect x="92" y="9.6" width="4" height="2.4" fill="#FFEA00"/>
  <rect x="92" y="12" width="4" height="2.4" fill="#FFEA00"/>
  <rect x="92" y="14.399999999999999" width="4" height="2.4" fill="#FFEA00"/>
  <rect x="92" y="16.8" width="4" height="2.4" fill="#FFEA00"/>
  <rect x="92" y="19.2" width="4" height="2.4" fill="#FFEA00"/>
  <rect x="92" y="21.599999999999998" width="4" height="2.4" fill="#FFEA00"/>
  <rect x="92" y="24" width="4" height="2.4" fill="#FFEA00"/>
  <rect x="92" y="26.4" width="4" height="2.4" fill="#FFEA00"/>
  <rect x="92" y="28.799999999999997" width="4" height="2.4" fill="#FFEA00"/>
  <rect x="92" y="31.2" width="4" height="2.4" fill="#FFEA00"/>
  <rect x="92" y="33.6" width="4" height="2.4" fill="#FFEA00"/>
  <rect x="92" y="36" width="4" height="2.4" fill="#FFEA00"/>
  <rect x="92" y="38.4" width="4" height="2.4" fill="#FFEA00"/>
  <rect x="92" y="40.8" width="4" height="2.4" fill="#FFEA00"/>
  <rect x="92" y="43.199999999999996" width="4" height="2.4" fill="#FFEA00"/>
  <rect x="92" y="45.6" width="4" height="2.4" fill="#FFEA00"/>
  <rect x="92" y="48" width="4" height="2.4" fill="#FFEA00"/>
  <rect x="92" y="50.4" width="4" height="2.4" fill="#FFEA00"/>
  <rect x="92" y="52.8" width="4" height="2.4" fill="#FFEA00"/>
  <rect x="92" y="55.199999999999996" width="4" height="2.4" fill="#FFEA00"/>
  <rect x="92" y="57.599999999999994" width="4" height="2.4" fill="#FFEA00"/>
  <rect x="96" y="0" width="4" height="2.4" fill="#FFF400"/>
  <rect x="96" y="2.4" width="4" height="2.4" fill="#FFF400"/>
  <rect x="96" y="4.8" width="4" height="2.4" fill="#FFF400"/>
  <rect x="96" y="7.199999999999999" width="4" height="2.4" fill="#FFF400"/>
  <rect x="96" y="9.6" width="4" height="2.4" fill="#FFF400"/>
  <rect x="96" y="12" width="4" height="2.4" fill="#FFF400"/>
  <rect x="96" y="14.399999999999999" width="4" height="2.4" fill="#FFF400"/>
  <rect x="96" y="16.8" width="4" height="2.4" fill="#FFF400"/>
  <rect x="96" y="19.2" width="4" height="2.4" fill="#FFF400"/>
  <rect x="96" y="21.599999999999998" width="4" height="2.4" fill="#FFF400"/>
  <rect x="96" y="24" width="4" height="2.4" fill="#FFF400"/>
  <rect x="96" y="26.4" width="4" height="2.4" fill="#FFF400"/>
  <rect x="96" y="28.799999999999997" width="4" height="2.4" fill="#FFF400"/>
  <rect x="96" y="31.2" width="4" height="2.4" fill="#FFF400"/>
  <rect x="96" y="33.6" width="4" height="2.4" fill="#FFF400"/>
  <rect x="96" y="36" width="4" height="2.4" fill="#FFF400"/>
  <rect x="96" y="38.4" width="4" height="2.4" fill="#FFF400"/>
  <rect x="96" y="40.8" width="4" height="2.4" fill="#FFF400"/>
  <rect x="96" y="43.199999999999996" width="4" height="2.4" fill="#FFF400"/>
  <rect x="96" y="45.6" width="4" height="2.4" fill="#FFF400"/>
  <rect x="96" y="48" width="4" height="2.4" fill="#FFF400"/>
  <rect x="96" y="50.4" width="4" height="2.4" fill="#FFF400"/>
  <rect x="96" y="52.8" width="4" height="2.4" fill="#FFF400"/>
  <rect x="96" y="55.199999999999996" width="4" height="2.4" fill="#FFF400"/>
  <rect x="96" y="57.599999999999994" width="4" height="2.4" fill="#FFF400"/>
</svg>