<?xml version="1.0" encoding="UTF-8"?>
<svg xmlns="http://www.w3.org/2000/svg" width="400" height="400" viewBox="0 0 400 400"><defs><linearGradient id="grad0" gradientUnits="userSpaceOnUse" x1="200" y1="0" x2="200" y2="400"><stop offset="0" stop-color="#161628"/><stop offset="1" stop-color="#443A60"/></linearGradient><radialGradient id="grad1" gradientUnits="userSpaceOnUse" cx="94" cy="134" r="87" fx="94" fy="134"><stop offset="0" stop-color="#FFFFFF"/><stop offset="1" stop-color="#0F5F99"/></radialGradient><radialGradient id="grad2" gradientUnits="userSpaceOnUse" cx="245.25" cy="205.25" r="123.25" fx="245.25" fy="205.25"><stop offset="0" stop-color="#FFFFFF"/><stop offset="1" stop-color="#990F3D"/></radialGradient><radialGradient id="grad3" gradientUnits="userSpaceOnUse" cx="190.3" cy="305.3" r="60.9" fx="190.3" fy="305.3"><stop offset="0" stop-color="#FFFFFF"/><stop offset="1" stop-color="#31990F"/></radialGradient></defs><rect x="0" y="0" width="400" height="400" fill="url(#grad0)"/><path d="M 115,95 C 148.137084988,95 175,121.862915012 175,155 C 175,188.137084988 148.137084988,215 115,215 C 81.862915012,215 55,188.137084988 55,155 C 55,121.862915012 81.862915012,95 115,95 Z" fill="url(#grad1)" fill-rule="nonzero"/><path d="M 275,150 C 321.944203733,150 360,188.055796267 360,235 C 360,281.944203733 321.944203733,320 275,320 C 228.055796267,320 190,281.944203733 190,235 C 190,188.055796267 228.055796267,150 275,150 Z" fill="url(#grad2)" fill-rule="nonzero"/><path d="M 205,278 C 228.1959594916,278 247,296.8040405084 247,320 C 247,343.1959594916 228.1959594916,362 205,362 C 181.8040405084,362 163,343.1959594916 163,320 C 163,296.8040405084 181.8040405084,278 205,278 Z" fill="url(#grad3)" fill-rule="nonzero"/></svg>