<?xml version="1.0" encoding="UTF-8"?>
<svg xmlns="http://www.w3.org/2000/svg" width="400" height="400" viewBox="0 0 400 400"><defs><linearGradient id="grad0" gradientUnits="userSpaceOnUse" x1="200" y1="72" x2="200" y2="188"><stop offset="0" stop-color="#C826FF"/><stop offset="1" stop-color="#19EBFF"/></linearGradient><linearGradient id="grad1" gradientUnits="userSpaceOnUse" x1="248.98347934273144" y1="81.74341983855527" x2="204.59220118838107" y2="188.91344560986457"><stop offset="0" stop-color="#C826FF"/><stop offset="1" stop-color="#19EBFF"/></linearGradient><linearGradient id="grad2" gradientUnits="userSpaceOnUse" x1="290.509667991878" y1="109.49033200812184" x2="208.48528137423855" y2="191.51471862576142"><stop offset="0" stop-color="#C826FF"/><stop offset="1" stop-color="#19EBFF"/></linearGradient><linearGradient id="grad3" gradientUnits="userSpaceOnUse" x1="318.2565801614446" y1="151.01652065726836" x2="211.08655439013543" y2="195.4077988116189"><stop offset="0" stop-color="#C826FF"/><stop offset="1" stop-color="#19EBFF"/></linearGradient><linearGradient id="grad4" gradientUnits="userSpaceOnUse" x1="328" y1="199.9999999999998" x2="212" y2="199.99999999999997"><stop offset="0" stop-color="#C826FF"/><stop offset="1" stop-color="#19EBFF"/></linearGradient><linearGradient id="grad5" gradientUnits="userSpaceOnUse" x1="318.2565801614448" y1="248.98347934273124" x2="211.08655439013546" y2="204.59220118838107"><stop offset="0" stop-color="#C826FF"/><stop offset="1" stop-color="#19EBFF"/></linearGradient><linearGradient id="grad6" gradientUnits="userSpaceOnUse" x1="290.5096679918783" y1="290.5096679918779" x2="208.48528137423858" y2="208.48528137423855"><stop offset="0" stop-color="#C826FF"/><stop offset="1" stop-color="#19EBFF"/></linearGradient><linearGradient id="grad7" gradientUnits="userSpaceOnUse" x1="248.9834793427318" y1="318.25658016144456" x2="204.5922011883811" y2="211.08655439013543"><stop offset="0" stop-color="#C826FF"/><stop offset="1" stop-color="#19EBFF"/></linearGradient><linearGradient id="grad8" gradientUnits="userSpaceOnUse" x1="200.00000000000043" y1="328" x2="200.00000000000003" y2="212"><stop offset="0" stop-color="#C826FF"/><stop offset="1" stop-color="#19EBFF"/></linearGradient><linearGradient id="grad9" gradientUnits="userSpaceOnUse" x1="151.01652065726896" y1="318.2565801614449" x2="195.40779881161896" y2="211.08655439013546"><stop offset="0" stop-color="#C826FF"/><stop offset="1" stop-color="#19EBFF"/></linearGradient><linearGradient id="grad10" gradientUnits="userSpaceOnUse" x1="109.4903320081223" y1="290.5096679918785" x2="191.51471862576147" y2="208.4852813742386"><stop offset="0" stop-color="#C826FF"/><stop offset="1" stop-color="#19EBFF"/></linearGradient><linearGradient id="grad11" gradientUnits="userSpaceOnUse" x1="81.7434198385555" y1="248.98347934273198" x2="188.91344560986457" y2="204.59220118838113"><stop offset="0" stop-color="#C826FF"/><stop offset="1" stop-color="#19EBFF"/></linearGradient><linearGradient id="grad12" gradientUnits="userSpaceOnUse" x1="72" y1="200.0000000000006" x2="188" y2="200.00000000000006"><stop offset="0" stop-color="#C826FF"/><stop offset="1" stop-color="#19EBFF"/></linearGradient><linearGradient id="grad13" gradientUnits="userSpaceOnUse" x1="81.74341983855504" y1="151.0165206572691" x2="188.91344560986454" y2="195.407798811619"><stop offset="0" stop-color="#C826FF"/><stop offset="1" stop-color="#19EBFF"/></linearGradient><linearGradient id="grad14" gradientUnits="userSpaceOnUse" x1="109.49033200812141" y1="109.49033200812242" x2="191.5147186257614" y2="191.51471862576147"><stop offset="0" stop-color="#C826FF"/><stop offset="1" stop-color="#19EBFF"/></linearGradient><linearGradient id="grad15" gradientUnits="userSpaceOnUse" x1="151.0165206572678" y1="81.7434198385556" x2="195.40779881161885" y2="188.9134456098646"><stop offset="0" stop-color="#C826FF"/><stop offset="1" stop-color="#19EBFF"/></linearGradient></defs><rect x="0" y="0" width="400" height="400" fill="#110C1E"/><path d="M 200,72 C 211.045694996,72 220,97.96748451159999 220,130 C 220,162.0325154884 211.045694996,188 200,188 C 188.954305004,188 180,162.0325154884 180,130 C 180,97.96748451159999 188.954305004,72 200,72 Z" fill="url(#grad0)" fill-rule="nonzero"/><path d="M 248.98347934273144,81.74341983855527 C 259.1883708718982,85.97042431248244 257.5237438901708,113.38791593692814 245.265430915782,142.9821013715117 C 233.0071179413932,172.57628680609525 214.79709271754783,193.14045008379173 204.59220118838107,188.91344560986457 C 194.38730965921434,184.68644113593737 196.05193664094173,157.26894951149168 208.31024961533052,127.67476407690813 C 220.56856258971933,98.08057864232457 238.77858781356468,77.5164153646281 248.98347934273144,81.74341983855527 Z" fill="url(#grad1)" fill-rule="nonzero"/><path d="M 290.509667991878,109.49033200812184 C 298.32015382646796,117.30081784271175 286.2900192271,141.99425202036178 263.6396103067892,164.64466094067257 C 240.9892013864785,187.29506986098335 216.2957672088285,199.32520446035133 208.48528137423855,191.51471862576142 C 200.67479553964864,183.7042327911715 212.7049301390166,159.01079861352147 235.35533905932732,136.3603896932107 C 258.00574797963804,113.70998077289991 282.6991821572881,101.67984617353193 290.509667991878,109.49033200812184 Z" fill="url(#grad2)" fill-rule="nonzero"/><path d="M 318.2565801614446,151.01652065726836 C 322.4835846353718,161.2214121864351 301.9194213576754,179.43143741028052 272.32523592309184,191.68975038466937 C 242.73105048850834,203.9480633590582 215.31355886406263,205.61269034078563 211.08655439013543,195.4077988116189 C 206.85954991620824,185.20290728245217 227.4237131939047,166.99288205860677 257.01789862848824,154.73456908421792 C 286.61208406307173,142.47625610982908 314.0295756875174,140.81162912810163 318.2565801614446,151.01652065726836 Z" fill="url(#grad3)" fill-rule="nonzero"/><path d="M 328,199.9999999999998 C 328,211.04569499599978 302.0325154884,219.99999999999983 270,219.9999999999999 C 237.96748451160005,219.99999999999994 212.00000000000003,211.04569499599998 212,199.99999999999997 C 211.99999999999997,188.954305004 237.96748451159996,179.99999999999994 270,179.9999999999999 C 302.0325154884,179.99999999999983 328,188.9543050039998 328,199.9999999999998 Z" fill="url(#grad4)" fill-rule="nonzero"/><path d="M 318.2565801614448,248.98347934273124 C 314.02957568751765,259.188370871898 286.61208406307196,257.52374389017064 257.01789862848835,245.2654309157819 C 227.4237131939048,233.00711794139315 206.8595499162083,214.7970927175478 211.08655439013546,204.59220118838107 C 215.3135588640626,194.3873096592143 242.73105048850832,196.05193664094165 272.3252359230919,208.3102496153304 C 301.91942135767545,220.56856258971914 322.4835846353719,238.7785878135645 318.2565801614448,248.98347934273124 Z" fill="url(#grad5)" fill-rule="nonzero"/><path d="M 290.5096679918783,290.5096679918779 C 282.6991821572884,298.3201538264678 258.00574797963833,286.2900192270999 235.35533905932752,263.6396103067892 C 212.7049301390167,240.9892013864785 200.6747955396487,216.2957672088285 208.48528137423858,208.48528137423855 C 216.2957672088285,200.6747955396486 240.98920138647856,212.70493013901654 263.63961030678934,235.35533905932724 C 286.2900192271002,258.00574797963793 298.3201538264682,282.69918215728796 290.5096679918783,290.5096679918779 Z" fill="url(#grad6)" fill-rule="nonzero"/><path d="M 248.9834793427318,318.25658016144456 C 238.77858781356508,322.4835846353718 220.56856258971965,301.91942135767533 208.31024961533075,272.32523592309184 C 196.05193664094185,242.73105048850834 194.38730965921437,215.31355886406263 204.5922011883811,211.08655439013543 C 214.79709271754783,206.85954991620824 233.0071179413933,227.42371319390463 245.2654309157822,257.0178986284881 C 257.5237438901711,286.6120840630717 259.18837087189854,314.02957568751737 248.9834793427318,318.25658016144456 Z" fill="url(#grad7)" fill-rule="nonzero"/><path d="M 200.00000000000043,328 C 188.95430500400042,328 180.00000000000034,302.03251548840007 180.00000000000023,270.00000000000006 C 180.0000000000001,237.96748451160005 188.95430500400005,212.00000000000003 200.00000000000003,212 C 211.04569499600004,211.99999999999997 220.0000000000001,237.96748451159993 220.00000000000023,269.99999999999994 C 220.00000000000034,302.03251548839995 211.0456949960004,327.99999999999994 200.00000000000043,328 Z" fill="url(#grad8)" fill-rule="nonzero"/><path d="M 151.01652065726896,318.2565801614449 C 140.8116291281022,314.02957568751776 142.47625610982948,286.6120840630721 154.7345690842182,257.0178986284884 C 166.99288205860688,227.42371319390486 185.2029072824522,206.85954991620832 195.40779881161896,211.08655439013546 C 205.61269034078572,215.3135588640626 203.94806335905844,242.73105048850832 191.6897503846697,272.3252359230919 C 179.431437410281,301.9194213576755 161.2214121864357,322.48358463537204 151.01652065726896,318.2565801614449 Z" fill="url(#grad9)" fill-rule="nonzero"/><path d="M 109.4903320081223,290.5096679918785 C 101.67984617353235,282.6991821572886 113.70998077290021,258.0057479796385 136.36038969321086,235.35533905932766 C 159.01079861352153,212.7049301390168 183.7042327911715,200.67479553964873 191.51471862576147,208.4852813742386 C 199.32520446035142,216.2957672088285 187.29506986098355,240.98920138647856 164.64466094067288,263.63961030678945 C 141.99425202036224,286.2900192271003 117.30081784271223,298.32015382646836 109.4903320081223,290.5096679918785 Z" fill="url(#grad10)" fill-rule="nonzero"/><path d="M 81.7434198385555,248.98347934273198 C 77.51641536462827,238.77858781356525 98.08057864232467,220.5685625897198 127.67476407690816,208.31024961533086 C 157.26894951149166,196.0519366409419 184.68644113593734,194.3873096592144 188.91344560986457,204.59220118838113 C 193.1404500837918,214.79709271754786 172.5762868060954,233.00711794139332 142.9821013715119,245.26543091578225 C 113.38791593692841,257.5237438901712 85.97042431248272,259.1883708718987 81.7434198385555,248.98347934273198 Z" fill="url(#grad11)" fill-rule="nonzero"/><path d="M 72,200.0000000000006 C 71.99999999999994,188.9543050040006 97.96748451159989,180.00000000000048 129.9999999999999,180.0000000000003 C 162.0325154883999,180.00000000000017 187.99999999999994,188.95430500400005 188,200.00000000000006 C 188.00000000000006,211.04569499600007 162.0325154884001,220.00000000000017 130.0000000000001,220.0000000000003 C 97.96748451160009,220.00000000000048 72.00000000000006,211.04569499600058 72,200.0000000000006 Z" fill="url(#grad12)" fill-rule="nonzero"/><path d="M 81.74341983855504,151.0165206572691 C 85.97042431248217,140.81162912810237 113.38791593692787,142.4762561098296 142.98210137151148,154.73456908421826 C 172.57628680609508,166.99288205860694 193.14045008379165,185.20290728245223 188.91344560986454,195.407798811619 C 184.6864411359374,205.61269034078575 157.2689495114917,203.9480633590585 127.67476407690809,191.68975038466982 C 98.08057864232447,179.43143741028115 77.51641536462792,161.22141218643588 81.74341983855504,151.0165206572691 Z" fill="url(#grad13)" fill-rule="nonzero"/><path d="M 109.49033200812141,109.49033200812242 C 117.30081784271128,101.67984617353247 141.9942520203614,113.70998077290028 164.64466094067228,136.36038969321092 C 187.29506986098315,159.01079861352156 199.32520446035124,183.70423279117153 191.5147186257614,191.51471862576147 C 183.7042327911715,199.32520446035144 159.01079861352142,187.2950698609836 136.36038969321052,164.64466094067296 C 113.70998077289964,141.99425202036235 101.67984617353154,117.30081784271238 109.49033200812141,109.49033200812242 Z" fill="url(#grad14)" fill-rule="nonzero"/><path d="M 151.0165206572678,81.7434198385556 C 161.22141218643452,77.51641536462836 179.43143741028,98.0805786423247 191.68975038466903,127.67476407690818 C 203.948063359058,157.26894951149166 205.61269034078558,184.68644113593734 195.40779881161885,188.9134456098646 C 185.20290728245214,193.14045008379182 166.99288205860663,172.57628680609548 154.73456908421764,142.982101371512 C 142.47625610982863,113.38791593692852 140.8116291281011,85.97042431248283 151.0165206572678,81.7434198385556 Z" fill="url(#grad15)" fill-rule="nonzero"/><path d="M 200,174 C 214.3594034948,174 226,185.6405965052 226,200 C 226,214.3594034948 214.3594034948,226 200,226 C 185.6405965052,226 174,214.3594034948 174,200 C 174,185.6405965052 185.6405965052,174 200,174 Z" fill="#FFD119" fill-rule="nonzero"/></svg>