<?xml version="1.0" encoding="UTF-8"?>
<svg xmlns="http://www.w3.org/2000/svg" width="400" height="400" viewBox="0 0 400 400">
  <rect x="0" y="0" width="20" height="20" fill="#000000"/>
  <circle cx="10" cy="10" r="11.0539" fill="#FFFFFF"/>
  <rect x="20" y="0" width="20" height="20" fill="#FFFFFF"/>
  <circle cx="30" cy="10" r="8.7208" fill="#000000"/>
  <rect x="40" y="0" width="20" height="20" fill="#000000"/>
  <circle cx="50" cy="10" r="6.2147" fill="#FFFFFF"/>
  <rect x="60" y="0" width="20" height="20" fill="#FFFFFF"/>
  <circle cx="70" cy="10" r="4.5194" fill="#000000"/>
  <rect x="80" y="0" width="20" height="20" fill="#000000"/>
  <circle cx="90" cy="10" r="4.0007" fill="#FFFFFF"/>
  <rect x="100" y="0" width="20" height="20" fill="#FFFFFF"/>
  <circle cx="110" cy="10" r="4.4588" fill="#000000"/>
  <rect x="120" y="0" width="20" height="20" fill="#000000"/>
  <circle cx="130" cy="10" r="5.4248" fill="#FFFFFF"/>
  <rect x="140" y="0" width="20" height="20" fill="#FFFFFF"/>
  <circle cx="150" cy="10" r="6.4473" fill="#000000"/>
  <rect x="160" y="0" width="20" height="20" fill="#000000"/>
  <circle cx="170" cy="10" r="7.2331" fill="#FFFFFF"/>
  <rect x="180" y="0" width="20" height="20" fill="#FFFFFF"/>
  <circle cx="190" cy="10" r="7.647" fill="#000000"/>
  <rect x="200" y="0" width="20" height="20" fill="#000000"/>
  <circle cx="210" cy="10" r="7.647" fill="#FFFFFF"/>
  <rect x="220" y="0" width="20" height="20" fill="#FFFFFF"/>
  <circle cx="230" cy="10" r="7.2331" fill="#000000"/>
  <rect x="240" y="0" width="20" height="20" fill="#000000"/>
  <circle cx="250" cy="10" r="6.4473" fill="#FFFFFF"/>
  <rect x="260" y="0" width="20" height="20" fill="#FFFFFF"/>
  <circle cx="270" cy="10" r="5.4248" fill="#000000"/>
  <rect x="280" y="0" width="20" height="20" fill="#000000"/>
  <circle cx="290" cy="10" r="4.4588" fill="#FFFFFF"/>
  <rect x="300" y="0" width="20" height="20" fill="#FFFFFF"/>
  <circle cx="310" cy="10" r="4.0007" fill="#000000"/>
  <rect x="320" y="0" width="20" height="20" fill="#000000"/>
  <circle cx="330" cy="10" r="4.5194" fill="#FFFFFF"/>
  <rect x="340" y="0" width="20" height="20" fill="#FFFFFF"/>
  <circle cx="350" cy="10" r="6.2147" fill="#000000"/>
  <rect x="360" y="0" width="20" height="20" fill="#000000"/>
  <circle cx="370" cy="10" r="8.7208" fill="#FFFFFF"/>
  <rect x="380" y="0" width="20" height="20" fill="#FFFFFF"/>
  <circle cx="390" cy="10" r="11.0539" fill="#000000"/>
  <rect x="0" y="20" width="20" height="20" fill="#FFFFFF"/>
  <circle cx="10" cy="30" r="8.7208" fill="#000000"/>
  <rect x="20" y="20" width="20" height="20" fill="#000000"/>
  <circle cx="30" cy="30" r="5.9244" fill="#FFFFFF"/>
  <rect x="40" y="20" width="20" height="20" fill="#FFFFFF"/>
  <circle cx="50" cy="30" r="4.2293" fill="#000000"/>
  <rect x="60" y="20" width="20" height="20" fill="#000000"/>
  <circle cx="70" cy="30" r="4.1729" fill="#FFFFFF"/>
  <rect x="80" y="20" width="20" height="20" fill="#FFFFFF"/>
  <circle cx="90" cy="30" r="5.4248" fill="#000000"/>
  <rect x="100" y="20" width="20" height="20" fill="#000000"/>
  <circle cx="110" cy="30" r="7.2331" fill="#FFFFFF"/>
  <rect x="120" y="20" width="20" height="20" fill="#FFFFFF"/>
  <circle cx="130" cy="30" r="8.9212" fill="#000000"/>
  <rect x="140" y="20" width="20" height="20" fill="#000000"/>
  <circle cx="150" cy="30" r="10.1408" fill="#FFFFFF"/>
  <rect x="160" y="20" width="20" height="20" fill="#FFFFFF"/>
  <circle cx="170" cy="30" r="10.8511" fill="#000000"/>
  <rect x="180" y="20" width="20" height="20" fill="#000000"/>
  <circle cx="190" cy="30" r="11.1582" fill="#FFFFFF"/>
  <rect x="200" y="20" width="20" height="20" fill="#FFFFFF"/>
  <circle cx="210" cy="30" r="11.1582" fill="#000000"/>
  <rect x="220" y="20" width="20" height="20" fill="#000000"/>
  <circle cx="230" cy="30" r="10.8511" fill="#FFFFFF"/>
  <rect x="240" y="20" width="20" height="20" fill="#FFFFFF"/>
  <circle cx="250" cy="30" r="10.1408" fill="#000000"/>
  <rect x="260" y="20" width="20" height="20" fill="#000000"/>
  <circle cx="270" cy="30" r="8.9212" fill="#FFFFFF"/>
  <rect x="280" y="20" width="20" height="20" fill="#FFFFFF"/>
  <circle cx="290" cy="30" r="7.2331" fill="#000000"/>
  <rect x="300" y="20" width="20" height="20" fill="#000000"/>
  <circle cx="310" cy="30" r="5.4248" fill="#FFFFFF"/>
  <rect x="320" y="20" width="20" height="20" fill="#FFFFFF"/>
  <circle cx="330" cy="30" r="4.1729" fill="#000000"/>
  <rect x="340" y="20" width="20" height="20" fill="#000000"/>
  <circle cx="350" cy="30" r="4.2293" fill="#FFFFFF"/>
  <rect x="360" y="20" width="20" height="20" fill="#FFFFFF"/>
  <circle cx="370" cy="30" r="5.9244" fill="#000000"/>
  <rect x="380" y="20" width="20" height="20" fill="#000000"/>
  <circle cx="390" cy="30" r="8.7208" fill="#FFFFFF"/>
  <rect x="0" y="40" width="20" height="20" fill="#000000"/>
  <circle cx="10" cy="50" r="6.2147" fill="#FFFFFF"/>
  <rect x="20" y="40" width="20" height="20" fill="#FFFFFF"/>
  <circle cx="30" cy="50" r="4.2293" fill="#000000"/>
  <rect x="40" y="40" width="20" height="20" fill="#000000"/>
  <circle cx="50" cy="50" r="4.2988" fill="#FFFFFF"/>
  <rect x="60" y="40" width="20" height="20" fill="#FFFFFF"/>
  <circle cx="70" cy="50" r="6.0825" fill="#000000"/>
  <rect x="80" y="40" width="20" height="20" fill="#000000"/>
  <circle cx="90" cy="50" r="8.4957" fill="#FFFFFF"/>
  <rect x="100" y="40" width="20" height="20" fill="#FFFFFF"/>
  <circle cx="110" cy="50" r="10.51" fill="#000000"/>
  <rect x="120" y="40" width="20" height="20" fill="#000000"/>
  <circle cx="130" cy="50" r="11.6483" fill="#FFFFFF"/>
  <rect x="140" y="40" width="20" height="20" fill="#FFFFFF"/>
  <circle cx="150" cy="50" r="11.9947" fill="#000000"/>
  <rect x="160" y="40" width="20" height="20" fill="#000000"/>
  <circle cx="170" cy="50" r="11.9159" fill="#FFFFFF"/>
  <rect x="180" y="40" width="20" height="20" fill="#FFFFFF"/>
  <circle cx="190" cy="50" r="11.7746" fill="#000000"/>
  <rect x="200" y="40" width="20" height="20" fill="#000000"/>
  <circle cx="210" cy="50" r="11.7746" fill="#FFFFFF"/>
  <rect x="220" y="40" width="20" height="20" fill="#FFFFFF"/>
  <circle cx="230" cy="50" r="11.9159" fill="#000000"/>
  <rect x="240" y="40" width="20" height="20" fill="#000000"/>
  <circle cx="250" cy="50" r="11.9947" fill="#FFFFFF"/>
  <rect x="260" y="40" width="20" height="20" fill="#FFFFFF"/>
  <circle cx="270" cy="50" r="11.6483" fill="#000000"/>
  <rect x="280" y="40" width="20" height="20" fill="#000000"/>
  <circle cx="290" cy="50" r="10.51" fill="#FFFFFF"/>
  <rect x="300" y="40" width="20" height="20" fill="#FFFFFF"/>
  <circle cx="310" cy="50" r="8.4957" fill="#000000"/>
  <rect x="320" y="40" width="20" height="20" fill="#000000"/>
  <circle cx="330" cy="50" r="6.0825" fill="#FFFFFF"/>
  <rect x="340" y="40" width="20" height="20" fill="#FFFFFF"/>
  <circle cx="350" cy="50" r="4.2988" fill="#000000"/>
  <rect x="360" y="40" width="20" height="20" fill="#000000"/>
  <circle cx="370" cy="50" r="4.2293" fill="#FFFFFF"/>
  <rect x="380" y="40" width="20" height="20" fill="#FFFFFF"/>
  <circle cx="390" cy="50" r="6.2147" fill="#000000"/>
  <rect x="0" y="60" width="20" height="20" fill="#FFFFFF"/>
  <circle cx="10" cy="70" r="4.5194" fill="#000000"/>
  <rect x="20" y="60" width="20" height="20" fill="#000000"/>
  <circle cx="30" cy="70" r="4.1729" fill="#FFFFFF"/>
  <rect x="40" y="60" width="20" height="20" fill="#FFFFFF"/>
  <circle cx="50" cy="70" r="6.0825" fill="#000000"/>
  <rect x="60" y="60" width="20" height="20" fill="#000000"/>
  <circle cx="70" cy="70" r="8.9212" fill="#FFFFFF"/>
  <rect x="80" y="60" width="20" height="20" fill="#FFFFFF"/>
  <circle cx="90" cy="70" r="11.1582" fill="#000000"/>
  <rect x="100" y="60" width="20" height="20" fill="#000000"/>
  <circle cx="110" cy="70" r="11.9947" fill="#FFFFFF"/>
  <rect x="120" y="60" width="20" height="20" fill="#FFFFFF"/>
  <circle cx="130" cy="70" r="11.5634" fill="#000000"/>
  <rect x="140" y="60" width="20" height="20" fill="#000000"/>
  <circle cx="150" cy="70" r="10.5183" fill="#FFFFFF"/>
  <rect x="160" y="60" width="20" height="20" fill="#FFFFFF"/>
  <circle cx="170" cy="70" r="9.512" fill="#000000"/>
  <rect x="180" y="60" width="20" height="20" fill="#000000"/>
  <circle cx="190" cy="70" r="8.9353" fill="#FFFFFF"/>
  <rect x="200" y="60" width="20" height="20" fill="#FFFFFF"/>
  <circle cx="210" cy="70" r="8.9353" fill="#000000"/>
  <rect x="220" y="60" width="20" height="20" fill="#000000"/>
  <circle cx="230" cy="70" r="9.512" fill="#FFFFFF"/>
  <rect x="240" y="60" width="20" height="20" fill="#FFFFFF"/>
  <circle cx="250" cy="70" r="10.5183" fill="#000000"/>
  <rect x="260" y="60" width="20" height="20" fill="#000000"/>
  <circle cx="270" cy="70" r="11.5634" fill="#FFFFFF"/>
  <rect x="280" y="60" width="20" height="20" fill="#FFFFFF"/>
  <circle cx="290" cy="70" r="11.9947" fill="#000000"/>
  <rect x="300" y="60" width="20" height="20" fill="#000000"/>
  <circle cx="310" cy="70" r="11.1582" fill="#FFFFFF"/>
  <rect x="320" y="60" width="20" height="20" fill="#FFFFFF"/>
  <circle cx="330" cy="70" r="8.9212" fill="#000000"/>
  <rect x="340" y="60" width="20" height="20" fill="#000000"/>
  <circle cx="350" cy="70" r="6.0825" fill="#FFFFFF"/>
  <rect x="360" y="60" width="20" height="20" fill="#FFFFFF"/>
  <circle cx="370" cy="70" r="4.1729" fill="#000000"/>
  <rect x="380" y="60" width="20" height="20" fill="#000000"/>
  <circle cx="390" cy="70" r="4.5194" fill="#FFFFFF"/>
  <rect x="0" y="80" width="20" height="20" fill="#000000"/>
  <circle cx="10" cy="90" r="4.0007" fill="#FFFFFF"/>
  <rect x="20" y="80" width="20" height="20" fill="#FFFFFF"/>
  <circle cx="30" cy="90" r="5.4248" fill="#000000"/>
  <rect x="40" y="80" width="20" height="20" fill="#000000"/>
  <circle cx="50" cy="90" r="8.4957" fill="#FFFFFF"/>
  <rect x="60" y="80" width="20" height="20" fill="#FFFFFF"/>
  <circle cx="70" cy="90" r="11.1582" fill="#000000"/>
  <rect x="80" y="80" width="20" height="20" fill="#000000"/>
  <circle cx="90" cy="90" r="11.9885" fill="#FFFFFF"/>
  <rect x="100" y="80" width="20" height="20" fill="#FFFFFF"/>
  <circle cx="110" cy="90" r="10.9332" fill="#000000"/>
  <rect x="120" y="80" width="20" height="20" fill="#000000"/>
  <circle cx="130" cy="90" r="8.9353" fill="#FFFFFF"/>
  <rect x="140" y="80" width="20" height="20" fill="#FFFFFF"/>
  <circle cx="150" cy="90" r="7.0427" fill="#000000"/>
  <rect x="160" y="80" width="20" height="20" fill="#000000"/>
  <circle cx="170" cy="90" r="5.8002" fill="#FFFFFF"/>
  <rect x="180" y="80" width="20" height="20" fill="#FFFFFF"/>
  <circle cx="190" cy="90" r="5.2429" fill="#000000"/>
  <rect x="200" y="80" width="20" height="20" fill="#000000"/>
  <circle cx="210" cy="90" r="5.2429" fill="#FFFFFF"/>
  <rect x="220" y="80" width="20" height="20" fill="#FFFFFF"/>
  <circle cx="230" cy="90" r="5.8002" fill="#000000"/>
  <rect x="240" y="80" width="20" height="20" fill="#000000"/>
  <circle cx="250" cy="90" r="7.0427" fill="#FFFFFF"/>
  <rect x="260" y="80" width="20" height="20" fill="#FFFFFF"/>
  <circle cx="270" cy="90" r="8.9353" fill="#000000"/>
  <rect x="280" y="80" width="20" height="20" fill="#000000"/>
  <circle cx="290" cy="90" r="10.9332" fill="#FFFFFF"/>
  <rect x="300" y="80" width="20" height="20" fill="#FFFFFF"/>
  <circle cx="310" cy="90" r="11.9885" fill="#000000"/>
  <rect x="320" y="80" width="20" height="20" fill="#000000"/>
  <circle cx="330" cy="90" r="11.1582" fill="#FFFFFF"/>
  <rect x="340" y="80" width="20" height="20" fill="#FFFFFF"/>
  <circle cx="350" cy="90" r="8.4957" fill="#000000"/>
  <rect x="360" y="80" width="20" height="20" fill="#000000"/>
  <circle cx="370" cy="90" r="5.4248" fill="#FFFFFF"/>
  <rect x="380" y="80" width="20" height="20" fill="#FFFFFF"/>
  <circle cx="390" cy="90" r="4.0007" fill="#000000"/>
  <rect x="0" y="100" width="20" height="20" fill="#FFFFFF"/>
  <circle cx="10" cy="110" r="4.4588" fill="#000000"/>
  <rect x="20" y="100" width="20" height="20" fill="#000000"/>
  <circle cx="30" cy="110" r="7.2331" fill="#FFFFFF"/>
  <rect x="40" y="100" width="20" height="20" fill="#FFFFFF"/>
  <circle cx="50" cy="110" r="10.51" fill="#000000"/>
  <rect x="60" y="100" width="20" height="20" fill="#000000"/>
  <circle cx="70" cy="110" r="11.9947" fill="#FFFFFF"/>
  <rect x="80" y="100" width="20" height="20" fill="#FFFFFF"/>
  <circle cx="90" cy="110" r="10.9332" fill="#000000"/>
  <rect x="100" y="100" width="20" height="20" fill="#000000"/>
  <circle cx="110" cy="110" r="8.3228" fill="#FFFFFF"/>
  <rect x="120" y="100" width="20" height="20" fill="#FFFFFF"/>
  <circle cx="130" cy="110" r="5.8002" fill="#000000"/>
  <rect x="140" y="100" width="20" height="20" fill="#000000"/>
  <circle cx="150" cy="110" r="4.3732" fill="#FFFFFF"/>
  <rect x="160" y="100" width="20" height="20" fill="#FFFFFF"/>
  <circle cx="170" cy="110" r="4.0019" fill="#000000"/>
  <rect x="180" y="100" width="20" height="20" fill="#000000"/>
  <circle cx="190" cy="110" r="4.068" fill="#FFFFFF"/>
  <rect x="200" y="100" width="20" height="20" fill="#FFFFFF"/>
  <circle cx="210" cy="110" r="4.068" fill="#000000"/>
  <rect x="220" y="100" width="20" height="20" fill="#000000"/>
  <circle cx="230" cy="110" r="4.0019" fill="#FFFFFF"/>
  <rect x="240" y="100" width="20" height="20" fill="#FFFFFF"/>
  <circle cx="250" cy="110" r="4.3732" fill="#000000"/>
  <rect x="260" y="100" width="20" height="20" fill="#000000"/>
  <circle cx="270" cy="110" r="5.8002" fill="#FFFFFF"/>
  <rect x="280" y="100" width="20" height="20" fill="#FFFFFF"/>
  <circle cx="290" cy="110" r="8.3228" fill="#000000"/>
  <rect x="300" y="100" width="20" height="20" fill="#000000"/>
  <circle cx="310" cy="110" r="10.9332" fill="#FFFFFF"/>
  <rect x="320" y="100" width="20" height="20" fill="#FFFFFF"/>
  <circle cx="330" cy="110" r="11.9947" fill="#000000"/>
  <rect x="340" y="100" width="20" height="20" fill="#000000"/>
  <circle cx="350" cy="110" r="10.51" fill="#FFFFFF"/>
  <rect x="360" y="100" width="20" height="20" fill="#FFFFFF"/>
  <circle cx="370" cy="110" r="7.2331" fill="#000000"/>
  <rect x="380" y="100" width="20" height="20" fill="#000000"/>
  <circle cx="390" cy="110" r="4.4588" fill="#FFFFFF"/>
  <rect x="0" y="120" width="20" height="20" fill="#000000"/>
  <circle cx="10" cy="130" r="5.4248" fill="#FFFFFF"/>
  <rect x="20" y="120" width="20" height="20" fill="#FFFFFF"/>
  <circle cx="30" cy="130" r="8.9212" fill="#000000"/>
  <rect x="40" y="120" width="20" height="20" fill="#000000"/>
  <circle cx="50" cy="130" r="11.6483" fill="#FFFFFF"/>
  <rect x="60" y="120" width="20" height="20" fill="#FFFFFF"/>
  <circle cx="70" cy="130" r="11.5634" fill="#000000"/>
  <rect x="80" y="120" width="20" height="20" fill="#000000"/>
  <circle cx="90" cy="130" r="8.9353" fill="#FFFFFF"/>
  <rect x="100" y="120" width="20" height="20" fill="#FFFFFF"/>
  <circle cx="110" cy="130" r="5.8002" fill="#000000"/>
  <rect x="120" y="120" width="20" height="20" fill="#000000"/>
  <circle cx="130" cy="130" r="4.1122" fill="#FFFFFF"/>
  <rect x="140" y="120" width="20" height="20" fill="#FFFFFF"/>
  <circle cx="150" cy="130" r="4.3335" fill="#000000"/>
  <rect x="160" y="120" width="20" height="20" fill="#000000"/>
  <circle cx="170" cy="130" r="5.5277" fill="#FFFFFF"/>
  <rect x="180" y="120" width="20" height="20" fill="#FFFFFF"/>
  <circle cx="190" cy="130" r="6.4647" fill="#000000"/>
  <rect x="200" y="120" width="20" height="20" fill="#000000"/>
  <circle cx="210" cy="130" r="6.4647" fill="#FFFFFF"/>
  <rect x="220" y="120" width="20" height="20" fill="#FFFFFF"/>
  <circle cx="230" cy="130" r="5.5277" fill="#000000"/>
  <rect x="240" y="120" width="20" height="20" fill="#000000"/>
  <circle cx="250" cy="130" r="4.3335" fill="#FFFFFF"/>
  <rect x="260" y="120" width="20" height="20" fill="#FFFFFF"/>
  <circle cx="270" cy="130" r="4.1122" fill="#000000"/>
  <rect x="280" y="120" width="20" height="20" fill="#000000"/>
  <circle cx="290" cy="130" r="5.8002" fill="#FFFFFF"/>
  <rect x="300" y="120" width="20" height="20" fill="#FFFFFF"/>
  <circle cx="310" cy="130" r="8.9353" fill="#000000"/>
  <rect x="320" y="120" width="20" height="20" fill="#000000"/>
  <circle cx="330" cy="130" r="11.5634" fill="#FFFFFF"/>
  <rect x="340" y="120" width="20" height="20" fill="#FFFFFF"/>
  <circle cx="350" cy="130" r="11.6483" fill="#000000"/>
  <rect x="360" y="120" width="20" height="20" fill="#000000"/>
  <circle cx="370" cy="130" r="8.9212" fill="#FFFFFF"/>
  <rect x="380" y="120" width="20" height="20" fill="#FFFFFF"/>
  <circle cx="390" cy="130" r="5.4248" fill="#000000"/>
  <rect x="0" y="140" width="20" height="20" fill="#FFFFFF"/>
  <circle cx="10" cy="150" r="6.4473" fill="#000000"/>
  <rect x="20" y="140" width="20" height="20" fill="#000000"/>
  <circle cx="30" cy="150" r="10.1408" fill="#FFFFFF"/>
  <rect x="40" y="140" width="20" height="20" fill="#FFFFFF"/>
  <circle cx="50" cy="150" r="11.9947" fill="#000000"/>
  <rect x="60" y="140" width="20" height="20" fill="#000000"/>
  <circle cx="70" cy="150" r="10.5183" fill="#FFFFFF"/>
  <rect x="80" y="140" width="20" height="20" fill="#FFFFFF"/>
  <circle cx="90" cy="150" r="7.0427" fill="#000000"/>
  <rect x="100" y="140" width="20" height="20" fill="#000000"/>
  <circle cx="110" cy="150" r="4.3732" fill="#FFFFFF"/>
  <rect x="120" y="140" width="20" height="20" fill="#FFFFFF"/>
  <circle cx="130" cy="150" r="4.3335" fill="#000000"/>
  <rect x="140" y="140" width="20" height="20" fill="#000000"/>
  <circle cx="150" cy="150" r="6.4647" fill="#FFFFFF"/>
  <rect x="160" y="140" width="20" height="20" fill="#FFFFFF"/>
  <circle cx="170" cy="150" r="8.8968" fill="#000000"/>
  <rect x="180" y="140" width="20" height="20" fill="#000000"/>
  <circle cx="190" cy="150" r="10.2324" fill="#FFFFFF"/>
  <rect x="200" y="140" width="20" height="20" fill="#FFFFFF"/>
  <circle cx="210" cy="150" r="10.2324" fill="#000000"/>
  <rect x="220" y="140" width="20" height="20" fill="#000000"/>
  <circle cx="230" cy="150" r="8.8968" fill="#FFFFFF"/>
  <rect x="240" y="140" width="20" height="20" fill="#FFFFFF"/>
  <circle cx="250" cy="150" r="6.4647" fill="#000000"/>
  <rect x="260" y="140" width="20" height="20" fill="#000000"/>
  <circle cx="270" cy="150" r="4.3335" fill="#FFFFFF"/>
  <rect x="280" y="140" width="20" height="20" fill="#FFFFFF"/>
  <circle cx="290" cy="150" r="4.3732" fill="#000000"/>
  <rect x="300" y="140" width="20" height="20" fill="#000000"/>
  <circle cx="310" cy="150" r="7.0427" fill="#FFFFFF"/>
  <rect x="320" y="140" width="20" height="20" fill="#FFFFFF"/>
  <circle cx="330" cy="150" r="10.5183" fill="#000000"/>
  <rect x="340" y="140" width="20" height="20" fill="#000000"/>
  <circle cx="350" cy="150" r="11.9947" fill="#FFFFFF"/>
  <rect x="360" y="140" width="20" height="20" fill="#FFFFFF"/>
  <circle cx="370" cy="150" r="10.1408" fill="#000000"/>
  <rect x="380" y="140" width="20" height="20" fill="#000000"/>
  <circle cx="390" cy="150" r="6.4473" fill="#FFFFFF"/>
  <rect x="0" y="160" width="20" height="20" fill="#000000"/>
  <circle cx="10" cy="170" r="7.2331" fill="#FFFFFF"/>
  <rect x="20" y="160" width="20" height="20" fill="#FFFFFF"/>
  <circle cx="30" cy="170" r="10.8511" fill="#000000"/>
  <rect x="40" y="160" width="20" height="20" fill="#000000"/>
  <circle cx="50" cy="170" r="11.9159" fill="#FFFFFF"/>
  <rect x="60" y="160" width="20" height="20" fill="#FFFFFF"/>
  <circle cx="70" cy="170" r="9.512" fill="#000000"/>
  <rect x="80" y="160" width="20" height="20" fill="#000000"/>
  <circle cx="90" cy="170" r="5.8002" fill="#FFFFFF"/>
  <rect x="100" y="160" width="20" height="20" fill="#FFFFFF"/>
  <circle cx="110" cy="170" r="4.0019" fill="#000000"/>
  <rect x="120" y="160" width="20" height="20" fill="#000000"/>
  <circle cx="130" cy="170" r="5.5277" fill="#FFFFFF"/>
  <rect x="140" y="160" width="20" height="20" fill="#FFFFFF"/>
  <circle cx="150" cy="170" r="8.8968" fill="#000000"/>
  <rect x="160" y="160" width="20" height="20" fill="#000000"/>
  <circle cx="170" cy="170" r="11.409" fill="#FFFFFF"/>
  <rect x="180" y="160" width="20" height="20" fill="#FFFFFF"/>
  <circle cx="190" cy="170" r="11.9998" fill="#000000"/>
  <rect x="200" y="160" width="20" height="20" fill="#000000"/>
  <circle cx="210" cy="170" r="11.9998" fill="#FFFFFF"/>
  <rect x="220" y="160" width="20" height="20" fill="#FFFFFF"/>
  <circle cx="230" cy="170" r="11.409" fill="#000000"/>
  <rect x="240" y="160" width="20" height="20" fill="#000000"/>
  <circle cx="250" cy="170" r="8.8968" fill="#FFFFFF"/>
  <rect x="260" y="160" width="20" height="20" fill="#FFFFFF"/>
  <circle cx="270" cy="170" r="5.5277" fill="#000000"/>
  <rect x="280" y="160" width="20" height="20" fill="#000000"/>
  <circle cx="290" cy="170" r="4.0019" fill="#FFFFFF"/>
  <rect x="300" y="160" width="20" height="20" fill="#FFFFFF"/>
  <circle cx="310" cy="170" r="5.8002" fill="#000000"/>
  <rect x="320" y="160" width="20" height="20" fill="#000000"/>
  <circle cx="330" cy="170" r="9.512" fill="#FFFFFF"/>
  <rect x="340" y="160" width="20" height="20" fill="#FFFFFF"/>
  <circle cx="350" cy="170" r="11.9159" fill="#000000"/>
  <rect x="360" y="160" width="20" height="20" fill="#000000"/>
  <circle cx="370" cy="170" r="10.8511" fill="#FFFFFF"/>
  <rect x="380" y="160" width="20" height="20" fill="#FFFFFF"/>
  <circle cx="390" cy="170" r="7.2331" fill="#000000"/>
  <rect x="0" y="180" width="20" height="20" fill="#FFFFFF"/>
  <circle cx="10" cy="190" r="7.647" fill="#000000"/>
  <rect x="20" y="180" width="20" height="20" fill="#000000"/>
  <circle cx="30" cy="190" r="11.1582" fill="#FFFFFF"/>
  <rect x="40" y="180" width="20" height="20" fill="#FFFFFF"/>
  <circle cx="50" cy="190" r="11.7746" fill="#000000"/>
  <rect x="60" y="180" width="20" height="20" fill="#000000"/>
  <circle cx="70" cy="190" r="8.9353" fill="#FFFFFF"/>
  <rect x="80" y="180" width="20" height="20" fill="#FFFFFF"/>
  <circle cx="90" cy="190" r="5.2429" fill="#000000"/>
  <rect x="100" y="180" width="20" height="20" fill="#000000"/>
  <circle cx="110" cy="190" r="4.068" fill="#FFFFFF"/>
  <rect x="120" y="180" width="20" height="20" fill="#FFFFFF"/>
  <circle cx="130" cy="190" r="6.4647" fill="#000000"/>
  <rect x="140" y="180" width="20" height="20" fill="#000000"/>
  <circle cx="150" cy="190" r="10.2324" fill="#FFFFFF"/>
  <rect x="160" y="180" width="20" height="20" fill="#FFFFFF"/>
  <circle cx="170" cy="190" r="11.9998" fill="#000000"/>
  <rect x="180" y="180" width="20" height="20" fill="#000000"/>
  <circle cx="190" cy="190" r="10.5985" fill="#FFFFFF"/>
  <rect x="200" y="180" width="20" height="20" fill="#FFFFFF"/>
  <circle cx="210" cy="190" r="10.5985" fill="#000000"/>
  <rect x="220" y="180" width="20" height="20" fill="#000000"/>
  <circle cx="230" cy="190" r="11.9998" fill="#FFFFFF"/>
  <rect x="240" y="180" width="20" height="20" fill="#FFFFFF"/>
  <circle cx="250" cy="190" r="10.2324" fill="#000000"/>
  <rect x="260" y="180" width="20" height="20" fill="#000000"/>
  <circle cx="270" cy="190" r="6.4647" fill="#FFFFFF"/>
  <rect x="280" y="180" width="20" height="20" fill="#FFFFFF"/>
  <circle cx="290" cy="190" r="4.068" fill="#000000"/>
  <rect x="300" y="180" width="20" height="20" fill="#000000"/>
  <circle cx="310" cy="190" r="5.2429" fill="#FFFFFF"/>
  <rect x="320" y="180" width="20" height="20" fill="#FFFFFF"/>
  <circle cx="330" cy="190" r="8.9353" fill="#000000"/>
  <rect x="340" y="180" width="20" height="20" fill="#000000"/>
  <circle cx="350" cy="190" r="11.7746" fill="#FFFFFF"/>
  <rect x="360" y="180" width="20" height="20" fill="#FFFFFF"/>
  <circle cx="370" cy="190" r="11.1582" fill="#000000"/>
  <rect x="380" y="180" width="20" height="20" fill="#000000"/>
  <circle cx="390" cy="190" r="7.647" fill="#FFFFFF"/>
  <rect x="0" y="200" width="20" height="20" fill="#000000"/>
  <circle cx="10" cy="210" r="7.647" fill="#FFFFFF"/>
  <rect x="20" y="200" width="20" height="20" fill="#FFFFFF"/>
  <circle cx="30" cy="210" r="11.1582" fill="#000000"/>
  <rect x="40" y="200" width="20" height="20" fill="#000000"/>
  <circle cx="50" cy="210" r="11.7746" fill="#FFFFFF"/>
  <rect x="60" y="200" width="20" height="20" fill="#FFFFFF"/>
  <circle cx="70" cy="210" r="8.9353" fill="#000000"/>
  <rect x="80" y="200" width="20" height="20" fill="#000000"/>
  <circle cx="90" cy="210" r="5.2429" fill="#FFFFFF"/>
  <rect x="100" y="200" width="20" height="20" fill="#FFFFFF"/>
  <circle cx="110" cy="210" r="4.068" fill="#000000"/>
  <rect x="120" y="200" width="20" height="20" fill="#000000"/>
  <circle cx="130" cy="210" r="6.4647" fill="#FFFFFF"/>
  <rect x="140" y="200" width="20" height="20" fill="#FFFFFF"/>
  <circle cx="150" cy="210" r="10.2324" fill="#000000"/>
  <rect x="160" y="200" width="20" height="20" fill="#000000"/>
  <circle cx="170" cy="210" r="11.9998" fill="#FFFFFF"/>
  <rect x="180" y="200" width="20" height="20" fill="#FFFFFF"/>
  <circle cx="190" cy="210" r="10.5985" fill="#000000"/>
  <rect x="200" y="200" width="20" height="20" fill="#000000"/>
  <circle cx="210" cy="210" r="10.5985" fill="#FFFFFF"/>
  <rect x="220" y="200" width="20" height="20" fill="#FFFFFF"/>
  <circle cx="230" cy="210" r="11.9998" fill="#000000"/>
  <rect x="240" y="200" width="20" height="20" fill="#000000"/>
  <circle cx="250" cy="210" r="10.2324" fill="#FFFFFF"/>
  <rect x="260" y="200" width="20" height="20" fill="#FFFFFF"/>
  <circle cx="270" cy="210" r="6.4647" fill="#000000"/>
  <rect x="280" y="200" width="20" height="20" fill="#000000"/>
  <circle cx="290" cy="210" r="4.068" fill="#FFFFFF"/>
  <rect x="300" y="200" width="20" height="20" fill="#FFFFFF"/>
  <circle cx="310" cy="210" r="5.2429" fill="#000000"/>
  <rect x="320" y="200" width="20" height="20" fill="#000000"/>
  <circle cx="330" cy="210" r="8.9353" fill="#FFFFFF"/>
  <rect x="340" y="200" width="20" height="20" fill="#FFFFFF"/>
  <circle cx="350" cy="210" r="11.7746" fill="#000000"/>
  <rect x="360" y="200" width="20" height="20" fill="#000000"/>
  <circle cx="370" cy="210" r="11.1582" fill="#FFFFFF"/>
  <rect x="380" y="200" width="20" height="20" fill="#FFFFFF"/>
  <circle cx="390" cy="210" r="7.647" fill="#000000"/>
  <rect x="0" y="220" width="20" height="20" fill="#FFFFFF"/>
  <circle cx="10" cy="230" r="7.2331" fill="#000000"/>
  <rect x="20" y="220" width="20" height="20" fill="#000000"/>
  <circle cx="30" cy="230" r="10.8511" fill="#FFFFFF"/>
  <rect x="40" y="220" width="20" height="20" fill="#FFFFFF"/>
  <circle cx="50" cy="230" r="11.9159" fill="#000000"/>
  <rect x="60" y="220" width="20" height="20" fill="#000000"/>
  <circle cx="70" cy="230" r="9.512" fill="#FFFFFF"/>
  <rect x="80" y="220" width="20" height="20" fill="#FFFFFF"/>
  <circle cx="90" cy="230" r="5.8002" fill="#000000"/>
  <rect x="100" y="220" width="20" height="20" fill="#000000"/>
  <circle cx="110" cy="230" r="4.0019" fill="#FFFFFF"/>
  <rect x="120" y="220" width="20" height="20" fill="#FFFFFF"/>
  <circle cx="130" cy="230" r="5.5277" fill="#000000"/>
  <rect x="140" y="220" width="20" height="20" fill="#000000"/>
  <circle cx="150" cy="230" r="8.8968" fill="#FFFFFF"/>
  <rect x="160" y="220" width="20" height="20" fill="#FFFFFF"/>
  <circle cx="170" cy="230" r="11.409" fill="#000000"/>
  <rect x="180" y="220" width="20" height="20" fill="#000000"/>
  <circle cx="190" cy="230" r="11.9998" fill="#FFFFFF"/>
  <rect x="200" y="220" width="20" height="20" fill="#FFFFFF"/>
  <circle cx="210" cy="230" r="11.9998" fill="#000000"/>
  <rect x="220" y="220" width="20" height="20" fill="#000000"/>
  <circle cx="230" cy="230" r="11.409" fill="#FFFFFF"/>
  <rect x="240" y="220" width="20" height="20" fill="#FFFFFF"/>
  <circle cx="250" cy="230" r="8.8968" fill="#000000"/>
  <rect x="260" y="220" width="20" height="20" fill="#000000"/>
  <circle cx="270" cy="230" r="5.5277" fill="#FFFFFF"/>
  <rect x="280" y="220" width="20" height="20" fill="#FFFFFF"/>
  <circle cx="290" cy="230" r="4.0019" fill="#000000"/>
  <rect x="300" y="220" width="20" height="20" fill="#000000"/>
  <circle cx="310" cy="230" r="5.8002" fill="#FFFFFF"/>
  <rect x="320" y="220" width="20" height="20" fill="#FFFFFF"/>
  <circle cx="330" cy="230" r="9.512" fill="#000000"/>
  <rect x="340" y="220" width="20" height="20" fill="#000000"/>
  <circle cx="350" cy="230" r="11.9159" fill="#FFFFFF"/>
  <rect x="360" y="220" width="20" height="20" fill="#FFFFFF"/>
  <circle cx="370" cy="230" r="10.8511" fill="#000000"/>
  <rect x="380" y="220" width="20" height="20" fill="#000000"/>
  <circle cx="390" cy="230" r="7.2331" fill="#FFFFFF"/>
  <rect x="0" y="240" width="20" height="20" fill="#000000"/>
  <circle cx="10" cy="250" r="6.4473" fill="#FFFFFF"/>
  <rect x="20" y="240" width="20" height="20" fill="#FFFFFF"/>
  <circle cx="30" cy="250" r="10.1408" fill="#000000"/>
  <rect x="40" y="240" width="20" height="20" fill="#000000"/>
  <circle cx="50" cy="250" r="11.9947" fill="#FFFFFF"/>
  <rect x="60" y="240" width="20" height="20" fill="#FFFFFF"/>
  <circle cx="70" cy="250" r="10.5183" fill="#000000"/>
  <rect x="80" y="240" width="20" height="20" fill="#000000"/>
  <circle cx="90" cy="250" r="7.0427" fill="#FFFFFF"/>
  <rect x="100" y="240" width="20" height="20" fill="#FFFFFF"/>
  <circle cx="110" cy="250" r="4.3732" fill="#000000"/>
  <rect x="120" y="240" width="20" height="20" fill="#000000"/>
  <circle cx="130" cy="250" r="4.3335" fill="#FFFFFF"/>
  <rect x="140" y="240" width="20" height="20" fill="#FFFFFF"/>
  <circle cx="150" cy="250" r="6.4647" fill="#000000"/>
  <rect x="160" y="240" width="20" height="20" fill="#000000"/>
  <circle cx="170" cy="250" r="8.8968" fill="#FFFFFF"/>
  <rect x="180" y="240" width="20" height="20" fill="#FFFFFF"/>
  <circle cx="190" cy="250" r="10.2324" fill="#000000"/>
  <rect x="200" y="240" width="20" height="20" fill="#000000"/>
  <circle cx="210" cy="250" r="10.2324" fill="#FFFFFF"/>
  <rect x="220" y="240" width="20" height="20" fill="#FFFFFF"/>
  <circle cx="230" cy="250" r="8.8968" fill="#000000"/>
  <rect x="240" y="240" width="20" height="20" fill="#000000"/>
  <circle cx="250" cy="250" r="6.4647" fill="#FFFFFF"/>
  <rect x="260" y="240" width="20" height="20" fill="#FFFFFF"/>
  <circle cx="270" cy="250" r="4.3335" fill="#000000"/>
  <rect x="280" y="240" width="20" height="20" fill="#000000"/>
  <circle cx="290" cy="250" r="4.3732" fill="#FFFFFF"/>
  <rect x="300" y="240" width="20" height="20" fill="#FFFFFF"/>
  <circle cx="310" cy="250" r="7.0427" fill="#000000"/>
  <rect x="320" y="240" width="20" height="20" fill="#000000"/>
  <circle cx="330" cy="250" r="10.5183" fill="#FFFFFF"/>
  <rect x="340" y="240" width="20" height="20" fill="#FFFFFF"/>
  <circle cx="350" cy="250" r="11.9947" fill="#000000"/>
  <rect x="360" y="240" width="20" height="20" fill="#000000"/>
  <circle cx="370" cy="250" r="10.1408" fill="#FFFFFF"/>
  <rect x="380" y="240" width="20" height="20" fill="#FFFFFF"/>
  <circle cx="390" cy="250" r="6.4473" fill="#000000"/>
  <rect x="0" y="260" width="20" height="20" fill="#FFFFFF"/>
  <circle cx="10" cy="270" r="5.4248" fill="#000000"/>
  <rect x="20" y="260" width="20" height="20" fill="#000000"/>
  <circle cx="30" cy="270" r="8.9212" fill="#FFFFFF"/>
  <rect x="40" y="260" width="20" height="20" fill="#FFFFFF"/>
  <circle cx="50" cy="270" r="11.6483" fill="#000000"/>
  <rect x="60" y="260" width="20" height="20" fill="#000000"/>
  <circle cx="70" cy="270" r="11.5634" fill="#FFFFFF"/>
  <rect x="80" y="260" width="20" height="20" fill="#FFFFFF"/>
  <circle cx="90" cy="270" r="8.9353" fill="#000000"/>
  <rect x="100" y="260" width="20" height="20" fill="#000000"/>
  <circle cx="110" cy="270" r="5.8002" fill="#FFFFFF"/>
  <rect x="120" y="260" width="20" height="20" fill="#FFFFFF"/>
  <circle cx="130" cy="270" r="4.1122" fill="#000000"/>
  <rect x="140" y="260" width="20" height="20" fill="#000000"/>
  <circle cx="150" cy="270" r="4.3335" fill="#FFFFFF"/>
  <rect x="160" y="260" width="20" height="20" fill="#FFFFFF"/>
  <circle cx="170" cy="270" r="5.5277" fill="#000000"/>
  <rect x="180" y="260" width="20" height="20" fill="#000000"/>
  <circle cx="190" cy="270" r="6.4647" fill="#FFFFFF"/>
  <rect x="200" y="260" width="20" height="20" fill="#FFFFFF"/>
  <circle cx="210" cy="270" r="6.4647" fill="#000000"/>
  <rect x="220" y="260" width="20" height="20" fill="#000000"/>
  <circle cx="230" cy="270" r="5.5277" fill="#FFFFFF"/>
  <rect x="240" y="260" width="20" height="20" fill="#FFFFFF"/>
  <circle cx="250" cy="270" r="4.3335" fill="#000000"/>
  <rect x="260" y="260" width="20" height="20" fill="#000000"/>
  <circle cx="270" cy="270" r="4.1122" fill="#FFFFFF"/>
  <rect x="280" y="260" width="20" height="20" fill="#FFFFFF"/>
  <circle cx="290" cy="270" r="5.8002" fill="#000000"/>
  <rect x="300" y="260" width="20" height="20" fill="#000000"/>
  <circle cx="310" cy="270" r="8.9353" fill="#FFFFFF"/>
  <rect x="320" y="260" width="20" height="20" fill="#FFFFFF"/>
  <circle cx="330" cy="270" r="11.5634" fill="#000000"/>
  <rect x="340" y="260" width="20" height="20" fill="#000000"/>
  <circle cx="350" cy="270" r="11.6483" fill="#FFFFFF"/>
  <rect x="360" y="260" width="20" height="20" fill="#FFFFFF"/>
  <circle cx="370" cy="270" r="8.9212" fill="#000000"/>
  <rect x="380" y="260" width="20" height="20" fill="#000000"/>
  <circle cx="390" cy="270" r="5.4248" fill="#FFFFFF"/>
  <rect x="0" y="280" width="20" height="20" fill="#000000"/>
  <circle cx="10" cy="290" r="4.4588" fill="#FFFFFF"/>
  <rect x="20" y="280" width="20" height="20" fill="#FFFFFF"/>
  <circle cx="30" cy="290" r="7.2331" fill="#000000"/>
  <rect x="40" y="280" width="20" height="20" fill="#000000"/>
  <circle cx="50" cy="290" r="10.51" fill="#FFFFFF"/>
  <rect x="60" y="280" width="20" height="20" fill="#FFFFFF"/>
  <circle cx="70" cy="290" r="11.9947" fill="#000000"/>
  <rect x="80" y="280" width="20" height="20" fill="#000000"/>
  <circle cx="90" cy="290" r="10.9332" fill="#FFFFFF"/>
  <rect x="100" y="280" width="20" height="20" fill="#FFFFFF"/>
  <circle cx="110" cy="290" r="8.3228" fill="#000000"/>
  <rect x="120" y="280" width="20" height="20" fill="#000000"/>
  <circle cx="130" cy="290" r="5.8002" fill="#FFFFFF"/>
  <rect x="140" y="280" width="20" height="20" fill="#FFFFFF"/>
  <circle cx="150" cy="290" r="4.3732" fill="#000000"/>
  <rect x="160" y="280" width="20" height="20" fill="#000000"/>
  <circle cx="170" cy="290" r="4.0019" fill="#FFFFFF"/>
  <rect x="180" y="280" width="20" height="20" fill="#FFFFFF"/>
  <circle cx="190" cy="290" r="4.068" fill="#000000"/>
  <rect x="200" y="280" width="20" height="20" fill="#000000"/>
  <circle cx="210" cy="290" r="4.068" fill="#FFFFFF"/>
  <rect x="220" y="280" width="20" height="20" fill="#FFFFFF"/>
  <circle cx="230" cy="290" r="4.0019" fill="#000000"/>
  <rect x="240" y="280" width="20" height="20" fill="#000000"/>
  <circle cx="250" cy="290" r="4.3732" fill="#FFFFFF"/>
  <rect x="260" y="280" width="20" height="20" fill="#FFFFFF"/>
  <circle cx="270" cy="290" r="5.8002" fill="#000000"/>
  <rect x="280" y="280" width="20" height="20" fill="#000000"/>
  <circle cx="290" cy="290" r="8.3228" fill="#FFFFFF"/>
  <rect x="300" y="280" width="20" height="20" fill="#FFFFFF"/>
  <circle cx="310" cy="290" r="10.9332" fill="#000000"/>
  <rect x="320" y="280" width="20" height="20" fill="#000000"/>
  <circle cx="330" cy="290" r="11.9947" fill="#FFFFFF"/>
  <rect x="340" y="280" width="20" height="20" fill="#FFFFFF"/>
  <circle cx="350" cy="290" r="10.51" fill="#000000"/>
  <rect x="360" y="280" width="20" height="20" fill="#000000"/>
  <circle cx="370" cy="290" r="7.2331" fill="#FFFFFF"/>
  <rect x="380" y="280" width="20" height="20" fill="#FFFFFF"/>
  <circle cx="390" cy="290" r="4.4588" fill="#000000"/>
  <rect x="0" y="300" width="20" height="20" fill="#FFFFFF"/>
  <circle cx="10" cy="310" r="4.0007" fill="#000000"/>
  <rect x="20" y="300" width="20" height="20" fill="#000000"/>
  <circle cx="30" cy="310" r="5.4248" fill="#FFFFFF"/>
  <rect x="40" y="300" width="20" height="20" fill="#FFFFFF"/>
  <circle cx="50" cy="310" r="8.4957" fill="#000000"/>
  <rect x="60" y="300" width="20" height="20" fill="#000000"/>
  <circle cx="70" cy="310" r="11.1582" fill="#FFFFFF"/>
  <rect x="80" y="300" width="20" height="20" fill="#FFFFFF"/>
  <circle cx="90" cy="310" r="11.9885" fill="#000000"/>
  <rect x="100" y="300" width="20" height="20" fill="#000000"/>
  <circle cx="110" cy="310" r="10.9332" fill="#FFFFFF"/>
  <rect x="120" y="300" width="20" height="20" fill="#FFFFFF"/>
  <circle cx="130" cy="310" r="8.9353" fill="#000000"/>
  <rect x="140" y="300" width="20" height="20" fill="#000000"/>
  <circle cx="150" cy="310" r="7.0427" fill="#FFFFFF"/>
  <rect x="160" y="300" width="20" height="20" fill="#FFFFFF"/>
  <circle cx="170" cy="310" r="5.8002" fill="#000000"/>
  <rect x="180" y="300" width="20" height="20" fill="#000000"/>
  <circle cx="190" cy="310" r="5.2429" fill="#FFFFFF"/>
  <rect x="200" y="300" width="20" height="20" fill="#FFFFFF"/>
  <circle cx="210" cy="310" r="5.2429" fill="#000000"/>
  <rect x="220" y="300" width="20" height="20" fill="#000000"/>
  <circle cx="230" cy="310" r="5.8002" fill="#FFFFFF"/>
  <rect x="240" y="300" width="20" height="20" fill="#FFFFFF"/>
  <circle cx="250" cy="310" r="7.0427" fill="#000000"/>
  <rect x="260" y="300" width="20" height="20" fill="#000000"/>
  <circle cx="270" cy="310" r="8.9353" fill="#FFFFFF"/>
  <rect x="280" y="300" width="20" height="20" fill="#FFFFFF"/>
  <circle cx="290" cy="310" r="10.9332" fill="#000000"/>
  <rect x="300" y="300" width="20" height="20" fill="#000000"/>
  <circle cx="310" cy="310" r="11.9885" fill="#FFFFFF"/>
  <rect x="320" y="300" width="20" height="20" fill="#FFFFFF"/>
  <circle cx="330" cy="310" r="11.1582" fill="#000000"/>
  <rect x="340" y="300" width="20" height="20" fill="#000000"/>
  <circle cx="350" cy="310" r="8.4957" fill="#FFFFFF"/>
  <rect x="360" y="300" width="20" height="20" fill="#FFFFFF"/>
  <circle cx="370" cy="310" r="5.4248" fill="#000000"/>
  <rect x="380" y="300" width="20" height="20" fill="#000000"/>
  <circle cx="390" cy="310" r="4.0007" fill="#FFFFFF"/>
  <rect x="0" y="320" width="20" height="20" fill="#000000"/>
  <circle cx="10" cy="330" r="4.5194" fill="#FFFFFF"/>
  <rect x="20" y="320" width="20" height="20" fill="#FFFFFF"/>
  <circle cx="30" cy="330" r="4.1729" fill="#000000"/>
  <rect x="40" y="320" width="20" height="20" fill="#000000"/>
  <circle cx="50" cy="330" r="6.0825" fill="#FFFFFF"/>
  <rect x="60" y="320" width="20" height="20" fill="#FFFFFF"/>
  <circle cx="70" cy="330" r="8.9212" fill="#000000"/>
  <rect x="80" y="320" width="20" height="20" fill="#000000"/>
  <circle cx="90" cy="330" r="11.1582" fill="#FFFFFF"/>
  <rect x="100" y="320" width="20" height="20" fill="#FFFFFF"/>
  <circle cx="110" cy="330" r="11.9947" fill="#000000"/>
  <rect x="120" y="320" width="20" height="20" fill="#000000"/>
  <circle cx="130" cy="330" r="11.5634" fill="#FFFFFF"/>
  <rect x="140" y="320" width="20" height="20" fill="#FFFFFF"/>
  <circle cx="150" cy="330" r="10.5183" fill="#000000"/>
  <rect x="160" y="320" width="20" height="20" fill="#000000"/>
  <circle cx="170" cy="330" r="9.512" fill="#FFFFFF"/>
  <rect x="180" y="320" width="20" height="20" fill="#FFFFFF"/>
  <circle cx="190" cy="330" r="8.9353" fill="#000000"/>
  <rect x="200" y="320" width="20" height="20" fill="#000000"/>
  <circle cx="210" cy="330" r="8.9353" fill="#FFFFFF"/>
  <rect x="220" y="320" width="20" height="20" fill="#FFFFFF"/>
  <circle cx="230" cy="330" r="9.512" fill="#000000"/>
  <rect x="240" y="320" width="20" height="20" fill="#000000"/>
  <circle cx="250" cy="330" r="10.5183" fill="#FFFFFF"/>
  <rect x="260" y="320" width="20" height="20" fill="#FFFFFF"/>
  <circle cx="270" cy="330" r="11.5634" fill="#000000"/>
  <rect x="280" y="320" width="20" height="20" fill="#000000"/>
  <circle cx="290" cy="330" r="11.9947" fill="#FFFFFF"/>
  <rect x="300" y="320" width="20" height="20" fill="#FFFFFF"/>
  <circle cx="310" cy="330" r="11.1582" fill="#000000"/>
  <rect x="320" y="320" width="20" height="20" fill="#000000"/>
  <circle cx="330" cy="330" r="8.9212" fill="#FFFFFF"/>
  <rect x="340" y="320" width="20" height="20" fill="#FFFFFF"/>
  <circle cx="350" cy="330" r="6.0825" fill="#000000"/>
  <rect x="360" y="320" width="20" height="20" fill="#000000"/>
  <circle cx="370" cy="330" r="4.1729" fill="#FFFFFF"/>
  <rect x="380" y="320" width="20" height="20" fill="#FFFFFF"/>
  <circle cx="390" cy="330" r="4.5194" fill="#000000"/>
  <rect x="0" y="340" width="20" height="20" fill="#FFFFFF"/>
  <circle cx="10" cy="350" r="6.2147" fill="#000000"/>
  <rect x="20" y="340" width="20" height="20" fill="#000000"/>
  <circle cx="30" cy="350" r="4.2293" fill="#FFFFFF"/>
  <rect x="40" y="340" width="20" height="20" fill="#FFFFFF"/>
  <circle cx="50" cy="350" r="4.2988" fill="#000000"/>
  <rect x="60" y="340" width="20" height="20" fill="#000000"/>
  <circle cx="70" cy="350" r="6.0825" fill="#FFFFFF"/>
  <rect x="80" y="340" width="20" height="20" fill="#FFFFFF"/>
  <circle cx="90" cy="350" r="8.4957" fill="#000000"/>
  <rect x="100" y="340" width="20" height="20" fill="#000000"/>
  <circle cx="110" cy="350" r="10.51" fill="#FFFFFF"/>
  <rect x="120" y="340" width="20" height="20" fill="#FFFFFF"/>
  <circle cx="130" cy="350" r="11.6483" fill="#000000"/>
  <rect x="140" y="340" width="20" height="20" fill="#000000"/>
  <circle cx="150" cy="350" r="11.9947" fill="#FFFFFF"/>
  <rect x="160" y="340" width="20" height="20" fill="#FFFFFF"/>
  <circle cx="170" cy="350" r="11.9159" fill="#000000"/>
  <rect x="180" y="340" width="20" height="20" fill="#000000"/>
  <circle cx="190" cy="350" r="11.7746" fill="#FFFFFF"/>
  <rect x="200" y="340" width="20" height="20" fill="#FFFFFF"/>
  <circle cx="210" cy="350" r="11.7746" fill="#000000"/>
  <rect x="220" y="340" width="20" height="20" fill="#000000"/>
  <circle cx="230" cy="350" r="11.9159" fill="#FFFFFF"/>
  <rect x="240" y="340" width="20" height="20" fill="#FFFFFF"/>
  <circle cx="250" cy="350" r="11.9947" fill="#000000"/>
  <rect x="260" y="340" width="20" height="20" fill="#000000"/>
  <circle cx="270" cy="350" r="11.6483" fill="#FFFFFF"/>
  <rect x="280" y="340" width="20" height="20" fill="#FFFFFF"/>
  <circle cx="290" cy="350" r="10.51" fill="#000000"/>
  <rect x="300" y="340" width="20" height="20" fill="#000000"/>
  <circle cx="310" cy="350" r="8.4957" fill="#FFFFFF"/>
  <rect x="320" y="340" width="20" height="20" fill="#FFFFFF"/>
  <circle cx="330" cy="350" r="6.0825" fill="#000000"/>
  <rect x="340" y="340" width="20" height="20" fill="#000000"/>
  <circle cx="350" cy="350" r="4.2988" fill="#FFFFFF"/>
  <rect x="360" y="340" width="20" height="20" fill="#FFFFFF"/>
  <circle cx="370" cy="350" r="4.2293" fill="#000000"/>
  <rect x="380" y="340" width="20" height="20" fill="#000000"/>
  <circle cx="390" cy="350" r="6.2147" fill="#FFFFFF"/>
  <rect x="0" y="360" width="20" height="20" fill="#000000"/>
  <circle cx="10" cy="370" r="8.7208" fill="#FFFFFF"/>
  <rect x="20" y="360" width="20" height="20" fill="#FFFFFF"/>
  <circle cx="30" cy="370" r="5.9244" fill="#000000"/>
  <rect x="40" y="360" width="20" height="20" fill="#000000"/>
  <circle cx="50" cy="370" r="4.2293" fill="#FFFFFF"/>
  <rect x="60" y="360" width="20" height="20" fill="#FFFFFF"/>
  <circle cx="70" cy="370" r="4.1729" fill="#000000"/>
  <rect x="80" y="360" width="20" height="20" fill="#000000"/>
  <circle cx="90" cy="370" r="5.4248" fill="#FFFFFF"/>
  <rect x="100" y="360" width="20" height="20" fill="#FFFFFF"/>
  <circle cx="110" cy="370" r="7.2331" fill="#000000"/>
  <rect x="120" y="360" width="20" height="20" fill="#000000"/>
  <circle cx="130" cy="370" r="8.9212" fill="#FFFFFF"/>
  <rect x="140" y="360" width="20" height="20" fill="#FFFFFF"/>
  <circle cx="150" cy="370" r="10.1408" fill="#000000"/>
  <rect x="160" y="360" width="20" height="20" fill="#000000"/>
  <circle cx="170" cy="370" r="10.8511" fill="#FFFFFF"/>
  <rect x="180" y="360" width="20" height="20" fill="#FFFFFF"/>
  <circle cx="190" cy="370" r="11.1582" fill="#000000"/>
  <rect x="200" y="360" width="20" height="20" fill="#000000"/>
  <circle cx="210" cy="370" r="11.1582" fill="#FFFFFF"/>
  <rect x="220" y="360" width="20" height="20" fill="#FFFFFF"/>
  <circle cx="230" cy="370" r="10.8511" fill="#000000"/>
  <rect x="240" y="360" width="20" height="20" fill="#000000"/>
  <circle cx="250" cy="370" r="10.1408" fill="#FFFFFF"/>
  <rect x="260" y="360" width="20" height="20" fill="#FFFFFF"/>
  <circle cx="270" cy="370" r="8.9212" fill="#000000"/>
  <rect x="280" y="360" width="20" height="20" fill="#000000"/>
  <circle cx="290" cy="370" r="7.2331" fill="#FFFFFF"/>
  <rect x="300" y="360" width="20" height="20" fill="#FFFFFF"/>
  <circle cx="310" cy="370" r="5.4248" fill="#000000"/>
  <rect x="320" y="360" width="20" height="20" fill="#000000"/>
  <circle cx="330" cy="370" r="4.1729" fill="#FFFFFF"/>
  <rect x="340" y="360" width="20" height="20" fill="#FFFFFF"/>
  <circle cx="350" cy="370" r="4.2293" fill="#000000"/>
  <rect x="360" y="360" width="20" height="20" fill="#000000"/>
  <circle cx="370" cy="370" r="5.9244" fill="#FFFFFF"/>
  <rect x="380" y="360" width="20" height="20" fill="#FFFFFF"/>
  <circle cx="390" cy="370" r="8.7208" fill="#000000"/>
  <rect x="0" y="380" width="20" height="20" fill="#FFFFFF"/>
  <circle cx="10" cy="390" r="11.0539" fill="#000000"/>
  <rect x="20" y="380" width="20" height="20" fill="#000000"/>
  <circle cx="30" cy="390" r="8.7208" fill="#FFFFFF"/>
  <rect x="40" y="380" width="20" height="20" fill="#FFFFFF"/>
  <circle cx="50" cy="390" r="6.2147" fill="#000000"/>
  <rect x="60" y="380" width="20" height="20" fill="#000000"/>
  <circle cx="70" cy="390" r="4.5194" fill="#FFFFFF"/>
  <rect x="80" y="380" width="20" height="20" fill="#FFFFFF"/>
  <circle cx="90" cy="390" r="4.0007" fill="#000000"/>
  <rect x="100" y="380" width="20" height="20" fill="#000000"/>
  <circle cx="110" cy="390" r="4.4588" fill="#FFFFFF"/>
  <rect x="120" y="380" width="20" height="20" fill="#FFFFFF"/>
  <circle cx="130" cy="390" r="5.4248" fill="#000000"/>
  <rect x="140" y="380" width="20" height="20" fill="#000000"/>
  <circle cx="150" cy="390" r="6.4473" fill="#FFFFFF"/>
  <rect x="160" y="380" width="20" height="20" fill="#FFFFFF"/>
  <circle cx="170" cy="390" r="7.2331" fill="#000000"/>
  <rect x="180" y="380" width="20" height="20" fill="#000000"/>
  <circle cx="190" cy="390" r="7.647" fill="#FFFFFF"/>
  <rect x="200" y="380" width="20" height="20" fill="#FFFFFF"/>
  <circle cx="210" cy="390" r="7.647" fill="#000000"/>
  <rect x="220" y="380" width="20" height="20" fill="#000000"/>
  <circle cx="230" cy="390" r="7.2331" fill="#FFFFFF"/>
  <rect x="240" y="380" width="20" height="20" fill="#FFFFFF"/>
  <circle cx="250" cy="390" r="6.4473" fill="#000000"/>
  <rect x="260" y="380" width="20" height="20" fill="#000000"/>
  <circle cx="270" cy="390" r="5.4248" fill="#FFFFFF"/>
  <rect x="280" y="380" width="20" height="20" fill="#FFFFFF"/>
  <circle cx="290" cy="390" r="4.4588" fill="#000000"/>
  <rect x="300" y="380" width="20" height="20" fill="#000000"/>
  <circle cx="310" cy="390" r="4.0007" fill="#FFFFFF"/>
  <rect x="320" y="380" width="20" height="20" fill="#FFFFFF"/>
  <circle cx="330" cy="390" r="4.5194" fill="#000000"/>
  <rect x="340" y="380" width="20" height="20" fill="#000000"/>
  <circle cx="350" cy="390" r="6.2147" fill="#FFFFFF"/>
  <rect x="360" y="380" width="20" height="20" fill="#FFFFFF"/>
  <circle cx="370" cy="390" r="8.7208" fill="#000000"/>
  <rect x="380" y="380" width="20" height="20" fill="#000000"/>
  <circle cx="390" cy="390" r="11.0539" fill="#FFFFFF"/>
</svg>