<?xml version="1.0" encoding="UTF-8"?>
<svg xmlns="http://www.w3.org/2000/svg" width="400" height="400" viewBox="0 0 400 400">
  <rect x="0" y="0" width="400" height="400" fill="#191919"/>
  <ellipse cx="260" cy="200" rx="50" ry="25" fill="rgba(229,45,45,0.7)"/>
  <ellipse cx="251.9615374950102" cy="229.99997701923533" rx="50" ry="25" fill="rgba(229,137,45,0.7)"/>
  <ellipse cx="230.00004596151172" cy="251.96149769114805" rx="50" ry="25" fill="rgba(229,229,45,0.7)"/>
  <ellipse cx="200.0000796076938" cy="259.9999999999472" rx="50" ry="25" fill="rgba(137,229,45,0.7)"/>
  <ellipse cx="170.00009192309383" cy="251.96157729878087" rx="50" ry="25" fill="rgba(45,229,45,0.7)"/>
  <ellipse cx="148.03854211280554" cy="230.00011490373527" rx="50" ry="25" fill="rgba(45,229,137,0.7)"/>
  <ellipse cx="140.00000000021123" cy="200.0001592153876" rx="50" ry="25" fill="rgba(45,229,229,0.7)"/>
  <ellipse cx="148.03838289753992" cy="170.0001608654758" rx="50" ry="25" fill="rgba(45,137,229,0.7)"/>
  <ellipse cx="169.99981615409396" cy="148.03858191685066" rx="50" ry="25" fill="rgba(45,45,229,0.7)"/>
  <ellipse cx="199.99976117691858" cy="140.0000000004753" rx="50" ry="25" fill="rgba(137,45,229,0.7)"/>
  <ellipse cx="229.9997701920894" cy="148.0383430939522" rx="50" ry="25" fill="rgba(229,45,229,0.7)"/>
  <ellipse cx="251.9613782790128" cy="169.99974721197606" rx="50" ry="25" fill="rgba(229,45,137,0.7)"/>
  <circle cx="200" cy="200" r="30" fill="#FFD600"/>
  <circle cx="200" cy="200" r="20" fill="#FFA400"/>
</svg>