<?xml version="1.0" encoding="UTF-8"?>
<svg xmlns="http://www.w3.org/2000/svg" width="400" height="400" viewBox="0 0 400 400">
  <rect x="0" y="0" width="400" height="400" fill="#191919"/>
  <ellipse cx="260" cy="200" rx="50" ry="25" fill="rgba(229,45,45,0.7)"/>
  <ellipse cx="251.961537" cy="229.999977" rx="50" ry="25" fill="rgba(229,137,45,0.7)"/>
  <ellipse cx="230.000046" cy="251.961498" rx="50" ry="25" fill="rgba(229,229,45,0.7)"/>
  <ellipse cx="200.00008" cy="260" rx="50" ry="25" fill="rgba(137,229,45,0.7)"/>
  <ellipse cx="170.000092" cy="251.961577" rx="50" ry="25" fill="rgba(45,229,45,0.7)"/>
  <ellipse cx="148.038542" cy="230.000115" rx="50" ry="25" fill="rgba(45,229,137,0.7)"/>
  <ellipse cx="140" cy="200.000159" rx="50" ry="25" fill="rgba(45,229,229,0.7)"/>
  <ellipse cx="148.038383" cy="170.000161" rx="50" ry="25" fill="rgba(45,137,229,0.7)"/>
  <ellipse cx="169.999816" cy="148.038582" rx="50" ry="25" fill="rgba(45,45,229,0.7)"/>
  <ellipse cx="199.999761" cy="140" rx="50" ry="25" fill="rgba(137,45,229,0.7)"/>
  <ellipse cx="229.99977" cy="148.038343" rx="50" ry="25" fill="rgba(229,45,229,0.7)"/>
  <ellipse cx="251.961378" cy="169.999747" rx="50" ry="25" fill="rgba(229,45,137,0.7)"/>
  <circle cx="200" cy="200" r="30" fill="#FFD600"/>
  <circle cx="200" cy="200" r="20" fill="#FFA400"/>
</svg>