<?xml version="1.0" encoding="UTF-8"?>
<svg xmlns="http://www.w3.org/2000/svg" width="400" height="400" viewBox="0 0 400 400">
  <rect x="0" y="0" width="400" height="400" fill="#191919"/>
  <ellipse cx="260" cy="200" rx="50" ry="25" fill="rgba(229,45,45,0.7)"/>
  <ellipse cx="251.9615" cy="230" rx="50" ry="25" fill="rgba(229,137,45,0.7)"/>
  <ellipse cx="230" cy="251.9615" rx="50" ry="25" fill="rgba(229,229,45,0.7)"/>
  <ellipse cx="200.0001" cy="260" rx="50" ry="25" fill="rgba(137,229,45,0.7)"/>
  <ellipse cx="170.0001" cy="251.9616" rx="50" ry="25" fill="rgba(45,229,45,0.7)"/>
  <ellipse cx="148.0385" cy="230.0001" rx="50" ry="25" fill="rgba(45,229,137,0.7)"/>
  <ellipse cx="140" cy="200.0002" rx="50" ry="25" fill="rgba(45,229,229,0.7)"/>
  <ellipse cx="148.0384" cy="170.0002" rx="50" ry="25" fill="rgba(45,137,229,0.7)"/>
  <ellipse cx="169.9998" cy="148.0386" rx="50" ry="25" fill="rgba(45,45,229,0.7)"/>
  <ellipse cx="199.9998" cy="140" rx="50" ry="25" fill="rgba(137,45,229,0.7)"/>
  <ellipse cx="229.9998" cy="148.0383" rx="50" ry="25" fill="rgba(229,45,229,0.7)"/>
  <ellipse cx="251.9614" cy="169.9997" rx="50" ry="25" fill="rgba(229,45,137,0.7)"/>
  <circle cx="200" cy="200" r="30" fill="#FFD600"/>
  <circle cx="200" cy="200" r="20" fill="#FFA400"/>
</svg>