<?xml version="1.0" encoding="UTF-8"?>
<svg xmlns="http://www.w3.org/2000/svg" width="400" height="400" viewBox="0 0 400 400">
  <rect x="0" y="0" width="400" height="400" fill="#F2F2F2"/>
  <polygon points="200,20 194.375,31.25 205.625,31.25" fill="#CC3D3D"/>
  <polygon points="194.375,31.25 188.75,42.5 200,42.5" fill="#CC3D3D"/>
  <polygon points="205.625,31.25 200,42.5 211.25,42.5" fill="#CC3D3D"/>
  <polygon points="188.75,42.5 183.125,53.75 194.375,53.75" fill="#CC3D3D"/>
  <polygon points="183.125,53.75 177.5,65 188.75,65" fill="#CC3D3D"/>
  <polygon points="194.375,53.75 188.75,65 200,65" fill="#CC3D3D"/>
  <polygon points="211.25,42.5 205.625,53.75 216.875,53.75" fill="#CC3D3D"/>
  <polygon points="205.625,53.75 200,65 211.25,65" fill="#CC3D3D"/>
  <polygon points="216.875,53.75 211.25,65 222.5,65" fill="#CC3D3D"/>
  <polygon points="177.5,65 171.875,76.25 183.125,76.25" fill="#CC3D3D"/>
  <polygon points="171.875,76.25 166.25,87.5 177.5,87.5" fill="#CC3D3D"/>
  <polygon points="183.125,76.25 177.5,87.5 188.75,87.5" fill="#CC3D3D"/>
  <polygon points="166.25,87.5 160.625,98.75 171.875,98.75" fill="#CC3D3D"/>
  <polygon points="160.625,98.75 155,110 166.25,110" fill="#CC3D3D"/>
  <polygon points="171.875,98.75 166.25,110 177.5,110" fill="#CC3D3D"/>
  <polygon points="188.75,87.5 183.125,98.75 194.375,98.75" fill="#CC3D3D"/>
  <polygon points="183.125,98.75 177.5,110 188.75,110" fill="#CC3D3D"/>
  <polygon points="194.375,98.75 188.75,110 200,110" fill="#CC3D3D"/>
  <polygon points="222.5,65 216.875,76.25 228.125,76.25" fill="#CC3D3D"/>
  <polygon points="216.875,76.25 211.25,87.5 222.5,87.5" fill="#CC3D3D"/>
  <polygon points="228.125,76.25 222.5,87.5 233.75,87.5" fill="#CC3D3D"/>
  <polygon points="211.25,87.5 205.625,98.75 216.875,98.75" fill="#CC3D3D"/>
  <polygon points="205.625,98.75 200,110 211.25,110" fill="#CC3D3D"/>
  <polygon points="216.875,98.75 211.25,110 222.5,110" fill="#CC3D3D"/>
  <polygon points="233.75,87.5 228.125,98.75 239.375,98.75" fill="#CC3D3D"/>
  <polygon points="228.125,98.75 222.5,110 233.75,110" fill="#CC3D3D"/>
  <polygon points="239.375,98.75 233.75,110 245,110" fill="#CC3D3D"/>
  <polygon points="155,110 149.375,121.25 160.625,121.25" fill="#CC3D3D"/>
  <polygon points="149.375,121.25 143.75,132.5 155,132.5" fill="#CC3D3D"/>
  <polygon points="160.625,121.25 155,132.5 166.25,132.5" fill="#CC3D3D"/>
  <polygon points="143.75,132.5 138.125,143.75 149.375,143.75" fill="#CC3D3D"/>
  <polygon points="138.125,143.75 132.5,155 143.75,155" fill="#CC3D3D"/>
  <polygon points="149.375,143.75 143.75,155 155,155" fill="#CC3D3D"/>
  <polygon points="166.25,132.5 160.625,143.75 171.875,143.75" fill="#CC3D3D"/>
  <polygon points="160.625,143.75 155,155 166.25,155" fill="#CC3D3D"/>
  <polygon points="171.875,143.75 166.25,155 177.5,155" fill="#CC3D3D"/>
  <polygon points="132.5,155 126.875,166.25 138.125,166.25" fill="#CC3D3D"/>
  <polygon points="126.875,166.25 121.25,177.5 132.5,177.5" fill="#CC3D3D"/>
  <polygon points="138.125,166.25 132.5,177.5 143.75,177.5" fill="#CC3D3D"/>
  <polygon points="121.25,177.5 115.625,188.75 126.875,188.75" fill="#CC3D3D"/>
  <polygon points="115.625,188.75 110,200 121.25,200" fill="#CC3D3D"/>
  <polygon points="126.875,188.75 121.25,200 132.5,200" fill="#CC3D3D"/>
  <polygon points="143.75,177.5 138.125,188.75 149.375,188.75" fill="#CC3D3D"/>
  <polygon points="138.125,188.75 132.5,200 143.75,200" fill="#CC3D3D"/>
  <polygon points="149.375,188.75 143.75,200 155,200" fill="#CC3D3D"/>
  <polygon points="177.5,155 171.875,166.25 183.125,166.25" fill="#CC3D3D"/>
  <polygon points="171.875,166.25 166.25,177.5 177.5,177.5" fill="#CC3D3D"/>
  <polygon points="183.125,166.25 177.5,177.5 188.75,177.5" fill="#CC3D3D"/>
  <polygon points="166.25,177.5 160.625,188.75 171.875,188.75" fill="#CC3D3D"/>
  <polygon points="160.625,188.75 155,200 166.25,200" fill="#CC3D3D"/>
  <polygon points="171.875,188.75 166.25,200 177.5,200" fill="#CC3D3D"/>
  <polygon points="188.75,177.5 183.125,188.75 194.375,188.75" fill="#CC3D3D"/>
  <polygon points="183.125,188.75 177.5,200 188.75,200" fill="#CC3D3D"/>
  <polygon points="194.375,188.75 188.75,200 200,200" fill="#CC3D3D"/>
  <polygon points="245,110 239.375,121.25 250.625,121.25" fill="#CC3D3D"/>
  <polygon points="239.375,121.25 233.75,132.5 245,132.5" fill="#CC3D3D"/>
  <polygon points="250.625,121.25 245,132.5 256.25,132.5" fill="#CC3D3D"/>
  <polygon points="233.75,132.5 228.125,143.75 239.375,143.75" fill="#CC3D3D"/>
  <polygon points="228.125,143.75 222.5,155 233.75,155" fill="#CC3D3D"/>
  <polygon points="239.375,143.75 233.75,155 245,155" fill="#CC3D3D"/>
  <polygon points="256.25,132.5 250.625,143.75 261.875,143.75" fill="#CC3D3D"/>
  <polygon points="250.625,143.75 245,155 256.25,155" fill="#CC3D3D"/>
  <polygon points="261.875,143.75 256.25,155 267.5,155" fill="#CC3D3D"/>
  <polygon points="222.5,155 216.875,166.25 228.125,166.25" fill="#CC3D3D"/>
  <polygon points="216.875,166.25 211.25,177.5 222.5,177.5" fill="#CC3D3D"/>
  <polygon points="228.125,166.25 222.5,177.5 233.75,177.5" fill="#CC3D3D"/>
  <polygon points="211.25,177.5 205.625,188.75 216.875,188.75" fill="#CC3D3D"/>
  <polygon points="205.625,188.75 200,200 211.25,200" fill="#CC3D3D"/>
  <polygon points="216.875,188.75 211.25,200 222.5,200" fill="#CC3D3D"/>
  <polygon points="233.75,177.5 228.125,188.75 239.375,188.75" fill="#CC3D3D"/>
  <polygon points="228.125,188.75 222.5,200 233.75,200" fill="#CC3D3D"/>
  <polygon points="239.375,188.75 233.75,200 245,200" fill="#CC3D3D"/>
  <polygon points="267.5,155 261.875,166.25 273.125,166.25" fill="#CC3D3D"/>
  <polygon points="261.875,166.25 256.25,177.5 267.5,177.5" fill="#CC3D3D"/>
  <polygon points="273.125,166.25 267.5,177.5 278.75,177.5" fill="#CC3D3D"/>
  <polygon points="256.25,177.5 250.625,188.75 261.875,188.75" fill="#CC3D3D"/>
  <polygon points="250.625,188.75 245,200 256.25,200" fill="#CC3D3D"/>
  <polygon points="261.875,188.75 256.25,200 267.5,200" fill="#CC3D3D"/>
  <polygon points="278.75,177.5 273.125,188.75 284.375,188.75" fill="#CC3D3D"/>
  <polygon points="273.125,188.75 267.5,200 278.75,200" fill="#CC3D3D"/>
  <polygon points="284.375,188.75 278.75,200 290,200" fill="#CC3D3D"/>
  <polygon points="110,200 104.375,211.25 115.625,211.25" fill="#CC3D3D"/>
  <polygon points="104.375,211.25 98.75,222.5 110,222.5" fill="#CC3D3D"/>
  <polygon points="115.625,211.25 110,222.5 121.25,222.5" fill="#CC3D3D"/>
  <polygon points="98.75,222.5 93.125,233.75 104.375,233.75" fill="#CC3D3D"/>
  <polygon points="93.125,233.75 87.5,245 98.75,245" fill="#CC3D3D"/>
  <polygon points="104.375,233.75 98.75,245 110,245" fill="#CC3D3D"/>
  <polygon points="121.25,222.5 115.625,233.75 126.875,233.75" fill="#CC3D3D"/>
  <polygon points="115.625,233.75 110,245 121.25,245" fill="#CC3D3D"/>
  <polygon points="126.875,233.75 121.25,245 132.5,245" fill="#CC3D3D"/>
  <polygon points="87.5,245 81.875,256.25 93.125,256.25" fill="#CC3D3D"/>
  <polygon points="81.875,256.25 76.25,267.5 87.5,267.5" fill="#CC3D3D"/>
  <polygon points="93.125,256.25 87.5,267.5 98.75,267.5" fill="#CC3D3D"/>
  <polygon points="76.25,267.5 70.625,278.75 81.875,278.75" fill="#CC3D3D"/>
  <polygon points="70.625,278.75 65,290 76.25,290" fill="#CC3D3D"/>
  <polygon points="81.875,278.75 76.25,290 87.5,290" fill="#CC3D3D"/>
  <polygon points="98.75,267.5 93.125,278.75 104.375,278.75" fill="#CC3D3D"/>
  <polygon points="93.125,278.75 87.5,290 98.75,290" fill="#CC3D3D"/>
  <polygon points="104.375,278.75 98.75,290 110,290" fill="#CC3D3D"/>
  <polygon points="132.5,245 126.875,256.25 138.125,256.25" fill="#CC3D3D"/>
  <polygon points="126.875,256.25 121.25,267.5 132.5,267.5" fill="#CC3D3D"/>
  <polygon points="138.125,256.25 132.5,267.5 143.75,267.5" fill="#CC3D3D"/>
  <polygon points="121.25,267.5 115.625,278.75 126.875,278.75" fill="#CC3D3D"/>
  <polygon points="115.625,278.75 110,290 121.25,290" fill="#CC3D3D"/>
  <polygon points="126.875,278.75 121.25,290 132.5,290" fill="#CC3D3D"/>
  <polygon points="143.75,267.5 138.125,278.75 149.375,278.75" fill="#CC3D3D"/>
  <polygon points="138.125,278.75 132.5,290 143.75,290" fill="#CC3D3D"/>
  <polygon points="149.375,278.75 143.75,290 155,290" fill="#CC3D3D"/>
  <polygon points="65,290 59.375,301.25 70.625,301.25" fill="#CC3D3D"/>
  <polygon points="59.375,301.25 53.75,312.5 65,312.5" fill="#CC3D3D"/>
  <polygon points="70.625,301.25 65,312.5 76.25,312.5" fill="#CC3D3D"/>
  <polygon points="53.75,312.5 48.125,323.75 59.375,323.75" fill="#CC3D3D"/>
  <polygon points="48.125,323.75 42.5,335 53.75,335" fill="#CC3D3D"/>
  <polygon points="59.375,323.75 53.75,335 65,335" fill="#CC3D3D"/>
  <polygon points="76.25,312.5 70.625,323.75 81.875,323.75" fill="#CC3D3D"/>
  <polygon points="70.625,323.75 65,335 76.25,335" fill="#CC3D3D"/>
  <polygon points="81.875,323.75 76.25,335 87.5,335" fill="#CC3D3D"/>
  <polygon points="42.5,335 36.875,346.25 48.125,346.25" fill="#CC3D3D"/>
  <polygon points="36.875,346.25 31.25,357.5 42.5,357.5" fill="#CC3D3D"/>
  <polygon points="48.125,346.25 42.5,357.5 53.75,357.5" fill="#CC3D3D"/>
  <polygon points="31.25,357.5 25.625,368.75 36.875,368.75" fill="#CC3D3D"/>
  <polygon points="25.625,368.75 20,380 31.25,380" fill="#CC3D3D"/>
  <polygon points="36.875,368.75 31.25,380 42.5,380" fill="#CC3D3D"/>
  <polygon points="53.75,357.5 48.125,368.75 59.375,368.75" fill="#CC3D3D"/>
  <polygon points="48.125,368.75 42.5,380 53.75,380" fill="#CC3D3D"/>
  <polygon points="59.375,368.75 53.75,380 65,380" fill="#CC3D3D"/>
  <polygon points="87.5,335 81.875,346.25 93.125,346.25" fill="#CC3D3D"/>
  <polygon points="81.875,346.25 76.25,357.5 87.5,357.5" fill="#CC3D3D"/>
  <polygon points="93.125,346.25 87.5,357.5 98.75,357.5" fill="#CC3D3D"/>
  <polygon points="76.25,357.5 70.625,368.75 81.875,368.75" fill="#CC3D3D"/>
  <polygon points="70.625,368.75 65,380 76.25,380" fill="#CC3D3D"/>
  <polygon points="81.875,368.75 76.25,380 87.5,380" fill="#CC3D3D"/>
  <polygon points="98.75,357.5 93.125,368.75 104.375,368.75" fill="#CC3D3D"/>
  <polygon points="93.125,368.75 87.5,380 98.75,380" fill="#CC3D3D"/>
  <polygon points="104.375,368.75 98.75,380 110,380" fill="#CC3D3D"/>
  <polygon points="155,290 149.375,301.25 160.625,301.25" fill="#CC3D3D"/>
  <polygon points="149.375,301.25 143.75,312.5 155,312.5" fill="#CC3D3D"/>
  <polygon points="160.625,301.25 155,312.5 166.25,312.5" fill="#CC3D3D"/>
  <polygon points="143.75,312.5 138.125,323.75 149.375,323.75" fill="#CC3D3D"/>
  <polygon points="138.125,323.75 132.5,335 143.75,335" fill="#CC3D3D"/>
  <polygon points="149.375,323.75 143.75,335 155,335" fill="#CC3D3D"/>
  <polygon points="166.25,312.5 160.625,323.75 171.875,323.75" fill="#CC3D3D"/>
  <polygon points="160.625,323.75 155,335 166.25,335" fill="#CC3D3D"/>
  <polygon points="171.875,323.75 166.25,335 177.5,335" fill="#CC3D3D"/>
  <polygon points="132.5,335 126.875,346.25 138.125,346.25" fill="#CC3D3D"/>
  <polygon points="126.875,346.25 121.25,357.5 132.5,357.5" fill="#CC3D3D"/>
  <polygon points="138.125,346.25 132.5,357.5 143.75,357.5" fill="#CC3D3D"/>
  <polygon points="121.25,357.5 115.625,368.75 126.875,368.75" fill="#CC3D3D"/>
  <polygon points="115.625,368.75 110,380 121.25,380" fill="#CC3D3D"/>
  <polygon points="126.875,368.75 121.25,380 132.5,380" fill="#CC3D3D"/>
  <polygon points="143.75,357.5 138.125,368.75 149.375,368.75" fill="#CC3D3D"/>
  <polygon points="138.125,368.75 132.5,380 143.75,380" fill="#CC3D3D"/>
  <polygon points="149.375,368.75 143.75,380 155,380" fill="#CC3D3D"/>
  <polygon points="177.5,335 171.875,346.25 183.125,346.25" fill="#CC3D3D"/>
  <polygon points="171.875,346.25 166.25,357.5 177.5,357.5" fill="#CC3D3D"/>
  <polygon points="183.125,346.25 177.5,357.5 188.75,357.5" fill="#CC3D3D"/>
  <polygon points="166.25,357.5 160.625,368.75 171.875,368.75" fill="#CC3D3D"/>
  <polygon points="160.625,368.75 155,380 166.25,380" fill="#CC3D3D"/>
  <polygon points="171.875,368.75 166.25,380 177.5,380" fill="#CC3D3D"/>
  <polygon points="188.75,357.5 183.125,368.75 194.375,368.75" fill="#CC3D3D"/>
  <polygon points="183.125,368.75 177.5,380 188.75,380" fill="#CC3D3D"/>
  <polygon points="194.375,368.75 188.75,380 200,380" fill="#CC3D3D"/>
  <polygon points="290,200 284.375,211.25 295.625,211.25" fill="#CC3D3D"/>
  <polygon points="284.375,211.25 278.75,222.5 290,222.5" fill="#CC3D3D"/>
  <polygon points="295.625,211.25 290,222.5 301.25,222.5" fill="#CC3D3D"/>
  <polygon points="278.75,222.5 273.125,233.75 284.375,233.75" fill="#CC3D3D"/>
  <polygon points="273.125,233.75 267.5,245 278.75,245" fill="#CC3D3D"/>
  <polygon points="284.375,233.75 278.75,245 290,245" fill="#CC3D3D"/>
  <polygon points="301.25,222.5 295.625,233.75 306.875,233.75" fill="#CC3D3D"/>
  <polygon points="295.625,233.75 290,245 301.25,245" fill="#CC3D3D"/>
  <polygon points="306.875,233.75 301.25,245 312.5,245" fill="#CC3D3D"/>
  <polygon points="267.5,245 261.875,256.25 273.125,256.25" fill="#CC3D3D"/>
  <polygon points="261.875,256.25 256.25,267.5 267.5,267.5" fill="#CC3D3D"/>
  <polygon points="273.125,256.25 267.5,267.5 278.75,267.5" fill="#CC3D3D"/>
  <polygon points="256.25,267.5 250.625,278.75 261.875,278.75" fill="#CC3D3D"/>
  <polygon points="250.625,278.75 245,290 256.25,290" fill="#CC3D3D"/>
  <polygon points="261.875,278.75 256.25,290 267.5,290" fill="#CC3D3D"/>
  <polygon points="278.75,267.5 273.125,278.75 284.375,278.75" fill="#CC3D3D"/>
  <polygon points="273.125,278.75 267.5,290 278.75,290" fill="#CC3D3D"/>
  <polygon points="284.375,278.75 278.75,290 290,290" fill="#CC3D3D"/>
  <polygon points="312.5,245 306.875,256.25 318.125,256.25" fill="#CC3D3D"/>
  <polygon points="306.875,256.25 301.25,267.5 312.5,267.5" fill="#CC3D3D"/>
  <polygon points="318.125,256.25 312.5,267.5 323.75,267.5" fill="#CC3D3D"/>
  <polygon points="301.25,267.5 295.625,278.75 306.875,278.75" fill="#CC3D3D"/>
  <polygon points="295.625,278.75 290,290 301.25,290" fill="#CC3D3D"/>
  <polygon points="306.875,278.75 301.25,290 312.5,290" fill="#CC3D3D"/>
  <polygon points="323.75,267.5 318.125,278.75 329.375,278.75" fill="#CC3D3D"/>
  <polygon points="318.125,278.75 312.5,290 323.75,290" fill="#CC3D3D"/>
  <polygon points="329.375,278.75 323.75,290 335,290" fill="#CC3D3D"/>
  <polygon points="245,290 239.375,301.25 250.625,301.25" fill="#CC3D3D"/>
  <polygon points="239.375,301.25 233.75,312.5 245,312.5" fill="#CC3D3D"/>
  <polygon points="250.625,301.25 245,312.5 256.25,312.5" fill="#CC3D3D"/>
  <polygon points="233.75,312.5 228.125,323.75 239.375,323.75" fill="#CC3D3D"/>
  <polygon points="228.125,323.75 222.5,335 233.75,335" fill="#CC3D3D"/>
  <polygon points="239.375,323.75 233.75,335 245,335" fill="#CC3D3D"/>
  <polygon points="256.25,312.5 250.625,323.75 261.875,323.75" fill="#CC3D3D"/>
  <polygon points="250.625,323.75 245,335 256.25,335" fill="#CC3D3D"/>
  <polygon points="261.875,323.75 256.25,335 267.5,335" fill="#CC3D3D"/>
  <polygon points="222.5,335 216.875,346.25 228.125,346.25" fill="#CC3D3D"/>
  <polygon points="216.875,346.25 211.25,357.5 222.5,357.5" fill="#CC3D3D"/>
  <polygon points="228.125,346.25 222.5,357.5 233.75,357.5" fill="#CC3D3D"/>
  <polygon points="211.25,357.5 205.625,368.75 216.875,368.75" fill="#CC3D3D"/>
  <polygon points="205.625,368.75 200,380 211.25,380" fill="#CC3D3D"/>
  <polygon points="216.875,368.75 211.25,380 222.5,380" fill="#CC3D3D"/>
  <polygon points="233.75,357.5 228.125,368.75 239.375,368.75" fill="#CC3D3D"/>
  <polygon points="228.125,368.75 222.5,380 233.75,380" fill="#CC3D3D"/>
  <polygon points="239.375,368.75 233.75,380 245,380" fill="#CC3D3D"/>
  <polygon points="267.5,335 261.875,346.25 273.125,346.25" fill="#CC3D3D"/>
  <polygon points="261.875,346.25 256.25,357.5 267.5,357.5" fill="#CC3D3D"/>
  <polygon points="273.125,346.25 267.5,357.5 278.75,357.5" fill="#CC3D3D"/>
  <polygon points="256.25,357.5 250.625,368.75 261.875,368.75" fill="#CC3D3D"/>
  <polygon points="250.625,368.75 245,380 256.25,380" fill="#CC3D3D"/>
  <polygon points="261.875,368.75 256.25,380 267.5,380" fill="#CC3D3D"/>
  <polygon points="278.75,357.5 273.125,368.75 284.375,368.75" fill="#CC3D3D"/>
  <polygon points="273.125,368.75 267.5,380 278.75,380" fill="#CC3D3D"/>
  <polygon points="284.375,368.75 278.75,380 290,380" fill="#CC3D3D"/>
  <polygon points="335,290 329.375,301.25 340.625,301.25" fill="#CC3D3D"/>
  <polygon points="329.375,301.25 323.75,312.5 335,312.5" fill="#CC3D3D"/>
  <polygon points="340.625,301.25 335,312.5 346.25,312.5" fill="#CC3D3D"/>
  <polygon points="323.75,312.5 318.125,323.75 329.375,323.75" fill="#CC3D3D"/>
  <polygon points="318.125,323.75 312.5,335 323.75,335" fill="#CC3D3D"/>
  <polygon points="329.375,323.75 323.75,335 335,335" fill="#CC3D3D"/>
  <polygon points="346.25,312.5 340.625,323.75 351.875,323.75" fill="#CC3D3D"/>
  <polygon points="340.625,323.75 335,335 346.25,335" fill="#CC3D3D"/>
  <polygon points="351.875,323.75 346.25,335 357.5,335" fill="#CC3D3D"/>
  <polygon points="312.5,335 306.875,346.25 318.125,346.25" fill="#CC3D3D"/>
  <polygon points="306.875,346.25 301.25,357.5 312.5,357.5" fill="#CC3D3D"/>
  <polygon points="318.125,346.25 312.5,357.5 323.75,357.5" fill="#CC3D3D"/>
  <polygon points="301.25,357.5 295.625,368.75 306.875,368.75" fill="#CC3D3D"/>
  <polygon points="295.625,368.75 290,380 301.25,380" fill="#CC3D3D"/>
  <polygon points="306.875,368.75 301.25,380 312.5,380" fill="#CC3D3D"/>
  <polygon points="323.75,357.5 318.125,368.75 329.375,368.75" fill="#CC3D3D"/>
  <polygon points="318.125,368.75 312.5,380 323.75,380" fill="#CC3D3D"/>
  <polygon points="329.375,368.75 323.75,380 335,380" fill="#CC3D3D"/>
  <polygon points="357.5,335 351.875,346.25 363.125,346.25" fill="#CC3D3D"/>
  <polygon points="351.875,346.25 346.25,357.5 357.5,357.5" fill="#CC3D3D"/>
  <polygon points="363.125,346.25 357.5,357.5 368.75,357.5" fill="#CC3D3D"/>
  <polygon points="346.25,357.5 340.625,368.75 351.875,368.75" fill="#CC3D3D"/>
  <polygon points="340.625,368.75 335,380 346.25,380" fill="#CC3D3D"/>
  <polygon points="351.875,368.75 346.25,380 357.5,380" fill="#CC3D3D"/>
  <polygon points="368.75,357.5 363.125,368.75 374.375,368.75" fill="#CC3D3D"/>
  <polygon points="363.125,368.75 357.5,380 368.75,380" fill="#CC3D3D"/>
  <polygon points="374.375,368.75 368.75,380 380,380" fill="#CC3D3D"/>
</svg>