<?xml version="1.0" encoding="UTF-8"?>
<svg xmlns="http://www.w3.org/2000/svg" width="400" height="400" viewBox="0 0 400 400">
  <rect x="0" y="0" width="400" height="400" fill="#0C0C0C"/>
  <path d="M 340,200 L 339.526562,196.238769 L 338.109865,192.529495 L 335.760737,188.923599 L 332.497121,185.47144 L 328.343932,182.221793 L 323.332851,179.221344 L 317.502061,176.514208 L 310.895938,174.141467 L 303.564683,172.140736 L 295.56391,170.545767 L 286.95419,169.386086 L 277.800556,168.686667 L 268.171968,168.467656 L 258.140751,168.744135 L 247.782005,169.525939 L 237.172994,170.817516 L 226.392515,172.617846 L 215.520264,174.920408 L 204.636188,177.7132 L 193.819842,180.978811 L 183.149749,184.69455 L 172.702777,188.83262 L 162.553518,193.360345 L 152.773706,198.240442 L 143.43165,203.431345 L 134.591698,208.887562 L 126.313742,214.56008 L 118.65276,220.396802 L 111.6584,226.343012 L 105.374609,232.341879 L 99.839321,238.334974 L 95.084184,244.262806 L 91.134353,250.065381 L 88.008332,255.682759 L 85.717873,261.055622 L 84.267939,266.125837 L 83.656718,270.83701 L 83.875698,275.135039 L 84.909796,278.968635 L 86.737546,282.289832 L 89.331336,285.054471 L 92.6577,287.222645 L 96.677654,288.759115 L 101.347082,289.633687 L 106.617158,289.821548 L 112.43481,289.303546 L 118.743217,288.066437 L 125.482332,286.103068 L 132.58943,283.412515 L 139.999682,280.000159 L 147.646728,275.877719 L 155.463277,271.063212 L 163.381698,265.580876 L 171.334612,259.461019 L 179.255483,252.739828 L 187.079188,245.459118 L 194.742577,237.66603 L 202.185009,229.412684 L 209.348861,220.755782 L 216.180003,211.756169 L 222.628246,202.478358 L 228.647743,192.990018 L 234.197353,183.361431 L 239.240955,173.664921 L 243.74772,163.974268 L 247.692327,154.364098 L 251.055131,144.909268 L 253.822277,135.68424 L 255.985759,126.762461 L 257.543427,118.215742 L 258.498937,110.11365 L 258.861651,102.522916 L 258.646483,95.506861 L 257.873693,89.124855 L 256.568641,83.431795 L 254.761482,78.47763 L 252.486827,74.306917 L 249.783364,70.958423 L 246.693443,68.464778 L 243.262621,66.852166 L 239.539196,66.140087 L 235.573698,66.341155 L 231.418378,67.460964 L 227.126674,69.498009 L 222.752674,72.443669 L 218.350568,76.282242 L 213.974112,80.991044 L 209.67609,86.540567 L 205.507789,92.894692 L 201.518495,100.010957 L 197.755006,107.840879 L 194.261171,116.330327 L 191.077459,125.419942 L 188.240566,135.045599 L 185.78305,145.138914 L 183.73302,155.627778 L 182.113855,166.436936 L 180.94398,177.488578 L 180.236686,188.702961 L 180,199.999045 L 180.236606,211.295135 L 180.943821,222.509539 L 182.113619,233.561215 L 183.732709,244.370421 L 185.782669,254.859346 L 188.240118,264.952733 L 191.07695,274.578475 L 194.260605,283.668186 L 197.754392,292.157741 L 201.517839,299.98778 L 205.507098,307.104169 L 209.675373,313.458427 L 213.973378,319.008089 L 218.349825,323.717036 L 222.751931,327.555757 L 227.125941,330.501569 L 231.417663,332.53877 L 235.573011,333.658733 L 239.538545,333.859956 L 243.262016,333.14803 L 246.69289,331.53557 L 249.782874,329.042071 L 252.486405,325.693719 L 254.761136,321.523142 L 256.568378,316.569105 L 257.873517,310.876166 L 258.646399,304.494272 L 258.861663,297.47832 L 258.499048,289.887677 L 257.543639,281.785666 L 255.986074,273.239016 L 253.822694,264.317295 L 251.055649,255.092312 L 247.692944,245.637514 L 243.748434,236.027364 L 239.241763,226.336719 L 234.198249,216.640204 L 228.648722,207.011599 L 222.6293,197.523229 L 216.181126,188.245377 L 209.350044,179.245711 L 202.186245,170.588746 L 194.743855,162.335327 L 187.080498,154.542157 L 179.256814,147.261356 L 171.335955,140.540067 L 163.38304,134.420105 L 155.464608,128.937658 L 147.648036,124.123037 L 140.000955,120.000478 L 132.590658,116.588001 L 125.483503,113.897325 L 118.744321,111.933833 L 112.435836,110.696602 L 106.618096,110.17848 L 101.347923,110.366222 L 96.67839,111.240681 L 92.658322,112.777041 L 89.331837,114.945111 L 86.73792,117.709652 L 84.910038,121.03076 L 83.875804,124.864273 L 83.656685,129.162227 L 84.267765,133.873336 L 85.717557,138.943494 L 88.007874,144.316311 L 91.133755,149.933653 L 95.083448,155.736202 L 99.838451,161.664018 L 105.37361,167.657106 L 111.657277,173.655978 L 118.651521,179.602202 L 126.312394,185.438946 L 134.59025,191.111496 L 143.430112,196.567754 L 152.772089,201.758706 L 162.551832,206.63886 L 172.701035,211.166647 L 183.147964,215.304786 L 193.818025,219.020599 L 204.634353,222.286288 L 215.518424,225.079161 L 226.390684,227.381807 L 237.171185,229.182222 L 247.780232,230.473886 L 258.139027,231.255775 L 268.170305,231.53234 L 277.798968,231.313411 L 286.952688,230.614072 L 295.562505,229.454466 L 303.563386,227.859569 L 310.894759,225.858904 L 317.501009,223.486222 L 323.331934,220.779139 L 328.343157,217.778736 L 332.496494,214.529127 L 335.760262,211.076998 L 338.109547,207.471124 L 339.526402,203.761863 L 340,200.000637 L 339.526722,196.239402 L 338.110184,192.530114 L 335.761212,188.924197 L 332.497748,185.472008 L 328.344707,182.222322 L 323.333768,179.221827 L 317.503113,176.514638 L 310.897117,174.141837 L 303.56598,172.14104 L 295.565315,170.546001 L 286.955693,169.386244 L 277.802145,168.686745 L 268.173631,168.467651 L 258.142475,168.744046 L 247.783779,169.525764 L 237.174803,170.817255 L 226.394347,172.6175 L 215.522104,174.919977 L 204.638023,177.712687 L 193.821659,180.97822 L 183.151535,184.693886 L 172.704518,188.831887 L 162.555203,193.359549 L 152.775323,198.23959 L 143.433187,203.430444 L 134.593145,208.886621 L 126.31509,214.559107 L 118.653999,220.395805 L 111.659522,226.342001 L 105.375608,232.340865 L 99.840191,238.333965 L 95.08492,244.261813 L 91.134952,250.064414 L 88.00879,255.681829 L 85.718189,261.054739 L 84.268113,266.125009 L 83.656751,270.836248 L 83.875592,275.134351 L 84.909554,278.968029 L 86.737172,282.289317 L 89.330835,285.054054 L 92.657078,287.222331 L 96.676919,288.75891 L 101.346241,289.633597 L 106.61622,289.821575 L 112.433784,289.303694 L 118.742113,288.066707 L 125.48116,286.103462 L 132.588202,283.41303 L 139.998408,280.000796 L 147.64542,275.878474 L 155.461946,271.064083 L 163.380355,265.581857 L 171.333269,259.462105 L 179.254151,252.741012 L 187.077878,245.460392 L 194.741299,237.667387 L 202.183774,229.414114 L 209.347677,220.757275 L 216.17888,211.757714 L 222.627192,202.479945 L 228.646765,192.991635 L 234.196457,183.363065 L 239.240148,173.666561 L 243.747005,163.9759 L 247.691709,154.365711 L 251.054613,144.910848 L 253.82186,135.685775 L 255.985445,126.763939 L 257.543215,118.217151 L 258.498826,110.114978 L 258.861639,102.524151 L 258.646567,95.507995 L 257.87387,89.125876 L 256.568905,83.432696 L 254.761828,78.478402 L 252.487248,74.307553 L 249.783855,70.958918 L 246.693995,68.465125 L 243.263227,66.852363 L 239.539847,66.140131 L 235.574385,66.341044 L 231.419093,67.460697 L 227.127408,69.497588 L 222.753416,72.443096 L 218.351311,76.281519 L 213.974846,80.990176 L 209.676806,86.53956 L 205.508479,92.893552 L 201.519151,100.009693 L 197.75562,107.839499 L 194.261736,116.328841 L 191.077969,125.41836 L 188.241014,135.043932 L 185.783432,145.137173 L 183.73333,155.625977 L 182.114091,166.435087 L 180.944139,177.486695 L 180.236766,188.701058 L 180,199.997134 L 180.236526,211.293231 L 180.943662,222.507656 L 182.113383,233.559367 L 183.732399,244.36862 L 185.782287,254.857605 L 188.23967,264.951065 L 191.07644,274.576892 L 194.26004,283.6667 L 197.753777,292.156361 L 201.517182,299.986516 L 205.506408,307.10303 L 209.674657,313.45742 L 213.972644,319.007222 L 218.349082,323.716313 L 222.751188,327.555183 L 227.125207,330.501148 L 231.416948,332.538503 L 235.572323,333.658622 L 239.537894,333.859999 L 243.26141,333.148227 L 246.692338,331.535917 L 249.782383,329.042565 L 252.485983,325.694355 L 254.76079,321.523914 L 256.568114,316.570006 L 257.873341,310.877188 L 258.646314,304.495405 L 258.861675,297.479555 L 258.499159,289.889004 L 257.543852,281.787074 L 255.986388,273.240494 L 253.82311,264.31883 L 251.056167,255.093892 L 247.693562,245.639127 L 243.749149,236.028997 L 239.24257,226.338358 L 234.199144,216.641838 L 228.6497,207.013215 L 222.630355,197.524816 L 216.182249,188.246923 L 209.351228,179.247204 L 202.18748,170.590176 L 194.745132,162.336684 L 187.081807,154.543432 L 179.258146,147.26254 L 171.337297,140.541153 L 163.384383,134.421086 L 155.465939,128.938529 L 147.649344,124.123792 L 140.002229,120.001115 L 132.591887,116.588517 L 125.484674,113.897718 L 118.745425,111.934103 L 112.436862,110.69675 L 106.619034,110.178507 L 101.348764,110.366132 L 96.679125,111.240477 L 92.658944,112.776728 L 89.332338,114.944693 L 86.738295,117.709137 L 84.910281,121.030154 L 83.875911,124.863585 L 83.656653,129.161465 L 84.267591,133.872508 L 85.717241,138.94261 L 88.007416,144.315381 L 91.133157,149.932687 L 95.082712,155.735209 L 99.837581,161.663009 L 105.37261,167.656092 L 111.656154,173.654967 L 118.650282,179.601205 L 126.311046,185.437972 L 134.588803,191.110555 L 143.428575,196.566854 L 152.770472,201.757854 L 162.550147,206.638064 L 172.699293,211.165914 L 183.146178,215.304122 L 193.816208,219.020009 L 204.632518,222.285776 L 215.516585,225.07873 L 226.388853,227.38146 L 237.169376,229.181961 L 247.778459,230.473711 L 258.137302,231.255686 L 268.168643,231.532335 L 277.797379,231.313489 L 286.951186,230.614229 L 295.5611,229.4547 L 303.56209,227.859873 L 310.893581,225.859274 L 317.499957,223.486652 L 323.331017,220.779623 L 328.342382,217.779265 L 332.495866,214.529694 L 335.759788,211.077596 L 338.109228,207.471744 L 339.526242,203.762496 L 340,200.001274 L 339.526881,196.240034 L 338.110502,192.530734 L 335.761686,188.924794 L 332.498376,185.472575 L 328.345482,182.222851 L 323.334685,179.222311 L 317.504165,176.515069 L 310.898296,174.142208 L 303.567276,172.141345 L 295.56672,170.546234 L 286.957195,169.386401 L 277.803733,168.686823 L 268.175293,168.467647 L 258.1442,168.743957 L 247.785552,169.525589 L 237.176612,170.816994 L 226.396178,172.617153 L 215.523944,174.919547 L 204.639859,177.712175 L 193.823476,180.97763 L 183.153321,184.693221 L 172.70626,188.831154 L 162.556888,193.358753 L 152.77694,198.238738 L 143.434725,203.429544 L 134.594593,208.885679 L 126.316438,214.558133 L 118.655239,220.394808 L 111.660645,226.340991 L 105.376608,232.33985 L 99.841061,238.332956 L 95.085656,244.260821 L 91.13555,250.063448 L 88.009247,255.680899 L 85.718505,261.053855 L 84.268287,266.124181 L 83.656784,270.835485 L 83.875485,275.133662 L 84.909311,278.967423 L 86.736797,282.288802 L 89.330334,285.053636 L 92.656457,287.222017 L 96.676184,288.758706 L 101.3454,289.633507 L 106.615282,289.821603 L 112.432758,289.303842 L 118.741009,288.066978 L 125.479989,286.103855 L 132.586974,283.413546 L 139.997134,280.001433 L 147.644112,275.87923 L 155.460615,271.064953 L 163.379013,265.582838 L 171.331927,259.46319 L 179.252819,252.742196 L 187.076568,245.461667 L 194.740022,237.668744 L 202.182539,229.415544 L 209.346494,220.758768 L 216.177757,211.75926 L 222.626137,202.481532 L 228.645787,192.993252 L 234.195562,183.3647 L 239.23934,173.6682 L 243.746291,163.977533 L 247.691091,154.367323 L 251.054095,144.912428 L 253.821444,135.68731 L 255.985131,126.765416 L 257.543003,118.218559 L 258.498715,110.116305 L 258.861627,102.525387 L 258.646651,95.509128 L 257.874046,89.126898 L 256.569169,83.433597 L 254.762173,78.479174 L 252.48767,74.308189 L 249.784345,70.959412 L 246.694547,68.465473 L 243.263833,66.85256 L 239.540498,66.140174 L 235.575073,66.340932 L 231.419808,67.46043 L 227.128141,69.497167 L 222.754159,72.442522 L 218.352054,76.280796 L 213.97558,80.989309 L 209.677523,86.538553 L 205.509169,92.892413 L 201.519807,100.008429 L 197.756234,107.838119 L 194.262301,116.327354 L 191.078478,125.416777 L 188.241462,135.042264 L 185.783813,145.135432 L 183.733641,155.624176 L 182.114327,166.433239 L 180.944298,177.484812 L 180.236846,188.699154 L 180,199.995224 L 180.236446,211.291328 L 180.943503,222.505773 L 182.113147,233.557518 L 183.732088,244.366819 L 185.781906,254.855865 L 188.239222,264.949398 L 191.075931,274.57531 L 194.259475,283.665213 L 197.753163,292.154981 L 201.516526,299.985252 L 205.505717,307.101891 L 209.67394,313.456414 L 213.97191,319.006354 L 218.348339,323.71559 L 222.750445,327.55461 L 227.124474,330.500727 L 231.416233,332.538236 L 235.571636,333.65851 L 239.537243,333.860043 L 243.260804,333.148424 L 246.691786,331.536265 L 249.781892,329.043059 L 252.485562,325.694991 L 254.760444,321.524685 L 256.56785,316.570907 L 257.873165,310.878209 L 258.64623,304.496538 L 258.861687,297.480791 L 258.49927,289.890332 L 257.544064,281.788482 L 255.986702,273.241971 L 253.823527,264.320364 L 251.056685,255.095472 L 247.69418,245.640739 L 243.749863,236.030629 L 239.243377,226.339998 L 234.20004,216.643472 L 228.650678,207.014832 L 222.631409,197.526403 L 216.183372,188.248468 L 209.352412,179.248697 L 202.188715,170.591606 L 194.74641,162.338041 L 187.083117,154.544706 L 179.259478,147.263724 L 171.33864,140.542238 L 163.385725,134.422067 L 155.46727,128.939399 L 147.650652,124.124548 L 140.003503,120.001751 L 132.593115,116.589033 L 125.485846,113.898111 L 118.746529,111.934374 L 112.437888,110.696898 L 106.619972,110.178535 L 101.349605,110.366042 L 96.67986,111.240272 L 92.659565,112.776414 L 89.33284,114.944276 L 86.738669,117.708622 L 84.910523,121.029549 L 83.876017,124.862896 L 83.65662,129.160702 L 84.267417,133.87168 L 85.716925,138.941727 L 88.006959,144.314451 L 91.132559,149.931721 L 95.081977,155.734217 L 99.836711,161.662001 L 105.371611,167.655077 L 111.655031,173.653956 L 118.649043,179.600208 L 126.309699,185.436999 L 134.587355,191.109614 L 143.427037,196.565953 L 152.768855,201.757002 L 162.548462,206.637268 L 172.697551,211.165181 L 183.144392,215.303457 L 193.814391,219.019418 L 204.630683,222.285264 L 215.514745,225.078299 L 226.387022,227.381113 L 237.167567,229.1817 L 247.776685,230.473535 L 258.135578,231.255597 L 268.16698,231.532331 L 277.795791,231.313567 L 286.949683,230.614387 L 295.559696,229.454933 L 303.560793,227.860178 L 310.892402,225.859644 L 317.498905,223.487082 L 323.3301,220.780106 L 328.341607,217.779795 L 332.495239,214.530262 L 335.759313,211.078193 L 338.10891,207.472363 L 339.526082,203.763128 L 340,200.001911 L 339.527041,196.240667 L 338.110821,192.531353 L 335.762161,188.925392 L 332.499003,185.473143 L 328.346257,182.223381 L 323.335601,179.222794 L 317.505216,176.515499 L 310.899474,174.142578 L 303.568573,172.14165 L 295.568124,170.546468 L 286.958697,169.386559 L 277.805322,168.686901 L 268.176956,168.467642 L 258.145924,168.743868 L 247.787325,169.525414 L 237.178421,170.816733 L 226.398009,172.616806 L 215.525784,174.919116 L 204.641694,177.711663 L 193.825293,180.977039 L 183.155107,184.692557 L 172.708002,188.830421 L 162.558574,193.357957 L 152.778557,198.237886 L 143.436262,203.428643 L 134.59604,208.884738 L 126.317785,214.557159 L 118.656478,220.393811 L 111.661768,226.33998 L 105.377607,232.338835 L 99.841931,238.331948 L 95.086392,244.259828 L 91.136148,250.062482 L 88.009705,255.679969 L 85.718821,261.052971 L 84.268461,266.123353 L 83.656817,270.834723 L 83.875379,275.132974 L 84.909069,278.966818 L 86.736423,282.288286 L 89.329833,285.053218 L 92.655835,287.221703 L 96.675449,288.758501 L 101.344559,289.633416 L 106.614344,289.82163 L 112.431733,289.30399 L 118.739906,288.067248 L 125.478818,286.104248 L 132.585746,283.414062 L 139.99586,280.00207 L 147.642804,275.879985 L 155.459284,271.065824 L 163.37767,265.583819 L 171.330584,259.464276 L 179.251488,252.74338 L 187.075258,245.462942 L 194.738744,237.670101 L 202.181303,229.416974 L 209.34531,220.760261 L 216.176634,211.760806 L 222.625083,202.483119 L 228.644808,192.994868 L 234.194666,183.366334 L 239.238533,173.66984 L 243.745576,163.979165 L 247.690474,154.368936 L 251.053577,144.914007 L 253.821027,135.688845 L 255.984816,126.766894 L 257.542791,118.219967 L 258.498604,110.117632 L 258.861615,102.526622 L 258.646735,95.510261 L 257.874222,89.127919 L 256.569433,83.434497 L 254.762519,78.479946 L 252.488091,74.308825 L 249.784836,70.959906 L 246.695099,68.46582 L 243.264439,66.852757 L 239.541149,66.140218 L 235.57576,66.340821 L 231.420523,67.460163 L 227.128875,69.496746 L 222.754902,72.441949 L 218.352797,76.280074 L 213.976315,80.988441 L 209.678239,86.537547 L 205.50986,92.891274 L 201.520463,100.007165 L 197.756848,107.836739 L 194.262866,116.325868 L 191.078988,125.415194 L 188.24191,135.040597 L 185.784195,145.133692 L 183.733951,155.622375 L 182.114563,166.43139 L 180.944456,177.482929 L 180.236926,188.69725 L 180,199.993313 L 180.236367,211.289424 L 180.943345,222.50389 L 182.112911,233.555669 L 183.731778,244.365017 L 185.781524,254.854124 L 188.238774,264.94773 L 191.075421,274.573727 L 194.25891,283.663726 L 197.752549,292.153601 L 201.51587,299.983988 L 205.505027,307.100752 L 209.673223,313.455407 L 213.971175,319.005487 L 218.347596,323.714867 L 222.749702,327.554036 L 227.12374,330.500306 L 231.415518,332.537969 L 235.570948,333.658399 L 239.536592,333.860086 L 243.260199,333.148621 L 246.691234,331.536612 L 249.781402,329.043554 L 252.48514,325.695627 L 254.760098,321.525457 L 256.567586,316.571807 L 257.872988,310.87923 L 258.646146,304.497672 L 258.861699,297.482026 L 258.499381,289.891659 L 257.544276,281.78989 L 255.987016,273.243449 L 253.823943,264.321899 L 251.057203,255.097052 L 247.694797,245.642352 L 243.750578,236.032261 L 239.244185,226.341638 L 234.200936,216.645107 L 228.651656,207.016449 L 222.632463,197.52799 L 216.184495,188.250014 L 209.353595,179.250191 L 202.189951,170.593036 L 194.747687,162.339398 L 187.084427,154.545981 L 179.26081,147.264908 L 171.339983,140.543324 L 163.387068,134.423048 L 155.468601,128.94027 L 147.65196,124.125303 L 140.004777,120.002388 L 132.594343,116.589548 L 125.487017,113.898504 L 118.747632,111.934644 L 112.438914,110.697046 L 106.62091,110.178562 L 101.350446,110.365951 L 96.680596,111.240068 L 92.660187,112.7761 L 89.333341,114.943858 L 86.739043,117.708107 L 84.910766,121.028943 L 83.876124,124.862208 L 83.656587,129.15994 L 84.267243,133.870853 L 85.716609,138.940843 L 88.006501,144.313521 L 91.131961,149.930754 L 95.081241,155.733224 L 99.835841,161.660992 L 105.370612,167.654062 L 111.653909,173.652946 L 118.647804,179.599211 L 126.308351,185.436025 L 134.585908,191.108672 L 143.4255,196.565052 L 152.767238,201.75615 L 162.546776,206.636472 L 172.69581,211.164448 L 183.142606,215.302793 L 193.812574,219.018828 L 204.628847,222.284751 L 215.512905,225.077868 L 226.385191,227.380766 L 237.165758,229.181438 L 247.774912,230.47336 L 258.133853,231.255508 L 268.165317,231.532326 L 277.794202,231.313645 L 286.948181,230.614545 L 295.558291,229.455166 L 303.559496,227.860483 L 310.891223,225.860015 L 317.497853,223.487512 L 323.329183,220.780589 L 328.340832,217.780324 L 332.494612,214.530829 L 335.758838,211.078791 L 338.108591,207.472982 L 339.525922,203.763761 L 340,200.002547 L 339.527201,196.241299 L 338.111139,192.531972 L 335.762636,188.92599 L 332.49963,185.47371 L 328.347032,182.22391 L 323.336518,179.223277 L 317.506268,176.515929 L 310.900653,174.142949 L 303.56987,172.141954 L 295.569529,170.546701 L 286.9602,169.386717 L 277.80691,168.686979 L 268.178619,168.467638 L 258.147649,168.743779 L 247.789098,169.525239 L 237.18023,170.816471 L 226.39984,172.616459 L 215.527624,174.918685 L 204.643529,177.71115 L 193.82711,180.976449 L 183.156893,184.691893 L 172.709744,188.829688 L 162.560259,193.357162 L 152.780174,198.237035 L 143.4378,203.427742 L 134.597488,208.883796 L 126.319133,214.556186 L 118.657717,220.392814 L 111.662891,226.33897 L 105.378606,232.337821 L 99.842801,238.330939 L 95.087128,244.258836 L 91.136746,250.061515 L 88.010163,255.679039 L 85.719137,261.052087 L 84.268635,266.122525 L 83.65685,270.83396 L 83.875273,275.132286 L 84.908826,278.966212 L 86.736049,282.287771 L 89.329332,285.0528 L 92.655214,287.221389 L 96.674714,288.758297 L 101.343718,289.633326 L 106.613406,289.821657 L 112.430707,289.304138 L 118.738802,288.067518 L 125.477646,286.104641 L 132.584518,283.414577 L 139.994587,280.002706 L 147.641496,275.88074 L 155.457953,271.066694 L 163.376328,265.5848 L 171.329241,259.465362 L 179.250156,252.744564 L 187.073948,245.464216 L 194.737467,237.671458 L 202.180068,229.418404 L 209.344126,220.761755 L 216.175511,211.762351 L 222.624029,202.484706 L 228.64383,192.996485 L 234.19377,183.367968 L 239.237725,173.67148 L 243.744862,163.980798 L 247.689856,154.370548 L 251.053058,144.915587 L 253.82061,135.690379 L 255.984502,126.768371 L 257.542579,118.221375 L 258.498493,110.11896 L 258.861603,102.527858 L 258.646819,95.511395 L 257.874399,89.128941 L 256.569696,83.435398 L 254.762865,78.480718 L 252.488513,74.309462 L 249.785326,70.960401 L 246.695651,68.466168 L 243.265044,66.852954 L 239.5418,66.140261 L 235.576448,66.340709 L 231.421238,67.459897 L 227.129608,69.496325 L 222.755645,72.441375 L 218.35354,76.279351 L 213.977049,80.987574 L 209.678956,86.53654 L 205.51055,92.890135 L 201.521119,100.005901 L 197.757463,107.835359 L 194.263431,116.324381 L 191.079497,125.413612 L 188.242358,135.038929 L 185.784576,145.131951 L 183.734262,155.620574 L 182.114799,166.429541 L 180.944615,177.481046 L 180.237006,188.695347 L 180,199.991402 L 180.236287,211.28752 L 180.943186,222.502007 L 182.112675,233.55382 L 183.731467,244.363216 L 185.781143,254.852383 L 188.238326,264.946062 L 191.074912,274.572144 L 194.258345,283.66224 L 197.751935,292.152221 L 201.515214,299.982724 L 205.504337,307.099613 L 209.672507,313.4544 L 213.970441,319.004619 L 218.346853,323.714144 L 222.74896,327.553462 L 227.123007,330.499884 L 231.414803,332.537702 L 235.570261,333.658287 L 239.535941,333.860129 L 243.259593,333.148817 L 246.690682,331.53696 L 249.780911,329.044048 L 252.484718,325.696263 L 254.759753,321.526229 L 256.567322,316.572708 L 257.872812,310.880252 L 258.646062,304.498805 L 258.861711,297.483262 L 258.499492,289.892986 L 257.544488,281.791298 L 255.987331,273.244926 L 253.82436,264.323434 L 251.057721,255.098632 L 247.695415,245.643964 L 243.751292,236.033894 L 239.244992,226.343277 L 234.201831,216.646741 L 228.652635,207.018066 L 222.633518,197.529577 L 216.185618,188.25156 L 209.354779,179.251684 L 202.191186,170.594466 L 194.748965,162.340755 L 187.085737,154.547256 L 179.262141,147.266092 L 171.341325,140.54441 L 163.38841,134.424029 L 155.469932,128.94114 L 147.653268,124.126059 L 140.00605,120.003025 L 132.595571,116.590064 L 125.488188,113.898898 L 118.748736,111.934914 L 112.43994,110.697194 L 106.621849,110.17859 L 101.351287,110.365861 L 96.681331,111.239864 L 92.660809,112.775786 L 89.333842,114.94344 L 86.739418,117.707592 L 84.911008,121.028337 L 83.87623,124.86152 L 83.656555,129.159178 L 84.26707,133.870025 L 85.716293,138.939959 L 88.006043,144.312591 L 91.131363,149.929788 L 95.080505,155.732232 L 99.834971,161.659983 L 105.369613,167.653048 L 111.652786,173.651935 L 118.646564,179.598214 L 126.307003,185.435051 L 134.58446,191.107731 L 143.423962,196.564152 L 152.765621,201.755298 L 162.545091,206.635676 L 172.694068,211.163715 L 183.14082,215.302129 L 193.810757,219.018237 L 204.627012,222.284239 L 215.511065,225.077438 L 226.383359,227.380419 L 237.163949,229.181177 L 247.773139,230.473185 L 258.132129,231.255418 L 268.163655,231.532321 L 277.792614,231.313723 L 286.946679,230.614702 L 295.556886,229.4554 L 303.558199,227.860787 L 310.890044,225.860385 L 317.496801,223.487943 L 323.328266,220.781072 L 328.340057,217.780853 L 332.493984,214.531397 L 335.758363,211.079388 L 338.108273,207.473602 L 339.525762,203.764393 L 340,200.003184 " fill="rgba(0,255,255,0.7)" stroke="none"/>
  <path d="M 311.190063,174.234432 L 303.888354,172.217273 L 295.914673,170.604535 L 287.329393,169.425926 L 278.197368,168.70662 L 268.587403,168.466972 L 258.571693,168.722283 L 248.225234,169.482611 L 237.62521,170.752634 L 226.850367,172.531564 L 215.980376,174.813113 L 205.095184,177.585509 L 194.274379,180.831567 L 183.596539,184.528818 L 173.138613,188.649674 L 162.975303,193.16166 L 153.178476,198.027683 L 143.816595,203.206349 L 134.954186,208.652326 L 126.65134,214.316741 L 118.963251,220.147615 L 111.939797,226.090337 L 105.625177,232.088152 L 100.057583,238.082688 L 95.268932,244.014489 L 91.284659,249.823571 L 88.123549,255.44998 L 85.797643,260.834359 L 84.312189,265.918514 L 83.665662,270.645968 L 83.849828,274.96251 L 84.849881,278.816721 L 86.644618,282.160488 L 89.206683,284.949478 L 92.50285,287.143597 L 96.494361,288.707401 L 101.137307,289.610477 L 106.383053,289.827777 L 112.178697,289.339905 L 118.467566,288.133364 L 125.189737,286.20074 L 132.282588,283.540842 L 139.681366,280.158788 L 147.319766,276.066025 L 155.130522,271.280309 L 163.046006,265.825614 L 170.998817,259.731999 L 178.922371,253.035404 L 186.751474,245.777414 L 194.422882,238.004952 L 201.875838,229.769934 L 209.052579,221.128877 L 215.898822,212.142461 L 222.3642,202.875054 L 228.402677,193.394203 L 233.972904,183.77009 L 239.038545,174.074965 L 243.568541,164.382559 L 247.537334,154.767474 L 250.925039,145.304569 L 253.717552,136.068338 L 255.906622,127.132282 L 257.48985,118.568293 L 258.470649,110.446045 L 258.858142,102.832401 L 258.667014,95.790838 L 257.917304,89.380902 L 256.634161,83.65769 L 254.847543,78.671368 L 252.591882,74.466731 L 249.905703,71.082798 L 246.831207,68.552462 L 243.413828,66.902188 L 239.701755,66.151761 L 235.745437,66.314089 L 231.597062,67.395065 L 227.310028,69.393485 L 222.938407,72.301028 L 218.536396,76.102288 L 214.15778,80.774876 L 209.855394,86.289567 L 205.6806,92.610516 L 201.682778,99.695523 L 197.90884,107.496353 L 194.40277,115.959105 L 191.205186,125.024631 L 188.352952,134.628998 L 185.878809,144.703989 L 183.811057,155.177646 L 182.173281,165.974831 L 180.98412,177.017831 L 180.257084,188.226972 L 180.000424,199.521254 L 180.217052,210.818999 L 180.904511,222.0385 L 182.054998,233.098675 L 183.655445,243.919714 L 185.687641,254.423712 L 188.128411,264.535292 L 190.949844,274.182202 L 194.119563,283.295888 L 197.601041,291.812033 L 201.35396,299.671067 L 205.334608,306.818627 L 209.496301,313.205985 L 213.789851,318.790414 L 218.164043,323.535522 L 222.566147,327.411515 L 226.942439,330.395416 L 231.238735,332.471226 L 235.400931,333.63002 L 239.375552,333.869992 L 243.110285,333.196437 L 246.554515,331.621675 L 249.659842,329.164912 L 252.38058,325.852059 L 254.674237,321.715475 L 256.501958,316.793675 L 257.828952,311.130978 L 258.624867,304.777112 L 258.864136,297.786774 L 258.526274,290.219155 L 257.596138,282.137419 L 256.064125,273.608165 L 253.926336,264.700849 L 251.184673,255.487202 L 247.846893,246.040611 L 243.926605,236.435511 L 239.44321,226.746752 L 234.42179,217.048984 L 228.892945,207.416035 L 222.892577,197.920303 L 216.461621,188.632168 L 209.645729,179.619421 L 202.494917,170.946719 L 195.063153,162.675074 L 187.407924,154.861372 L 179.589752,147.557936 L 171.671692,140.812125 L 163.718794,134.665987 L 155.797546,129.155952 L 147.975302,124.312584 L 140.319695,120.160379 L 132.898044,116.717623 L 125.776758,113.9963 L 119.020744,112.002062 L 112.692829,110.734251 L 106.853183,110.185974 L 101.558775,110.344244 L 96.862848,111.190154 L 92.814415,112.699126 L 89.457804,114.841187 L 86.832221,117.581306 L 84.971377,120.879765 L 83.903136,124.692577 L 83.64923,128.971926 L 84.225019,133.666657 L 85.639294,138.722773 L 87.894155,144.08397 L 90.984927,149.692175 L 94.900144,155.48811 L 99.621588,161.411849 L 105.124383,167.403389 L 111.377153,173.403208 L 118.342226,179.352819 L 125.975902,185.195312 L 134.228769,190.875873 L 143.046067,196.342283 L 152.368104,201.545389 L 162.130709,206.439543 L 172.265732,210.983002 L 182.701574,215.138296 L 193.36375,218.872548 L 204.175478,222.157749 L 215.058292,224.970987 L 225.932668,227.294624 L 236.718661,229.116427 L 247.336554,230.429643 L 257.707497,231.233017 L 267.754149,231.530767 L 277.401305,231.332503 L 286.576511,230.653086 L 295.210651,229.512453 L 303.238515,227.935378 L 310.599334,225.951201 L 317.237273,223.593501 L 323.101892,220.899737 L 328.148562,217.910853 L 332.338828,214.670844 L 335.64073,211.226297 L 338.029061,207.625908 L 339.485577,203.91998 L 339.999148,200.1599 L 339.565849,196.397612 L 338.188992,192.685085 L 335.879098,189.073772 L 332.653812,185.614089 L 328.537759,182.354887 L 323.562334,179.342953 L 317.765453,176.622519 L 311.191237,174.234805 L 303.889646,172.217581 L 295.916073,170.604771 L 287.330891,169.426087 L 278.198953,168.706702 L 268.589063,168.466971 L 258.573415,168.722197 L 248.227006,169.482439 L 237.627018,170.752376 L 226.852198,172.531221 L 215.982215,174.812686 L 205.09702,177.585 L 194.276197,180.83098 L 183.598326,184.528157 L 173.140357,188.648944 L 162.976991,193.160867 L 153.180096,198.026833 L 143.818136,203.205451 L 134.955638,208.651387 L 126.652693,214.315768 L 118.964495,220.146619 L 111.940925,226.089326 L 105.626182,232.087137 L 100.058458,238.081679 L 95.269674,244.013496 L 91.285263,249.822603 L 88.124013,255.449048 L 85.797965,260.833473 L 84.312369,265.917684 L 83.6657,270.645203 L 83.849728,274.961818 L 84.849644,278.816112 L 86.64425,282.159969 L 89.206188,284.949056 L 92.502233,287.143278 L 96.49363,288.707192 L 101.13647,289.610382 L 106.382119,289.827799 L 112.177675,289.340048 L 118.466465,288.133629 L 125.188568,286.201128 L 132.281362,283.541353 L 139.680094,280.159419 L 147.318459,276.066775 L 155.129192,271.281174 L 163.044664,265.826591 L 170.997474,259.73308 L 178.921038,253.036584 L 186.750163,245.778685 L 194.421603,238.006306 L 201.8746,229.771361 L 209.051393,221.130368 L 215.897696,212.144004 L 222.363143,202.87664 L 228.401695,193.395819 L 233.972005,183.771723 L 239.037734,174.076605 L 243.567822,164.384191 L 247.536713,154.769087 L 250.924516,145.306151 L 253.717131,136.069875 L 255.906303,127.133762 L 257.489633,118.569704 L 258.470533,110.447376 L 258.858126,102.833641 L 258.667094,95.791976 L 257.917477,89.381928 L 256.634421,83.658596 L 254.847885,78.672146 L 252.592301,74.467373 L 249.90619,71.083298 L 246.831756,68.552816 L 243.414431,66.902391 L 239.702405,66.151811 L 235.746123,66.313984 L 231.597776,67.394804 L 227.310761,69.39307 L 222.93915,72.300461 L 218.537139,76.101572 L 214.158515,80.774015 L 209.856112,86.288566 L 205.681292,92.609383 L 201.683436,99.694265 L 197.909457,107.494978 L 194.403337,115.957623 L 191.205698,125.023052 L 188.353403,134.627333 L 185.879193,144.702252 L 183.81137,155.175847 L 182.17352,165.972984 L 180.984282,177.015949 L 180.257167,188.225069 L 180.000428,199.519343 L 180.216976,210.817094 L 180.904355,222.036616 L 182.054766,233.096825 L 183.655138,243.917911 L 185.687263,254.421969 L 188.127966,264.533622 L 190.949337,274.180616 L 194.119,283.294397 L 197.600428,291.810648 L 201.353306,299.669798 L 205.333919,306.817483 L 209.495585,313.204972 L 213.789117,318.789541 L 218.1633,323.534793 L 222.565404,327.410935 L 226.941705,330.394988 L 231.238019,332.470953 L 235.400242,333.629902 L 239.374899,333.870029 L 243.109677,333.196628 L 246.55396,331.622016 L 249.659349,329.165401 L 252.380156,325.852689 L 254.673887,321.716242 L 256.501691,316.79457 L 257.828772,311.131994 L 258.624779,304.77824 L 258.864143,297.788006 L 258.526381,290.220479 L 257.596345,282.138824 L 256.064435,273.609639 L 253.926748,264.702382 L 251.185187,255.48878 L 247.847507,246.042223 L 243.927316,236.437142 L 239.444013,226.748392 L 234.422682,217.050619 L 228.89392,207.417653 L 222.893629,197.921891 L 216.462741,188.633716 L 209.64691,179.620916 L 202.49615,170.948152 L 195.064429,162.676434 L 187.409232,154.862651 L 179.591083,147.559124 L 171.673035,140.813215 L 163.720136,134.666972 L 155.798877,129.156827 L 147.976611,124.313345 L 140.32097,120.161021 L 132.899274,116.718144 L 125.777932,113.996698 L 119.021851,112.002338 L 112.693858,110.734404 L 106.854125,110.186007 L 101.559621,110.344158 L 96.863588,111.189955 L 92.815042,112.698817 L 89.45831,114.840774 L 86.832601,117.580795 L 84.971625,120.879164 L 83.903248,124.691892 L 83.649204,128.971167 L 84.224851,133.665832 L 85.638984,138.721892 L 87.893703,144.083042 L 90.984335,149.69121 L 94.899414,155.487119 L 99.620723,161.410841 L 105.123389,167.402375 L 111.376035,173.402197 L 118.340992,179.351821 L 125.974559,185.194337 L 134.227326,190.87493 L 143.044533,196.34138 L 152.36649,201.544535 L 162.129026,206.438744 L 172.263993,210.982266 L 182.69979,215.137629 L 193.361934,218.871955 L 204.173644,222.157234 L 215.056452,224.970552 L 225.930836,227.294273 L 236.716851,229.116162 L 247.334779,230.429464 L 257.70577,231.232924 L 267.752483,231.530759 L 277.399713,231.332577 L 286.575004,230.653241 L 295.209241,229.512683 L 303.237214,227.93568 L 310.59815,225.951569 L 317.236215,223.593928 L 323.100969,220.900218 L 328.14778,217.91138 L 332.338195,214.67141 L 335.640249,211.226893 L 338.028735,207.626527 L 339.48541,203.920612 L 339.999141,200.160537 L 339.566002,196.398245 L 338.189303,192.685705 L 335.879566,189.074371 L 332.654433,185.614658 L 328.538527,182.355418 L 323.563245,179.343439 L 317.7665,176.622952 L 311.19241,174.235178 L 303.890937,172.217888 L 295.917474,170.605008 L 287.33239,169.426248 L 278.200538,168.706783 L 268.590722,168.46697 L 258.575137,168.722112 L 248.228777,169.482268 L 237.628826,170.752118 L 226.854028,172.530878 L 215.984055,174.812259 L 205.098856,177.584491 L 194.278015,180.830393 L 183.600114,184.527495 L 173.142101,188.648213 L 162.978679,193.160073 L 153.181717,198.025984 L 143.819677,203.204552 L 134.957089,208.650447 L 126.654045,214.314796 L 118.965739,220.145623 L 111.942053,226.088316 L 105.627187,232.086123 L 100.059334,238.08067 L 95.270416,244.012503 L 91.285867,249.821636 L 88.124477,255.448116 L 85.798287,260.832587 L 84.312549,265.916853 L 83.665739,270.644437 L 83.849627,274.961127 L 84.849407,278.815503 L 86.643881,282.159449 L 89.205692,284.948634 L 92.501617,287.14296 L 96.4929,288.706983 L 101.135634,289.610287 L 106.381185,289.827822 L 112.176653,289.340191 L 118.465364,288.133894 L 125.187399,286.201516 L 132.280136,283.541863 L 139.678822,280.160051 L 147.317152,276.067526 L 155.127861,271.28204 L 163.043321,265.827567 L 170.996131,259.734161 L 178.919706,253.037764 L 186.748852,245.779956 L 194.420324,238.007659 L 201.873363,229.772788 L 209.050207,221.131858 L 215.89657,212.145548 L 222.362085,202.878225 L 228.400713,193.397434 L 233.971106,183.773357 L 239.036922,174.078244 L 243.567104,164.385824 L 247.536091,154.770701 L 250.923994,145.307732 L 253.71671,136.071412 L 255.905984,127.135242 L 257.489417,118.571116 L 258.470418,110.448707 L 258.85811,102.83488 L 258.667174,95.793113 L 257.917649,89.382954 L 256.634681,83.659502 L 254.848228,78.672924 L 252.592719,74.468015 L 249.906678,71.083798 L 246.832306,68.553169 L 243.415035,66.902595 L 239.703054,66.151861 L 235.746809,66.313879 L 231.59849,67.394544 L 227.311494,69.392656 L 222.939892,72.299893 L 218.537882,76.100856 L 214.15925,80.773153 L 209.856829,86.287565 L 205.681984,92.608249 L 201.684094,99.693006 L 197.910073,107.493603 L 194.403904,115.95614 L 191.20621,125.021473 L 188.353854,134.625669 L 185.879577,144.700514 L 183.811684,155.174048 L 182.173759,165.971137 L 180.984444,177.014067 L 180.25725,188.223165 L 180.000431,199.517433 L 180.216899,210.81519 L 180.9042,222.034731 L 182.054533,233.094975 L 183.654831,243.916108 L 185.686884,254.420226 L 188.127521,264.531951 L 190.94883,274.179029 L 194.118437,283.292906 L 197.599816,291.809263 L 201.352651,299.668529 L 205.333229,306.816338 L 209.49487,313.20396 L 213.788383,318.788667 L 218.162557,323.534064 L 222.564661,327.410355 L 226.940971,330.394561 L 231.237303,332.470679 L 235.399553,333.629784 L 239.374246,333.870066 L 243.109069,333.196818 L 246.553406,331.622357 L 249.658855,329.165889 L 252.379731,325.85332 L 254.673538,321.717008 L 256.501423,316.795466 L 257.828592,311.133011 L 258.624691,304.779369 L 258.864151,297.789237 L 258.526488,290.221803 L 257.596553,282.140229 L 256.064745,273.611114 L 253.92716,264.703915 L 251.1857,255.490358 L 247.84812,246.043834 L 243.928026,236.438774 L 239.444817,226.750031 L 234.423574,217.052254 L 228.894895,207.41927 L 222.89468,197.92348 L 216.463861,188.635263 L 209.648092,179.622412 L 202.497383,170.949585 L 195.065705,162.677794 L 187.410541,154.863929 L 179.592414,147.560312 L 171.674377,140.814305 L 163.721479,134.667958 L 155.800209,129.157703 L 147.97792,124.314105 L 140.322246,120.161663 L 132.900504,116.718665 L 125.779106,113.997097 L 119.022958,112.002613 L 112.694888,110.734557 L 106.855067,110.18604 L 101.560466,110.344073 L 96.864328,111.189755 L 92.815669,112.698508 L 89.458816,114.84036 L 86.832981,117.580283 L 84.971873,120.878562 L 83.90336,124.691207 L 83.649177,128.970407 L 84.224683,133.665007 L 85.638674,138.72101 L 87.893251,144.082114 L 90.983742,149.690246 L 94.898684,155.486127 L 99.619859,161.409833 L 105.122396,167.40136 L 111.374918,173.401186 L 118.339757,179.350823 L 125.973216,185.193362 L 134.225882,190.873987 L 143.042999,196.340478 L 152.364876,201.543681 L 162.127344,206.437946 L 172.262253,210.98153 L 182.698006,215.136962 L 193.360118,218.871361 L 204.171809,222.156718 L 215.054612,224.970118 L 225.929004,227.293923 L 236.715041,229.115897 L 247.333004,230.429285 L 257.704044,231.232831 L 267.750818,231.530751 L 277.398121,231.332652 L 286.573498,230.653395 L 295.207832,229.512913 L 303.235912,227.935982 L 310.596966,225.951937 L 317.235158,223.594356 L 323.100046,220.900699 L 328.146999,217.911908 L 332.337561,214.671975 L 335.639767,211.22749 L 338.02841,207.627146 L 339.485243,203.921245 L 339.999134,200.161174 L 339.566155,196.398878 L 338.189615,192.686325 L 335.880034,189.074969 L 332.655054,185.615227 L 328.539296,182.355949 L 323.564156,179.343924 L 317.767546,176.623384 L 311.193584,174.235551 L 303.892229,172.218196 L 295.918874,170.605244 L 287.333888,169.426409 L 278.202123,168.706865 L 268.592382,168.466969 L 258.57686,168.722026 L 248.230549,169.482096 L 237.630633,170.751861 L 226.855859,172.530535 L 215.985895,174.811831 L 205.100691,177.583982 L 194.279833,180.829806 L 183.601901,184.526834 L 173.143845,188.647483 L 162.980367,193.15928 L 153.183337,198.025134 L 143.821218,203.203653 L 134.958541,208.649507 L 126.655397,214.313823 L 118.966983,220.144627 L 111.943181,226.087306 L 105.628191,232.085108 L 100.060209,238.079661 L 95.271157,244.011509 L 91.286471,249.820668 L 88.124941,255.447184 L 85.798609,260.831701 L 84.312729,265.916023 L 83.665778,270.643672 L 83.849527,274.960435 L 84.849171,278.814894 L 86.643512,282.15893 L 89.205196,284.948212 L 92.501,287.142642 L 96.492169,288.706774 L 101.134797,289.610192 L 106.380251,289.827844 L 112.17563,289.340334 L 118.464264,288.134159 L 125.186231,286.201904 L 132.278911,283.542374 L 139.67755,280.160683 L 147.315845,276.068276 L 155.126531,271.282906 L 163.041979,265.828543 L 170.994788,259.735243 L 178.918374,253.038944 L 186.747541,245.781227 L 194.419045,238.009013 L 201.872126,229.774215 L 209.049021,221.133349 L 215.895444,212.147092 L 222.361028,202.879811 L 228.399732,193.39905 L 233.970206,183.774991 L 239.036111,174.079884 L 243.566385,164.387457 L 247.535469,154.772314 L 250.923472,145.309314 L 253.716289,136.072949 L 255.905666,127.136723 L 257.4892,118.572527 L 258.470303,110.450038 L 258.858094,102.83612 L 258.667254,95.794251 L 257.917821,89.383981 L 256.634941,83.660408 L 254.84857,78.673701 L 252.593138,74.468657 L 249.907166,71.084299 L 246.832856,68.553523 L 243.415639,66.902798 L 239.703703,66.151911 L 235.747495,66.313774 L 231.599204,67.394284 L 227.312227,69.392241 L 222.940635,72.299326 L 218.538626,76.100139 L 214.159984,80.772292 L 209.857547,86.286565 L 205.682675,92.607115 L 201.684751,99.691747 L 197.910689,107.492227 L 194.404472,115.954658 L 191.206722,125.019894 L 188.354305,134.624005 L 185.879962,144.698776 L 183.811997,155.172249 L 182.173998,165.96929 L 180.984606,177.012185 L 180.257334,188.221262 L 180.000435,199.515522 L 180.216823,210.813286 L 180.904044,222.032847 L 182.0543,233.093124 L 183.654523,243.914304 L 185.686506,254.418482 L 188.127076,264.53028 L 190.948323,274.177443 L 194.117874,283.291415 L 197.599204,291.807879 L 201.351997,299.66726 L 205.33254,306.815194 L 209.494154,313.202947 L 213.78765,318.787794 L 218.161814,323.533335 L 222.563918,327.409775 L 226.940237,330.394133 L 231.236587,332.470406 L 235.398865,333.629666 L 239.373594,333.870103 L 243.108461,333.197008 L 246.552851,331.622698 L 249.658362,329.166377 L 252.379306,325.85395 L 254.673189,321.717774 L 256.501156,316.796361 L 257.828412,311.134027 L 258.624603,304.780498 L 258.864159,297.790469 L 258.526594,290.223126 L 257.596761,282.141634 L 256.065055,273.612589 L 253.927573,264.705447 L 251.186214,255.491937 L 247.848734,246.045445 L 243.928737,236.440406 L 239.445621,226.751671 L 234.424466,217.053889 L 228.89587,207.420888 L 222.895731,197.925069 L 216.464981,188.636811 L 209.649273,179.623907 L 202.498617,170.951018 L 195.066981,162.679155 L 187.41185,154.865207 L 179.593745,147.5615 L 171.675719,140.815395 L 163.722822,134.668943 L 155.801541,129.158578 L 147.97923,124.314866 L 140.323521,120.162305 L 132.901735,116.719186 L 125.78028,113.997495 L 119.024065,112.002888 L 112.695917,110.73471 L 106.856009,110.186072 L 101.561311,110.343988 L 96.865068,111.189556 L 92.816296,112.698198 L 89.459323,114.839947 L 86.833361,117.579772 L 84.972121,120.87796 L 83.903472,124.690522 L 83.64915,128.969648 L 84.224515,133.664181 L 85.638364,138.720129 L 87.8928,144.081185 L 90.98315,149.689281 L 94.897954,155.485135 L 99.618995,161.408825 L 105.121402,167.400346 L 111.3738,173.400175 L 118.338523,179.349826 L 125.971872,185.192387 L 134.224439,190.873044 L 143.041466,196.339575 L 152.363262,201.542827 L 162.125661,206.437148 L 172.260514,210.980795 L 182.696222,215.136294 L 193.358302,218.870768 L 204.169974,222.156202 L 215.052772,224.969684 L 225.927172,227.293572 L 236.713231,229.115632 L 247.331229,230.429106 L 257.702317,231.232738 L 267.749152,231.530743 L 277.396529,231.332727 L 286.571992,230.653549 L 295.206423,229.513144 L 303.234611,227.936284 L 310.595782,225.952304 L 317.2341,223.594784 L 323.099123,220.90118 L 328.146218,217.912435 L 332.336927,214.672541 L 335.639286,211.228086 L 338.028085,207.627764 L 339.485077,203.921877 L 339.999127,200.161811 L 339.566308,196.399511 L 338.189927,192.686945 L 335.880502,189.075568 L 332.655675,185.615796 L 328.540065,182.35648 L 323.565067,179.344409 L 317.768592,176.623817 L 311.194757,174.235924 L 303.893521,172.218503 L 295.920275,170.605481 L 287.335386,169.42657 L 278.203708,168.706946 L 268.594042,168.466969 L 258.578582,168.721941 L 248.23232,169.481925 L 237.632441,170.751603 L 226.857689,172.530191 L 215.987735,174.811404 L 205.102527,177.583473 L 194.281651,180.829219 L 183.603689,184.526173 L 173.145588,188.646753 L 162.982055,193.158487 L 153.184957,198.024284 L 143.82276,203.202755 L 134.959993,208.648567 L 126.656749,214.312851 L 118.968227,220.143631 L 111.944309,226.086296 L 105.629196,232.084094 L 100.061085,238.078652 L 95.271899,244.010516 L 91.287075,249.819701 L 88.125404,255.446253 L 85.798931,260.830815 L 84.312909,265.915193 L 83.665817,270.642907 L 83.849426,274.959744 L 84.848934,278.814284 L 86.643143,282.158411 L 89.2047,284.94779 L 92.500383,287.142323 L 96.491438,288.706564 L 101.13396,289.610096 L 106.379317,289.827866 L 112.174608,289.340477 L 118.463163,288.134424 L 125.185062,286.202291 L 132.277685,283.542884 L 139.676278,280.161315 L 147.314538,276.069027 L 155.125201,271.283772 L 163.040637,265.82952 L 170.993445,259.736324 L 178.917041,253.040124 L 186.74623,245.782498 L 194.417765,238.010366 L 201.870889,229.775642 L 209.047836,221.13484 L 215.894319,212.148635 L 222.35997,202.881396 L 228.39875,193.400666 L 233.969307,183.776625 L 239.0353,174.081524 L 243.565667,164.38909 L 247.534847,154.773928 L 250.922949,145.310896 L 253.715868,136.074486 L 255.905347,127.138203 L 257.488984,118.573938 L 258.470188,110.451369 L 258.858078,102.83736 L 258.667334,95.795389 L 257.917994,89.385007 L 256.635201,83.661314 L 254.848913,78.674479 L 252.593556,74.469299 L 249.907654,71.084799 L 246.833405,68.553877 L 243.416242,66.903001 L 239.704352,66.151961 L 235.748181,66.313669 L 231.599918,67.394024 L 227.31296,69.391826 L 222.941377,72.298759 L 218.539369,76.099423 L 214.160719,80.771431 L 209.858264,86.285564 L 205.683367,92.605982 L 201.685409,99.690488 L 197.911305,107.490852 L 194.405039,115.953176 L 191.207234,125.018315 L 188.354755,134.622341 L 185.880346,144.697039 L 183.812311,155.170451 L 182.174238,165.967443 L 180.984768,177.010304 L 180.257417,188.219359 L 180.000438,199.513611 L 180.216747,210.811382 L 180.903889,222.030963 L 182.054067,233.091274 L 183.654216,243.912501 L 185.686127,254.416739 L 188.12663,264.528609 L 190.947816,274.175856 L 194.117311,283.289924 L 197.598592,291.806494 L 201.351342,299.665991 L 205.331851,306.814049 L 209.493439,313.201935 L 213.786916,318.78692 L 218.161072,323.532606 L 222.563175,327.409194 L 226.939503,330.393705 L 231.235871,332.470132 L 235.398176,333.629547 L 239.372941,333.87014 L 243.107854,333.197199 L 246.552297,331.623039 L 249.657869,329.166865 L 252.378882,325.85458 L 254.67284,321.71854 L 256.500888,316.797256 L 257.828232,311.135043 L 258.624515,304.781626 L 258.864167,297.7917 L 258.526701,290.22445 L 257.596968,282.143039 L 256.065365,273.614064 L 253.927985,264.70698 L 251.186728,255.493515 L 247.849347,246.047057 L 243.929447,236.442038 L 239.446424,226.75331 L 234.425358,217.055524 L 228.896845,207.422506 L 222.896782,197.926657 L 216.466102,188.638359 L 209.650454,179.625403 L 202.49985,170.95245 L 195.068257,162.680515 L 187.413159,154.866486 L 179.595076,147.562688 L 171.677062,140.816485 L 163.724165,134.669929 L 155.802872,129.159453 L 147.980539,124.315626 L 140.324797,120.162947 L 132.902965,116.719707 L 125.781454,113.997894 L 119.025172,112.003164 L 112.696946,110.734863 L 106.856951,110.186105 L 101.562157,110.343902 L 96.865808,111.189356 L 92.816922,112.697889 L 89.459829,114.839534 L 86.833741,117.579261 L 84.972369,120.877358 L 83.903585,124.689837 L 83.649123,128.968888 L 84.224347,133.663356 L 85.638054,138.719247 L 87.892348,144.080257 L 90.982558,149.688316 L 94.897224,155.484144 L 99.61813,161.407817 L 105.120408,167.399331 L 111.372683,173.399164 L 118.337288,179.348828 L 125.970529,185.191412 L 134.222995,190.872101 L 143.039932,196.338673 L 152.361648,201.541973 L 162.123978,206.43635 L 172.258774,210.980059 L 182.694438,215.135627 L 193.356486,218.870174 L 204.168139,222.155686 L 215.050932,224.969249 L 225.92534,227.293222 L 236.711421,229.115368 L 247.329454,230.428928 L 257.70059,231.232645 L 267.747487,231.530735 L 277.394937,231.332801 L 286.570486,230.653704 L 295.205014,229.513374 L 303.233309,227.936585 L 310.594598,225.952672 L 317.233043,223.595212 L 323.0982,220.901662 L 328.145437,217.912962 L 332.336294,214.673107 L 335.638805,211.228682 L 338.02776,207.628383 L 339.48491,203.922509 L 339.99912,200.162448 L 339.566461,196.400144 L 338.190239,192.687565 L 335.88097,189.076167 L 332.656296,185.616364 L 328.540834,182.357011 L 323.565978,179.344895 L 317.769638,176.62425 L 311.195931,174.236297 " fill="rgba(255,0,255,0.7)" stroke="none"/>
  <path d="M 238.077114,170.68866 L 227.308049,172.44618 L 216.44046,174.706695 L 205.554296,177.458664 L 194.729171,180.68513 L 184.043721,184.363842 L 173.574976,188.467426 L 163.397744,192.963607 L 153.584023,197.815482 L 144.202433,202.981832 L 135.317675,208.417481 L 126.990037,214.073698 L 119.274928,219.898629 L 112.222461,225.83776 L 105.87708,231.834419 L 100.277236,237.830291 L 95.455117,243.765954 L 91.436435,249.581435 L 88.240259,255.216768 L 85.878914,260.61256 L 84.357938,265.710555 L 83.676089,270.454193 L 83.825416,274.789155 L 84.791385,278.663897 L 86.553061,282.030152 L 89.083342,284.843422 L 92.349242,287.063423 L 96.31223,288.654508 L 100.928608,289.586043 L 106.14993,289.832747 L 111.923465,289.374981 L 118.192688,288.198994 L 124.897804,286.297112 L 131.976292,283.66788 L 139.363479,280.316147 L 146.993111,276.253094 L 154.797954,271.49621 L 162.71038,266.069212 L 170.662969,260.001901 L 178.58909,253.329978 L 186.423478,246.094792 L 194.102797,238.343047 L 201.566173,230.126458 L 208.755707,221.501355 L 215.61696,212.528251 L 222.099391,203.271369 L 228.156774,193.798132 L 233.747554,184.178621 L 238.835178,174.485013 L 243.388359,164.790987 L 247.381304,155.171121 L 250.793883,145.700276 L 253.61175,136.452972 L 255.826402,127.502767 L 257.435196,118.921632 L 258.4413,110.779348 L 258.8536,103.142908 L 258.686548,96.075942 L 257.959962,89.638175 L 256.698781,83.8849 L 254.932766,78.866503 L 252.696169,74.628011 L 250.027348,71.208696 L 246.968359,68.641718 L 243.564508,66.953817 L 239.863879,66.165065 L 235.916834,66.288663 L 231.775498,67.330804 L 227.493231,69.290584 L 223.124086,72.159982 L 218.722266,75.923891 L 214.341585,80.560212 L 210.034927,86.040007 L 205.853728,92.327705 L 201.847462,99.381369 L 198.063154,107.15301 L 194.54492,115.588959 L 191.333531,124.630281 L 188.466014,134.213236 L 185.975293,144.269777 L 183.889861,154.728091 L 182.233508,165.513165 L 181.025085,176.54738 L 180.278322,187.751134 L 180.001694,199.043469 L 180.19834,210.342723 L 180.866028,221.567176 L 181.997182,232.635709 L 183.578953,243.468442 L 185.593344,253.987378 L 188.017385,264.117022 L 190.823361,273.784977 L 193.979077,282.922522 L 197.448175,291.465151 L 201.190489,299.353083 L 205.162441,306.531728 L 209.317465,312.952108 L 213.606467,318.57124 L 217.978311,323.352456 L 222.380318,327.265679 L 226.758795,330.287641 L 231.059567,332.402045 L 235.228517,333.599666 L 239.21213,333.878397 L 242.958035,333.243235 L 246.415534,331.706204 L 249.536124,329.286225 L 252.273993,326.008928 L 254.586505,321.906407 L 256.434644,317.016922 L 257.783439,311.384555 L 258.602342,305.058815 L 258.865577,298.094198 L 258.552442,290.549715 L 257.64756,282.488374 L 256.141094,273.976638 L 254.028899,265.083857 L 251.312632,255.881676 L 247.999802,246.443425 L 244.10377,236.843508 L 239.643696,227.156769 L 234.644425,217.457881 L 229.136327,207.820716 L 223.155085,198.317747 L 216.741427,189.019451 L 209.940816,179.993737 L 202.803087,171.305408 L 195.382052,163.015639 L 187.735059,155.181499 L 179.922511,147.855512 L 172.007367,141.085254 L 164.054604,134.913005 L 156.13066,129.375437 L 148.302865,124.503366 L 140.638853,120.321548 L 133.205966,116.848533 L 126.070664,114.096574 L 119.297932,112.071589 L 112.950693,110.773184 L 107.089243,110.194731 L 101.770696,110.323493 L 97.048462,111.140812 L 92.971745,112.622342 L 89.585075,114.738331 L 86.927888,117.453956 L 85.03413,120.72969 L 83.931921,124.521713 L 83.643257,128.782367 L 84.183769,133.460623 L 85.562532,138.502598 L 87.781928,143.85207 L 90.837571,149.451033 L 94.71828,155.240247 L 99.40612,161.159802 L 104.876497,167.149687 L 111.098301,173.150348 L 118.034125,179.103244 L 125.640516,184.951388 L 133.868296,190.639866 L 142.662924,196.116341 L 151.964905,201.331521 L 161.710251,206.239599 L 171.830967,210.798663 L 182.255589,214.971054 L 192.909743,218.723696 L 203.71673,222.028367 L 214.598145,224.861938 L 225.474494,227.206544 L 236.265838,229.049724 L 246.892436,230.384489 L 257.275389,231.209355 L 267.337279,231.528309 L 277.002799,231.350735 L 286.199367,230.691277 L 294.857713,229.56966 L 302.912453,228.010461 L 310.302618,226.042832 L 316.972155,223.700179 L 322.870389,221.019807 L 327.952437,218.042521 L 332.179576,214.812195 L 335.519566,211.375317 L 337.94691,207.780504 L 339.443067,204.078001 L 339.996604,200.31916 L 339.603291,196.555912 L 338.266133,192.840236 L 335.995349,189.223618 L 332.808286,185.756528 L 328.729275,182.487894 L 323.789433,179.4646 L 318.026406,176.730994 L 311.484058,174.328434 L 304.212111,172.294844 L 296.26574,170.664317 L 287.705113,169.46675 L 278.594907,168.727515 L 269.00377,168.467175 L 259.003765,168.701251 L 248.66978,169.440025 L 238.078921,170.688406 L 227.309879,172.44584 L 216.442299,174.706271 L 205.556132,177.458159 L 194.73099,180.684546 L 184.04551,184.363184 L 173.576722,188.466699 L 163.399434,192.962817 L 153.585647,197.814635 L 144.203977,202.980935 L 135.31913,208.416543 L 126.991393,214.072727 L 119.276177,219.897633 L 112.223594,225.83675 L 105.87809,231.833405 L 100.278117,237.829281 L 95.455865,243.76496 L 91.437045,249.580466 L 88.240728,255.215835 L 85.879242,260.611672 L 84.358124,265.709722 L 83.676133,270.453424 L 83.825321,274.78846 L 84.791154,278.663284 L 86.552698,282.029629 L 89.082851,284.842996 L 92.34863,287.0631 L 96.311504,288.654294 L 100.927776,289.585943 L 106.149,289.832764 L 111.922447,289.375119 L 118.191591,288.199254 L 124.896638,286.297495 L 131.975069,283.668386 L 139.362208,280.316773 L 146.991805,276.253839 L 154.796624,271.497071 L 162.709038,266.070184 L 170.661626,260.002978 L 178.587757,253.331154 L 186.422166,246.096059 L 194.101516,238.344398 L 201.564933,230.127882 L 208.754519,221.502843 L 215.615832,212.529792 L 222.098331,203.272953 L 228.155789,193.799746 L 233.746651,184.180255 L 238.834363,174.486653 L 243.387637,164.79262 L 247.380678,155.172735 L 250.793357,145.701859 L 253.611324,136.454511 L 255.826079,127.50425 L 257.434975,118.923047 L 258.441181,110.780683 L 258.85358,103.144151 L 258.686624,96.077085 L 257.960131,89.639206 L 256.699037,83.885811 L 254.933105,78.867286 L 252.696584,74.628659 L 250.027833,71.209203 L 246.968906,68.642078 L 243.565109,66.954027 L 239.864526,66.165121 L 235.917518,66.288565 L 231.776211,67.33055 L 227.493964,69.290176 L 223.124828,72.159422 L 218.72301,75.923181 L 214.34232,80.559357 L 210.035645,86.039012 L 205.854421,92.326577 L 201.848121,99.380115 L 198.063772,107.151639 L 194.545489,115.587481 L 191.334045,124.628706 L 188.466468,134.211575 L 185.97568,144.268042 L 183.890178,154.726295 L 182.233751,165.51132 L 181.02525,176.5455 L 180.278409,187.749231 L 180.001701,199.041558 L 180.198267,210.340818 L 180.865876,221.565291 L 181.996952,232.633856 L 183.578648,243.466636 L 185.592968,253.985632 L 188.016943,264.115348 L 190.822857,273.783387 L 193.978516,282.921027 L 197.447564,291.463762 L 201.189836,299.351809 L 205.161753,306.530578 L 209.31675,312.95109 L 213.605734,318.570361 L 217.977568,323.351721 L 222.379574,327.265092 L 226.75806,330.287207 L 231.05885,332.401765 L 235.227826,333.599541 L 239.211476,333.878428 L 242.957425,333.243419 L 246.414977,331.706539 L 249.535628,329.286707 L 252.273566,326.009552 L 254.586152,321.907167 L 256.434373,317.017812 L 257.783255,311.385566 L 258.60225,305.059939 L 258.865581,298.095426 L 258.552545,290.551035 L 257.647764,282.489775 L 256.1414,273.97811 L 254.029307,265.085387 L 251.313142,255.883252 L 248.000411,246.445036 L 244.104477,236.845139 L 239.644496,227.158409 L 234.645313,217.459516 L 229.137298,207.822335 L 223.156133,198.319337 L 216.742545,189.021 L 209.941994,179.995235 L 202.804318,171.306844 L 195.383327,163.017002 L 187.736366,155.182781 L 179.923841,147.856704 L 172.008709,141.086349 L 164.055947,134.913995 L 156.131992,129.376317 L 148.304176,124.504131 L 140.64013,120.322195 L 133.207198,116.84906 L 126.071841,114.096977 L 119.299042,112.071869 L 112.951726,110.773343 L 107.090189,110.194769 L 101.771546,110.323413 L 97.049207,111.140617 L 92.972376,112.622037 L 89.585587,114.737922 L 86.928273,117.453449 L 85.034384,120.729091 L 83.932039,124.521032 L 83.643236,128.78161 L 84.183608,133.459801 L 85.562228,138.501718 L 87.781483,143.851144 L 90.836984,149.450069 L 94.717555,155.239256 L 99.405262,161.158794 L 104.875508,167.148672 L 111.097189,173.149337 L 118.032895,179.102246 L 125.639177,184.950412 L 133.866857,190.638922 L 142.661393,196.115437 L 151.963295,201.330664 L 161.708571,206.238799 L 171.82923,210.797925 L 182.253807,214.970384 L 192.907928,218.723099 L 203.714896,222.027848 L 214.596305,224.8615 L 225.472661,227.20619 L 236.264026,229.049455 L 246.890659,230.384307 L 257.273659,231.209258 L 267.33561,231.528298 L 277.001204,231.350806 L 286.197857,230.691428 L 294.8563,229.569887 L 302.911147,228.01076 L 310.301429,226.043197 L 316.971092,223.700604 L 322.869461,221.020286 L 327.951649,218.043046 L 332.178936,214.812759 L 335.519078,211.375912 L 337.946578,207.781122 L 339.442894,204.078633 L 339.996591,200.319796 L 339.603437,196.556545 L 338.266438,192.840856 L 335.995811,189.224218 L 332.8089,185.757099 L 328.730038,182.488427 L 323.790338,179.465087 L 318.027447,176.731429 L 311.485226,174.328809 L 304.213398,172.295154 L 296.267136,170.664557 L 287.706608,169.466915 L 278.596489,168.7276 L 269.005427,168.467178 L 259.005484,168.701169 L 248.67155,169.439857 L 238.080727,170.688152 L 227.311709,172.445501 L 216.444139,174.705847 L 205.557968,177.457653 L 194.732809,180.683962 L 184.047299,184.362526 L 173.578468,188.465971 L 163.401125,192.962026 L 153.58727,197.813787 L 144.205522,202.980038 L 135.320586,208.415604 L 126.99275,214.071756 L 119.277425,219.896638 L 112.224727,225.83574 L 105.8791,231.83239 L 100.278998,237.828272 L 95.456612,243.763966 L 91.437655,249.579498 L 88.241198,255.214901 L 85.87957,260.610784 L 84.35831,265.708889 L 83.676178,270.452656 L 83.825226,274.787766 L 84.790923,278.662671 L 86.552335,282.029106 L 89.082361,284.84257 L 92.348018,287.062777 L 96.310779,288.65408 L 100.926944,289.585842 L 106.14807,289.832781 L 111.921428,289.375256 L 118.190493,288.199514 L 124.895472,286.297878 L 131.973845,283.668891 L 139.360938,280.3174 L 146.9905,276.254585 L 154.795295,271.497932 L 162.707696,266.071155 L 170.660283,260.004055 L 178.586424,253.33233 L 186.420854,246.097326 L 194.100235,238.345748 L 201.563694,230.129307 L 208.753331,221.504331 L 215.614703,212.531334 L 222.097271,203.274537 L 228.154804,193.801361 L 233.745749,184.181888 L 238.833548,174.488293 L 243.386914,164.794254 L 247.380052,155.17435 L 250.79283,145.703442 L 253.610899,136.456051 L 255.825756,127.505733 L 257.434754,118.924461 L 258.441061,110.782018 L 258.85356,103.145395 L 258.6867,96.078227 L 257.960299,89.640237 L 256.699294,83.886723 L 254.933444,78.868069 L 252.697,74.629307 L 250.028318,71.209709 L 246.969453,68.642438 L 243.565711,66.954236 L 239.865174,66.165178 L 235.918203,66.288467 L 231.776924,67.330297 L 227.494696,69.289768 L 223.125571,72.158861 L 218.723753,75.922471 L 214.343055,80.558502 L 210.036364,86.038017 L 205.855114,92.325449 L 201.84878,99.378861 L 198.06439,107.150269 L 194.546059,115.586003 L 191.334559,124.627131 L 188.466921,134.209914 L 185.976068,144.266308 L 183.890495,154.724498 L 182.233993,165.509474 L 181.025416,176.543619 L 180.278495,187.747329 L 180.001708,199.039648 L 180.198194,210.338913 L 180.865724,221.563406 L 181.996723,232.632004 L 183.578344,243.46483 L 185.592592,253.983886 L 188.0165,264.113674 L 190.822352,273.781797 L 193.977956,282.919532 L 197.446954,291.462372 L 201.189183,299.350535 L 205.161065,306.529428 L 209.316035,312.950072 L 213.605001,318.569481 L 217.976825,323.350986 L 222.378831,327.264506 L 226.757326,330.286772 L 231.058133,332.401485 L 235.227136,333.599416 L 239.210821,333.878458 L 242.956815,333.243603 L 246.41442,331.706874 L 249.535132,329.287189 L 252.273138,326.010177 L 254.5858,321.907928 L 256.434102,317.018702 L 257.783071,311.386578 L 258.602157,305.061063 L 258.865585,298.096653 L 258.552647,290.552355 L 257.647967,282.491177 L 256.141705,273.979582 L 254.029715,265.086918 L 251.313651,255.884829 L 248.001021,246.446646 L 244.105183,236.84677 L 239.645296,227.160048 L 234.646201,217.461152 L 229.13827,207.823954 L 223.157181,198.320927 L 216.743662,189.02255 L 209.943173,179.996734 L 202.805549,171.30828 L 195.384601,163.018366 L 187.737674,155.184063 L 179.925172,147.857896 L 172.010052,141.087443 L 164.05729,134.914985 L 156.133325,129.377197 L 148.305486,124.504897 L 140.641407,120.322842 L 133.208431,116.849586 L 126.073018,114.097381 L 119.300152,112.07215 L 112.952759,110.773501 L 107.091135,110.194806 L 101.772395,110.323332 L 97.049951,111.140422 L 92.973008,112.621732 L 89.586098,114.737513 L 86.928659,117.452942 L 85.034638,120.728493 L 83.932157,124.52035 L 83.643215,128.780854 L 84.183446,133.458978 L 85.561924,138.500839 L 87.781037,143.850217 L 90.836398,149.449106 L 94.716831,155.238265 L 99.404403,161.157787 L 104.87452,167.147658 L 111.096076,173.148325 L 118.031666,179.101247 L 125.637838,184.949436 L 133.865417,190.637977 L 142.659863,196.114532 L 151.961684,201.329808 L 161.706891,206.237998 L 171.827492,210.797186 L 182.252024,214.969714 L 192.906113,218.722502 L 203.713062,222.027329 L 214.594465,224.861062 L 225.470829,227.205836 L 236.262215,229.049187 L 246.888882,230.384124 L 257.27193,231.209162 L 267.333942,231.528286 L 276.999609,231.350877 L 286.196347,230.691579 L 294.854886,229.570114 L 302.909841,228.011059 L 310.30024,226.043562 L 316.970029,223.70103 L 322.868532,221.020765 L 327.950862,218.043572 L 332.178296,214.813324 L 335.518591,211.376507 L 337.946246,207.78174 L 339.442721,204.079264 L 339.996577,200.320433 L 339.603584,196.557178 L 338.266743,192.841477 L 335.996272,189.224818 L 332.809515,185.757669 L 328.7308,182.48896 L 323.791244,179.465575 L 318.028487,176.731864 L 311.486394,174.329185 L 304.214685,172.295464 L 296.268532,170.664796 L 287.708102,169.467079 L 278.59807,168.727685 L 269.007083,168.467181 L 259.007204,168.701087 L 248.67332,169.439689 L 238.082534,170.687898 L 227.313539,172.445161 L 216.445979,174.705424 L 205.559804,177.457148 L 194.734629,180.683379 L 184.049088,184.361868 L 173.580214,188.465244 L 163.402816,192.961235 L 153.588893,197.81294 L 144.207067,202.979141 L 135.322041,208.414666 L 126.994106,214.070785 L 119.278674,219.895643 L 112.22586,225.83473 L 105.88011,231.831375 L 100.279879,237.827262 L 95.45736,243.762971 L 91.438265,249.578529 L 88.241668,255.213968 L 85.879898,260.609896 L 84.358496,265.708056 L 83.676223,270.451888 L 83.825132,274.787071 L 84.790692,278.662058 L 86.551971,282.028583 L 89.08187,284.842143 L 92.347407,287.062455 L 96.310053,288.653866 L 100.926111,289.585742 L 106.14714,289.832799 L 111.920409,289.375394 L 118.189395,288.199773 L 124.894306,286.29826 L 131.972621,283.669396 L 139.359668,280.318027 L 146.989194,276.25533 L 154.793965,271.498793 L 162.706355,266.072127 L 170.65894,260.005133 L 178.585091,253.333506 L 186.419542,246.098594 L 194.098955,238.347098 L 201.562455,230.130731 L 208.752143,221.505819 L 215.613575,212.532876 L 222.09621,203.276121 L 228.153819,193.802976 L 233.744846,184.183522 L 238.832733,174.489932 L 243.386192,164.795887 L 247.379426,155.175965 L 250.792304,145.705025 L 253.610474,136.45759 L 255.825433,127.507216 L 257.434533,118.925876 L 258.440942,110.783352 L 258.853539,103.146639 L 258.686776,96.079369 L 257.960468,89.641268 L 256.69955,83.887634 L 254.933784,78.868852 L 252.697415,74.629955 L 250.028803,71.210216 L 246.97,68.642798 L 243.566312,66.954446 L 239.865821,66.165234 L 235.918888,66.288368 L 231.777637,67.330043 L 227.495428,69.28936 L 223.126313,72.1583 L 218.724496,75.921761 L 214.34379,80.557646 L 210.037082,86.037022 L 205.855807,92.324321 L 201.84944,99.377608 L 198.065008,107.148898 L 194.546628,115.584525 L 191.335074,124.625557 L 188.467375,134.208254 L 185.976455,144.264573 L 183.890811,154.722702 L 182.234236,165.507629 L 181.025581,176.541739 L 180.278582,187.745426 L 180.001715,199.037737 L 180.19812,210.337008 L 180.865571,221.56152 L 181.996493,232.630152 L 183.57804,243.463025 L 185.592217,253.98214 L 188.016058,264.111999 L 190.821848,273.780206 L 193.977395,282.918037 L 197.446344,291.460983 L 201.18853,299.349261 L 205.160377,306.528278 L 209.315321,312.949054 L 213.604268,318.568602 L 217.976083,323.35025 L 222.378088,327.26392 L 226.756591,330.286338 L 231.057416,332.401205 L 235.226446,333.599292 L 239.210167,333.878488 L 242.956205,333.243787 L 246.413863,331.707208 L 249.534635,329.287671 L 252.27271,326.010801 L 254.585447,321.908689 L 256.433831,317.019592 L 257.782887,311.387589 L 258.602065,305.062187 L 258.865588,298.09788 L 258.552749,290.553675 L 257.648171,282.492579 L 256.142011,273.981054 L 254.030123,265.088448 L 251.314161,255.886405 L 248.00163,246.448256 L 244.10589,236.848401 L 239.646095,227.161688 L 234.64709,217.462787 L 229.139242,207.825573 L 223.15823,198.322518 L 216.74478,189.0241 L 209.944352,179.998232 L 202.806781,171.309716 L 195.385876,163.019729 L 187.738981,155.185345 L 179.926502,147.859087 L 172.011394,141.088537 L 164.058632,134.915975 L 156.134657,129.378077 L 148.306797,124.505662 L 140.642684,120.323489 L 133.209663,116.850112 L 126.074194,114.097785 L 119.301262,112.072431 L 112.953792,110.773659 L 107.09208,110.194844 L 101.773245,110.323252 L 97.050696,111.140227 L 92.973639,112.621427 L 89.58661,114.737104 L 86.929044,117.452435 L 85.034892,120.727895 L 83.932275,124.519669 L 83.643195,128.780097 L 84.183284,133.458156 L 85.56162,138.49996 L 87.780591,143.849291 L 90.835812,149.448142 L 94.716107,155.237274 L 99.403544,161.156779 L 104.873531,167.146643 L 111.094964,173.147314 L 118.030436,179.100249 L 125.636499,184.94846 L 133.863978,190.637033 L 142.658333,196.113628 L 151.960073,201.328952 L 161.705211,206.237197 L 171.825755,210.796448 L 182.250242,214.969044 L 192.904298,218.721905 L 203.711228,222.02681 L 214.592625,224.860624 L 225.468996,227.205482 L 236.260403,229.048918 L 246.887105,230.383942 L 257.270201,231.209065 L 267.332274,231.528274 L 276.998014,231.350949 L 286.194836,230.69173 L 294.853473,229.570342 L 302.908535,228.011357 L 310.299051,226.043927 L 316.968966,223.701455 L 322.867603,221.021245 L 327.950075,218.044098 L 332.177656,214.813888 L 335.518103,211.377103 L 337.945915,207.782357 L 339.442547,204.079896 L 339.996564,200.32107 L 339.60373,196.557812 L 338.267048,192.842098 L 335.996734,189.225417 L 332.810129,185.758239 L 328.731563,182.489493 L 323.792149,179.466062 L 318.029528,176.732299 L 311.487563,174.329561 L 304.215972,172.295775 L 296.269928,170.665036 L 287.709597,169.467243 L 278.599652,168.72777 L 269.00874,168.467183 L 259.008924,168.701005 L 248.675089,169.439521 L 238.08434,170.687644 L 227.315369,172.444821 L 216.447818,174.705 L 205.56164,177.456642 L 194.736448,180.682795 L 184.050877,184.36121 L 173.58196,188.464517 L 163.404506,192.960445 L 153.590516,197.812093 L 144.208611,202.978244 L 135.323497,208.413728 L 126.995463,214.069813 L 119.279923,219.894648 L 112.226993,225.833721 L 105.88112,231.830361 L 100.28076,237.826253 L 95.458107,243.761977 L 91.438875,249.57756 L 88.242137,255.213034 L 85.880226,260.609008 L 84.358682,265.707223 L 83.676268,270.451119 L 83.825037,274.786376 L 84.790461,278.661445 L 86.551608,282.02806 L 89.081379,284.841717 L 92.346795,287.062132 L 96.309327,288.653652 L 100.925279,289.585642 L 106.14621,289.832816 L 111.91939,289.375532 L 118.188298,288.200033 L 124.89314,286.298643 L 131.971398,283.669902 L 139.358398,280.318653 L 146.987889,276.256076 L 154.792636,271.499654 L 162.705013,266.073099 L 170.657597,260.00621 L 178.583758,253.334681 L 186.41823,246.099861 L 194.097674,238.348449 L 201.561215,230.132155 L 208.750954,221.507308 L 215.612446,212.534417 L 222.09515,203.277705 L 228.152834,193.80459 L 233.743943,184.185155 L 238.831918,174.491572 L 243.385469,164.797521 L 247.3788,155.177579 L 250.791777,145.706608 L 253.610049,136.459129 L 255.82511,127.508698 L 257.434313,118.927291 L 258.440822,110.784687 L 258.853519,103.147883 L 258.686852,96.080512 L 257.960636,89.6423 L 256.699807,83.888545 L 254.934123,78.869635 L 252.697831,74.630603 L 250.029288,71.210722 L 246.970547,68.643158 L 243.566914,66.954656 L 239.866468,66.165291 L 235.919572,66.28827 L 231.77835,67.32979 L 227.49616,69.288952 L 223.127056,72.157739 L 218.72524,75.92105 L 214.344526,80.556791 L 210.037801,86.036027 L 205.8565,92.323193 L 201.850099,99.376354 L 198.065626,107.147528 L 194.547198,115.583047 L 191.335588,124.623982 L 188.467828,134.206593 L 185.976842,144.262838 L 183.891128,154.720905 L 182.234478,165.505784 L 181.025747,176.539858 L 180.278669,187.743524 L 180.001722,199.035827 L 180.198047,210.335103 L 180.865419,221.559635 L 181.996264,232.6283 L 183.577736,243.461219 L 185.591841,253.980393 L 188.015615,264.110325 L 190.821343,273.778616 L 193.976834,282.916541 L 197.445733,291.459593 L 201.187877,299.347987 L 205.159689,306.527128 L 209.314606,312.948036 L 213.603535,318.567722 L 217.97534,323.349515 L 222.377345,327.263333 L 226.755856,330.285904 L 231.056699,332.400925 L 235.225756,333.599167 L 239.209513,333.878518 L 242.955596,333.243971 L 246.413306,331.707543 L 249.534139,329.288153 L 252.272282,326.011425 L 254.585095,321.909449 L 256.43356,317.020482 L 257.782703,311.388601 L 258.601973,305.063311 L 258.865592,298.099107 L 258.552852,290.554995 L 257.648374,282.493981 L 256.142317,273.982526 L 254.030531,265.089979 L 251.31467,255.887982 L 248.002239,246.449866 L 244.106596,236.850032 L 239.646895,227.163328 L 234.647978,217.464422 L 229.140213,207.827191 L 223.159278,198.324108 L 216.745897,189.025649 L 209.945531,179.99973 L 202.808012,171.311152 L 195.38715,163.021093 L 187.740289,155.186627 L 179.927832,147.860279 L 172.012736,141.089632 L 164.059975,134.916965 L 156.13599,129.378957 L 148.308107,124.506428 L 140.643961,120.324136 L 133.210895,116.850638 L 126.075371,114.098188 L 119.302372,112.072711 L 112.954825,110.773818 L 107.093026,110.194882 L 101.774095,110.323171 L 97.051441,111.140033 L 92.974271,112.621123 L 89.587122,114.736695 L 86.929429,117.451928 L 85.035146,120.727297 L 83.932393,124.518987 L 83.643174,128.779341 L 84.183122,133.457333 L 85.561317,138.49908 L 87.780145,143.848364 L 90.835226,149.447179 L 94.715382,155.236284 L 99.402685,161.155771 L 104.872543,167.145629 L 111.093852,173.146303 L 118.029207,179.099251 L 125.635161,184.947484 L 133.862539,190.636088 L 142.656803,196.112723 L 151.958463,201.328095 L 161.703531,206.236396 L 171.824017,210.795709 L 182.248459,214.968373 L 192.902483,218.721308 L 203.709394,222.026291 L 214.590785,224.860186 L 225.467164,227.205128 L 236.258592,229.048649 L 246.885328,230.383759 L 257.268472,231.208969 L 267.330605,231.528263 L 276.996418,231.35102 L 286.193326,230.691881 L 294.852059,229.570569 L 302.907228,228.011656 L 310.297862,226.044292 L 316.967903,223.70188 L 322.866674,221.021724 L 327.949287,218.044623 L 332.177016,214.814453 L 335.517615,211.377698 L 337.945583,207.782975 L 339.442374,204.080528 L 339.99655,200.321707 L 339.603876,196.558445 L 338.267353,192.842719 L 335.997195,189.226017 L 332.810744,185.758809 L 328.732326,182.490025 L 323.793054,179.46655 L 318.030569,176.732734 L 311.488731,174.329937 L 304.217259,172.296085 L 296.271324,170.665276 L 287.711091,169.467407 L 278.601233,168.727855 L 269.010397,168.467186 L 259.010643,168.700923 L 248.676859,169.439354 L 238.086147,170.68739 " fill="rgba(255,255,0,0.7)" stroke="none"/>
  <path d="M 153.990342,197.603843 L 144.589157,202.757795 L 135.682158,208.18303 L 127.329827,213.830958 L 119.587789,219.649846 L 112.506388,225.585286 L 106.130314,231.580685 L 100.498278,237.577786 L 95.642737,243.517205 L 91.58968,249.338978 L 88.358459,254.983129 L 85.961686,260.390229 L 84.405185,265.501962 L 83.688,270.261687 L 83.802461,274.614979 L 84.73431,278.510164 L 86.462877,281.89883 L 88.961314,284.736307 L 92.196879,286.982126 L 96.131267,288.600436 L 100.72099,289.560385 L 105.917794,289.836458 L 111.669118,289.408774 L 117.918589,288.263328 L 124.606537,286.392185 L 131.670548,283.793628 L 139.046024,280.472235 L 146.666769,276.438923 L 154.465577,271.710915 L 162.374827,266.311665 L 170.327074,260.270724 L 178.255645,253.623546 L 186.095205,246.411247 L 193.782326,238.680313 L 201.256018,230.482253 L 208.458249,221.873211 L 215.334422,212.913534 L 221.833824,203.667297 L 227.910037,194.201799 L 233.521306,184.587021 L 238.630857,174.895061 L 243.207177,165.199548 L 247.224237,155.575034 L 250.661666,146.096381 L 253.50487,136.838137 L 255.7451,127.873911 L 257.379465,119.275756 L 258.410891,111.113555 L 258.848023,103.454431 L 258.705082,96.36217 L 258.001665,89.89667 L 256.762499,84.113423 L 255.017149,79.06303 L 252.799683,74.790754 L 250.148296,71.336117 L 247.104894,68.732544 L 243.714658,67.007052 L 240.025562,66.179998 L 236.087883,66.264878 L 231.953683,67.268182 L 227.676279,69.189308 L 223.309707,72.020534 L 218.908174,75.747052 L 214.525521,80.347055 L 210.214684,85.79189 L 206.027168,92.046262 L 202.012542,99.068496 L 198.217942,106.810853 L 194.687618,115.219894 L 191.462489,124.236899 L 188.57975,133.79832 L 186.072502,143.836283 L 183.969433,154.279121 L 182.294536,165.051944 L 181.066875,176.077233 L 180.3004,187.275454 L 180.00381,198.565697 L 180.180469,209.866313 L 180.828373,221.095574 L 181.940171,232.17232 L 183.503233,243.016609 L 185.499778,253.550349 L 187.907042,263.697927 L 190.697503,273.386805 L 193.839151,282.548094 L 197.295797,291.1171 L 201.027428,299.033833 L 204.990601,306.243474 L 209.138868,312.696801 L 213.423232,318.35057 L 217.792633,323.16784 L 222.194446,327.118251 L 226.575012,330.178245 L 230.880164,332.331226 L 235.055771,333.56767 L 239.048284,333.88517 L 242.80527,333.288422 L 246.275952,331.789157 L 249.411722,329.406007 L 252.166646,326.164323 L 254.497944,322.095932 L 256.366439,317.238841 L 257.736979,311.636894 L 258.578824,305.339377 L 258.865989,298.400587 L 258.577553,290.879352 L 257.697909,282.838524 L 256.216982,274.344431 L 254.130384,265.466312 L 251.439526,256.275728 L 248.151669,246.845951 L 244.279928,237.25135 L 239.843219,227.566765 L 234.86615,217.866888 L 229.378863,208.225638 L 223.416821,198.715558 L 217.020543,189.40722 L 210.2353,180.368657 L 203.110751,171.66481 L 195.700548,163.357018 L 188.061898,155.502533 L 180.255087,148.15408 L 172.342975,141.359451 L 164.390465,135.161156 L 156.463946,129.59611 L 148.630721,124.695381 L 140.958423,120.483983 L 133.514419,116.980732 L 126.365219,114.198146 L 119.57588,112.142413 L 113.209425,110.813404 L 107.326272,110.204751 L 101.983682,110.303973 L 97.23523,111.092656 L 93.130306,112.54669 L 89.71365,114.636546 L 87.024918,117.327607 L 85.098298,120.580536 L 83.96216,124.351687 L 83.638765,128.593553 L 84.144017,133.255239 L 85.487272,138.282971 L 87.671195,143.620615 L 90.691688,149.21023 L 94.537857,154.992616 L 99.192051,160.90788 L 104.629952,166.896004 L 110.820725,172.897403 L 117.727222,178.853483 L 125.30624,184.707179 L 133.508836,190.403481 L 142.280686,195.889933 L 151.562499,201.117103 L 161.290463,206.039032 L 171.396745,210.613634 L 181.810014,214.803063 L 192.456008,218.574043 L 203.258116,221.898144 L 214.137989,224.752015 L 225.016168,227.117569 L 235.81272,228.982112 L 246.447882,230.338424 L 256.842707,231.184789 L 266.919701,231.524964 L 276.603456,231.368106 L 285.821262,230.728642 L 294.503698,229.626085 L 302.585204,228.084814 L 310.004615,226.133792 L 316.70566,223.806254 L 322.637429,221.139347 L 327.754785,218.173737 L 332.01874,214.953177 L 335.396772,211.524055 L 337.863097,207.934907 L 339.398875,204.235921 L 339.99237,200.478411 L 339.639048,196.714297 L 338.341607,192.995564 L 336.109964,189.373731 L 332.961166,185.899322 L 328.919254,182.62134 L 324.015063,179.586763 L 318.285967,176.840061 L 311.775576,174.422722 L 304.533372,172.372826 L 296.614309,170.724636 L 288.078354,169.508233 L 278.990002,168.749184 L 269.417747,168.468263 L 259.433518,168.681205 L 249.112096,169.39852 L 238.530506,170.625346 L 227.767385,172.361358 L 216.90235,174.600734 L 206.015353,177.332165 L 195.186033,180.53892 L 184.493081,184.198971 L 174.013607,188.285155 L 163.822527,192.765402 L 153.991969,197.602998 L 144.590706,202.7569 L 135.683617,208.182093 L 127.331188,213.829988 L 119.589042,219.648852 L 112.507526,225.584277 L 106.131329,231.57967 L 100.499164,237.576776 L 95.64349,243.516209 L 91.590296,249.338008 L 88.358934,254.982194 L 85.96202,260.389339 L 84.405377,265.501127 L 83.688051,270.260916 L 83.802373,274.614281 L 84.734085,278.509548 L 86.462519,281.898303 L 88.960828,284.735877 L 92.196272,286.981799 L 96.130546,288.600218 L 100.720162,289.56028 L 105.916868,289.83647 L 111.668103,289.408907 L 117.917495,288.263582 L 124.605374,286.392563 L 131.669326,283.794128 L 139.044755,280.472857 L 146.665465,276.439664 L 154.464249,271.711771 L 162.373485,266.312633 L 170.325731,260.271797 L 178.254311,253.624717 L 186.093892,246.41251 L 193.781044,238.68166 L 201.254777,230.483674 L 208.457058,221.874697 L 215.33329,212.915073 L 221.83276,203.668879 L 227.909049,194.203413 L 233.520399,184.588654 L 238.630038,174.896701 L 243.20645,165.201182 L 247.223607,155.57665 L 250.661135,146.097966 L 253.50444,136.839678 L 255.744772,127.875397 L 257.37924,119.277173 L 258.410767,111.114893 L 258.847999,103.455679 L 258.705154,96.363317 L 258.00183,89.897706 L 256.762752,84.114339 L 255.017485,79.063818 L 252.800096,74.791407 L 250.148778,71.33663 L 247.105439,68.73291 L 243.715257,67.007268 L 240.026208,66.180061 L 236.088566,66.264786 L 231.954395,67.267935 L 227.677011,69.188907 L 223.310449,72.01998 L 218.908918,75.746348 L 214.526257,80.346206 L 210.215403,85.790901 L 206.027863,92.04514 L 202.013202,99.067248 L 198.218562,106.809487 L 194.68819,115.218421 L 191.463006,124.235328 L 188.580206,133.796663 L 186.072892,143.834551 L 183.969752,154.277326 L 182.294781,165.0501 L 181.067044,176.075353 L 180.30049,187.273552 L 180.00382,198.563786 L 180.180399,209.864408 L 180.828224,221.093688 L 181.939944,232.170467 L 183.502932,243.014801 L 185.499405,253.5486 L 187.906602,263.69625 L 190.697001,273.385211 L 193.838593,282.546595 L 197.295188,291.115706 L 201.026776,299.032554 L 204.989914,306.242319 L 209.138154,312.695777 L 213.4225,318.349685 L 217.79189,323.167099 L 222.193703,327.117659 L 226.574277,330.177804 L 230.879446,332.33094 L 235.05508,333.567539 L 239.047628,333.885194 L 242.804658,333.2886 L 246.275393,331.789485 L 249.411223,329.406483 L 252.166216,326.164942 L 254.497588,322.096688 L 256.366164,317.239726 L 257.736791,311.6379 L 258.578727,305.340496 L 258.865989,298.40181 L 258.577651,290.880669 L 257.698108,282.839922 L 256.217283,274.3459 L 254.130788,265.46784 L 251.440031,256.277303 L 248.152274,246.84756 L 244.28063,237.25298 L 239.844015,227.568405 L 234.867035,217.868524 L 229.379831,208.227257 L 223.417866,198.717149 L 217.021658,189.408772 L 210.236476,180.370157 L 203.11198,171.666249 L 195.701821,163.358385 L 188.063204,155.503819 L 180.256416,148.155276 L 172.344317,141.36055 L 164.391808,135.162151 L 156.465279,129.596995 L 148.632033,124.696151 L 140.959701,120.484635 L 133.515653,116.981263 L 126.366398,114.198555 L 119.576993,112.142699 L 113.210462,110.813567 L 107.327222,110.204794 L 101.984536,110.303897 L 97.235979,111.092466 L 93.130942,112.54639 L 89.714167,114.636142 L 87.025309,117.327104 L 85.098557,120.579941 L 83.962283,124.351009 L 83.63875,128.592799 L 84.143862,133.254419 L 85.486974,138.282094 L 87.670756,143.619691 L 90.691108,149.209268 L 94.537138,154.991626 L 99.191197,160.906873 L 104.628969,166.894989 L 110.819618,172.896391 L 117.725997,178.852483 L 125.304905,184.706202 L 133.5074,190.402535 L 142.27916,195.889026 L 151.560891,201.116245 L 161.288786,206.038229 L 171.395009,210.612892 L 181.808233,214.80239 L 192.454194,218.573443 L 203.256282,221.897621 L 214.136149,224.751574 L 225.014335,227.117212 L 235.810907,228.98184 L 246.446103,230.338238 L 256.840975,231.184689 L 266.91803,231.524949 L 276.601858,231.368174 L 285.819748,230.72879 L 294.50228,229.626309 L 302.583893,228.08511 L 310.003421,226.134154 L 316.704592,223.806677 L 322.636494,221.139824 L 327.753992,218.174261 L 332.018094,214.95374 L 335.396278,211.524649 L 337.862758,207.935524 L 339.398695,204.236552 L 339.99235,200.479048 L 339.639187,196.71493 L 338.341906,192.996185 L 336.110419,189.374332 L 332.961774,185.899894 L 328.920011,182.621874 L 324.015962,179.587253 L 318.287002,176.840498 L 311.776739,174.4231 L 304.534655,172.37314 L 296.615701,170.724879 L 288.079845,169.5084 L 278.991581,168.749272 L 269.419401,168.468269 L 259.435235,168.681127 L 249.113864,169.398356 L 238.532311,170.625095 L 227.769214,172.361022 L 216.90419,174.600314 L 206.017189,177.331663 L 195.187853,180.53834 L 184.494872,184.198316 L 174.015355,188.284431 L 163.82422,192.764614 L 153.993595,197.602153 L 144.592254,202.756005 L 135.685077,208.181156 L 127.332549,213.829018 L 119.590296,219.647857 L 112.508664,225.583267 L 106.132345,231.578656 L 100.500051,237.575766 L 95.644243,243.515214 L 91.590911,249.337038 L 88.35941,254.981259 L 85.962354,260.388448 L 84.405569,265.500292 L 83.688102,270.260145 L 83.802284,274.613583 L 84.733859,278.508931 L 86.462161,281.897775 L 88.960343,284.735446 L 92.195665,286.981472 L 96.129824,288.599999 L 100.719334,289.560175 L 105.915941,289.836483 L 111.667088,289.409039 L 117.9164,288.263837 L 124.604211,286.392941 L 131.668105,283.794628 L 139.043487,280.473478 L 146.664161,276.440404 L 154.46292,271.712627 L 162.372143,266.3136 L 170.324388,260.27287 L 178.252978,253.625889 L 186.092579,246.413774 L 193.779761,238.683007 L 201.253536,230.485095 L 208.455868,221.876182 L 215.332159,212.916613 L 221.831697,203.670462 L 227.908061,194.205026 L 233.519493,184.590286 L 238.629219,174.89834 L 243.205724,165.202816 L 247.222977,155.578265 L 250.660604,146.099551 L 253.50401,136.841219 L 255.744445,127.876882 L 257.379015,119.278591 L 258.410644,111.116231 L 258.847974,103.456927 L 258.705226,96.364464 L 258.001995,89.898742 L 256.763005,84.115256 L 255.017821,79.064607 L 252.800508,74.792061 L 250.14926,71.337142 L 247.105984,68.733276 L 243.715857,67.007484 L 240.026853,66.180124 L 236.089249,66.264695 L 231.955107,67.267688 L 227.677743,69.188505 L 223.311191,72.019426 L 218.909661,75.745644 L 214.526993,80.345357 L 210.216123,85.789912 L 206.028557,92.044017 L 202.013863,99.065999 L 198.219182,106.808121 L 194.688761,115.216947 L 191.463523,124.233757 L 188.580662,133.795006 L 186.073282,143.832819 L 183.970072,154.275532 L 182.295027,165.048257 L 181.067213,176.073474 L 180.30058,187.271651 L 180.00383,198.561876 L 180.180329,209.862502 L 180.828075,221.091801 L 181.939718,232.168613 L 183.502631,243.012993 L 185.499032,253.546851 L 187.906162,263.694572 L 190.696499,273.383617 L 193.838034,282.545095 L 197.29458,291.114312 L 201.026125,299.031275 L 204.989228,306.241163 L 209.13744,312.694754 L 213.421768,318.348799 L 217.791148,323.166357 L 222.192959,327.117066 L 226.573542,330.177364 L 230.878728,332.330653 L 235.054388,333.567408 L 239.046972,333.885218 L 242.804046,333.288777 L 246.274833,331.789814 L 249.410724,329.406959 L 252.165785,326.16556 L 254.497232,322.097443 L 256.365889,317.240611 L 257.736603,311.638907 L 258.578631,305.341616 L 258.865989,298.403033 L 258.577749,290.881985 L 257.698307,282.841321 L 256.217584,274.347369 L 254.131191,265.469369 L 251.440536,256.278878 L 248.152879,246.849169 L 244.281333,237.254611 L 239.844811,227.570044 L 234.86792,217.870159 L 229.3808,208.228877 L 223.418911,198.718741 L 217.022773,189.410324 L 210.237652,180.371658 L 203.113209,171.667687 L 195.703093,163.359751 L 188.064511,155.505105 L 180.257746,148.156472 L 172.345659,141.361649 L 164.393151,135.163145 L 156.466612,129.59788 L 148.633344,124.696921 L 140.96098,120.485287 L 133.516888,116.981794 L 126.367577,114.198964 L 119.578106,112.142984 L 113.211498,110.813731 L 107.328172,110.204836 L 101.98539,110.303821 L 97.236728,111.092276 L 93.131579,112.54609 L 89.714683,114.635737 L 87.0257,117.326601 L 85.098816,120.579347 L 83.962407,124.350331 L 83.638735,128.592046 L 84.143706,133.2536 L 85.486676,138.281216 L 87.670316,143.618766 L 90.690527,149.208306 L 94.53642,154.990636 L 99.190344,160.905866 L 104.627986,166.893975 L 110.81851,172.895379 L 117.724772,178.851484 L 125.303571,184.705225 L 133.505965,190.401589 L 142.277633,195.88812 L 151.559284,201.115386 L 161.287109,206.037426 L 171.393274,210.612151 L 181.806452,214.801716 L 192.452381,218.572843 L 203.254448,221.897099 L 214.134309,224.751133 L 225.012502,227.116854 L 235.809095,228.981568 L 246.444325,230.338052 L 256.839244,231.184589 L 266.916359,231.524934 L 276.600259,231.368242 L 285.818234,230.728937 L 294.500862,229.626534 L 302.582582,228.085406 L 310.002226,226.134517 L 316.703523,223.8071 L 322.63556,221.140301 L 327.753198,218.174784 L 332.017447,214.954303 L 335.395784,211.525243 L 337.86242,207.936141 L 339.398514,204.237183 L 339.99233,200.479685 L 339.639327,196.715564 L 338.342204,192.996807 L 336.110874,189.374933 L 332.962383,185.900465 L 328.920767,182.622409 L 324.016861,179.587743 L 318.288037,176.840935 L 311.777902,174.423479 L 304.535937,172.373453 L 296.617092,170.725122 L 288.081335,169.508568 L 278.993159,168.749361 L 269.421055,168.468275 L 259.436952,168.681049 L 249.115632,169.398192 L 238.534116,170.624845 L 227.771043,172.360686 L 216.906029,174.599894 L 206.019026,177.331161 L 195.189673,180.537759 L 184.496662,184.197661 L 174.017103,188.283706 L 163.825913,192.763826 L 153.995221,197.601308 L 144.593802,202.75511 L 135.686536,208.18022 L 127.33391,213.828048 L 119.591549,219.646863 L 112.509802,225.582258 L 106.13336,231.577641 L 100.500938,237.574757 L 95.644997,243.514219 L 91.591527,249.336068 L 88.359886,254.980324 L 85.962688,260.387558 L 84.405761,265.499456 L 83.688152,270.259373 L 83.802195,274.612884 L 84.733634,278.508314 L 86.461803,281.897248 L 88.959858,284.735016 L 92.195058,286.981144 L 96.129103,288.599781 L 100.718506,289.56007 L 105.915015,289.836495 L 111.666073,289.409172 L 117.915306,288.264091 L 124.603047,286.393318 L 131.666883,283.795128 L 139.042218,280.4741 L 146.662856,276.441145 L 154.461591,271.713483 L 162.370802,266.314567 L 170.323045,260.273942 L 178.251644,253.627061 L 186.091266,246.415037 L 193.778479,238.684354 L 201.252295,230.486517 L 208.454677,221.877668 L 215.331028,212.918153 L 221.830633,203.672044 L 227.907072,194.20664 L 233.518586,184.591919 L 238.6284,174.89998 L 243.204997,165.20445 L 247.222347,155.579881 L 250.660073,146.101135 L 253.503581,136.842761 L 255.744118,127.878367 L 257.37879,119.280008 L 258.41052,111.11757 L 258.84795,103.458175 L 258.705298,96.365611 L 258.002159,89.899778 L 256.763258,84.116172 L 255.018156,79.065396 L 252.800921,74.792715 L 250.149742,71.337655 L 247.106529,68.733643 L 243.716456,67.0077 L 240.027499,66.180187 L 236.089933,66.264603 L 231.955819,67.267441 L 227.678474,69.188103 L 223.311933,72.018871 L 218.910405,75.74494 L 214.527729,80.344507 L 210.216842,85.788923 L 206.029251,92.042894 L 202.014524,99.064751 L 198.219802,106.806755 L 194.689333,115.215473 L 191.46404,124.232186 L 188.581118,133.793348 L 186.073672,143.831087 L 183.970392,154.273738 L 182.295273,165.046414 L 181.067381,176.071594 L 180.30067,187.269749 L 180.00384,198.559965 L 180.180259,209.860597 L 180.827926,221.089915 L 181.939492,232.166759 L 183.502329,243.011185 L 185.49866,253.545102 L 187.905722,263.692895 L 190.695997,273.382023 L 193.837476,282.543596 L 197.293972,291.112918 L 201.025474,299.029996 L 204.988541,306.240008 L 209.136727,312.69373 L 213.421035,318.347914 L 217.790405,323.165616 L 222.192216,327.116473 L 226.572806,330.176923 L 230.87801,332.330367 L 235.053697,333.567276 L 239.046316,333.885241 L 242.803435,333.288954 L 246.274274,331.790142 L 249.410225,329.407434 L 252.165354,326.166179 L 254.496877,322.098198 L 256.365615,317.241496 L 257.736415,311.639913 L 258.578535,305.342736 L 258.865988,298.404256 L 258.577848,290.883301 L 257.698506,282.842719 L 256.217885,274.348839 L 254.131595,265.470897 L 251.441041,256.280452 L 248.153484,246.850778 L 244.282035,237.256241 L 239.845607,227.571684 L 234.868805,217.871795 L 229.381768,208.230497 L 223.419956,198.720332 L 217.023887,189.411875 L 210.238829,180.373158 L 203.114438,171.669126 L 195.704366,163.361118 L 188.065817,155.50639 L 180.259075,148.157668 L 172.347001,141.362747 L 164.394494,135.16414 L 156.467945,129.598765 L 148.634656,124.697692 L 140.962259,120.485939 L 133.518122,116.982325 L 126.368756,114.199372 L 119.579219,112.14327 L 113.212534,110.813894 L 107.329122,110.204879 L 101.986243,110.303746 L 97.237477,111.092085 L 93.132216,112.545789 L 89.7152,114.635332 L 87.02609,117.326098 L 85.099076,120.578752 L 83.962531,124.349653 L 83.63872,128.591292 L 84.14355,133.25278 L 85.486378,138.280339 L 87.669876,143.617841 L 90.689947,149.207343 L 94.535701,154.989646 L 99.189491,160.904858 L 104.627002,166.89296 L 110.817403,172.894368 L 117.723547,178.850485 L 125.302236,184.704248 L 133.50453,190.400643 L 142.276106,195.887214 L 151.557676,201.114528 L 161.285431,206.036623 L 171.391539,210.61141 L 181.804672,214.801043 L 192.450567,218.572243 L 203.252615,221.896577 L 214.132468,224.750691 L 225.010668,227.116496 L 235.807282,228.981295 L 246.442546,230.337866 L 256.837513,231.184489 L 266.914687,231.524918 L 276.598661,231.36831 L 285.81672,230.729085 L 294.499445,229.626758 L 302.581271,228.085702 L 310.001032,226.134879 L 316.702455,223.807523 L 322.634625,221.140778 L 327.752405,218.175308 L 332.016801,214.954866 L 335.39529,211.525837 L 337.862081,207.936758 L 339.398334,204.237815 L 339.992309,200.480321 L 339.639466,196.716197 L 338.342502,192.997428 L 336.111329,189.375534 L 332.962991,185.901037 L 328.921524,182.622943 L 324.01776,179.588232 L 318.289072,176.841373 L 311.779065,174.423857 L 304.537219,172.373766 L 296.618484,170.725365 L 288.082826,169.508735 L 278.994737,168.749449 L 269.422709,168.468281 L 259.43867,168.68097 L 249.1174,169.398028 L 238.535921,170.624595 L 227.772872,172.36035 L 216.907869,174.599474 L 206.020862,177.330659 L 195.191493,180.537178 L 184.498453,184.197005 L 174.018851,188.282982 L 163.827606,192.763038 L 153.996848,197.600463 L 144.59535,202.754215 L 135.687996,208.179283 L 127.335271,213.827078 L 119.592803,219.645869 L 112.51094,225.581249 L 106.134375,231.576627 L 100.501824,237.573747 L 95.64575,243.513224 L 91.592143,249.335097 L 88.360361,254.979388 L 85.963022,260.386668 L 84.405953,265.498621 L 83.688203,270.258602 L 83.802106,274.612186 L 84.733409,278.507698 L 86.461445,281.896721 L 88.959372,284.734585 L 92.194452,286.980817 L 96.128382,288.599562 L 100.717678,289.559965 L 105.914089,289.836507 L 111.665057,289.409304 L 117.914211,288.264346 L 124.601884,286.393696 L 131.665662,283.795628 L 139.04095,280.474722 L 146.661552,276.441885 L 154.460263,271.714339 L 162.36946,266.315534 L 170.321701,260.275015 L 178.25031,253.628233 L 186.089952,246.416301 L 193.777197,238.685701 L 201.251053,230.487938 L 208.453486,221.879154 L 215.329897,212.919692 L 221.82957,203.673627 L 227.906084,194.208253 L 233.51768,184.593552 L 238.627581,174.90162 L 243.204271,165.206084 L 247.221716,155.581497 L 250.659542,146.10272 L 253.503151,136.844302 L 255.743791,127.879853 L 257.378565,119.281426 L 258.410396,111.118908 L 258.847926,103.459422 L 258.70537,96.366758 L 258.002324,89.900815 L 256.763511,84.117089 L 255.018492,79.066184 L 252.801333,74.793369 L 250.150225,71.338168 L 247.107073,68.734009 L 243.717055,67.007916 L 240.028144,66.18025 L 236.090616,66.264511 L 231.956531,67.267194 L 227.679206,69.187702 L 223.312675,72.018317 L 218.911148,75.744236 L 214.528464,80.343658 L 210.217561,85.787934 L 206.029945,92.041772 L 202.015185,99.063502 L 198.220422,106.805389 L 194.689905,115.214 L 191.464557,124.230615 L 188.581574,133.791691 L 186.074062,143.829355 L 183.970712,154.271944 L 182.295518,165.04457 L 181.06755,176.069715 L 180.30076,187.267847 L 180.00385,198.558055 L 180.18019,209.858692 L 180.827777,221.088029 L 181.939265,232.164905 L 183.502028,243.009377 L 185.498287,253.543353 L 187.905282,263.691217 L 190.695495,273.380428 L 193.836918,282.542096 L 197.293363,291.111524 L 201.024823,299.028717 L 204.987855,306.238852 L 209.136013,312.692706 L 213.420303,318.347028 L 217.789663,323.164875 L 222.191473,327.11588 L 226.572071,330.176482 L 230.877292,332.33008 L 235.053005,333.567145 L 239.04566,333.885265 L 242.802823,333.289132 L 246.273715,331.790471 L 249.409727,329.40791 L 252.164923,326.166797 L 254.496521,322.098953 L 256.36534,317.24238 L 257.736228,311.64092 L 258.578439,305.343855 L 258.865988,298.405479 L 258.577946,290.884617 L 257.698706,282.844118 L 256.218187,274.350308 L 254.131998,265.472425 L 251.441547,256.282027 L 248.154089,246.852387 L 244.282738,237.257872 L 239.846403,227.573323 L 234.86969,217.873431 L 229.382736,208.232116 L 223.421001,198.721924 L 217.025002,189.413427 L 210.240005,180.374659 L 203.115668,171.670564 L 195.705639,163.362485 L 188.067123,155.507676 L 180.260405,148.158864 L 172.348343,141.363846 L 164.395837,135.165135 L 156.469278,129.599649 L 148.635967,124.698462 L 140.963538,120.486592 L 133.519357,116.982857 L 126.369935,114.199781 L 119.580332,112.143556 L 113.213571,110.814058 L 107.330072,110.204921 L 101.987097,110.30367 L 97.238226,111.091895 L 93.132852,112.545489 L 89.715717,114.634927 L 87.026481,117.325594 L 85.099335,120.578158 L 83.962655,124.348974 L 83.638705,128.590539 L 84.143394,133.25196 L 85.48608,138.279462 L 87.669436,143.616917 L 90.689367,149.206381 L 94.534983,154.988657 L 99.188638,160.903851 L 104.626019,166.891946 L 110.816296,172.893356 L 117.722323,178.849486 L 125.300902,184.70327 L 133.503094,190.399697 L 142.27458,195.886307 L 151.556069,201.113669 L 161.283754,206.035819 L 171.389804,210.610668 L 181.802891,214.80037 L 192.448753,218.571643 L 203.250781,221.896054 L 214.130628,224.75025 L 225.008835,227.116139 L 235.805469,228.981023 L 246.440768,230.33768 L 256.835781,231.184389 L 266.913016,231.524903 L 276.597062,231.368377 L 285.815206,230.729233 L 294.498027,229.626982 L 302.57996,228.085997 L 309.999838,226.135241 L 316.701387,223.807946 L 322.633691,221.141255 L 327.751611,218.175832 L 332.016154,214.955429 L 335.394795,211.526431 L 337.861743,207.937375 L 339.398154,204.238446 L 339.992289,200.480958 L 339.639606,196.716831 L 338.342801,192.99805 L 336.111784,189.376135 L 332.963599,185.901609 L 328.92228,182.623478 L 324.01866,179.588722 L 318.290107,176.84181 L 311.780228,174.424236 L 304.538501,172.374079 L 296.619875,170.725608 L 288.084316,169.508903 L 278.996315,168.749538 L 269.424363,168.468287 L 259.440387,168.680892 L 249.119167,169.397864 L 238.537726,170.624344 L 227.774701,172.360014 L 216.909708,174.599053 L 206.022699,177.330156 L 195.193314,180.536598 L 184.500243,184.19635 L 174.020599,188.282257 L 163.829299,192.76225 L 153.998474,197.599618 " fill="rgba(0,255,0,0.7)" stroke="none"/>
</svg>