<?xml version="1.0" encoding="UTF-8"?>
<svg xmlns="http://www.w3.org/2000/svg" width="400" height="400" viewBox="0 0 400 400">
  <rect x="0" y="0" width="400" height="400" fill="#0C0C0C"/>
  <path d="M 340,200 L 339.5266,196.2388 L 338.1099,192.5295 L 335.7607,188.9236 L 332.4971,185.4714 L 328.3439,182.2218 L 323.3329,179.2213 L 317.5021,176.5142 L 310.8959,174.1415 L 303.5647,172.1407 L 295.5639,170.5458 L 286.9542,169.3861 L 277.8006,168.6867 L 268.172,168.4677 L 258.1408,168.7441 L 247.782,169.5259 L 237.173,170.8175 L 226.3925,172.6178 L 215.5203,174.9204 L 204.6362,177.7132 L 193.8198,180.9788 L 183.1497,184.6945 L 172.7028,188.8326 L 162.5535,193.3603 L 152.7737,198.2404 L 143.4316,203.4313 L 134.5917,208.8876 L 126.3137,214.5601 L 118.6528,220.3968 L 111.6584,226.343 L 105.3746,232.3419 L 99.8393,238.335 L 95.0842,244.2628 L 91.1344,250.0654 L 88.0083,255.6828 L 85.7179,261.0556 L 84.2679,266.1258 L 83.6567,270.837 L 83.8757,275.135 L 84.9098,278.9686 L 86.7375,282.2898 L 89.3313,285.0545 L 92.6577,287.2226 L 96.6777,288.7591 L 101.3471,289.6337 L 106.6172,289.8215 L 112.4348,289.3035 L 118.7432,288.0664 L 125.4823,286.1031 L 132.5894,283.4125 L 139.9997,280.0002 L 147.6467,275.8777 L 155.4633,271.0632 L 163.3817,265.5809 L 171.3346,259.461 L 179.2555,252.7398 L 187.0792,245.4591 L 194.7426,237.666 L 202.185,229.4127 L 209.3489,220.7558 L 216.18,211.7562 L 222.6282,202.4784 L 228.6477,192.99 L 234.1974,183.3614 L 239.241,173.6649 L 243.7477,163.9743 L 247.6923,154.3641 L 251.0551,144.9093 L 253.8223,135.6842 L 255.9858,126.7625 L 257.5434,118.2157 L 258.4989,110.1137 L 258.8617,102.5229 L 258.6465,95.5069 L 257.8737,89.1249 L 256.5686,83.4318 L 254.7615,78.4776 L 252.4868,74.3069 L 249.7834,70.9584 L 246.6934,68.4648 L 243.2626,66.8522 L 239.5392,66.1401 L 235.5737,66.3412 L 231.4184,67.461 L 227.1267,69.498 L 222.7527,72.4437 L 218.3506,76.2822 L 213.9741,80.991 L 209.6761,86.5406 L 205.5078,92.8947 L 201.5185,100.011 L 197.755,107.8409 L 194.2612,116.3303 L 191.0775,125.4199 L 188.2406,135.0456 L 185.7831,145.1389 L 183.733,155.6278 L 182.1139,166.4369 L 180.944,177.4886 L 180.2367,188.703 L 180,199.999 L 180.2366,211.2951 L 180.9438,222.5095 L 182.1136,233.5612 L 183.7327,244.3704 L 185.7827,254.8593 L 188.2401,264.9527 L 191.0769,274.5785 L 194.2606,283.6682 L 197.7544,292.1577 L 201.5178,299.9878 L 205.5071,307.1042 L 209.6754,313.4584 L 213.9734,319.0081 L 218.3498,323.717 L 222.7519,327.5558 L 227.1259,330.5016 L 231.4177,332.5388 L 235.573,333.6587 L 239.5385,333.86 L 243.262,333.148 L 246.6929,331.5356 L 249.7829,329.0421 L 252.4864,325.6937 L 254.7611,321.5231 L 256.5684,316.5691 L 257.8735,310.8762 L 258.6464,304.4943 L 258.8617,297.4783 L 258.499,289.8877 L 257.5436,281.7857 L 255.9861,273.239 L 253.8227,264.3173 L 251.0556,255.0923 L 247.6929,245.6375 L 243.7484,236.0274 L 239.2418,226.3367 L 234.1982,216.6402 L 228.6487,207.0116 L 222.6293,197.5232 L 216.1811,188.2454 L 209.35,179.2457 L 202.1862,170.5887 L 194.7439,162.3353 L 187.0805,154.5422 L 179.2568,147.2614 L 171.336,140.5401 L 163.383,134.4201 L 155.4646,128.9377 L 147.648,124.123 L 140.001,120.0005 L 132.5907,116.588 L 125.4835,113.8973 L 118.7443,111.9338 L 112.4358,110.6966 L 106.6181,110.1785 L 101.3479,110.3662 L 96.6784,111.2407 L 92.6583,112.777 L 89.3318,114.9451 L 86.7379,117.7097 L 84.91,121.0308 L 83.8758,124.8643 L 83.6567,129.1622 L 84.2678,133.8733 L 85.7176,138.9435 L 88.0079,144.3163 L 91.1338,149.9337 L 95.0834,155.7362 L 99.8385,161.664 L 105.3736,167.6571 L 111.6573,173.656 L 118.6515,179.6022 L 126.3124,185.4389 L 134.5903,191.1115 L 143.4301,196.5678 L 152.7721,201.7587 L 162.5518,206.6389 L 172.701,211.1666 L 183.148,215.3048 L 193.818,219.0206 L 204.6344,222.2863 L 215.5184,225.0792 L 226.3907,227.3818 L 237.1712,229.1822 L 247.7802,230.4739 L 258.139,231.2558 L 268.1703,231.5323 L 277.799,231.3134 L 286.9527,230.6141 L 295.5625,229.4545 L 303.5634,227.8596 L 310.8948,225.8589 L 317.501,223.4862 L 323.3319,220.7791 L 328.3432,217.7787 L 332.4965,214.5291 L 335.7603,211.077 L 338.1095,207.4711 L 339.5264,203.7619 L 340,200.0006 L 339.5267,196.2394 L 338.1102,192.5301 L 335.7612,188.9242 L 332.4977,185.472 L 328.3447,182.2223 L 323.3338,179.2218 L 317.5031,176.5146 L 310.8971,174.1418 L 303.566,172.141 L 295.5653,170.546 L 286.9557,169.3862 L 277.8021,168.6867 L 268.1736,168.4677 L 258.1425,168.744 L 247.7838,169.5258 L 237.1748,170.8173 L 226.3943,172.6175 L 215.5221,174.92 L 204.638,177.7127 L 193.8217,180.9782 L 183.1515,184.6939 L 172.7045,188.8319 L 162.5552,193.3595 L 152.7753,198.2396 L 143.4332,203.4304 L 134.5931,208.8866 L 126.3151,214.5591 L 118.654,220.3958 L 111.6595,226.342 L 105.3756,232.3409 L 99.8402,238.334 L 95.0849,244.2618 L 91.135,250.0644 L 88.0088,255.6818 L 85.7182,261.0547 L 84.2681,266.125 L 83.6568,270.8362 L 83.8756,275.1344 L 84.9096,278.968 L 86.7372,282.2893 L 89.3308,285.0541 L 92.6571,287.2223 L 96.6769,288.7589 L 101.3462,289.6336 L 106.6162,289.8216 L 112.4338,289.3037 L 118.7421,288.0667 L 125.4812,286.1035 L 132.5882,283.413 L 139.9984,280.0008 L 147.6454,275.8785 L 155.4619,271.0641 L 163.3804,265.5819 L 171.3333,259.4621 L 179.2542,252.741 L 187.0779,245.4604 L 194.7413,237.6674 L 202.1838,229.4141 L 209.3477,220.7573 L 216.1789,211.7577 L 222.6272,202.4799 L 228.6468,192.9916 L 234.1965,183.3631 L 239.2401,173.6666 L 243.747,163.9759 L 247.6917,154.3657 L 251.0546,144.9108 L 253.8219,135.6858 L 255.9854,126.7639 L 257.5432,118.2172 L 258.4988,110.115 L 258.8616,102.5242 L 258.6466,95.508 L 257.8739,89.1259 L 256.5689,83.4327 L 254.7618,78.4784 L 252.4872,74.3076 L 249.7839,70.9589 L 246.694,68.4651 L 243.2632,66.8524 L 239.5398,66.1401 L 235.5744,66.341 L 231.4191,67.4607 L 227.1274,69.4976 L 222.7534,72.4431 L 218.3513,76.2815 L 213.9748,80.9902 L 209.6768,86.5396 L 205.5085,92.8936 L 201.5192,100.0097 L 197.7556,107.8395 L 194.2617,116.3288 L 191.078,125.4184 L 188.241,135.0439 L 185.7834,145.1372 L 183.7333,155.626 L 182.1141,166.4351 L 180.9441,177.4867 L 180.2368,188.7011 L 180,199.9971 L 180.2365,211.2932 L 180.9437,222.5077 L 182.1134,233.5594 L 183.7324,244.3686 L 185.7823,254.8576 L 188.2397,264.9511 L 191.0764,274.5769 L 194.26,283.6667 L 197.7538,292.1564 L 201.5172,299.9865 L 205.5064,307.103 L 209.6747,313.4574 L 213.9726,319.0072 L 218.3491,323.7163 L 222.7512,327.5552 L 227.1252,330.5011 L 231.4169,332.5385 L 235.5723,333.6586 L 239.5379,333.86 L 243.2614,333.1482 L 246.6923,331.5359 L 249.7824,329.0426 L 252.486,325.6944 L 254.7608,321.5239 L 256.5681,316.57 L 257.8733,310.8772 L 258.6463,304.4954 L 258.8617,297.4796 L 258.4992,289.889 L 257.5439,281.7871 L 255.9864,273.2405 L 253.8231,264.3188 L 251.0562,255.0939 L 247.6936,245.6391 L 243.7491,236.029 L 239.2426,226.3384 L 234.1991,216.6418 L 228.6497,207.0132 L 222.6304,197.5248 L 216.1822,188.2469 L 209.3512,179.2472 L 202.1875,170.5902 L 194.7451,162.3367 L 187.0818,154.5434 L 179.2581,147.2625 L 171.3373,140.5412 L 163.3844,134.4211 L 155.4659,128.9385 L 147.6493,124.1238 L 140.0022,120.0011 L 132.5919,116.5885 L 125.4847,113.8977 L 118.7454,111.9341 L 112.4369,110.6967 L 106.619,110.1785 L 101.3488,110.3661 L 96.6791,111.2405 L 92.6589,112.7767 L 89.3323,114.9447 L 86.7383,117.7091 L 84.9103,121.0302 L 83.8759,124.8636 L 83.6567,129.1615 L 84.2676,133.8725 L 85.7172,138.9426 L 88.0074,144.3154 L 91.1332,149.9327 L 95.0827,155.7352 L 99.8376,161.663 L 105.3726,167.6561 L 111.6562,173.655 L 118.6503,179.6012 L 126.311,185.438 L 134.5888,191.1106 L 143.4286,196.5669 L 152.7705,201.7579 L 162.5501,206.6381 L 172.6993,211.1659 L 183.1462,215.3041 L 193.8162,219.02 L 204.6325,222.2858 L 215.5166,225.0787 L 226.3889,227.3815 L 237.1694,229.182 L 247.7785,230.4737 L 258.1373,231.2557 L 268.1686,231.5323 L 277.7974,231.3135 L 286.9512,230.6142 L 295.5611,229.4547 L 303.5621,227.8599 L 310.8936,225.8593 L 317.5,223.4867 L 323.331,220.7796 L 328.3424,217.7793 L 332.4959,214.5297 L 335.7598,211.0776 L 338.1092,207.4717 L 339.5262,203.7625 L 340,200.0013 L 339.5269,196.24 L 338.1105,192.5307 L 335.7617,188.9248 L 332.4984,185.4726 L 328.3455,182.2229 L 323.3347,179.2223 L 317.5042,176.5151 L 310.8983,174.1422 L 303.5673,172.1413 L 295.5667,170.5462 L 286.9572,169.3864 L 277.8037,168.6868 L 268.1753,168.4676 L 258.1442,168.744 L 247.7856,169.5256 L 237.1766,170.817 L 226.3962,172.6172 L 215.5239,174.9195 L 204.6399,177.7122 L 193.8235,180.9776 L 183.1533,184.6932 L 172.7063,188.8312 L 162.5569,193.3588 L 152.7769,198.2387 L 143.4347,203.4295 L 134.5946,208.8857 L 126.3164,214.5581 L 118.6552,220.3948 L 111.6606,226.341 L 105.3766,232.3399 L 99.8411,238.333 L 95.0857,244.2608 L 91.1355,250.0634 L 88.0092,255.6809 L 85.7185,261.0539 L 84.2683,266.1242 L 83.6568,270.8355 L 83.8755,275.1337 L 84.9093,278.9674 L 86.7368,282.2888 L 89.3303,285.0536 L 92.6565,287.222 L 96.6762,288.7587 L 101.3454,289.6335 L 106.6153,289.8216 L 112.4328,289.3038 L 118.741,288.067 L 125.48,286.1039 L 132.587,283.4135 L 139.9971,280.0014 L 147.6441,275.8792 L 155.4606,271.065 L 163.379,265.5828 L 171.3319,259.4632 L 179.2528,252.7422 L 187.0766,245.4617 L 194.74,237.6687 L 202.1825,229.4155 L 209.3465,220.7588 L 216.1778,211.7593 L 222.6261,202.4815 L 228.6458,192.9933 L 234.1956,183.3647 L 239.2393,173.6682 L 243.7463,163.9775 L 247.6911,154.3673 L 251.0541,144.9124 L 253.8214,135.6873 L 255.9851,126.7654 L 257.543,118.2186 L 258.4987,110.1163 L 258.8616,102.5254 L 258.6467,95.5091 L 257.874,89.1269 L 256.5692,83.4336 L 254.7622,78.4792 L 252.4877,74.3082 L 249.7843,70.9594 L 246.6945,68.4655 L 243.2638,66.8526 L 239.5405,66.1402 L 235.5751,66.3409 L 231.4198,67.4604 L 227.1281,69.4972 L 222.7542,72.4425 L 218.3521,76.2808 L 213.9756,80.9893 L 209.6775,86.5386 L 205.5092,92.8924 L 201.5198,100.0084 L 197.7562,107.8381 L 194.2623,116.3274 L 191.0785,125.4168 L 188.2415,135.0423 L 185.7838,145.1354 L 183.7336,155.6242 L 182.1143,166.4332 L 180.9443,177.4848 L 180.2368,188.6992 L 180,199.9952 L 180.2364,211.2913 L 180.9435,222.5058 L 182.1131,233.5575 L 183.7321,244.3668 L 185.7819,254.8559 L 188.2392,264.9494 L 191.0759,274.5753 L 194.2595,283.6652 L 197.7532,292.155 L 201.5165,299.9853 L 205.5057,307.1019 L 209.6739,313.4564 L 213.9719,319.0064 L 218.3483,323.7156 L 222.7504,327.5546 L 227.1245,330.5007 L 231.4162,332.5382 L 235.5716,333.6585 L 239.5372,333.86 L 243.2608,333.1484 L 246.6918,331.5363 L 249.7819,329.0431 L 252.4856,325.695 L 254.7604,321.5247 L 256.5678,316.5709 L 257.8732,310.8782 L 258.6462,304.4965 L 258.8617,297.4808 L 258.4993,289.8903 L 257.5441,281.7885 L 255.9867,273.242 L 253.8235,264.3204 L 251.0567,255.0955 L 247.6942,245.6407 L 243.7499,236.0306 L 239.2434,226.34 L 234.2,216.6435 L 228.6507,207.0148 L 222.6314,197.5264 L 216.1834,188.2485 L 209.3524,179.2487 L 202.1887,170.5916 L 194.7464,162.338 L 187.0831,154.5447 L 179.2595,147.2637 L 171.3386,140.5422 L 163.3857,134.4221 L 155.4673,128.9394 L 147.6507,124.1245 L 140.0035,120.0018 L 132.5931,116.589 L 125.4858,113.8981 L 118.7465,111.9344 L 112.4379,110.6969 L 106.62,110.1785 L 101.3496,110.366 L 96.6799,111.2403 L 92.6596,112.7764 L 89.3328,114.9443 L 86.7387,117.7086 L 84.9105,121.0295 L 83.876,124.8629 L 83.6566,129.1607 L 84.2674,133.8717 L 85.7169,138.9417 L 88.007,144.3145 L 91.1326,149.9317 L 95.082,155.7342 L 99.8367,161.662 L 105.3716,167.6551 L 111.655,173.654 L 118.649,179.6002 L 126.3097,185.437 L 134.5874,191.1096 L 143.427,196.566 L 152.7689,201.757 L 162.5485,206.6373 L 172.6976,211.1652 L 183.1444,215.3035 L 193.8144,219.0194 L 204.6307,222.2853 L 215.5147,225.0783 L 226.387,227.3811 L 237.1676,229.1817 L 247.7767,230.4735 L 258.1356,231.2556 L 268.167,231.5323 L 277.7958,231.3136 L 286.9497,230.6144 L 295.5597,229.4549 L 303.5608,227.8602 L 310.8924,225.8596 L 317.4989,223.4871 L 323.3301,220.7801 L 328.3416,217.7798 L 332.4952,214.5303 L 335.7593,211.0782 L 338.1089,207.4724 L 339.5261,203.7631 L 340,200.0019 L 339.527,196.2407 L 338.1108,192.5314 L 335.7622,188.9254 L 332.499,185.4731 L 328.3463,182.2234 L 323.3356,179.2228 L 317.5052,176.5155 L 310.8995,174.1426 L 303.5686,172.1416 L 295.5681,170.5465 L 286.9587,169.3866 L 277.8053,168.6869 L 268.177,168.4676 L 258.1459,168.7439 L 247.7873,169.5254 L 237.1784,170.8167 L 226.398,172.6168 L 215.5258,174.9191 L 204.6417,177.7117 L 193.8253,180.977 L 183.1551,184.6926 L 172.708,188.8304 L 162.5586,193.358 L 152.7786,198.2379 L 143.4363,203.4286 L 134.596,208.8847 L 126.3178,214.5572 L 118.6565,220.3938 L 111.6618,226.34 L 105.3776,232.3388 L 99.8419,238.3319 L 95.0864,244.2598 L 91.1361,250.0625 L 88.0097,255.68 L 85.7188,261.053 L 84.2685,266.1234 L 83.6568,270.8347 L 83.8754,275.133 L 84.9091,278.9668 L 86.7364,282.2883 L 89.3298,285.0532 L 92.6558,287.2217 L 96.6754,288.7585 L 101.3446,289.6334 L 106.6143,289.8216 L 112.4317,289.304 L 118.7399,288.0672 L 125.4788,286.1042 L 132.5857,283.4141 L 139.9959,280.0021 L 147.6428,275.88 L 155.4593,271.0658 L 163.3777,265.5838 L 171.3306,259.4643 L 179.2515,252.7434 L 187.0753,245.4629 L 194.7387,237.6701 L 202.1813,229.417 L 209.3453,220.7603 L 216.1766,211.7608 L 222.6251,202.4831 L 228.6448,192.9949 L 234.1947,183.3663 L 239.2385,173.6698 L 243.7456,163.9792 L 247.6905,154.3689 L 251.0536,144.914 L 253.821,135.6888 L 255.9848,126.7669 L 257.5428,118.22 L 258.4986,110.1176 L 258.8616,102.5266 L 258.6467,95.5103 L 257.8742,89.1279 L 256.5694,83.4345 L 254.7625,78.4799 L 252.4881,74.3088 L 249.7848,70.9599 L 246.6951,68.4658 L 243.2644,66.8528 L 239.5411,66.1402 L 235.5758,66.3408 L 231.4205,67.4602 L 227.1289,69.4967 L 222.7549,72.4419 L 218.3528,76.2801 L 213.9763,80.9884 L 209.6782,86.5375 L 205.5099,92.8913 L 201.5205,100.0072 L 197.7568,107.8367 L 194.2629,116.3259 L 191.079,125.4152 L 188.2419,135.0406 L 185.7842,145.1337 L 183.734,155.6224 L 182.1146,166.4314 L 180.9445,177.4829 L 180.2369,188.6973 L 180,199.9933 L 180.2364,211.2894 L 180.9433,222.5039 L 182.1129,233.5557 L 183.7318,244.365 L 185.7815,254.8541 L 188.2388,264.9477 L 191.0754,274.5737 L 194.2589,283.6637 L 197.7525,292.1536 L 201.5159,299.984 L 205.505,307.1008 L 209.6732,313.4554 L 213.9712,319.0055 L 218.3476,323.7149 L 222.7497,327.554 L 227.1237,330.5003 L 231.4155,332.538 L 235.5709,333.6584 L 239.5366,333.8601 L 243.2602,333.1486 L 246.6912,331.5366 L 249.7814,329.0436 L 252.4851,325.6956 L 254.7601,321.5255 L 256.5676,316.5718 L 257.873,310.8792 L 258.6461,304.4977 L 258.8617,297.482 L 258.4994,289.8917 L 257.5443,281.7899 L 255.987,273.2434 L 253.8239,264.3219 L 251.0572,255.0971 L 247.6948,245.6424 L 243.7506,236.0323 L 239.2442,226.3416 L 234.2009,216.6451 L 228.6517,207.0164 L 222.6325,197.528 L 216.1845,188.25 L 209.3536,179.2502 L 202.19,170.593 L 194.7477,162.3394 L 187.0844,154.546 L 179.2608,147.2649 L 171.34,140.5433 L 163.3871,134.423 L 155.4686,128.9403 L 147.652,124.1253 L 140.0048,120.0024 L 132.5943,116.5895 L 125.487,113.8985 L 118.7476,111.9346 L 112.4389,110.697 L 106.6209,110.1786 L 101.3504,110.366 L 96.6806,111.2401 L 92.6602,112.7761 L 89.3333,114.9439 L 86.739,117.7081 L 84.9108,121.0289 L 83.8761,124.8622 L 83.6566,129.1599 L 84.2672,133.8709 L 85.7166,138.9408 L 88.0065,144.3135 L 91.132,149.9308 L 95.0812,155.7332 L 99.8358,161.661 L 105.3706,167.6541 L 111.6539,173.6529 L 118.6478,179.5992 L 126.3084,185.436 L 134.5859,191.1087 L 143.4255,196.5651 L 152.7672,201.7562 L 162.5468,206.6365 L 172.6958,211.1644 L 183.1426,215.3028 L 193.8126,219.0188 L 204.6288,222.2848 L 215.5129,225.0779 L 226.3852,227.3808 L 237.1658,229.1814 L 247.7749,230.4734 L 258.1339,231.2555 L 268.1653,231.5323 L 277.7942,231.3136 L 286.9482,230.6145 L 295.5583,229.4552 L 303.5595,227.8605 L 310.8912,225.86 L 317.4979,223.4875 L 323.3292,220.7806 L 328.3408,217.7803 L 332.4946,214.5308 L 335.7588,211.0788 L 338.1086,207.473 L 339.5259,203.7638 L 340,200.0025 L 339.5272,196.2413 L 338.1111,192.532 L 335.7626,188.926 L 332.4996,185.4737 L 328.347,182.2239 L 323.3365,179.2233 L 317.5063,176.5159 L 310.9007,174.1429 L 303.5699,172.142 L 295.5695,170.5467 L 286.9602,169.3867 L 277.8069,168.687 L 268.1786,168.4676 L 258.1476,168.7438 L 247.7891,169.5252 L 237.1802,170.8165 L 226.3998,172.6165 L 215.5276,174.9187 L 204.6435,177.7112 L 193.8271,180.9764 L 183.1569,184.6919 L 172.7097,188.8297 L 162.5603,193.3572 L 152.7802,198.237 L 143.4378,203.4277 L 134.5975,208.8838 L 126.3191,214.5562 L 118.6577,220.3928 L 111.6629,226.339 L 105.3786,232.3378 L 99.8428,238.3309 L 95.0871,244.2588 L 91.1367,250.0615 L 88.0102,255.679 L 85.7191,261.0521 L 84.2686,266.1225 L 83.6568,270.834 L 83.8753,275.1323 L 84.9088,278.9662 L 86.736,282.2878 L 89.3293,285.0528 L 92.6552,287.2214 L 96.6747,288.7583 L 101.3437,289.6333 L 106.6134,289.8217 L 112.4307,289.3041 L 118.7388,288.0675 L 125.4776,286.1046 L 132.5845,283.4146 L 139.9946,280.0027 L 147.6415,275.8807 L 155.458,271.0667 L 163.3763,265.5848 L 171.3292,259.4654 L 179.2502,252.7446 L 187.0739,245.4642 L 194.7375,237.6715 L 202.1801,229.4184 L 209.3441,220.7618 L 216.1755,211.7624 L 222.624,202.4847 L 228.6438,192.9965 L 234.1938,183.368 L 239.2377,173.6715 L 243.7449,163.9808 L 247.6899,154.3705 L 251.0531,144.9156 L 253.8206,135.6904 L 255.9845,126.7684 L 257.5426,118.2214 L 258.4985,110.119 L 258.8616,102.5279 L 258.6468,95.5114 L 257.8744,89.1289 L 256.5697,83.4354 L 254.7629,78.4807 L 252.4885,74.3095 L 249.7853,70.9604 L 246.6957,68.4662 L 243.265,66.853 L 239.5418,66.1403 L 235.5764,66.3407 L 231.4212,67.4599 L 227.1296,69.4963 L 222.7556,72.4414 L 218.3535,76.2794 L 213.977,80.9876 L 209.679,86.5365 L 205.5106,92.8901 L 201.5211,100.0059 L 197.7575,107.8354 L 194.2634,116.3244 L 191.0795,125.4136 L 188.2424,135.0389 L 185.7846,145.132 L 183.7343,155.6206 L 182.1148,166.4295 L 180.9446,177.481 L 180.237,188.6953 L 180,199.9914 L 180.2363,211.2875 L 180.9432,222.502 L 182.1127,233.5538 L 183.7315,244.3632 L 185.7811,254.8524 L 188.2383,264.9461 L 191.0749,274.5721 L 194.2583,283.6622 L 197.7519,292.1522 L 201.5152,299.9827 L 205.5043,307.0996 L 209.6725,313.4544 L 213.9704,319.0046 L 218.3469,323.7141 L 222.749,327.5535 L 227.123,330.4999 L 231.4148,332.5377 L 235.5703,333.6583 L 239.5359,333.8601 L 243.2596,333.1488 L 246.6907,331.537 L 249.7809,329.044 L 252.4847,325.6963 L 254.7598,321.5262 L 256.5673,316.5727 L 257.8728,310.8803 L 258.6461,304.4988 L 258.8617,297.4833 L 258.4995,289.893 L 257.5445,281.7913 L 255.9873,273.2449 L 253.8244,264.3234 L 251.0577,255.0986 L 247.6954,245.644 L 243.7513,236.0339 L 239.245,226.3433 L 234.2018,216.6467 L 228.6526,207.0181 L 222.6335,197.5296 L 216.1856,188.2516 L 209.3548,179.2517 L 202.1912,170.5945 L 194.749,162.3408 L 187.0857,154.5473 L 179.2621,147.2661 L 171.3413,140.5444 L 163.3884,134.424 L 155.4699,128.9411 L 147.6533,124.1261 L 140.0061,120.003 L 132.5956,116.5901 L 125.4882,113.8989 L 118.7487,111.9349 L 112.4399,110.6972 L 106.6218,110.1786 L 101.3513,110.3659 L 96.6813,111.2399 L 92.6608,112.7758 L 89.3338,114.9434 L 86.7394,117.7076 L 84.911,121.0283 L 83.8762,124.8615 L 83.6566,129.1592 L 84.2671,133.87 L 85.7163,138.94 L 88.006,144.3126 L 91.1314,149.9298 L 95.0805,155.7322 L 99.835,161.66 L 105.3696,167.653 L 111.6528,173.6519 L 118.6466,179.5982 L 126.307,185.4351 L 134.5845,191.1077 L 143.424,196.5642 L 152.7656,201.7553 L 162.5451,206.6357 L 172.6941,211.1637 L 183.1408,215.3021 L 193.8108,219.0182 L 204.627,222.2842 L 215.5111,225.0774 L 226.3834,227.3804 L 237.1639,229.1812 L 247.7731,230.4732 L 258.1321,231.2554 L 268.1637,231.5323 L 277.7926,231.3137 L 286.9467,230.6147 L 295.5569,229.4554 L 303.5582,227.8608 L 310.89,225.8604 L 317.4968,223.4879 L 323.3283,220.7811 L 328.3401,217.7809 L 332.494,214.5314 L 335.7584,211.0794 L 338.1083,207.4736 L 339.5258,203.7644 L 340,200.0032 " fill="rgba(0,255,255,0.7)" stroke="none"/>
  <path d="M 311.1901,174.2344 L 303.8884,172.2173 L 295.9147,170.6045 L 287.3294,169.4259 L 278.1974,168.7066 L 268.5874,168.467 L 258.5717,168.7223 L 248.2252,169.4826 L 237.6252,170.7526 L 226.8504,172.5316 L 215.9804,174.8131 L 205.0952,177.5855 L 194.2744,180.8316 L 183.5965,184.5288 L 173.1386,188.6497 L 162.9753,193.1617 L 153.1785,198.0277 L 143.8166,203.2063 L 134.9542,208.6523 L 126.6513,214.3167 L 118.9633,220.1476 L 111.9398,226.0903 L 105.6252,232.0882 L 100.0576,238.0827 L 95.2689,244.0145 L 91.2847,249.8236 L 88.1235,255.45 L 85.7976,260.8344 L 84.3122,265.9185 L 83.6657,270.646 L 83.8498,274.9625 L 84.8499,278.8167 L 86.6446,282.1605 L 89.2067,284.9495 L 92.5029,287.1436 L 96.4944,288.7074 L 101.1373,289.6105 L 106.3831,289.8278 L 112.1787,289.3399 L 118.4676,288.1334 L 125.1897,286.2007 L 132.2826,283.5408 L 139.6814,280.1588 L 147.3198,276.066 L 155.1305,271.2803 L 163.046,265.8256 L 170.9988,259.732 L 178.9224,253.0354 L 186.7515,245.7774 L 194.4229,238.005 L 201.8758,229.7699 L 209.0526,221.1289 L 215.8988,212.1425 L 222.3642,202.8751 L 228.4027,193.3942 L 233.9729,183.7701 L 239.0385,174.075 L 243.5685,164.3826 L 247.5373,154.7675 L 250.925,145.3046 L 253.7176,136.0683 L 255.9066,127.1323 L 257.4898,118.5683 L 258.4706,110.446 L 258.8581,102.8324 L 258.667,95.7908 L 257.9173,89.3809 L 256.6342,83.6577 L 254.8475,78.6714 L 252.5919,74.4667 L 249.9057,71.0828 L 246.8312,68.5525 L 243.4138,66.9022 L 239.7018,66.1518 L 235.7454,66.3141 L 231.5971,67.3951 L 227.31,69.3935 L 222.9384,72.301 L 218.5364,76.1023 L 214.1578,80.7749 L 209.8554,86.2896 L 205.6806,92.6105 L 201.6828,99.6955 L 197.9088,107.4964 L 194.4028,115.9591 L 191.2052,125.0246 L 188.353,134.629 L 185.8788,144.704 L 183.8111,155.1776 L 182.1733,165.9748 L 180.9841,177.0178 L 180.2571,188.227 L 180.0004,199.5213 L 180.2171,210.819 L 180.9045,222.0385 L 182.055,233.0987 L 183.6554,243.9197 L 185.6876,254.4237 L 188.1284,264.5353 L 190.9498,274.1822 L 194.1196,283.2959 L 197.601,291.812 L 201.354,299.6711 L 205.3346,306.8186 L 209.4963,313.206 L 213.7899,318.7904 L 218.164,323.5355 L 222.5661,327.4115 L 226.9424,330.3954 L 231.2387,332.4712 L 235.4009,333.63 L 239.3756,333.87 L 243.1103,333.1964 L 246.5545,331.6217 L 249.6598,329.1649 L 252.3806,325.8521 L 254.6742,321.7155 L 256.502,316.7937 L 257.829,311.131 L 258.6249,304.7771 L 258.8641,297.7868 L 258.5263,290.2192 L 257.5961,282.1374 L 256.0641,273.6082 L 253.9263,264.7008 L 251.1847,255.4872 L 247.8469,246.0406 L 243.9266,236.4355 L 239.4432,226.7468 L 234.4218,217.049 L 228.8929,207.416 L 222.8926,197.9203 L 216.4616,188.6322 L 209.6457,179.6194 L 202.4949,170.9467 L 195.0632,162.6751 L 187.4079,154.8614 L 179.5898,147.5579 L 171.6717,140.8121 L 163.7188,134.666 L 155.7975,129.156 L 147.9753,124.3126 L 140.3197,120.1604 L 132.898,116.7176 L 125.7768,113.9963 L 119.0207,112.0021 L 112.6928,110.7343 L 106.8532,110.186 L 101.5588,110.3442 L 96.8628,111.1902 L 92.8144,112.6991 L 89.4578,114.8412 L 86.8322,117.5813 L 84.9714,120.8798 L 83.9031,124.6926 L 83.6492,128.9719 L 84.225,133.6667 L 85.6393,138.7228 L 87.8942,144.084 L 90.9849,149.6922 L 94.9001,155.4881 L 99.6216,161.4118 L 105.1244,167.4034 L 111.3772,173.4032 L 118.3422,179.3528 L 125.9759,185.1953 L 134.2288,190.8759 L 143.0461,196.3423 L 152.3681,201.5454 L 162.1307,206.4395 L 172.2657,210.983 L 182.7016,215.1383 L 193.3638,218.8725 L 204.1755,222.1577 L 215.0583,224.971 L 225.9327,227.2946 L 236.7187,229.1164 L 247.3366,230.4296 L 257.7075,231.233 L 267.7541,231.5308 L 277.4013,231.3325 L 286.5765,230.6531 L 295.2107,229.5125 L 303.2385,227.9354 L 310.5993,225.9512 L 317.2373,223.5935 L 323.1019,220.8997 L 328.1486,217.9109 L 332.3388,214.6708 L 335.6407,211.2263 L 338.0291,207.6259 L 339.4856,203.92 L 339.9991,200.1599 L 339.5658,196.3976 L 338.189,192.6851 L 335.8791,189.0738 L 332.6538,185.6141 L 328.5378,182.3549 L 323.5623,179.343 L 317.7655,176.6225 L 311.1912,174.2348 L 303.8896,172.2176 L 295.9161,170.6048 L 287.3309,169.4261 L 278.199,168.7067 L 268.5891,168.467 L 258.5734,168.7222 L 248.227,169.4824 L 237.627,170.7524 L 226.8522,172.5312 L 215.9822,174.8127 L 205.097,177.585 L 194.2762,180.831 L 183.5983,184.5282 L 173.1404,188.6489 L 162.977,193.1609 L 153.1801,198.0268 L 143.8181,203.2055 L 134.9556,208.6514 L 126.6527,214.3158 L 118.9645,220.1466 L 111.9409,226.0893 L 105.6262,232.0871 L 100.0585,238.0817 L 95.2697,244.0135 L 91.2853,249.8226 L 88.124,255.449 L 85.798,260.8335 L 84.3124,265.9177 L 83.6657,270.6452 L 83.8497,274.9618 L 84.8496,278.8161 L 86.6442,282.16 L 89.2062,284.9491 L 92.5022,287.1433 L 96.4936,288.7072 L 101.1365,289.6104 L 106.3821,289.8278 L 112.1777,289.34 L 118.4665,288.1336 L 125.1886,286.2011 L 132.2814,283.5414 L 139.6801,280.1594 L 147.3185,276.0668 L 155.1292,271.2812 L 163.0447,265.8266 L 170.9975,259.7331 L 178.921,253.0366 L 186.7502,245.7787 L 194.4216,238.0063 L 201.8746,229.7714 L 209.0514,221.1304 L 215.8977,212.144 L 222.3631,202.8766 L 228.4017,193.3958 L 233.972,183.7717 L 239.0377,174.0766 L 243.5678,164.3842 L 247.5367,154.7691 L 250.9245,145.3062 L 253.7171,136.0699 L 255.9063,127.1338 L 257.4896,118.5697 L 258.4705,110.4474 L 258.8581,102.8336 L 258.6671,95.792 L 257.9175,89.3819 L 256.6344,83.6586 L 254.8479,78.6721 L 252.5923,74.4674 L 249.9062,71.0833 L 246.8318,68.5528 L 243.4144,66.9024 L 239.7024,66.1518 L 235.7461,66.314 L 231.5978,67.3948 L 227.3108,69.3931 L 222.9391,72.3005 L 218.5371,76.1016 L 214.1585,80.774 L 209.8561,86.2886 L 205.6813,92.6094 L 201.6834,99.6943 L 197.9095,107.495 L 194.4033,115.9576 L 191.2057,125.0231 L 188.3534,134.6273 L 185.8792,144.7023 L 183.8114,155.1758 L 182.1735,165.973 L 180.9843,177.0159 L 180.2572,188.2251 L 180.0004,199.5193 L 180.217,210.8171 L 180.9044,222.0366 L 182.0548,233.0968 L 183.6551,243.9179 L 185.6873,254.422 L 188.128,264.5336 L 190.9493,274.1806 L 194.119,283.2944 L 197.6004,291.8106 L 201.3533,299.6698 L 205.3339,306.8175 L 209.4956,313.205 L 213.7891,318.7895 L 218.1633,323.5348 L 222.5654,327.4109 L 226.9417,330.395 L 231.238,332.471 L 235.4002,333.6299 L 239.3749,333.87 L 243.1097,333.1966 L 246.554,331.622 L 249.6593,329.1654 L 252.3802,325.8527 L 254.6739,321.7162 L 256.5017,316.7946 L 257.8288,311.132 L 258.6248,304.7782 L 258.8641,297.788 L 258.5264,290.2205 L 257.5963,282.1388 L 256.0644,273.6096 L 253.9267,264.7024 L 251.1852,255.4888 L 247.8475,246.0422 L 243.9273,236.4371 L 239.444,226.7484 L 234.4227,217.0506 L 228.8939,207.4177 L 222.8936,197.9219 L 216.4627,188.6337 L 209.6469,179.6209 L 202.4962,170.9482 L 195.0644,162.6764 L 187.4092,154.8627 L 179.5911,147.5591 L 171.673,140.8132 L 163.7201,134.667 L 155.7989,129.1568 L 147.9766,124.3133 L 140.321,120.161 L 132.8993,116.7181 L 125.7779,113.9967 L 119.0219,112.0023 L 112.6939,110.7344 L 106.8541,110.186 L 101.5596,110.3442 L 96.8636,111.19 L 92.815,112.6988 L 89.4583,114.8408 L 86.8326,117.5808 L 84.9716,120.8792 L 83.9032,124.6919 L 83.6492,128.9712 L 84.2249,133.6658 L 85.639,138.7219 L 87.8937,144.083 L 90.9843,149.6912 L 94.8994,155.4871 L 99.6207,161.4108 L 105.1234,167.4024 L 111.376,173.4022 L 118.341,179.3518 L 125.9746,185.1943 L 134.2273,190.8749 L 143.0445,196.3414 L 152.3665,201.5445 L 162.129,206.4387 L 172.264,210.9823 L 182.6998,215.1376 L 193.3619,218.872 L 204.1736,222.1572 L 215.0565,224.9706 L 225.9308,227.2943 L 236.7169,229.1162 L 247.3348,230.4295 L 257.7058,231.2329 L 267.7525,231.5308 L 277.3997,231.3326 L 286.575,230.6532 L 295.2092,229.5127 L 303.2372,227.9357 L 310.5982,225.9516 L 317.2362,223.5939 L 323.101,220.9002 L 328.1478,217.9114 L 332.3382,214.6714 L 335.6402,211.2269 L 338.0287,207.6265 L 339.4854,203.9206 L 339.9991,200.1605 L 339.566,196.3982 L 338.1893,192.6857 L 335.8796,189.0744 L 332.6544,185.6147 L 328.5385,182.3554 L 323.5632,179.3434 L 317.7665,176.623 L 311.1924,174.2352 L 303.8909,172.2179 L 295.9175,170.605 L 287.3324,169.4262 L 278.2005,168.7068 L 268.5907,168.467 L 258.5751,168.7221 L 248.2288,169.4823 L 237.6288,170.7521 L 226.854,172.5309 L 215.9841,174.8123 L 205.0989,177.5845 L 194.278,180.8304 L 183.6001,184.5275 L 173.1421,188.6482 L 162.9787,193.1601 L 153.1817,198.026 L 143.8197,203.2046 L 134.9571,208.6504 L 126.654,214.3148 L 118.9657,220.1456 L 111.9421,226.0883 L 105.6272,232.0861 L 100.0593,238.0807 L 95.2704,244.0125 L 91.2859,249.8216 L 88.1245,255.4481 L 85.7983,260.8326 L 84.3125,265.9169 L 83.6657,270.6444 L 83.8496,274.9611 L 84.8494,278.8155 L 86.6439,282.1594 L 89.2057,284.9486 L 92.5016,287.143 L 96.4929,288.707 L 101.1356,289.6103 L 106.3812,289.8278 L 112.1767,289.3402 L 118.4654,288.1339 L 125.1874,286.2015 L 132.2801,283.5419 L 139.6788,280.1601 L 147.3172,276.0675 L 155.1279,271.282 L 163.0433,265.8276 L 170.9961,259.7342 L 178.9197,253.0378 L 186.7489,245.78 L 194.4203,238.0077 L 201.8734,229.7728 L 209.0502,221.1319 L 215.8966,212.1455 L 222.3621,202.8782 L 228.4007,193.3974 L 233.9711,183.7734 L 239.0369,174.0782 L 243.5671,164.3858 L 247.5361,154.7707 L 250.924,145.3077 L 253.7167,136.0714 L 255.906,127.1352 L 257.4894,118.5711 L 258.4704,110.4487 L 258.8581,102.8349 L 258.6672,95.7931 L 257.9176,89.383 L 256.6347,83.6595 L 254.8482,78.6729 L 252.5927,74.468 L 249.9067,71.0838 L 246.8323,68.5532 L 243.415,66.9026 L 239.7031,66.1519 L 235.7468,66.3139 L 231.5985,67.3945 L 227.3115,69.3927 L 222.9399,72.2999 L 218.5379,76.1009 L 214.1592,80.7732 L 209.8568,86.2876 L 205.682,92.6082 L 201.6841,99.693 L 197.9101,107.4936 L 194.4039,115.9561 L 191.2062,125.0215 L 188.3539,134.6257 L 185.8796,144.7005 L 183.8117,155.174 L 182.1738,165.9711 L 180.9844,177.0141 L 180.2573,188.2232 L 180.0004,199.5174 L 180.2169,210.8152 L 180.9042,222.0347 L 182.0545,233.095 L 183.6548,243.9161 L 185.6869,254.4202 L 188.1275,264.532 L 190.9488,274.179 L 194.1184,283.2929 L 197.5998,291.8093 L 201.3527,299.6685 L 205.3332,306.8163 L 209.4949,313.204 L 213.7884,318.7887 L 218.1626,323.5341 L 222.5647,327.4104 L 226.941,330.3946 L 231.2373,332.4707 L 235.3996,333.6298 L 239.3742,333.8701 L 243.1091,333.1968 L 246.5534,331.6224 L 249.6589,329.1659 L 252.3797,325.8533 L 254.6735,321.717 L 256.5014,316.7955 L 257.8286,311.133 L 258.6247,304.7794 L 258.8642,297.7892 L 258.5265,290.2218 L 257.5966,282.1402 L 256.0647,273.6111 L 253.9272,264.7039 L 251.1857,255.4904 L 247.8481,246.0438 L 243.928,236.4388 L 239.4448,226.75 L 234.4236,217.0523 L 228.8949,207.4193 L 222.8947,197.9235 L 216.4639,188.6353 L 209.6481,179.6224 L 202.4974,170.9496 L 195.0657,162.6778 L 187.4105,154.8639 L 179.5924,147.5603 L 171.6744,140.8143 L 163.7215,134.668 L 155.8002,129.1577 L 147.9779,124.3141 L 140.3222,120.1617 L 132.9005,116.7187 L 125.7791,113.9971 L 119.023,112.0026 L 112.6949,110.7346 L 106.8551,110.186 L 101.5605,110.3441 L 96.8643,111.1898 L 92.8157,112.6985 L 89.4588,114.8404 L 86.833,117.5803 L 84.9719,120.8786 L 83.9034,124.6912 L 83.6492,128.9704 L 84.2247,133.665 L 85.6387,138.721 L 87.8933,144.0821 L 90.9837,149.6902 L 94.8987,155.4861 L 99.6199,161.4098 L 105.1224,167.4014 L 111.3749,173.4012 L 118.3398,179.3508 L 125.9732,185.1934 L 134.2259,190.874 L 143.043,196.3405 L 152.3649,201.5437 L 162.1273,206.4379 L 172.2623,210.9815 L 182.698,215.137 L 193.3601,218.8714 L 204.1718,222.1567 L 215.0546,224.9701 L 225.929,227.2939 L 236.715,229.1159 L 247.333,230.4293 L 257.704,231.2328 L 267.7508,231.5308 L 277.3981,231.3327 L 286.5735,230.6534 L 295.2078,229.5129 L 303.2359,227.936 L 310.597,225.9519 L 317.2352,223.5944 L 323.1,220.9007 L 328.147,217.9119 L 332.3376,214.672 L 335.6398,211.2275 L 338.0284,207.6271 L 339.4852,203.9212 L 339.9991,200.1612 L 339.5662,196.3989 L 338.1896,192.6863 L 335.88,189.075 L 332.6551,185.6152 L 328.5393,182.3559 L 323.5642,179.3439 L 317.7675,176.6234 L 311.1936,174.2356 L 303.8922,172.2182 L 295.9189,170.6052 L 287.3339,169.4264 L 278.2021,168.7069 L 268.5924,168.467 L 258.5769,168.722 L 248.2305,169.4821 L 237.6306,170.7519 L 226.8559,172.5305 L 215.9859,174.8118 L 205.1007,177.584 L 194.2798,180.8298 L 183.6019,184.5268 L 173.1438,188.6475 L 162.9804,193.1593 L 153.1833,198.0251 L 143.8212,203.2037 L 134.9585,208.6495 L 126.6554,214.3138 L 118.967,220.1446 L 111.9432,226.0873 L 105.6282,232.0851 L 100.0602,238.0797 L 95.2712,244.0115 L 91.2865,249.8207 L 88.1249,255.4472 L 85.7986,260.8317 L 84.3127,265.916 L 83.6658,270.6437 L 83.8495,274.9604 L 84.8492,278.8149 L 86.6435,282.1589 L 89.2052,284.9482 L 92.501,287.1426 L 96.4922,288.7068 L 101.1348,289.6102 L 106.3803,289.8278 L 112.1756,289.3403 L 118.4643,288.1342 L 125.1862,286.2019 L 132.2789,283.5424 L 139.6776,280.1607 L 147.3158,276.0683 L 155.1265,271.2829 L 163.042,265.8285 L 170.9948,259.7352 L 178.9184,253.0389 L 186.7475,245.7812 L 194.419,238.009 L 201.8721,229.7742 L 209.049,221.1333 L 215.8954,212.1471 L 222.361,202.8798 L 228.3997,193.3991 L 233.9702,183.775 L 239.0361,174.0799 L 243.5664,164.3875 L 247.5355,154.7723 L 250.9235,145.3093 L 253.7163,136.0729 L 255.9057,127.1367 L 257.4892,118.5725 L 258.4703,110.45 L 258.8581,102.8361 L 258.6673,95.7943 L 257.9178,89.384 L 256.6349,83.6604 L 254.8486,78.6737 L 252.5931,74.4687 L 249.9072,71.0843 L 246.8329,68.5535 L 243.4156,66.9028 L 239.7037,66.1519 L 235.7475,66.3138 L 231.5992,67.3943 L 227.3122,69.3922 L 222.9406,72.2993 L 218.5386,76.1001 L 214.16,80.7723 L 209.8575,86.2866 L 205.6827,92.6071 L 201.6848,99.6917 L 197.9107,107.4922 L 194.4045,115.9547 L 191.2067,125.0199 L 188.3543,134.624 L 185.88,144.6988 L 183.812,155.1722 L 182.174,165.9693 L 180.9846,177.0122 L 180.2573,188.2213 L 180.0004,199.5155 L 180.2168,210.8133 L 180.904,222.0328 L 182.0543,233.0931 L 183.6545,243.9143 L 185.6865,254.4185 L 188.1271,264.5303 L 190.9483,274.1774 L 194.1179,283.2914 L 197.5992,291.8079 L 201.352,299.6673 L 205.3325,306.8152 L 209.4942,313.2029 L 213.7876,318.7878 L 218.1618,323.5333 L 222.5639,327.4098 L 226.9402,330.3941 L 231.2366,332.4704 L 235.3989,333.6297 L 239.3736,333.8701 L 243.1085,333.197 L 246.5529,331.6227 L 249.6584,329.1664 L 252.3793,325.8539 L 254.6732,321.7178 L 256.5012,316.7964 L 257.8284,311.134 L 258.6246,304.7805 L 258.8642,297.7905 L 258.5266,290.2231 L 257.5968,282.1416 L 256.0651,273.6126 L 253.9276,264.7054 L 251.1862,255.4919 L 247.8487,246.0454 L 243.9287,236.4404 L 239.4456,226.7517 L 234.4245,217.0539 L 228.8959,207.4209 L 222.8957,197.9251 L 216.465,188.6368 L 209.6493,179.6239 L 202.4986,170.951 L 195.067,162.6792 L 187.4118,154.8652 L 179.5937,147.5615 L 171.6757,140.8154 L 163.7228,134.6689 L 155.8015,129.1586 L 147.9792,124.3149 L 140.3235,120.1623 L 132.9017,116.7192 L 125.7803,113.9975 L 119.0241,112.0029 L 112.6959,110.7347 L 106.856,110.1861 L 101.5613,110.344 L 96.8651,111.1896 L 92.8163,112.6982 L 89.4593,114.8399 L 86.8334,117.5798 L 84.9721,120.878 L 83.9035,124.6905 L 83.6492,128.9696 L 84.2245,133.6642 L 85.6384,138.7201 L 87.8928,144.0812 L 90.9832,149.6893 L 94.898,155.4851 L 99.619,161.4088 L 105.1214,167.4003 L 111.3738,173.4002 L 118.3385,179.3498 L 125.9719,185.1924 L 134.2244,190.873 L 143.0415,196.3396 L 152.3633,201.5428 L 162.1257,206.4371 L 172.2605,210.9808 L 182.6962,215.1363 L 193.3583,218.8708 L 204.17,222.1562 L 215.0528,224.9697 L 225.9272,227.2936 L 236.7132,229.1156 L 247.3312,230.4291 L 257.7023,231.2327 L 267.7492,231.5307 L 277.3965,231.3327 L 286.572,230.6535 L 295.2064,229.5131 L 303.2346,227.9363 L 310.5958,225.9523 L 317.2341,223.5948 L 323.0991,220.9012 L 328.1462,217.9124 L 332.3369,214.6725 L 335.6393,211.2281 L 338.0281,207.6278 L 339.4851,203.9219 L 339.9991,200.1618 L 339.5663,196.3995 L 338.1899,192.6869 L 335.8805,189.0756 L 332.6557,185.6158 L 328.5401,182.3565 L 323.5651,179.3444 L 317.7686,176.6238 L 311.1948,174.2359 L 303.8935,172.2185 L 295.9203,170.6055 L 287.3354,169.4266 L 278.2037,168.7069 L 268.594,168.467 L 258.5786,168.7219 L 248.2323,169.4819 L 237.6324,170.7516 L 226.8577,172.5302 L 215.9877,174.8114 L 205.1025,177.5835 L 194.2817,180.8292 L 183.6037,184.5262 L 173.1456,188.6468 L 162.9821,193.1585 L 153.185,198.0243 L 143.8228,203.2028 L 134.96,208.6486 L 126.6567,214.3129 L 118.9682,220.1436 L 111.9443,226.0863 L 105.6292,232.0841 L 100.0611,238.0787 L 95.2719,244.0105 L 91.2871,249.8197 L 88.1254,255.4463 L 85.7989,260.8308 L 84.3129,265.9152 L 83.6658,270.6429 L 83.8494,274.9597 L 84.8489,278.8143 L 86.6431,282.1584 L 89.2047,284.9478 L 92.5004,287.1423 L 96.4914,288.7066 L 101.134,289.6101 L 106.3793,289.8279 L 112.1746,289.3405 L 118.4632,288.1344 L 125.1851,286.2023 L 132.2777,283.5429 L 139.6763,280.1613 L 147.3145,276.069 L 155.1252,271.2838 L 163.0406,265.8295 L 170.9934,259.7363 L 178.917,253.0401 L 186.7462,245.7825 L 194.4178,238.0104 L 201.8709,229.7756 L 209.0478,221.1348 L 215.8943,212.1486 L 222.36,202.8814 L 228.3988,193.4007 L 233.9693,183.7766 L 239.0353,174.0815 L 243.5657,164.3891 L 247.5348,154.7739 L 250.9229,145.3109 L 253.7159,136.0745 L 255.9053,127.1382 L 257.489,118.5739 L 258.4702,110.4514 L 258.8581,102.8374 L 258.6673,95.7954 L 257.918,89.385 L 256.6352,83.6613 L 254.8489,78.6745 L 252.5936,74.4693 L 249.9077,71.0848 L 246.8334,68.5539 L 243.4162,66.903 L 239.7044,66.152 L 235.7482,66.3137 L 231.5999,67.394 L 227.313,69.3918 L 222.9414,72.2988 L 218.5394,76.0994 L 214.1607,80.7714 L 209.8583,86.2856 L 205.6834,92.606 L 201.6854,99.6905 L 197.9113,107.4909 L 194.405,115.9532 L 191.2072,125.0183 L 188.3548,134.6223 L 185.8803,144.697 L 183.8123,155.1705 L 182.1742,165.9674 L 180.9848,177.0103 L 180.2574,188.2194 L 180.0004,199.5136 L 180.2167,210.8114 L 180.9039,222.031 L 182.0541,233.0913 L 183.6542,243.9125 L 185.6861,254.4167 L 188.1266,264.5286 L 190.9478,274.1759 L 194.1173,283.2899 L 197.5986,291.8065 L 201.3513,299.666 L 205.3319,306.814 L 209.4934,313.2019 L 213.7869,318.7869 L 218.1611,323.5326 L 222.5632,327.4092 L 226.9395,330.3937 L 231.2359,332.4701 L 235.3982,333.6295 L 239.3729,333.8701 L 243.1079,333.1972 L 246.5523,331.623 L 249.6579,329.1669 L 252.3789,325.8546 L 254.6728,321.7185 L 256.5009,316.7973 L 257.8282,311.135 L 258.6245,304.7816 L 258.8642,297.7917 L 258.5267,290.2244 L 257.597,282.143 L 256.0654,273.6141 L 253.928,264.707 L 251.1867,255.4935 L 247.8493,246.0471 L 243.9294,236.442 L 239.4464,226.7533 L 234.4254,217.0555 L 228.8968,207.4225 L 222.8968,197.9267 L 216.4661,188.6384 L 209.6505,179.6254 L 202.4998,170.9525 L 195.0683,162.6805 L 187.4132,154.8665 L 179.5951,147.5627 L 171.6771,140.8165 L 163.7242,134.6699 L 155.8029,129.1595 L 147.9805,124.3156 L 140.3248,120.1629 L 132.903,116.7197 L 125.7815,113.9979 L 119.0252,112.0032 L 112.6969,110.7349 L 106.857,110.1861 L 101.5622,110.3439 L 96.8658,111.1894 L 92.8169,112.6979 L 89.4598,114.8395 L 86.8337,117.5793 L 84.9724,120.8774 L 83.9036,124.6898 L 83.6491,128.9689 L 84.2243,133.6634 L 85.6381,138.7192 L 87.8923,144.0803 L 90.9826,149.6883 L 94.8972,155.4841 L 99.6181,161.4078 L 105.1204,167.3993 L 111.3727,173.3992 L 118.3373,179.3488 L 125.9705,185.1914 L 134.223,190.8721 L 143.0399,196.3387 L 152.3616,201.542 L 162.124,206.4363 L 172.2588,210.9801 L 182.6944,215.1356 L 193.3565,218.8702 L 204.1681,222.1557 L 215.0509,224.9692 L 225.9253,227.2932 L 236.7114,229.1154 L 247.3295,230.4289 L 257.7006,231.2326 L 267.7475,231.5307 L 277.3949,231.3328 L 286.5705,230.6537 L 295.205,229.5134 L 303.2333,227.9366 L 310.5946,225.9527 L 317.233,223.5952 L 323.0982,220.9017 L 328.1454,217.913 L 332.3363,214.6731 L 335.6388,211.2287 L 338.0278,207.6284 L 339.4849,203.9225 L 339.9991,200.1624 L 339.5665,196.4001 L 338.1902,192.6876 L 335.881,189.0762 L 332.6563,185.6164 L 328.5408,182.357 L 323.566,179.3449 L 317.7696,176.6242 L 311.1959,174.2363 " fill="rgba(255,0,255,0.7)" stroke="none"/>
  <path d="M 238.0771,170.6887 L 227.308,172.4462 L 216.4405,174.7067 L 205.5543,177.4587 L 194.7292,180.6851 L 184.0437,184.3638 L 173.575,188.4674 L 163.3977,192.9636 L 153.584,197.8155 L 144.2024,202.9818 L 135.3177,208.4175 L 126.99,214.0737 L 119.2749,219.8986 L 112.2225,225.8378 L 105.8771,231.8344 L 100.2772,237.8303 L 95.4551,243.766 L 91.4364,249.5814 L 88.2403,255.2168 L 85.8789,260.6126 L 84.3579,265.7106 L 83.6761,270.4542 L 83.8254,274.7892 L 84.7914,278.6639 L 86.5531,282.0302 L 89.0833,284.8434 L 92.3492,287.0634 L 96.3122,288.6545 L 100.9286,289.586 L 106.1499,289.8327 L 111.9235,289.375 L 118.1927,288.199 L 124.8978,286.2971 L 131.9763,283.6679 L 139.3635,280.3161 L 146.9931,276.2531 L 154.798,271.4962 L 162.7104,266.0692 L 170.663,260.0019 L 178.5891,253.33 L 186.4235,246.0948 L 194.1028,238.343 L 201.5662,230.1265 L 208.7557,221.5014 L 215.617,212.5283 L 222.0994,203.2714 L 228.1568,193.7981 L 233.7476,184.1786 L 238.8352,174.485 L 243.3884,164.791 L 247.3813,155.1711 L 250.7939,145.7003 L 253.6117,136.453 L 255.8264,127.5028 L 257.4352,118.9216 L 258.4413,110.7793 L 258.8536,103.1429 L 258.6865,96.0759 L 257.96,89.6382 L 256.6988,83.8849 L 254.9328,78.8665 L 252.6962,74.628 L 250.0273,71.2087 L 246.9684,68.6417 L 243.5645,66.9538 L 239.8639,66.1651 L 235.9168,66.2887 L 231.7755,67.3308 L 227.4932,69.2906 L 223.1241,72.16 L 218.7223,75.9239 L 214.3416,80.5602 L 210.0349,86.04 L 205.8537,92.3277 L 201.8475,99.3814 L 198.0632,107.153 L 194.5449,115.589 L 191.3335,124.6303 L 188.466,134.2132 L 185.9753,144.2698 L 183.8899,154.7281 L 182.2335,165.5132 L 181.0251,176.5474 L 180.2783,187.7511 L 180.0017,199.0435 L 180.1983,210.3427 L 180.866,221.5672 L 181.9972,232.6357 L 183.579,243.4684 L 185.5933,253.9874 L 188.0174,264.117 L 190.8234,273.785 L 193.9791,282.9225 L 197.4482,291.4652 L 201.1905,299.3531 L 205.1624,306.5317 L 209.3175,312.9521 L 213.6065,318.5712 L 217.9783,323.3525 L 222.3803,327.2657 L 226.7588,330.2876 L 231.0596,332.402 L 235.2285,333.5997 L 239.2121,333.8784 L 242.958,333.2432 L 246.4155,331.7062 L 249.5361,329.2862 L 252.274,326.0089 L 254.5865,321.9064 L 256.4346,317.0169 L 257.7834,311.3846 L 258.6023,305.0588 L 258.8656,298.0942 L 258.5524,290.5497 L 257.6476,282.4884 L 256.1411,273.9766 L 254.0289,265.0839 L 251.3126,255.8817 L 247.9998,246.4434 L 244.1038,236.8435 L 239.6437,227.1568 L 234.6444,217.4579 L 229.1363,207.8207 L 223.1551,198.3177 L 216.7414,189.0195 L 209.9408,179.9937 L 202.8031,171.3054 L 195.3821,163.0156 L 187.7351,155.1815 L 179.9225,147.8555 L 172.0074,141.0853 L 164.0546,134.913 L 156.1307,129.3754 L 148.3029,124.5034 L 140.6389,120.3215 L 133.206,116.8485 L 126.0707,114.0966 L 119.2979,112.0716 L 112.9507,110.7732 L 107.0892,110.1947 L 101.7707,110.3235 L 97.0485,111.1408 L 92.9717,112.6223 L 89.5851,114.7383 L 86.9279,117.454 L 85.0341,120.7297 L 83.9319,124.5217 L 83.6433,128.7824 L 84.1838,133.4606 L 85.5625,138.5026 L 87.7819,143.8521 L 90.8376,149.451 L 94.7183,155.2402 L 99.4061,161.1598 L 104.8765,167.1497 L 111.0983,173.1503 L 118.0341,179.1032 L 125.6405,184.9514 L 133.8683,190.6399 L 142.6629,196.1163 L 151.9649,201.3315 L 161.7103,206.2396 L 171.831,210.7987 L 182.2556,214.9711 L 192.9097,218.7237 L 203.7167,222.0284 L 214.5981,224.8619 L 225.4745,227.2065 L 236.2658,229.0497 L 246.8924,230.3845 L 257.2754,231.2094 L 267.3373,231.5283 L 277.0028,231.3507 L 286.1994,230.6913 L 294.8577,229.5697 L 302.9125,228.0105 L 310.3026,226.0428 L 316.9722,223.7002 L 322.8704,221.0198 L 327.9524,218.0425 L 332.1796,214.8122 L 335.5196,211.3753 L 337.9469,207.7805 L 339.4431,204.078 L 339.9966,200.3192 L 339.6033,196.5559 L 338.2661,192.8402 L 335.9953,189.2236 L 332.8083,185.7565 L 328.7293,182.4879 L 323.7894,179.4646 L 318.0264,176.731 L 311.4841,174.3284 L 304.2121,172.2948 L 296.2657,170.6643 L 287.7051,169.4668 L 278.5949,168.7275 L 269.0038,168.4672 L 259.0038,168.7013 L 248.6698,169.44 L 238.0789,170.6884 L 227.3099,172.4458 L 216.4423,174.7063 L 205.5561,177.4582 L 194.731,180.6845 L 184.0455,184.3632 L 173.5767,188.4667 L 163.3994,192.9628 L 153.5856,197.8146 L 144.204,202.9809 L 135.3191,208.4165 L 126.9914,214.0727 L 119.2762,219.8976 L 112.2236,225.8368 L 105.8781,231.8334 L 100.2781,237.8293 L 95.4559,243.765 L 91.437,249.5805 L 88.2407,255.2158 L 85.8792,260.6117 L 84.3581,265.7097 L 83.6761,270.4534 L 83.8253,274.7885 L 84.7912,278.6633 L 86.5527,282.0296 L 89.0829,284.843 L 92.3486,287.0631 L 96.3115,288.6543 L 100.9278,289.5859 L 106.149,289.8328 L 111.9224,289.3751 L 118.1916,288.1993 L 124.8966,286.2975 L 131.9751,283.6684 L 139.3622,280.3168 L 146.9918,276.2538 L 154.7966,271.4971 L 162.709,266.0702 L 170.6616,260.003 L 178.5878,253.3312 L 186.4222,246.0961 L 194.1015,238.3444 L 201.5649,230.1279 L 208.7545,221.5028 L 215.6158,212.5298 L 222.0983,203.273 L 228.1558,193.7997 L 233.7467,184.1803 L 238.8344,174.4867 L 243.3876,164.7926 L 247.3807,155.1727 L 250.7934,145.7019 L 253.6113,136.4545 L 255.8261,127.5042 L 257.435,118.923 L 258.4412,110.7807 L 258.8536,103.1442 L 258.6866,96.0771 L 257.9601,89.6392 L 256.699,83.8858 L 254.9331,78.8673 L 252.6966,74.6287 L 250.0278,71.2092 L 246.9689,68.6421 L 243.5651,66.954 L 239.8645,66.1651 L 235.9175,66.2886 L 231.7762,67.3306 L 227.494,69.2902 L 223.1248,72.1594 L 218.723,75.9232 L 214.3423,80.5594 L 210.0356,86.039 L 205.8544,92.3266 L 201.8481,99.3801 L 198.0638,107.1516 L 194.5455,115.5875 L 191.334,124.6287 L 188.4665,134.2116 L 185.9757,144.268 L 183.8902,154.7263 L 182.2338,165.5113 L 181.0253,176.5455 L 180.2784,187.7492 L 180.0017,199.0416 L 180.1983,210.3408 L 180.8659,221.5653 L 181.997,232.6339 L 183.5786,243.4666 L 185.593,253.9856 L 188.0169,264.1153 L 190.8229,273.7834 L 193.9785,282.921 L 197.4476,291.4638 L 201.1898,299.3518 L 205.1618,306.5306 L 209.3168,312.9511 L 213.6057,318.5704 L 217.9776,323.3517 L 222.3796,327.2651 L 226.7581,330.2872 L 231.0588,332.4018 L 235.2278,333.5995 L 239.2115,333.8784 L 242.9574,333.2434 L 246.415,331.7065 L 249.5356,329.2867 L 252.2736,326.0096 L 254.5862,321.9072 L 256.4344,317.0178 L 257.7833,311.3856 L 258.6022,305.0599 L 258.8656,298.0954 L 258.5525,290.551 L 257.6478,282.4898 L 256.1414,273.9781 L 254.0293,265.0854 L 251.3131,255.8833 L 248.0004,246.445 L 244.1045,236.8451 L 239.6445,227.1584 L 234.6453,217.4595 L 229.1373,207.8223 L 223.1561,198.3193 L 216.7425,189.021 L 209.942,179.9952 L 202.8043,171.3068 L 195.3833,163.017 L 187.7364,155.1828 L 179.9238,147.8567 L 172.0087,141.0863 L 164.0559,134.914 L 156.132,129.3763 L 148.3042,124.5041 L 140.6401,120.3222 L 133.2072,116.8491 L 126.0718,114.097 L 119.299,112.0719 L 112.9517,110.7733 L 107.0902,110.1948 L 101.7715,110.3234 L 97.0492,111.1406 L 92.9724,112.622 L 89.5856,114.7379 L 86.9283,117.4534 L 85.0344,120.7291 L 83.932,124.521 L 83.6432,128.7816 L 84.1836,133.4598 L 85.5622,138.5017 L 87.7815,143.8511 L 90.837,149.4501 L 94.7176,155.2393 L 99.4053,161.1588 L 104.8755,167.1487 L 111.0972,173.1493 L 118.0329,179.1022 L 125.6392,184.9504 L 133.8669,190.6389 L 142.6614,196.1154 L 151.9633,201.3307 L 161.7086,206.2388 L 171.8292,210.7979 L 182.2538,214.9704 L 192.9079,218.7231 L 203.7149,222.0278 L 214.5963,224.8615 L 225.4727,227.2062 L 236.264,229.0495 L 246.8907,230.3843 L 257.2737,231.2093 L 267.3356,231.5283 L 277.0012,231.3508 L 286.1979,230.6914 L 294.8563,229.5699 L 302.9111,228.0108 L 310.3014,226.0432 L 316.9711,223.7006 L 322.8695,221.0203 L 327.9516,218.043 L 332.1789,214.8128 L 335.5191,211.3759 L 337.9466,207.7811 L 339.4429,204.0786 L 339.9966,200.3198 L 339.6034,196.5565 L 338.2664,192.8409 L 335.9958,189.2242 L 332.8089,185.7571 L 328.73,182.4884 L 323.7903,179.4651 L 318.0274,176.7314 L 311.4852,174.3288 L 304.2134,172.2952 L 296.2671,170.6646 L 287.7066,169.4669 L 278.5965,168.7276 L 269.0054,168.4672 L 259.0055,168.7012 L 248.6716,169.4399 L 238.0807,170.6882 L 227.3117,172.4455 L 216.4441,174.7058 L 205.558,177.4577 L 194.7328,180.684 L 184.0473,184.3625 L 173.5785,188.466 L 163.4011,192.962 L 153.5873,197.8138 L 144.2055,202.98 L 135.3206,208.4156 L 126.9927,214.0718 L 119.2774,219.8966 L 112.2247,225.8357 L 105.8791,231.8324 L 100.279,237.8283 L 95.4566,243.764 L 91.4377,249.5795 L 88.2412,255.2149 L 85.8796,260.6108 L 84.3583,265.7089 L 83.6762,270.4527 L 83.8252,274.7878 L 84.7909,278.6627 L 86.5523,282.0291 L 89.0824,284.8426 L 92.348,287.0628 L 96.3108,288.6541 L 100.9269,289.5858 L 106.1481,289.8328 L 111.9214,289.3753 L 118.1905,288.1995 L 124.8955,286.2979 L 131.9738,283.6689 L 139.3609,280.3174 L 146.9905,276.2546 L 154.7953,271.4979 L 162.7077,266.0712 L 170.6603,260.0041 L 178.5864,253.3323 L 186.4209,246.0973 L 194.1002,238.3457 L 201.5637,230.1293 L 208.7533,221.5043 L 215.6147,212.5313 L 222.0973,203.2745 L 228.1548,193.8014 L 233.7457,184.1819 L 238.8335,174.4883 L 243.3869,164.7943 L 247.3801,155.1743 L 250.7928,145.7034 L 253.6109,136.4561 L 255.8258,127.5057 L 257.4348,118.9245 L 258.4411,110.782 L 258.8536,103.1454 L 258.6867,96.0782 L 257.9603,89.6402 L 256.6993,83.8867 L 254.9334,78.8681 L 252.697,74.6293 L 250.0283,71.2097 L 246.9695,68.6424 L 243.5657,66.9542 L 239.8652,66.1652 L 235.9182,66.2885 L 231.7769,67.3303 L 227.4947,69.2898 L 223.1256,72.1589 L 218.7238,75.9225 L 214.3431,80.5585 L 210.0364,86.038 L 205.8551,92.3254 L 201.8488,99.3789 L 198.0644,107.1503 L 194.5461,115.586 L 191.3346,124.6271 L 188.4669,134.2099 L 185.9761,144.2663 L 183.8905,154.7245 L 182.234,165.5095 L 181.0254,176.5436 L 180.2785,187.7473 L 180.0017,199.0396 L 180.1982,210.3389 L 180.8657,221.5634 L 181.9967,232.632 L 183.5783,243.4648 L 185.5926,253.9839 L 188.0165,264.1137 L 190.8224,273.7818 L 193.978,282.9195 L 197.447,291.4624 L 201.1892,299.3505 L 205.1611,306.5294 L 209.316,312.9501 L 213.605,318.5695 L 217.9768,323.351 L 222.3788,327.2645 L 226.7573,330.2868 L 231.0581,332.4015 L 235.2271,333.5994 L 239.2108,333.8785 L 242.9568,333.2436 L 246.4144,331.7069 L 249.5351,329.2872 L 252.2731,326.0102 L 254.5858,321.9079 L 256.4341,317.0187 L 257.7831,311.3866 L 258.6022,305.0611 L 258.8656,298.0967 L 258.5526,290.5524 L 257.648,282.4912 L 256.1417,273.9796 L 254.0297,265.0869 L 251.3137,255.8848 L 248.001,246.4466 L 244.1052,236.8468 L 239.6453,227.16 L 234.6462,217.4612 L 229.1383,207.824 L 223.1572,198.3209 L 216.7437,189.0225 L 209.9432,179.9967 L 202.8055,171.3083 L 195.3846,163.0184 L 187.7377,155.1841 L 179.9252,147.8579 L 172.0101,141.0874 L 164.0573,134.915 L 156.1333,129.3772 L 148.3055,124.5049 L 140.6414,120.3228 L 133.2084,116.8496 L 126.073,114.0974 L 119.3002,112.0721 L 112.9528,110.7735 L 107.0911,110.1948 L 101.7724,110.3233 L 97.05,111.1404 L 92.973,112.6217 L 89.5861,114.7375 L 86.9287,117.4529 L 85.0346,120.7285 L 83.9322,124.5204 L 83.6432,128.7809 L 84.1834,133.459 L 85.5619,138.5008 L 87.781,143.8502 L 90.8364,149.4491 L 94.7168,155.2383 L 99.4044,161.1578 L 104.8745,167.1477 L 111.0961,173.1483 L 118.0317,179.1012 L 125.6378,184.9494 L 133.8654,190.638 L 142.6599,196.1145 L 151.9617,201.3298 L 161.7069,206.238 L 171.8275,210.7972 L 182.252,214.9697 L 192.9061,218.7225 L 203.7131,222.0273 L 214.5945,224.8611 L 225.4708,227.2058 L 236.2622,229.0492 L 246.8889,230.3841 L 257.2719,231.2092 L 267.3339,231.5283 L 276.9996,231.3509 L 286.1963,230.6916 L 294.8549,229.5701 L 302.9098,228.0111 L 310.3002,226.0436 L 316.97,223.701 L 322.8685,221.0208 L 327.9509,218.0436 L 332.1783,214.8133 L 335.5186,211.3765 L 337.9462,207.7817 L 339.4427,204.0793 L 339.9966,200.3204 L 339.6036,196.5572 L 338.2667,192.8415 L 335.9963,189.2248 L 332.8095,185.7577 L 328.7308,182.489 L 323.7912,179.4656 L 318.0285,176.7319 L 311.4864,174.3292 L 304.2147,172.2955 L 296.2685,170.6648 L 287.7081,169.4671 L 278.5981,168.7277 L 269.0071,168.4672 L 259.0072,168.7011 L 248.6733,169.4397 L 238.0825,170.6879 L 227.3135,172.4452 L 216.446,174.7054 L 205.5598,177.4571 L 194.7346,180.6834 L 184.0491,184.3619 L 173.5802,188.4652 L 163.4028,192.9612 L 153.5889,197.8129 L 144.2071,202.9791 L 135.322,208.4147 L 126.9941,214.0708 L 119.2787,219.8956 L 112.2259,225.8347 L 105.8801,231.8314 L 100.2799,237.8273 L 95.4574,243.763 L 91.4383,249.5785 L 88.2417,255.214 L 85.8799,260.6099 L 84.3585,265.7081 L 83.6762,270.4519 L 83.8251,274.7871 L 84.7907,278.6621 L 86.552,282.0286 L 89.0819,284.8421 L 92.3474,287.0625 L 96.3101,288.6539 L 100.9261,289.5857 L 106.1471,289.8328 L 111.9204,289.3754 L 118.1894,288.1998 L 124.8943,286.2983 L 131.9726,283.6694 L 139.3597,280.318 L 146.9892,276.2553 L 154.794,271.4988 L 162.7064,266.0721 L 170.6589,260.0051 L 178.5851,253.3335 L 186.4195,246.0986 L 194.099,238.3471 L 201.5625,230.1307 L 208.7521,221.5058 L 215.6136,212.5329 L 222.0962,203.2761 L 228.1538,193.803 L 233.7448,184.1835 L 238.8327,174.4899 L 243.3862,164.7959 L 247.3794,155.176 L 250.7923,145.705 L 253.6105,136.4576 L 255.8254,127.5072 L 257.4345,118.9259 L 258.4409,110.7834 L 258.8535,103.1466 L 258.6868,96.0794 L 257.9605,89.6413 L 256.6996,83.8876 L 254.9338,78.8689 L 252.6974,74.63 L 250.0288,71.2102 L 246.97,68.6428 L 243.5663,66.9544 L 239.8658,66.1652 L 235.9189,66.2884 L 231.7776,67.33 L 227.4954,69.2894 L 223.1263,72.1583 L 218.7245,75.9218 L 214.3438,80.5576 L 210.0371,86.037 L 205.8558,92.3243 L 201.8494,99.3776 L 198.065,107.1489 L 194.5466,115.5845 L 191.3351,124.6256 L 188.4674,134.2083 L 185.9765,144.2646 L 183.8908,154.7227 L 182.2342,165.5076 L 181.0256,176.5417 L 180.2786,187.7454 L 180.0017,199.0377 L 180.1981,210.337 L 180.8656,221.5615 L 181.9965,232.6302 L 183.578,243.463 L 185.5922,253.9821 L 188.0161,264.112 L 190.8218,273.7802 L 193.9774,282.918 L 197.4463,291.461 L 201.1885,299.3493 L 205.1604,306.5283 L 209.3153,312.9491 L 213.6043,318.5686 L 217.9761,323.3503 L 222.3781,327.2639 L 226.7566,330.2863 L 231.0574,332.4012 L 235.2264,333.5993 L 239.2102,333.8785 L 242.9562,333.2438 L 246.4139,331.7072 L 249.5346,329.2877 L 252.2727,326.0108 L 254.5854,321.9087 L 256.4338,317.0196 L 257.7829,311.3876 L 258.6021,305.0622 L 258.8656,298.0979 L 258.5527,290.5537 L 257.6482,282.4926 L 256.142,273.9811 L 254.0301,265.0884 L 251.3142,255.8864 L 248.0016,246.4483 L 244.1059,236.8484 L 239.6461,227.1617 L 234.6471,217.4628 L 229.1392,207.8256 L 223.1582,198.3225 L 216.7448,189.0241 L 209.9444,179.9982 L 202.8068,171.3097 L 195.3859,163.0197 L 187.739,155.1853 L 179.9265,147.8591 L 172.0114,141.0885 L 164.0586,134.916 L 156.1347,129.3781 L 148.3068,124.5057 L 140.6427,120.3235 L 133.2097,116.8501 L 126.0742,114.0978 L 119.3013,112.0724 L 112.9538,110.7737 L 107.0921,110.1948 L 101.7732,110.3233 L 97.0507,111.1402 L 92.9736,112.6214 L 89.5866,114.7371 L 86.929,117.4524 L 85.0349,120.7279 L 83.9323,124.5197 L 83.6432,128.7801 L 84.1833,133.4582 L 85.5616,138.5 L 87.7806,143.8493 L 90.8358,149.4481 L 94.7161,155.2373 L 99.4035,161.1568 L 104.8735,167.1466 L 111.095,173.1473 L 118.0304,179.1002 L 125.6365,184.9485 L 133.864,190.637 L 142.6583,196.1136 L 151.9601,201.329 L 161.7052,206.2372 L 171.8258,210.7964 L 182.2502,214.969 L 192.9043,218.7219 L 203.7112,222.0268 L 214.5926,224.8606 L 225.469,227.2055 L 236.2604,229.0489 L 246.8871,230.3839 L 257.2702,231.2091 L 267.3323,231.5283 L 276.998,231.3509 L 286.1948,230.6917 L 294.8535,229.5703 L 302.9085,228.0114 L 310.2991,226.0439 L 316.969,223.7015 L 322.8676,221.0212 L 327.9501,218.0441 L 332.1777,214.8139 L 335.5181,211.3771 L 337.9459,207.7824 L 339.4425,204.0799 L 339.9966,200.3211 L 339.6037,196.5578 L 338.267,192.8421 L 335.9967,189.2254 L 332.8101,185.7582 L 328.7316,182.4895 L 323.7921,179.4661 L 318.0295,176.7323 L 311.4876,174.3296 L 304.216,172.2958 L 296.2699,170.665 L 287.7096,169.4672 L 278.5997,168.7278 L 269.0087,168.4672 L 259.0089,168.701 L 248.6751,169.4395 L 238.0843,170.6876 L 227.3154,172.4448 L 216.4478,174.705 L 205.5616,177.4566 L 194.7364,180.6828 L 184.0509,184.3612 L 173.582,188.4645 L 163.4045,192.9604 L 153.5905,197.8121 L 144.2086,202.9782 L 135.3235,208.4137 L 126.9955,214.0698 L 119.2799,219.8946 L 112.227,225.8337 L 105.8811,231.8304 L 100.2808,237.8263 L 95.4581,243.762 L 91.4389,249.5776 L 88.2421,255.213 L 85.8802,260.609 L 84.3587,265.7072 L 83.6763,270.4511 L 83.825,274.7864 L 84.7905,278.6614 L 86.5516,282.0281 L 89.0814,284.8417 L 92.3468,287.0621 L 96.3093,288.6537 L 100.9253,289.5856 L 106.1462,289.8328 L 111.9194,289.3755 L 118.1883,288.2 L 124.8931,286.2986 L 131.9714,283.6699 L 139.3584,280.3187 L 146.9879,276.2561 L 154.7926,271.4997 L 162.705,266.0731 L 170.6576,260.0062 L 178.5838,253.3347 L 186.4182,246.0999 L 194.0977,238.3484 L 201.5612,230.1322 L 208.751,221.5073 L 215.6124,212.5344 L 222.0951,203.2777 L 228.1528,193.8046 L 233.7439,184.1852 L 238.8319,174.4916 L 243.3855,164.7975 L 247.3788,155.1776 L 250.7918,145.7066 L 253.61,136.4591 L 255.8251,127.5087 L 257.4343,118.9273 L 258.4408,110.7847 L 258.8535,103.1479 L 258.6869,96.0805 L 257.9606,89.6423 L 256.6998,83.8885 L 254.9341,78.8696 L 252.6978,74.6306 L 250.0293,71.2107 L 246.9705,68.6432 L 243.5669,66.9547 L 239.8665,66.1653 L 235.9196,66.2883 L 231.7784,67.3298 L 227.4962,69.289 L 223.1271,72.1577 L 218.7252,75.9211 L 214.3445,80.5568 L 210.0378,86.036 L 205.8565,92.3232 L 201.8501,99.3764 L 198.0656,107.1475 L 194.5472,115.583 L 191.3356,124.624 L 188.4678,134.2066 L 185.9768,144.2628 L 183.8911,154.7209 L 182.2345,165.5058 L 181.0257,176.5399 L 180.2787,187.7435 L 180.0017,199.0358 L 180.198,210.3351 L 180.8654,221.5596 L 181.9963,232.6283 L 183.5777,243.4612 L 185.5918,253.9804 L 188.0156,264.1103 L 190.8213,273.7786 L 193.9768,282.9165 L 197.4457,291.4596 L 201.1879,299.348 L 205.1597,306.5271 L 209.3146,312.948 L 213.6035,318.5677 L 217.9753,323.3495 L 222.3773,327.2633 L 226.7559,330.2859 L 231.0567,332.4009 L 235.2258,333.5992 L 239.2095,333.8785 L 242.9556,333.244 L 246.4133,331.7075 L 249.5341,329.2882 L 252.2723,326.0114 L 254.5851,321.9094 L 256.4336,317.0205 L 257.7827,311.3886 L 258.602,305.0633 L 258.8656,298.0991 L 258.5529,290.555 L 257.6484,282.494 L 256.1423,273.9825 L 254.0305,265.09 L 251.3147,255.888 L 248.0022,246.4499 L 244.1066,236.85 L 239.6469,227.1633 L 234.648,217.4644 L 229.1402,207.8272 L 223.1593,198.3241 L 216.7459,189.0256 L 209.9455,179.9997 L 202.808,171.3112 L 195.3871,163.0211 L 187.7403,155.1866 L 179.9278,147.8603 L 172.0127,141.0896 L 164.06,134.917 L 156.136,129.379 L 148.3081,124.5064 L 140.644,120.3241 L 133.2109,116.8506 L 126.0754,114.0982 L 119.3024,112.0727 L 112.9548,110.7738 L 107.093,110.1949 L 101.7741,110.3232 L 97.0514,111.14 L 92.9743,112.6211 L 89.5871,114.7367 L 86.9294,117.4519 L 85.0351,120.7273 L 83.9324,124.519 L 83.6432,128.7793 L 84.1831,133.4573 L 85.5613,138.4991 L 87.7801,143.8484 L 90.8352,149.4472 L 94.7154,155.2363 L 99.4027,161.1558 L 104.8725,167.1456 L 111.0939,173.1463 L 118.0292,179.0993 L 125.6352,184.9475 L 133.8625,190.6361 L 142.6568,196.1127 L 151.9585,201.3281 L 161.7035,206.2364 L 171.824,210.7957 L 182.2485,214.9684 L 192.9025,218.7213 L 203.7094,222.0263 L 214.5908,224.8602 L 225.4672,227.2051 L 236.2586,229.0486 L 246.8853,230.3838 L 257.2685,231.209 L 267.3306,231.5283 L 276.9964,231.351 L 286.1933,230.6919 L 294.8521,229.5706 L 302.9072,228.0117 L 310.2979,226.0443 L 316.9679,223.7019 L 322.8667,221.0217 L 327.9493,218.0446 L 332.177,214.8145 L 335.5176,211.3777 L 337.9456,207.783 L 339.4424,204.0805 L 339.9966,200.3217 L 339.6039,196.5584 L 338.2674,192.8427 L 335.9972,189.226 L 332.8107,185.7588 L 328.7323,182.49 L 323.7931,179.4665 L 318.0306,176.7327 L 311.4887,174.3299 L 304.2173,172.2961 L 296.2713,170.6653 L 287.7111,169.4674 L 278.6012,168.7279 L 269.0104,168.4672 L 259.0106,168.7009 L 248.6769,169.4394 L 238.0861,170.6874 " fill="rgba(255,255,0,0.7)" stroke="none"/>
  <path d="M 153.9903,197.6038 L 144.5892,202.7578 L 135.6822,208.183 L 127.3298,213.831 L 119.5878,219.6498 L 112.5064,225.5853 L 106.1303,231.5807 L 100.4983,237.5778 L 95.6427,243.5172 L 91.5897,249.339 L 88.3585,254.9831 L 85.9617,260.3902 L 84.4052,265.502 L 83.688,270.2617 L 83.8025,274.615 L 84.7343,278.5102 L 86.4629,281.8988 L 88.9613,284.7363 L 92.1969,286.9821 L 96.1313,288.6004 L 100.721,289.5604 L 105.9178,289.8365 L 111.6691,289.4088 L 117.9186,288.2633 L 124.6065,286.3922 L 131.6705,283.7936 L 139.046,280.4722 L 146.6668,276.4389 L 154.4656,271.7109 L 162.3748,266.3117 L 170.3271,260.2707 L 178.2556,253.6235 L 186.0952,246.4112 L 193.7823,238.6803 L 201.256,230.4823 L 208.4582,221.8732 L 215.3344,212.9135 L 221.8338,203.6673 L 227.91,194.2018 L 233.5213,184.587 L 238.6309,174.8951 L 243.2072,165.1995 L 247.2242,155.575 L 250.6617,146.0964 L 253.5049,136.8381 L 255.7451,127.8739 L 257.3795,119.2758 L 258.4109,111.1136 L 258.848,103.4544 L 258.7051,96.3622 L 258.0017,89.8967 L 256.7625,84.1134 L 255.0171,79.063 L 252.7997,74.7908 L 250.1483,71.3361 L 247.1049,68.7325 L 243.7147,67.0071 L 240.0256,66.18 L 236.0879,66.2649 L 231.9537,67.2682 L 227.6763,69.1893 L 223.3097,72.0205 L 218.9082,75.7471 L 214.5255,80.3471 L 210.2147,85.7919 L 206.0272,92.0463 L 202.0125,99.0685 L 198.2179,106.8109 L 194.6876,115.2199 L 191.4625,124.2369 L 188.5797,133.7983 L 186.0725,143.8363 L 183.9694,154.2791 L 182.2945,165.0519 L 181.0669,176.0772 L 180.3004,187.2755 L 180.0038,198.5657 L 180.1805,209.8663 L 180.8284,221.0956 L 181.9402,232.1723 L 183.5032,243.0166 L 185.4998,253.5503 L 187.907,263.6979 L 190.6975,273.3868 L 193.8392,282.5481 L 197.2958,291.1171 L 201.0274,299.0338 L 204.9906,306.2435 L 209.1389,312.6968 L 213.4232,318.3506 L 217.7926,323.1678 L 222.1944,327.1183 L 226.575,330.1782 L 230.8802,332.3312 L 235.0558,333.5677 L 239.0483,333.8852 L 242.8053,333.2884 L 246.276,331.7892 L 249.4117,329.406 L 252.1666,326.1643 L 254.4979,322.0959 L 256.3664,317.2388 L 257.737,311.6369 L 258.5788,305.3394 L 258.866,298.4006 L 258.5776,290.8794 L 257.6979,282.8385 L 256.217,274.3444 L 254.1304,265.4663 L 251.4395,256.2757 L 248.1517,246.846 L 244.2799,237.2513 L 239.8432,227.5668 L 234.8662,217.8669 L 229.3789,208.2256 L 223.4168,198.7156 L 217.0205,189.4072 L 210.2353,180.3687 L 203.1108,171.6648 L 195.7005,163.357 L 188.0619,155.5025 L 180.2551,148.1541 L 172.343,141.3595 L 164.3905,135.1612 L 156.4639,129.5961 L 148.6307,124.6954 L 140.9584,120.484 L 133.5144,116.9807 L 126.3652,114.1981 L 119.5759,112.1424 L 113.2094,110.8134 L 107.3263,110.2048 L 101.9837,110.304 L 97.2352,111.0927 L 93.1303,112.5467 L 89.7136,114.6365 L 87.0249,117.3276 L 85.0983,120.5805 L 83.9622,124.3517 L 83.6388,128.5936 L 84.144,133.2552 L 85.4873,138.283 L 87.6712,143.6206 L 90.6917,149.2102 L 94.5379,154.9926 L 99.1921,160.9079 L 104.63,166.896 L 110.8207,172.8974 L 117.7272,178.8535 L 125.3062,184.7072 L 133.5088,190.4035 L 142.2807,195.8899 L 151.5625,201.1171 L 161.2905,206.039 L 171.3967,210.6136 L 181.81,214.8031 L 192.456,218.574 L 203.2581,221.8981 L 214.138,224.752 L 225.0162,227.1176 L 235.8127,228.9821 L 246.4479,230.3384 L 256.8427,231.1848 L 266.9197,231.525 L 276.6035,231.3681 L 285.8213,230.7286 L 294.5037,229.6261 L 302.5852,228.0848 L 310.0046,226.1338 L 316.7057,223.8063 L 322.6374,221.1393 L 327.7548,218.1737 L 332.0187,214.9532 L 335.3968,211.5241 L 337.8631,207.9349 L 339.3989,204.2359 L 339.9924,200.4784 L 339.639,196.7143 L 338.3416,192.9956 L 336.11,189.3737 L 332.9612,185.8993 L 328.9193,182.6213 L 324.0151,179.5868 L 318.286,176.8401 L 311.7756,174.4227 L 304.5334,172.3728 L 296.6143,170.7246 L 288.0784,169.5082 L 278.99,168.7492 L 269.4177,168.4683 L 259.4335,168.6812 L 249.1121,169.3985 L 238.5305,170.6253 L 227.7674,172.3614 L 216.9024,174.6007 L 206.0154,177.3322 L 195.186,180.5389 L 184.4931,184.199 L 174.0136,188.2852 L 163.8225,192.7654 L 153.992,197.603 L 144.5907,202.7569 L 135.6836,208.1821 L 127.3312,213.83 L 119.589,219.6489 L 112.5075,225.5843 L 106.1313,231.5797 L 100.4992,237.5768 L 95.6435,243.5162 L 91.5903,249.338 L 88.3589,254.9822 L 85.962,260.3893 L 84.4054,265.5011 L 83.6881,270.2609 L 83.8024,274.6143 L 84.7341,278.5095 L 86.4625,281.8983 L 88.9608,284.7359 L 92.1963,286.9818 L 96.1305,288.6002 L 100.7202,289.5603 L 105.9169,289.8365 L 111.6681,289.4089 L 117.9175,288.2636 L 124.6054,286.3926 L 131.6693,283.7941 L 139.0448,280.4729 L 146.6655,276.4397 L 154.4642,271.7118 L 162.3735,266.3126 L 170.3257,260.2718 L 178.2543,253.6247 L 186.0939,246.4125 L 193.781,238.6817 L 201.2548,230.4837 L 208.4571,221.8747 L 215.3333,212.9151 L 221.8328,203.6689 L 227.909,194.2034 L 233.5204,184.5887 L 238.63,174.8967 L 243.2065,165.2012 L 247.2236,155.5766 L 250.6611,146.098 L 253.5044,136.8397 L 255.7448,127.8754 L 257.3792,119.2772 L 258.4108,111.1149 L 258.848,103.4557 L 258.7052,96.3633 L 258.0018,89.8977 L 256.7628,84.1143 L 255.0175,79.0638 L 252.8001,74.7914 L 250.1488,71.3366 L 247.1054,68.7329 L 243.7153,67.0073 L 240.0262,66.1801 L 236.0886,66.2648 L 231.9544,67.2679 L 227.677,69.1889 L 223.3104,72.02 L 218.9089,75.7463 L 214.5263,80.3462 L 210.2154,85.7909 L 206.0279,92.0451 L 202.0132,99.0672 L 198.2186,106.8095 L 194.6882,115.2184 L 191.463,124.2353 L 188.5802,133.7967 L 186.0729,143.8346 L 183.9698,154.2773 L 182.2948,165.0501 L 181.067,176.0754 L 180.3005,187.2736 L 180.0038,198.5638 L 180.1804,209.8644 L 180.8282,221.0937 L 181.9399,232.1705 L 183.5029,243.0148 L 185.4994,253.5486 L 187.9066,263.6962 L 190.697,273.3852 L 193.8386,282.5466 L 197.2952,291.1157 L 201.0268,299.0326 L 204.9899,306.2423 L 209.1382,312.6958 L 213.4225,318.3497 L 217.7919,323.1671 L 222.1937,327.1177 L 226.5743,330.1778 L 230.8794,332.3309 L 235.0551,333.5675 L 239.0476,333.8852 L 242.8047,333.2886 L 246.2754,331.7895 L 249.4112,329.4065 L 252.1662,326.1649 L 254.4976,322.0967 L 256.3662,317.2397 L 257.7368,311.6379 L 258.5787,305.3405 L 258.866,298.4018 L 258.5777,290.8807 L 257.6981,282.8399 L 256.2173,274.3459 L 254.1308,265.4678 L 251.44,256.2773 L 248.1523,246.8476 L 244.2806,237.253 L 239.844,227.5684 L 234.867,217.8685 L 229.3798,208.2273 L 223.4179,198.7171 L 217.0217,189.4088 L 210.2365,180.3702 L 203.112,171.6662 L 195.7018,163.3584 L 188.0632,155.5038 L 180.2564,148.1553 L 172.3443,141.3606 L 164.3918,135.1622 L 156.4653,129.597 L 148.632,124.6962 L 140.9597,120.4846 L 133.5157,116.9813 L 126.3664,114.1986 L 119.577,112.1427 L 113.2105,110.8136 L 107.3272,110.2048 L 101.9845,110.3039 L 97.236,111.0925 L 93.1309,112.5464 L 89.7142,114.6361 L 87.0253,117.3271 L 85.0986,120.5799 L 83.9623,124.351 L 83.6387,128.5928 L 84.1439,133.2544 L 85.487,138.2821 L 87.6708,143.6197 L 90.6911,149.2093 L 94.5371,154.9916 L 99.1912,160.9069 L 104.629,166.895 L 110.8196,172.8964 L 117.726,178.8525 L 125.3049,184.7062 L 133.5074,190.4025 L 142.2792,195.889 L 151.5609,201.1162 L 161.2888,206.0382 L 171.395,210.6129 L 181.8082,214.8024 L 192.4542,218.5734 L 203.2563,221.8976 L 214.1361,224.7516 L 225.0143,227.1172 L 235.8109,228.9818 L 246.4461,230.3382 L 256.841,231.1847 L 266.918,231.5249 L 276.6019,231.3682 L 285.8197,230.7288 L 294.5023,229.6263 L 302.5839,228.0851 L 310.0034,226.1342 L 316.7046,223.8067 L 322.6365,221.1398 L 327.754,218.1743 L 332.0181,214.9537 L 335.3963,211.5246 L 337.8628,207.9355 L 339.3987,204.2366 L 339.9923,200.479 L 339.6392,196.7149 L 338.3419,192.9962 L 336.1104,189.3743 L 332.9618,185.8999 L 328.92,182.6219 L 324.016,179.5873 L 318.287,176.8405 L 311.7767,174.4231 L 304.5347,172.3731 L 296.6157,170.7249 L 288.0798,169.5084 L 278.9916,168.7493 L 269.4194,168.4683 L 259.4352,168.6811 L 249.1139,169.3984 L 238.5323,170.6251 L 227.7692,172.361 L 216.9042,174.6003 L 206.0172,177.3317 L 195.1879,180.5383 L 184.4949,184.1983 L 174.0154,188.2844 L 163.8242,192.7646 L 153.9936,197.6022 L 144.5923,202.756 L 135.6851,208.1812 L 127.3325,213.829 L 119.5903,219.6479 L 112.5087,225.5833 L 106.1323,231.5787 L 100.5001,237.5758 L 95.6442,243.5152 L 91.5909,249.337 L 88.3594,254.9813 L 85.9624,260.3884 L 84.4056,265.5003 L 83.6881,270.2601 L 83.8023,274.6136 L 84.7339,278.5089 L 86.4622,281.8978 L 88.9603,284.7354 L 92.1957,286.9815 L 96.1298,288.6 L 100.7193,289.5602 L 105.9159,289.8365 L 111.6671,289.409 L 117.9164,288.2638 L 124.6042,286.3929 L 131.6681,283.7946 L 139.0435,280.4735 L 146.6642,276.4404 L 154.4629,271.7126 L 162.3721,266.3136 L 170.3244,260.2729 L 178.253,253.6259 L 186.0926,246.4138 L 193.7798,238.683 L 201.2535,230.4851 L 208.4559,221.8762 L 215.3322,212.9166 L 221.8317,203.6705 L 227.9081,194.205 L 233.5195,184.5903 L 238.6292,174.8983 L 243.2057,165.2028 L 247.223,155.5783 L 250.6606,146.0996 L 253.504,136.8412 L 255.7444,127.8769 L 257.379,119.2786 L 258.4106,111.1162 L 258.848,103.4569 L 258.7052,96.3645 L 258.002,89.8987 L 256.763,84.1153 L 255.0178,79.0646 L 252.8005,74.7921 L 250.1493,71.3371 L 247.106,68.7333 L 243.7159,67.0075 L 240.0269,66.1801 L 236.0892,66.2647 L 231.9551,67.2677 L 227.6777,69.1885 L 223.3112,72.0194 L 218.9097,75.7456 L 214.527,80.3454 L 210.2161,85.7899 L 206.0286,92.044 L 202.0139,99.066 L 198.2192,106.8081 L 194.6888,115.2169 L 191.4635,124.2338 L 188.5807,133.795 L 186.0733,143.8328 L 183.9701,154.2755 L 182.295,165.0483 L 181.0672,176.0735 L 180.3006,187.2717 L 180.0038,198.5619 L 180.1803,209.8625 L 180.8281,221.0918 L 181.9397,232.1686 L 183.5026,243.013 L 185.499,253.5469 L 187.9062,263.6946 L 190.6965,273.3836 L 193.838,282.5451 L 197.2946,291.1143 L 201.0261,299.0313 L 204.9892,306.2412 L 209.1374,312.6948 L 213.4218,318.3488 L 217.7911,323.1664 L 222.193,327.1171 L 226.5735,330.1774 L 230.8787,332.3307 L 235.0544,333.5674 L 239.047,333.8852 L 242.804,333.2888 L 246.2748,331.7898 L 249.4107,329.407 L 252.1658,326.1656 L 254.4972,322.0974 L 256.3659,317.2406 L 257.7366,311.6389 L 258.5786,305.3416 L 258.866,298.403 L 258.5777,290.882 L 257.6983,282.8413 L 256.2176,274.3474 L 254.1312,265.4694 L 251.4405,256.2789 L 248.1529,246.8492 L 244.2813,237.2546 L 239.8448,227.57 L 234.8679,217.8702 L 229.3808,208.2289 L 223.4189,198.7187 L 217.0228,189.4103 L 210.2377,180.3717 L 203.1132,171.6677 L 195.7031,163.3598 L 188.0645,155.5051 L 180.2577,148.1565 L 172.3457,141.3616 L 164.3932,135.1631 L 156.4666,129.5979 L 148.6333,124.6969 L 140.961,120.4853 L 133.5169,116.9818 L 126.3676,114.199 L 119.5781,112.143 L 113.2115,110.8137 L 107.3282,110.2048 L 101.9854,110.3038 L 97.2367,111.0923 L 93.1316,112.5461 L 89.7147,114.6357 L 87.0257,117.3266 L 85.0988,120.5793 L 83.9624,124.3503 L 83.6387,128.592 L 84.1437,133.2536 L 85.4867,138.2812 L 87.6703,143.6188 L 90.6905,149.2083 L 94.5364,154.9906 L 99.1903,160.9059 L 104.628,166.894 L 110.8185,172.8954 L 117.7248,178.8515 L 125.3036,184.7052 L 133.506,190.4016 L 142.2776,195.8881 L 151.5593,201.1154 L 161.2871,206.0374 L 171.3933,210.6122 L 181.8065,214.8017 L 192.4524,218.5728 L 203.2544,221.8971 L 214.1343,224.7511 L 225.0125,227.1169 L 235.8091,228.9816 L 246.4443,230.3381 L 256.8392,231.1846 L 266.9164,231.5249 L 276.6003,231.3682 L 285.8182,230.7289 L 294.5009,229.6265 L 302.5826,228.0854 L 310.0022,226.1345 L 316.7035,223.8071 L 322.6356,221.1403 L 327.7532,218.1748 L 332.0174,214.9543 L 335.3958,211.5252 L 337.8624,207.9361 L 339.3985,204.2372 L 339.9923,200.4797 L 339.6393,196.7156 L 338.3422,192.9968 L 336.1109,189.3749 L 332.9624,185.9005 L 328.9208,182.6224 L 324.0169,179.5877 L 318.288,176.8409 L 311.7779,174.4235 L 304.5359,172.3735 L 296.6171,170.7251 L 288.0813,169.5086 L 278.9932,168.7494 L 269.4211,168.4683 L 259.437,168.681 L 249.1156,169.3982 L 238.5341,170.6248 L 227.771,172.3607 L 216.906,174.5999 L 206.019,177.3312 L 195.1897,180.5378 L 184.4967,184.1977 L 174.0171,188.2837 L 163.8259,192.7638 L 153.9952,197.6013 L 144.5938,202.7551 L 135.6865,208.1802 L 127.3339,213.828 L 119.5915,219.6469 L 112.5098,225.5823 L 106.1334,231.5776 L 100.5009,237.5748 L 95.645,243.5142 L 91.5915,249.3361 L 88.3599,254.9803 L 85.9627,260.3876 L 84.4058,265.4995 L 83.6882,270.2594 L 83.8022,274.6129 L 84.7336,278.5083 L 86.4618,281.8972 L 88.9599,284.735 L 92.1951,286.9811 L 96.1291,288.5998 L 100.7185,289.5601 L 105.915,289.8365 L 111.6661,289.4092 L 117.9153,288.2641 L 124.603,286.3933 L 131.6669,283.7951 L 139.0422,280.4741 L 146.6629,276.4411 L 154.4616,271.7135 L 162.3708,266.3146 L 170.323,260.2739 L 178.2516,253.6271 L 186.0913,246.415 L 193.7785,238.6844 L 201.2523,230.4865 L 208.4547,221.8777 L 215.331,212.9182 L 221.8306,203.672 L 227.9071,194.2066 L 233.5186,184.5919 L 238.6284,174.9 L 243.205,165.2044 L 247.2223,155.5799 L 250.6601,146.1011 L 253.5036,136.8428 L 255.7441,127.8784 L 257.3788,119.28 L 258.4105,111.1176 L 258.848,103.4582 L 258.7053,96.3656 L 258.0022,89.8998 L 256.7633,84.1162 L 255.0182,79.0654 L 252.8009,74.7927 L 250.1497,71.3377 L 247.1065,68.7336 L 243.7165,67.0077 L 240.0275,66.1802 L 236.0899,66.2646 L 231.9558,67.2674 L 227.6785,69.1881 L 223.3119,72.0189 L 218.9104,75.7449 L 214.5277,80.3445 L 210.2168,85.7889 L 206.0293,92.0429 L 202.0145,99.0648 L 198.2198,106.8068 L 194.6893,115.2155 L 191.464,124.2322 L 188.5811,133.7933 L 186.0737,143.8311 L 183.9704,154.2737 L 182.2953,165.0464 L 181.0674,176.0716 L 180.3007,187.2697 L 180.0038,198.56 L 180.1803,209.8606 L 180.8279,221.0899 L 181.9395,232.1668 L 183.5023,243.0112 L 185.4987,253.5451 L 187.9057,263.6929 L 190.696,273.382 L 193.8375,282.5436 L 197.294,291.1129 L 201.0255,299.03 L 204.9885,306.24 L 209.1367,312.6937 L 213.421,318.3479 L 217.7904,323.1656 L 222.1922,327.1165 L 226.5728,330.1769 L 230.878,332.3304 L 235.0537,333.5673 L 239.0463,333.8852 L 242.8034,333.289 L 246.2743,331.7901 L 249.4102,329.4074 L 252.1654,326.1662 L 254.4969,322.0982 L 256.3656,317.2415 L 257.7364,311.6399 L 258.5785,305.3427 L 258.866,298.4043 L 258.5778,290.8833 L 257.6985,282.8427 L 256.2179,274.3488 L 254.1316,265.4709 L 251.441,256.2805 L 248.1535,246.8508 L 244.282,237.2562 L 239.8456,227.5717 L 234.8688,217.8718 L 229.3818,208.2305 L 223.42,198.7203 L 217.0239,189.4119 L 210.2388,180.3732 L 203.1144,171.6691 L 195.7044,163.3611 L 188.0658,155.5064 L 180.2591,148.1577 L 172.347,141.3627 L 164.3945,135.1641 L 156.4679,129.5988 L 148.6347,124.6977 L 140.9623,120.4859 L 133.5181,116.9823 L 126.3688,114.1994 L 119.5792,112.1433 L 113.2125,110.8139 L 107.3291,110.2049 L 101.9862,110.3037 L 97.2375,111.0921 L 93.1322,112.5458 L 89.7152,114.6353 L 87.0261,117.3261 L 85.0991,120.5788 L 83.9625,124.3497 L 83.6387,128.5913 L 84.1435,133.2528 L 85.4864,138.2803 L 87.6699,143.6178 L 90.6899,149.2073 L 94.5357,154.9896 L 99.1895,160.9049 L 104.627,166.893 L 110.8174,172.8944 L 117.7235,178.8505 L 125.3022,184.7042 L 133.5045,190.4006 L 142.2761,195.8872 L 151.5577,201.1145 L 161.2854,206.0366 L 171.3915,210.6114 L 181.8047,214.801 L 192.4506,218.5722 L 203.2526,221.8966 L 214.1325,224.7507 L 225.0107,227.1165 L 235.8073,228.9813 L 246.4425,230.3379 L 256.8375,231.1845 L 266.9147,231.5249 L 276.5987,231.3683 L 285.8167,230.7291 L 294.4994,229.6268 L 302.5813,228.0857 L 310.001,226.1349 L 316.7025,223.8075 L 322.6346,221.1408 L 327.7524,218.1753 L 332.0168,214.9549 L 335.3953,211.5258 L 337.8621,207.9368 L 339.3983,204.2378 L 339.9923,200.4803 L 339.6395,196.7162 L 338.3425,192.9974 L 336.1113,189.3755 L 332.963,185.901 L 328.9215,182.6229 L 324.0178,179.5882 L 318.2891,176.8414 L 311.7791,174.4239 L 304.5372,172.3738 L 296.6185,170.7254 L 288.0828,169.5087 L 278.9947,168.7494 L 269.4227,168.4683 L 259.4387,168.681 L 249.1174,169.398 L 238.5359,170.6246 L 227.7729,172.3604 L 216.9079,174.5995 L 206.0209,177.3307 L 195.1915,180.5372 L 184.4985,184.197 L 174.0189,188.283 L 163.8276,192.763 L 153.9968,197.6005 L 144.5954,202.7542 L 135.688,208.1793 L 127.3353,213.8271 L 119.5928,219.6459 L 112.5109,225.5812 L 106.1344,231.5766 L 100.5018,237.5737 L 95.6457,243.5132 L 91.5921,249.3351 L 88.3604,254.9794 L 85.963,260.3867 L 84.406,265.4986 L 83.6882,270.2586 L 83.8021,274.6122 L 84.7334,278.5077 L 86.4614,281.8967 L 88.9594,284.7346 L 92.1945,286.9808 L 96.1284,288.5996 L 100.7177,289.56 L 105.9141,289.8365 L 111.6651,289.4093 L 117.9142,288.2643 L 124.6019,286.3937 L 131.6657,283.7956 L 139.0409,280.4747 L 146.6616,276.4419 L 154.4603,271.7143 L 162.3695,266.3155 L 170.3217,260.275 L 178.2503,253.6282 L 186.09,246.4163 L 193.7772,238.6857 L 201.2511,230.4879 L 208.4535,221.8792 L 215.3299,212.9197 L 221.8296,203.6736 L 227.9061,194.2083 L 233.5177,184.5936 L 238.6276,174.9016 L 243.2043,165.2061 L 247.2217,155.5815 L 250.6595,146.1027 L 253.5032,136.8443 L 255.7438,127.8799 L 257.3786,119.2814 L 258.4104,111.1189 L 258.8479,103.4594 L 258.7054,96.3668 L 258.0023,89.9008 L 256.7635,84.1171 L 255.0185,79.0662 L 252.8013,74.7934 L 250.1502,71.3382 L 247.1071,68.734 L 243.7171,67.0079 L 240.0281,66.1803 L 236.0906,66.2645 L 231.9565,67.2672 L 227.6792,69.1877 L 223.3127,72.0183 L 218.9111,75.7442 L 214.5285,80.3437 L 210.2176,85.7879 L 206.0299,92.0418 L 202.0152,99.0635 L 198.2204,106.8054 L 194.6899,115.214 L 191.4646,124.2306 L 188.5816,133.7917 L 186.0741,143.8294 L 183.9707,154.2719 L 182.2955,165.0446 L 181.0676,176.0697 L 180.3008,187.2678 L 180.0039,198.5581 L 180.1802,209.8587 L 180.8278,221.088 L 181.9393,232.1649 L 183.502,243.0094 L 185.4983,253.5434 L 187.9053,263.6912 L 190.6955,273.3804 L 193.8369,282.5421 L 197.2934,291.1115 L 201.0248,299.0287 L 204.9879,306.2389 L 209.136,312.6927 L 213.4203,318.347 L 217.7897,323.1649 L 222.1915,327.1159 L 226.5721,330.1765 L 230.8773,332.3301 L 235.053,333.5671 L 239.0457,333.8853 L 242.8028,333.2891 L 246.2737,331.7905 L 249.4097,329.4079 L 252.1649,326.1668 L 254.4965,322.099 L 256.3653,317.2424 L 257.7362,311.6409 L 258.5784,305.3439 L 258.866,298.4055 L 258.5779,290.8846 L 257.6987,282.8441 L 256.2182,274.3503 L 254.132,265.4724 L 251.4415,256.282 L 248.1541,246.8524 L 244.2827,237.2579 L 239.8464,227.5733 L 234.8697,217.8734 L 229.3827,208.2321 L 223.421,198.7219 L 217.025,189.4134 L 210.24,180.3747 L 203.1157,171.6706 L 195.7056,163.3625 L 188.0671,155.5077 L 180.2604,148.1589 L 172.3483,141.3638 L 164.3958,135.1651 L 156.4693,129.5996 L 148.636,124.6985 L 140.9635,120.4866 L 133.5194,116.9829 L 126.3699,114.1998 L 119.5803,112.1436 L 113.2136,110.8141 L 107.3301,110.2049 L 101.9871,110.3037 L 97.2382,111.0919 L 93.1329,112.5455 L 89.7157,114.6349 L 87.0265,117.3256 L 85.0993,120.5782 L 83.9627,124.349 L 83.6387,128.5905 L 84.1434,133.252 L 85.4861,138.2795 L 87.6694,143.6169 L 90.6894,149.2064 L 94.535,154.9887 L 99.1886,160.9039 L 104.626,166.8919 L 110.8163,172.8934 L 117.7223,178.8495 L 125.3009,184.7033 L 133.5031,190.3997 L 142.2746,195.8863 L 151.5561,201.1137 L 161.2838,206.0358 L 171.3898,210.6107 L 181.8029,214.8004 L 192.4488,218.5716 L 203.2508,221.8961 L 214.1306,224.7502 L 225.0088,227.1161 L 235.8055,228.981 L 246.4408,230.3377 L 256.8358,231.1844 L 266.913,231.5249 L 276.5971,231.3684 L 285.8152,230.7292 L 294.498,229.627 L 302.58,228.086 L 309.9998,226.1352 L 316.7014,223.8079 L 322.6337,221.1413 L 327.7516,218.1758 L 332.0162,214.9554 L 335.3948,211.5264 L 337.8617,207.9374 L 339.3982,204.2384 L 339.9923,200.481 L 339.6396,196.7168 L 338.3428,192.998 L 336.1118,189.3761 L 332.9636,185.9016 L 328.9223,182.6235 L 324.0187,179.5887 L 318.2901,176.8418 L 311.7802,174.4242 L 304.5385,172.3741 L 296.6199,170.7256 L 288.0843,169.5089 L 278.9963,168.7495 L 269.4244,168.4683 L 259.4404,168.6809 L 249.1192,169.3979 L 238.5377,170.6243 L 227.7747,172.36 L 216.9097,174.5991 L 206.0227,177.3302 L 195.1933,180.5366 L 184.5002,184.1964 L 174.0206,188.2823 L 163.8293,192.7623 L 153.9985,197.5996 " fill="rgba(0,255,0,0.7)" stroke="none"/>
</svg>