<?xml version="1.0" encoding="UTF-8"?>
<svg xmlns="http://www.w3.org/2000/svg" width="500" height="400" viewBox="0 0 500 400">
  <rect x="0" y="0" width="500" height="400" fill="#050514"/>
  <circle cx="0" cy="205.542" r="-1.9306" fill="rgba(127,127,178,0.5)"/>
  <circle cx="-229.187" cy="22.1802" r="1.9233" fill="rgba(200,200,251,0.7846527099609375)"/>
  <circle cx="-458.3893" cy="-161.1694" r="0.7773" fill="rgba(17,17,68,0.0693359375)"/>
  <circle cx="312.3779" cy="-344.5312" r="-0.3687" fill="rgba(90,90,141,0.3539886474609375)"/>
  <circle cx="83.1757" cy="272.0947" r="-1.5147" fill="rgba(162,162,213,0.638641357421875)"/>
  <circle cx="-146.0114" cy="88.7329" r="2.3392" fill="rgba(235,235,255,0.9232940673828125)"/>
  <circle cx="-375.2136" cy="-94.6167" r="1.1932" fill="rgba(53,53,104,0.207977294921875)"/>
  <circle cx="395.5688" cy="-277.9907" r="0.0473" fill="rgba(125,125,176,0.4926300048828125)"/>
  <circle cx="166.3666" cy="338.6353" r="-1.0987" fill="rgba(198,198,249,0.77728271484375)"/>
  <circle cx="-62.8204" cy="155.2734" r="2.7552" fill="rgba(15,15,66,0.06195068359375)"/>
  <circle cx="-292.0227" cy="-28.0762" r="1.6091" fill="rgba(88,88,139,0.34661865234375)"/>
  <circle cx="478.7598" cy="-211.438" r="0.4632" fill="rgba(160,160,211,0.6312713623046875)"/>
  <circle cx="249.5575" cy="-394.7998" r="-0.6829" fill="rgba(233,233,255,0.915924072265625)"/>
  <circle cx="20.3552" cy="221.8262" r="-1.8289" fill="rgba(51,51,102,0.2006072998046875)"/>
  <circle cx="-208.8318" cy="38.4644" r="2.025" fill="rgba(123,123,174,0.485260009765625)"/>
  <circle cx="-438.0493" cy="-144.8853" r="0.879" fill="rgba(196,196,247,0.7699127197265625)"/>
  <circle cx="332.7332" cy="-328.2471" r="-0.2669" fill="rgba(13,13,64,0.0545806884765625)"/>
  <circle cx="103.5309" cy="288.3789" r="-1.4129" fill="rgba(86,86,137,0.3392486572265625)"/>
  <circle cx="-125.6561" cy="105.0171" r="2.441" fill="rgba(159,159,210,0.6238861083984375)"/>
  <circle cx="-354.8584" cy="-78.3447" r="1.295" fill="rgba(231,231,255,0.9085540771484375)"/>
  <circle cx="415.9241" cy="-261.7065" r="0.149" fill="rgba(49,49,100,0.1932220458984375)"/>
  <circle cx="186.7218" cy="354.9194" r="-0.997" fill="rgba(121,121,172,0.4778900146484375)"/>
  <circle cx="-42.4652" cy="171.5576" r="2.8569" fill="rgba(194,194,245,0.7625274658203125)"/>
  <circle cx="-271.6675" cy="-11.792" r="1.7109" fill="rgba(12,12,63,0.047210693359375)"/>
  <circle cx="499.115" cy="-195.1538" r="0.5648" fill="rgba(84,84,135,0.3318634033203125)"/>
  <circle cx="269.9127" cy="-378.5156" r="-0.5811" fill="rgba(157,157,208,0.61651611328125)"/>
  <circle cx="40.7104" cy="238.1104" r="-1.7271" fill="rgba(229,229,255,0.90118408203125)"/>
  <circle cx="-188.4766" cy="54.7485" r="2.1268" fill="rgba(47,47,98,0.18585205078125)"/>
  <circle cx="-417.6941" cy="-128.6011" r="0.9808" fill="rgba(119,119,170,0.47052001953125)"/>
  <circle cx="353.0884" cy="-311.9629" r="-0.1651" fill="rgba(192,192,243,0.755157470703125)"/>
  <circle cx="123.8861" cy="304.6631" r="-1.3111" fill="rgba(10,10,61,0.0398406982421875)"/>
  <circle cx="-105.3009" cy="121.2891" r="2.5428" fill="rgba(82,82,133,0.324493408203125)"/>
  <circle cx="-334.5032" cy="-62.0605" r="1.3968" fill="rgba(155,155,206,0.6091461181640625)"/>
  <circle cx="436.2793" cy="-245.4224" r="0.2508" fill="rgba(227,227,255,0.893798828125)"/>
  <circle cx="207.077" cy="371.2036" r="-0.8952" fill="rgba(45,45,96,0.1784820556640625)"/>
  <circle cx="-22.11" cy="187.8418" r="2.9586" fill="rgba(118,118,169,0.463134765625)"/>
  <circle cx="-251.3123" cy="4.48" r="1.8126" fill="rgba(190,190,241,0.7477874755859375)"/>
  <circle cx="-480.5145" cy="-178.8696" r="0.6666" fill="rgba(8,8,59,0.0324554443359375)"/>
  <circle cx="290.2679" cy="-362.2314" r="-0.4793" fill="rgba(80,80,131,0.3171234130859375)"/>
  <circle cx="61.0657" cy="254.3945" r="-1.6253" fill="rgba(153,153,204,0.6017608642578125)"/>
  <circle cx="-168.1366" cy="71.0327" r="2.2286" fill="rgba(226,226,255,0.8864288330078125)"/>
  <circle cx="-397.3389" cy="-112.3169" r="1.0826" fill="rgba(43,43,94,0.1710968017578125)"/>
  <circle cx="373.4436" cy="-295.6787" r="-0.0634" fill="rgba(116,116,167,0.4557647705078125)"/>
  <circle cx="144.2413" cy="320.9473" r="-1.2094" fill="rgba(188,188,239,0.74041748046875)"/>
  <circle cx="-84.9457" cy="137.5732" r="2.6445" fill="rgba(6,6,57,0.02508544921875)"/>
  <circle cx="-314.1479" cy="-45.7764" r="1.4985" fill="rgba(78,78,129,0.30975341796875)"/>
  <circle cx="456.6345" cy="-229.1382" r="0.3526" fill="rgba(151,151,202,0.594390869140625)"/>
  <circle cx="227.4323" cy="387.4878" r="-0.7935" fill="rgba(224,224,255,0.879058837890625)"/>
  <circle cx="-1.7548" cy="204.126" r="-1.9395" fill="rgba(41,41,92,0.163726806640625)"/>
  <circle cx="-230.957" cy="20.7642" r="1.9144" fill="rgba(114,114,165,0.448394775390625)"/>
  <circle cx="-460.1593" cy="-162.5854" r="0.7684" fill="rgba(186,186,237,0.7330322265625)"/>
  <circle cx="310.6232" cy="-345.9473" r="-0.3775" fill="rgba(4,4,55,0.0177154541015625)"/>
  <circle cx="81.4056" cy="270.6787" r="-1.5235" fill="rgba(77,77,128,0.3023681640625)"/>
  <circle cx="-147.7814" cy="87.3169" r="2.3304" fill="rgba(149,149,200,0.5870208740234375)"/>
  <circle cx="-376.9836" cy="-96.0327" r="1.1844" fill="rgba(222,222,255,0.871673583984375)"/>
  <circle cx="393.7988" cy="-279.3945" r="0.0384" fill="rgba(39,39,90,0.1563568115234375)"/>
  <circle cx="164.5966" cy="337.2192" r="-1.1076" fill="rgba(112,112,163,0.441009521484375)"/>
  <circle cx="-64.5905" cy="153.8574" r="2.7463" fill="rgba(185,185,236,0.7256622314453125)"/>
  <circle cx="-293.7927" cy="-29.4922" r="1.6003" fill="rgba(2,2,53,0.010345458984375)"/>
  <circle cx="476.9897" cy="-212.854" r="0.4544" fill="rgba(75,75,126,0.2949981689453125)"/>
  <circle cx="247.7875" cy="-396.2158" r="-0.6917" fill="rgba(147,147,198,0.57965087890625)"/>
  <circle cx="18.5852" cy="220.4102" r="-1.8377" fill="rgba(220,220,255,0.8643035888671875)"/>
  <circle cx="-210.6018" cy="37.0483" r="2.0162" fill="rgba(37,37,88,0.14898681640625)"/>
  <circle cx="-439.8041" cy="-146.3013" r="0.8702" fill="rgba(110,110,161,0.4336395263671875)"/>
  <circle cx="330.9784" cy="-329.6631" r="-0.2758" fill="rgba(183,183,234,0.718292236328125)"/>
  <circle cx="101.7609" cy="286.9629" r="-1.4218" fill="rgba(0,0,51,0.002960205078125)"/>
  <circle cx="-127.4261" cy="103.6011" r="2.4321" fill="rgba(73,73,124,0.287628173828125)"/>
  <circle cx="-356.6284" cy="-79.7485" r="1.2861" fill="rgba(145,145,196,0.572265625)"/>
  <circle cx="414.1541" cy="-263.1226" r="0.1402" fill="rgba(218,218,255,0.85693359375)"/>
  <circle cx="184.9518" cy="353.5034" r="-1.0058" fill="rgba(36,36,87,0.1416015625)"/>
  <circle cx="-44.2352" cy="170.1416" r="2.8481" fill="rgba(108,108,159,0.42626953125)"/>
  <circle cx="-273.4375" cy="-13.208" r="1.7021" fill="rgba(181,181,232,0.710906982421875)"/>
  <circle cx="497.345" cy="-196.5698" r="0.556" fill="rgba(253,253,255,0.995574951171875)"/>
  <circle cx="268.1427" cy="-379.9316" r="-0.5899" fill="rgba(71,71,122,0.2802581787109375)"/>
  <circle cx="38.9404" cy="236.6943" r="-1.7359" fill="rgba(144,144,195,0.5648956298828125)"/>
  <circle cx="-190.2466" cy="53.3325" r="2.118" fill="rgba(216,216,255,0.8495635986328125)"/>
  <circle cx="-419.4489" cy="-130.0171" r="0.972" fill="rgba(34,34,85,0.1342315673828125)"/>
  <circle cx="351.3184" cy="-313.3789" r="-0.174" fill="rgba(106,106,157,0.4188995361328125)"/>
  <circle cx="122.1161" cy="303.2471" r="-1.32" fill="rgba(179,179,230,0.7035369873046875)"/>
  <circle cx="-107.0709" cy="119.8853" r="2.5339" fill="rgba(251,251,255,0.9882049560546875)"/>
  <circle cx="-336.2732" cy="-63.4644" r="1.3879" fill="rgba(69,69,120,0.2728729248046875)"/>
  <circle cx="434.5093" cy="-246.8384" r="0.242" fill="rgba(142,142,193,0.557525634765625)"/>
  <circle cx="205.307" cy="369.7876" r="-0.904" fill="rgba(214,214,255,0.8421783447265625)"/>
  <circle cx="-23.88" cy="186.4258" r="2.9499" fill="rgba(32,32,83,0.126861572265625)"/>
  <circle cx="-253.0823" cy="3.064" r="1.8039" fill="rgba(104,104,155,0.4115142822265625)"/>
  <circle cx="-482.2845" cy="-180.2856" r="0.6578" fill="rgba(177,177,228,0.6961669921875)"/>
  <circle cx="288.4979" cy="-363.6475" r="-0.4882" fill="rgba(250,250,255,0.9808197021484375)"/>
  <circle cx="59.2957" cy="252.9785" r="-1.6342" fill="rgba(67,67,118,0.2655029296875)"/>
  <circle cx="-169.8914" cy="69.6167" r="2.2197" fill="rgba(140,140,191,0.550140380859375)"/>
  <circle cx="-399.1089" cy="-113.7329" r="1.0737" fill="rgba(212,212,255,0.834808349609375)"/>
  <circle cx="371.6736" cy="-297.0947" r="-0.0722" fill="rgba(30,30,81,0.1194915771484375)"/>
  <circle cx="142.4713" cy="319.5313" r="-1.2182" fill="rgba(103,103,154,0.404144287109375)"/>
  <circle cx="-86.7157" cy="136.1694" r="2.6357" fill="rgba(175,175,226,0.6887969970703125)"/>
  <circle cx="-315.918" cy="-47.1924" r="1.4897" fill="rgba(248,248,255,0.97344970703125)"/>
  <circle cx="454.8645" cy="-230.5542" r="0.3438" fill="rgba(65,65,116,0.2581329345703125)"/>
  <circle cx="225.6622" cy="386.0718" r="-0.8023" fill="rgba(138,138,189,0.5427703857421875)"/>
  <circle cx="-3.5248" cy="202.71" r="-1.9483" fill="rgba(210,210,255,0.8274383544921875)"/>
  <circle cx="-232.7271" cy="19.3481" r="1.9056" fill="rgba(28,28,79,0.1121063232421875)"/>
  <circle cx="-461.9293" cy="-164.0015" r="0.7596" fill="rgba(101,101,152,0.3967742919921875)"/>
  <circle cx="308.8531" cy="-347.3633" r="-0.3864" fill="rgba(173,173,224,0.6814117431640625)"/>
  <circle cx="79.6509" cy="269.2627" r="-1.5324" fill="rgba(246,246,255,0.9660797119140625)"/>
  <circle cx="-149.5361" cy="85.9009" r="2.3215" fill="rgba(63,63,114,0.2507476806640625)"/>
  <circle cx="-378.7537" cy="-97.4487" r="1.1755" fill="rgba(136,136,187,0.535400390625)"/>
  <circle cx="392.0288" cy="-280.8105" r="0.0296" fill="rgba(209,209,255,0.8200531005859375)"/>
  <circle cx="162.8265" cy="335.8154" r="-1.1164" fill="rgba(26,26,77,0.104736328125)"/>
  <circle cx="-66.3605" cy="152.4414" r="2.7375" fill="rgba(99,99,150,0.389404296875)"/>
  <circle cx="-295.5627" cy="-30.9082" r="1.5915" fill="rgba(171,171,222,0.674041748046875)"/>
  <circle cx="475.2197" cy="-214.27" r="0.4455" fill="rgba(244,244,255,0.958709716796875)"/>
  <circle cx="246.0175" cy="-397.6318" r="-0.7005" fill="rgba(62,62,113,0.243377685546875)"/>
  <circle cx="16.8152" cy="218.9941" r="-1.8466" fill="rgba(134,134,185,0.5280303955078125)"/>
  <circle cx="-212.3718" cy="35.6323" r="2.0073" fill="rgba(207,207,255,0.81268310546875)"/>
  <circle cx="-441.5741" cy="-147.7173" r="0.8613" fill="rgba(24,24,75,0.0973663330078125)"/>
  <circle cx="329.2084" cy="-331.0791" r="-0.2846" fill="rgba(97,97,148,0.38201904296875)"/>
  <circle cx="100.0061" cy="285.5469" r="-1.4306" fill="rgba(170,170,221,0.6666717529296875)"/>
  <circle cx="-129.1962" cy="102.1851" r="2.4233" fill="rgba(242,242,255,0.951324462890625)"/>
  <circle cx="-358.3984" cy="-81.1646" r="1.2773" fill="rgba(60,60,111,0.2360076904296875)"/>
  <circle cx="412.384" cy="-264.5264" r="0.1313" fill="rgba(132,132,183,0.5206451416015625)"/>
  <circle cx="183.1818" cy="352.0996" r="-1.0147" fill="rgba(205,205,255,0.8053131103515625)"/>
  <circle cx="-46.0052" cy="168.7256" r="2.8392" fill="rgba(22,22,73,0.0899810791015625)"/>
  <circle cx="-275.2075" cy="-14.624" r="1.6932" fill="rgba(95,95,146,0.3746490478515625)"/>
  <circle cx="495.575" cy="-197.9858" r="0.5472" fill="rgba(168,168,219,0.6592864990234375)"/>
  <circle cx="266.3727" cy="-381.3477" r="-0.5987" fill="rgba(240,240,255,0.9439544677734375)"/>
  <circle cx="37.1704" cy="235.2783" r="-1.7448" fill="rgba(58,58,109,0.2286376953125)"/>
  <circle cx="-192.0166" cy="51.9165" r="2.1091" fill="rgba(130,130,181,0.513275146484375)"/>
  <circle cx="-421.2189" cy="-131.4331" r="0.9631" fill="rgba(203,203,254,0.797943115234375)"/>
  <circle cx="349.5636" cy="-314.7949" r="-0.1828" fill="rgba(21,21,72,0.082611083984375)"/>
  <circle cx="120.3461" cy="301.8311" r="-1.3288" fill="rgba(93,93,144,0.367279052734375)"/>
  <circle cx="-108.8409" cy="118.4692" r="2.5251" fill="rgba(166,166,217,0.65191650390625)"/>
  <circle cx="-338.0432" cy="-64.8804" r="1.3791" fill="rgba(238,238,255,0.93658447265625)"/>
  <circle cx="432.7393" cy="-248.2422" r="0.2331" fill="rgba(56,56,107,0.22125244140625)"/>
  <circle cx="203.537" cy="368.3716" r="-0.9129" fill="rgba(129,129,180,0.5059051513671875)"/>
  <circle cx="-25.65" cy="185.0098" r="2.941" fill="rgba(201,201,252,0.790557861328125)"/>
  <circle cx="-254.8523" cy="1.6479" r="1.795" fill="rgba(19,19,70,0.0752410888671875)"/>
  <circle cx="-484.0546" cy="-181.7017" r="0.649" fill="rgba(91,91,142,0.359893798828125)"/>
  <circle cx="286.7279" cy="-365.0635" r="-0.497" fill="rgba(164,164,215,0.6445465087890625)"/>
  <circle cx="57.5256" cy="251.5625" r="-1.643" fill="rgba(236,236,255,0.92919921875)"/>
  <circle cx="-171.6614" cy="68.2007" r="2.2109" fill="rgba(54,54,105,0.2138824462890625)"/>
  <circle cx="-400.8636" cy="-115.1489" r="1.0649" fill="rgba(127,127,178,0.4985504150390625)"/>
  <circle cx="369.9188" cy="-298.5107" r="-0.0811" fill="rgba(199,199,250,0.7831878662109375)"/>
  <circle cx="140.7013" cy="318.1152" r="-1.2271" fill="rgba(17,17,68,0.06787109375)"/>
  <circle cx="-88.4857" cy="134.7534" r="2.6268" fill="rgba(89,89,140,0.3525238037109375)"/>
  <circle cx="-317.688" cy="-48.5962" r="1.4808" fill="rgba(162,162,213,0.637176513671875)"/>
  <circle cx="453.0945" cy="-231.958" r="0.3349" fill="rgba(235,235,255,0.9218292236328125)"/>
  <circle cx="223.8922" cy="384.6558" r="-0.8111" fill="rgba(52,52,103,0.206512451171875)"/>
  <circle cx="-5.2948" cy="201.2939" r="-1.9571" fill="rgba(125,125,176,0.4911651611328125)"/>
  <circle cx="-234.4971" cy="17.9321" r="1.8968" fill="rgba(197,197,248,0.77581787109375)"/>
  <circle cx="-463.6993" cy="-165.4175" r="0.7507" fill="rgba(15,15,66,0.06048583984375)"/>
  <circle cx="307.0831" cy="-348.7793" r="-0.3952" fill="rgba(88,88,139,0.34515380859375)"/>
  <circle cx="77.8809" cy="267.8467" r="-1.5412" fill="rgba(160,160,211,0.629791259765625)"/>
  <circle cx="-151.3062" cy="84.4849" r="2.3127" fill="rgba(233,233,255,0.914459228515625)"/>
  <circle cx="-380.5084" cy="-98.8647" r="1.1667" fill="rgba(50,50,101,0.199127197265625)"/>
  <circle cx="390.2588" cy="-282.2266" r="0.0207" fill="rgba(123,123,174,0.483795166015625)"/>
  <circle cx="161.0565" cy="334.3994" r="-1.1253" fill="rgba(195,195,246,0.7684478759765625)"/>
  <circle cx="-68.1305" cy="151.0376" r="2.7286" fill="rgba(13,13,64,0.0531158447265625)"/>
  <circle cx="-297.3328" cy="-32.312" r="1.5826" fill="rgba(86,86,137,0.3377838134765625)"/>
  <circle cx="473.4497" cy="-215.686" r="0.4367" fill="rgba(158,158,209,0.6224212646484375)"/>
  <circle cx="244.2474" cy="-399.0479" r="-0.7093" fill="rgba(231,231,255,0.9070892333984375)"/>
  <circle cx="15.0452" cy="217.5781" r="-1.8553" fill="rgba(48,48,99,0.1917572021484375)"/>
  <circle cx="-214.1418" cy="34.2163" r="1.9986" fill="rgba(121,121,172,0.4764251708984375)"/>
  <circle cx="-443.3441" cy="-149.1333" r="0.8525" fill="rgba(194,194,245,0.7610626220703125)"/>
  <circle cx="327.4384" cy="-332.4951" r="-0.2935" fill="rgba(11,11,62,0.045745849609375)"/>
  <circle cx="98.2361" cy="284.1309" r="-1.4395" fill="rgba(84,84,135,0.3303985595703125)"/>
  <circle cx="-130.9509" cy="100.769" r="2.4144" fill="rgba(156,156,207,0.61505126953125)"/>
  <circle cx="-360.1685" cy="-82.5806" r="1.2684" fill="rgba(229,229,255,0.8997039794921875)"/>
  <circle cx="410.614" cy="-265.9424" r="0.1225" fill="rgba(47,47,98,0.18438720703125)"/>
  <circle cx="181.4117" cy="350.6836" r="-1.0235" fill="rgba(119,119,170,0.4690399169921875)"/>
  <circle cx="-47.7753" cy="167.3218" r="2.8304" fill="rgba(192,192,243,0.753692626953125)"/>
  <circle cx="-276.9775" cy="-16.04" r="1.6844" fill="rgba(9,9,60,0.038360595703125)"/>
  <circle cx="493.8049" cy="-199.4019" r="0.5384" fill="rgba(82,82,133,0.323028564453125)"/>
  <circle cx="264.6027" cy="-382.7637" r="-0.6076" fill="rgba(154,154,205,0.6076812744140625)"/>
  <circle cx="35.4004" cy="233.8623" r="-1.7536" fill="rgba(227,227,255,0.892333984375)"/>
  <circle cx="-193.7866" cy="50.5005" r="2.1003" fill="rgba(45,45,96,0.1770172119140625)"/>
  <circle cx="-422.9889" cy="-132.8491" r="0.9543" fill="rgba(117,117,168,0.461669921875)"/>
  <circle cx="347.7936" cy="-316.2109" r="-0.1917" fill="rgba(190,190,241,0.7463226318359375)"/>
  <circle cx="118.5913" cy="300.415" r="-1.3377" fill="rgba(7,7,58,0.0309906005859375)"/>
  <circle cx="-110.5957" cy="117.0532" r="2.5162" fill="rgba(80,80,131,0.3156585693359375)"/>
  <circle cx="-339.8132" cy="-66.2964" r="1.3702" fill="rgba(153,153,204,0.6002960205078125)"/>
  <circle cx="430.9692" cy="-249.6582" r="0.2243" fill="rgba(225,225,255,0.8849639892578125)"/>
  <circle cx="201.767" cy="366.9678" r="-0.9217" fill="rgba(43,43,94,0.1696319580078125)"/>
  <circle cx="-27.42" cy="183.606" r="2.9322" fill="rgba(115,115,166,0.4542999267578125)"/>
  <circle cx="-256.6223" cy="0.2319" r="1.7862" fill="rgba(188,188,239,0.7389373779296875)"/>
  <circle cx="-485.8246" cy="-183.1177" r="0.6402" fill="rgba(6,6,57,0.02362060546875)"/>
  <circle cx="284.9579" cy="-366.4795" r="-0.5058" fill="rgba(78,78,129,0.3082733154296875)"/>
  <circle cx="55.7556" cy="250.1465" r="-1.6519" fill="rgba(151,151,202,0.592926025390625)"/>
  <circle cx="-173.4314" cy="66.7847" r="2.202" fill="rgba(223,223,255,0.877593994140625)"/>
  <circle cx="-402.6337" cy="-116.5649" r="1.056" fill="rgba(41,41,92,0.162261962890625)"/>
  <circle cx="368.1488" cy="-299.9268" r="-0.0899" fill="rgba(113,113,164,0.446929931640625)"/>
  <circle cx="138.9465" cy="316.6992" r="-1.2359" fill="rgba(186,186,237,0.7315673828125)"/>
  <circle cx="-90.2557" cy="133.3374" r="2.618" fill="rgba(4,4,55,0.0162506103515625)"/>
  <circle cx="-319.458" cy="-50.0122" r="1.472" fill="rgba(76,76,127,0.3009033203125)"/>
  <circle cx="451.3245" cy="-233.374" r="0.326" fill="rgba(149,149,200,0.5855560302734375)"/>
  <circle cx="222.1222" cy="383.252" r="-0.82" fill="rgba(221,221,255,0.870208740234375)"/>
  <circle cx="-7.0648" cy="199.8779" r="-1.966" fill="rgba(39,39,90,0.1548919677734375)"/>
  <circle cx="-236.2671" cy="16.5161" r="1.8879" fill="rgba(112,112,163,0.439544677734375)"/>
  <circle cx="-465.4694" cy="-166.8335" r="0.7419" fill="rgba(184,184,235,0.7241973876953125)"/>
  <circle cx="305.3131" cy="-350.1953" r="-0.404" fill="rgba(2,2,53,0.0088653564453125)"/>
  <circle cx="76.1108" cy="266.4307" r="-1.5501" fill="rgba(74,74,125,0.2935333251953125)"/>
  <circle cx="-153.0762" cy="83.0688" r="2.3038" fill="rgba(147,147,198,0.5781707763671875)"/>
  <circle cx="-382.2784" cy="-100.2808" r="1.1578" fill="rgba(220,220,255,0.8628387451171875)"/>
  <circle cx="388.504" cy="-283.6426" r="0.0119" fill="rgba(37,37,88,0.14752197265625)"/>
  <circle cx="-306.778" cy="-39.8682" r="4" fill="#FFFFFF"/>
  <circle cx="-306.778" cy="-39.8682" r="8" fill="rgba(255,255,255,0.3)"/>
  <circle cx="491.7297" cy="-201.0498" r="4" fill="#FFFFFF"/>
  <circle cx="491.7297" cy="-201.0498" r="8" fill="rgba(255,255,255,0.3)"/>
  <circle cx="290.2679" cy="-362.2314" r="4" fill="#FFFFFF"/>
  <circle cx="290.2679" cy="-362.2314" r="8" fill="rgba(255,255,255,0.3)"/>
  <circle cx="88.7909" cy="276.5747" r="4" fill="#FFFFFF"/>
  <circle cx="88.7909" cy="276.5747" r="8" fill="rgba(255,255,255,0.3)"/>
  <circle cx="-112.6709" cy="115.3931" r="4" fill="#FFFFFF"/>
  <circle cx="-112.6709" cy="115.3931" r="8" fill="rgba(255,255,255,0.3)"/>
  <circle cx="-314.1479" cy="-45.7764" r="4" fill="#FFFFFF"/>
  <circle cx="-314.1479" cy="-45.7764" r="8" fill="rgba(255,255,255,0.3)"/>
  <circle cx="484.3597" cy="-206.958" r="4" fill="#FFFFFF"/>
  <circle cx="484.3597" cy="-206.958" r="8" fill="rgba(255,255,255,0.3)"/>
  <circle cx="282.8827" cy="-368.1274" r="4" fill="#FFFFFF"/>
  <circle cx="282.8827" cy="-368.1274" r="8" fill="rgba(255,255,255,0.3)"/>
  <circle cx="81.4056" cy="270.6787" r="4" fill="#FFFFFF"/>
  <circle cx="81.4056" cy="270.6787" r="8" fill="rgba(255,255,255,0.3)"/>
  <circle cx="-120.0409" cy="109.4971" r="4" fill="#FFFFFF"/>
  <circle cx="-120.0409" cy="109.4971" r="8" fill="rgba(255,255,255,0.3)"/>
</svg>