<?xml version="1.0" encoding="UTF-8"?>
<svg xmlns="http://www.w3.org/2000/svg" width="500" height="400" viewBox="0 0 500 400">
  <rect x="0" y="0" width="500" height="400" fill="#050514"/>
  <circle cx="0" cy="205.5419921875" r="-1.9306488037109375" fill="rgba(127,127,178,0.5)"/>
  <circle cx="-229.18701171875" cy="22.18017578125" r="1.9232635498046875" fill="rgba(200,200,251,0.7846527099609375)"/>
  <circle cx="-458.3892822265625" cy="-161.16943359375" r="0.777252197265625" fill="rgba(17,17,68,0.0693359375)"/>
  <circle cx="312.3779296875" cy="-344.53125" r="-0.368682861328125" fill="rgba(90,90,141,0.3539886474609375)"/>
  <circle cx="83.1756591796875" cy="272.0947265625" r="-1.5146942138671875" fill="rgba(162,162,213,0.638641357421875)"/>
  <circle cx="-146.0113525390625" cy="88.73291015625" r="2.3392181396484375" fill="rgba(235,235,255,0.9232940673828125)"/>
  <circle cx="-375.213623046875" cy="-94.61669921875" r="1.193206787109375" fill="rgba(53,53,104,0.207977294921875)"/>
  <circle cx="395.56884765625" cy="-277.99072265625" r="0.047271728515625" fill="rgba(125,125,176,0.4926300048828125)"/>
  <circle cx="166.3665771484375" cy="338.63525390625" r="-1.0987396240234375" fill="rgba(198,198,249,0.77728271484375)"/>
  <circle cx="-62.8204345703125" cy="155.2734375" r="2.7551727294921875" fill="rgba(15,15,66,0.06195068359375)"/>
  <circle cx="-292.022705078125" cy="-28.076171875" r="1.6090850830078125" fill="rgba(88,88,139,0.34661865234375)"/>
  <circle cx="478.759765625" cy="-211.43798828125" r="0.4631500244140625" fill="rgba(160,160,211,0.6312713623046875)"/>
  <circle cx="249.5574951171875" cy="-394.7998046875" r="-0.682861328125" fill="rgba(233,233,255,0.915924072265625)"/>
  <circle cx="20.355224609375" cy="221.826171875" r="-1.8288726806640625" fill="rgba(51,51,102,0.2006072998046875)"/>
  <circle cx="-208.831787109375" cy="38.46435546875" r="2.0250396728515625" fill="rgba(123,123,174,0.485260009765625)"/>
  <circle cx="-438.04931640625" cy="-144.88525390625" r="0.8790283203125" fill="rgba(196,196,247,0.7699127197265625)"/>
  <circle cx="332.733154296875" cy="-328.2470703125" r="-0.26690673828125" fill="rgba(13,13,64,0.0545806884765625)"/>
  <circle cx="103.5308837890625" cy="288.37890625" r="-1.4129180908203125" fill="rgba(86,86,137,0.3392486572265625)"/>
  <circle cx="-125.6561279296875" cy="105.01708984375" r="2.4409942626953125" fill="rgba(159,159,210,0.6238861083984375)"/>
  <circle cx="-354.8583984375" cy="-78.3447265625" r="1.29498291015625" fill="rgba(231,231,255,0.9085540771484375)"/>
  <circle cx="415.924072265625" cy="-261.70654296875" r="0.1490478515625" fill="rgba(49,49,100,0.1932220458984375)"/>
  <circle cx="186.7218017578125" cy="354.91943359375" r="-0.9969635009765625" fill="rgba(121,121,172,0.4778900146484375)"/>
  <circle cx="-42.4652099609375" cy="171.5576171875" r="2.8569488525390625" fill="rgba(194,194,245,0.7625274658203125)"/>
  <circle cx="-271.66748046875" cy="-11.7919921875" r="1.7108612060546875" fill="rgba(12,12,63,0.047210693359375)"/>
  <circle cx="499.114990234375" cy="-195.15380859375" r="0.564849853515625" fill="rgba(84,84,135,0.3318634033203125)"/>
  <circle cx="269.9127197265625" cy="-378.515625" r="-0.581085205078125" fill="rgba(157,157,208,0.61651611328125)"/>
  <circle cx="40.71044921875" cy="238.1103515625" r="-1.7270965576171875" fill="rgba(229,229,255,0.90118408203125)"/>
  <circle cx="-188.4765625" cy="54.74853515625" r="2.1268157958984375" fill="rgba(47,47,98,0.18585205078125)"/>
  <circle cx="-417.694091796875" cy="-128.60107421875" r="0.980804443359375" fill="rgba(119,119,170,0.47052001953125)"/>
  <circle cx="353.08837890625" cy="-311.962890625" r="-0.165130615234375" fill="rgba(192,192,243,0.755157470703125)"/>
  <circle cx="123.8861083984375" cy="304.6630859375" r="-1.3111419677734375" fill="rgba(10,10,61,0.0398406982421875)"/>
  <circle cx="-105.3009033203125" cy="121.2890625" r="2.5427703857421875" fill="rgba(82,82,133,0.324493408203125)"/>
  <circle cx="-334.503173828125" cy="-62.060546875" r="1.396759033203125" fill="rgba(155,155,206,0.6091461181640625)"/>
  <circle cx="436.279296875" cy="-245.42236328125" r="0.250823974609375" fill="rgba(227,227,255,0.893798828125)"/>
  <circle cx="207.0770263671875" cy="371.20361328125" r="-0.8951873779296875" fill="rgba(45,45,96,0.1784820556640625)"/>
  <circle cx="-22.1099853515625" cy="187.841796875" r="2.958648681640625" fill="rgba(118,118,169,0.463134765625)"/>
  <circle cx="-251.312255859375" cy="4.47998046875" r="1.8126373291015625" fill="rgba(190,190,241,0.7477874755859375)"/>
  <circle cx="-480.5145263671875" cy="-178.86962890625" r="0.6666259765625" fill="rgba(8,8,59,0.0324554443359375)"/>
  <circle cx="290.2679443359375" cy="-362.2314453125" r="-0.47930908203125" fill="rgba(80,80,131,0.3171234130859375)"/>
  <circle cx="61.065673828125" cy="254.39453125" r="-1.6253204345703125" fill="rgba(153,153,204,0.6017608642578125)"/>
  <circle cx="-168.1365966796875" cy="71.03271484375" r="2.2285919189453125" fill="rgba(226,226,255,0.8864288330078125)"/>
  <circle cx="-397.3388671875" cy="-112.31689453125" r="1.08258056640625" fill="rgba(43,43,94,0.1710968017578125)"/>
  <circle cx="373.443603515625" cy="-295.6787109375" r="-0.0633544921875" fill="rgba(116,116,167,0.4557647705078125)"/>
  <circle cx="144.2413330078125" cy="320.947265625" r="-1.2093658447265625" fill="rgba(188,188,239,0.74041748046875)"/>
  <circle cx="-84.9456787109375" cy="137.5732421875" r="2.6445465087890625" fill="rgba(6,6,57,0.02508544921875)"/>
  <circle cx="-314.14794921875" cy="-45.7763671875" r="1.49853515625" fill="rgba(78,78,129,0.30975341796875)"/>
  <circle cx="456.634521484375" cy="-229.13818359375" r="0.35260009765625" fill="rgba(151,151,202,0.594390869140625)"/>
  <circle cx="227.4322509765625" cy="387.48779296875" r="-0.793487548828125" fill="rgba(224,224,255,0.879058837890625)"/>
  <circle cx="-1.7547607421875" cy="204.1259765625" r="-1.9394989013671875" fill="rgba(41,41,92,0.163726806640625)"/>
  <circle cx="-230.95703125" cy="20.76416015625" r="1.9144134521484375" fill="rgba(114,114,165,0.448394775390625)"/>
  <circle cx="-460.1593017578125" cy="-162.58544921875" r="0.768402099609375" fill="rgba(186,186,237,0.7330322265625)"/>
  <circle cx="310.6231689453125" cy="-345.947265625" r="-0.377532958984375" fill="rgba(4,4,55,0.0177154541015625)"/>
  <circle cx="81.4056396484375" cy="270.6787109375" r="-1.5235443115234375" fill="rgba(77,77,128,0.3023681640625)"/>
  <circle cx="-147.7813720703125" cy="87.31689453125" r="2.3303680419921875" fill="rgba(149,149,200,0.5870208740234375)"/>
  <circle cx="-376.983642578125" cy="-96.03271484375" r="1.184356689453125" fill="rgba(222,222,255,0.871673583984375)"/>
  <circle cx="393.798828125" cy="-279.39453125" r="0.038421630859375" fill="rgba(39,39,90,0.1563568115234375)"/>
  <circle cx="164.5965576171875" cy="337.21923828125" r="-1.1075897216796875" fill="rgba(112,112,163,0.441009521484375)"/>
  <circle cx="-64.5904541015625" cy="153.857421875" r="2.7463226318359375" fill="rgba(185,185,236,0.7256622314453125)"/>
  <circle cx="-293.792724609375" cy="-29.4921875" r="1.600311279296875" fill="rgba(2,2,53,0.010345458984375)"/>
  <circle cx="476.98974609375" cy="-212.85400390625" r="0.454376220703125" fill="rgba(75,75,126,0.2949981689453125)"/>
  <circle cx="247.7874755859375" cy="-396.2158203125" r="-0.69171142578125" fill="rgba(147,147,198,0.57965087890625)"/>
  <circle cx="18.585205078125" cy="220.41015625" r="-1.8377227783203125" fill="rgba(220,220,255,0.8643035888671875)"/>
  <circle cx="-210.601806640625" cy="37.04833984375" r="2.0161895751953125" fill="rgba(37,37,88,0.14898681640625)"/>
  <circle cx="-439.8040771484375" cy="-146.30126953125" r="0.87017822265625" fill="rgba(110,110,161,0.4336395263671875)"/>
  <circle cx="330.9783935546875" cy="-329.6630859375" r="-0.2757568359375" fill="rgba(183,183,234,0.718292236328125)"/>
  <circle cx="101.7608642578125" cy="286.962890625" r="-1.4217681884765625" fill="rgba(0,0,51,0.002960205078125)"/>
  <circle cx="-127.4261474609375" cy="103.60107421875" r="2.4321441650390625" fill="rgba(73,73,124,0.287628173828125)"/>
  <circle cx="-356.62841796875" cy="-79.74853515625" r="1.2861328125" fill="rgba(145,145,196,0.572265625)"/>
  <circle cx="414.154052734375" cy="-263.12255859375" r="0.14019775390625" fill="rgba(218,218,255,0.85693359375)"/>
  <circle cx="184.9517822265625" cy="353.50341796875" r="-1.0058135986328125" fill="rgba(36,36,87,0.1416015625)"/>
  <circle cx="-44.2352294921875" cy="170.1416015625" r="2.8480987548828125" fill="rgba(108,108,159,0.42626953125)"/>
  <circle cx="-273.4375" cy="-13.2080078125" r="1.70208740234375" fill="rgba(181,181,232,0.710906982421875)"/>
  <circle cx="497.344970703125" cy="-196.56982421875" r="0.555999755859375" fill="rgba(253,253,255,0.995574951171875)"/>
  <circle cx="268.1427001953125" cy="-379.931640625" r="-0.589935302734375" fill="rgba(71,71,122,0.2802581787109375)"/>
  <circle cx="38.9404296875" cy="236.6943359375" r="-1.7359466552734375" fill="rgba(144,144,195,0.5648956298828125)"/>
  <circle cx="-190.24658203125" cy="53.33251953125" r="2.1179656982421875" fill="rgba(216,216,255,0.8495635986328125)"/>
  <circle cx="-419.4488525390625" cy="-130.01708984375" r="0.971954345703125" fill="rgba(34,34,85,0.1342315673828125)"/>
  <circle cx="351.318359375" cy="-313.37890625" r="-0.173980712890625" fill="rgba(106,106,157,0.4188995361328125)"/>
  <circle cx="122.1160888671875" cy="303.2470703125" r="-1.3199920654296875" fill="rgba(179,179,230,0.7035369873046875)"/>
  <circle cx="-107.0709228515625" cy="119.88525390625" r="2.5339202880859375" fill="rgba(251,251,255,0.9882049560546875)"/>
  <circle cx="-336.273193359375" cy="-63.46435546875" r="1.387908935546875" fill="rgba(69,69,120,0.2728729248046875)"/>
  <circle cx="434.50927734375" cy="-246.83837890625" r="0.241973876953125" fill="rgba(142,142,193,0.557525634765625)"/>
  <circle cx="205.3070068359375" cy="369.78759765625" r="-0.9040374755859375" fill="rgba(214,214,255,0.8421783447265625)"/>
  <circle cx="-23.8800048828125" cy="186.42578125" r="2.9498748779296875" fill="rgba(32,32,83,0.126861572265625)"/>
  <circle cx="-253.082275390625" cy="3.06396484375" r="1.803863525390625" fill="rgba(104,104,155,0.4115142822265625)"/>
  <circle cx="-482.2845458984375" cy="-180.28564453125" r="0.65777587890625" fill="rgba(177,177,228,0.6961669921875)"/>
  <circle cx="288.4979248046875" cy="-363.6474609375" r="-0.4881591796875" fill="rgba(250,250,255,0.9808197021484375)"/>
  <circle cx="59.295654296875" cy="252.978515625" r="-1.6341705322265625" fill="rgba(67,67,118,0.2655029296875)"/>
  <circle cx="-169.891357421875" cy="69.61669921875" r="2.2197418212890625" fill="rgba(140,140,191,0.550140380859375)"/>
  <circle cx="-399.10888671875" cy="-113.73291015625" r="1.07373046875" fill="rgba(212,212,255,0.834808349609375)"/>
  <circle cx="371.673583984375" cy="-297.0947265625" r="-0.07220458984375" fill="rgba(30,30,81,0.1194915771484375)"/>
  <circle cx="142.4713134765625" cy="319.53125" r="-1.2182159423828125" fill="rgba(103,103,154,0.404144287109375)"/>
  <circle cx="-86.7156982421875" cy="136.16943359375" r="2.6356964111328125" fill="rgba(175,175,226,0.6887969970703125)"/>
  <circle cx="-315.91796875" cy="-47.1923828125" r="1.48968505859375" fill="rgba(248,248,255,0.97344970703125)"/>
  <circle cx="454.864501953125" cy="-230.55419921875" r="0.34375" fill="rgba(65,65,116,0.2581329345703125)"/>
  <circle cx="225.6622314453125" cy="386.07177734375" r="-0.8022613525390625" fill="rgba(138,138,189,0.5427703857421875)"/>
  <circle cx="-3.5247802734375" cy="202.7099609375" r="-1.948272705078125" fill="rgba(210,210,255,0.8274383544921875)"/>
  <circle cx="-232.72705078125" cy="19.34814453125" r="1.9055633544921875" fill="rgba(28,28,79,0.1121063232421875)"/>
  <circle cx="-461.9293212890625" cy="-164.00146484375" r="0.759552001953125" fill="rgba(101,101,152,0.3967742919921875)"/>
  <circle cx="308.8531494140625" cy="-347.36328125" r="-0.386383056640625" fill="rgba(173,173,224,0.6814117431640625)"/>
  <circle cx="79.65087890625" cy="269.2626953125" r="-1.5323944091796875" fill="rgba(246,246,255,0.9660797119140625)"/>
  <circle cx="-149.5361328125" cy="85.90087890625" r="2.3215179443359375" fill="rgba(63,63,114,0.2507476806640625)"/>
  <circle cx="-378.753662109375" cy="-97.44873046875" r="1.175506591796875" fill="rgba(136,136,187,0.535400390625)"/>
  <circle cx="392.02880859375" cy="-280.810546875" r="0.029571533203125" fill="rgba(209,209,255,0.8200531005859375)"/>
  <circle cx="162.8265380859375" cy="335.8154296875" r="-1.1164398193359375" fill="rgba(26,26,77,0.104736328125)"/>
  <circle cx="-66.3604736328125" cy="152.44140625" r="2.7374725341796875" fill="rgba(99,99,150,0.389404296875)"/>
  <circle cx="-295.562744140625" cy="-30.908203125" r="1.591461181640625" fill="rgba(171,171,222,0.674041748046875)"/>
  <circle cx="475.2197265625" cy="-214.27001953125" r="0.445526123046875" fill="rgba(244,244,255,0.958709716796875)"/>
  <circle cx="246.0174560546875" cy="-397.6318359375" r="-0.7004852294921875" fill="rgba(62,62,113,0.243377685546875)"/>
  <circle cx="16.815185546875" cy="218.994140625" r="-1.8465728759765625" fill="rgba(134,134,185,0.5280303955078125)"/>
  <circle cx="-212.371826171875" cy="35.63232421875" r="2.0073394775390625" fill="rgba(207,207,255,0.81268310546875)"/>
  <circle cx="-441.5740966796875" cy="-147.71728515625" r="0.861328125" fill="rgba(24,24,75,0.0973663330078125)"/>
  <circle cx="329.2083740234375" cy="-331.0791015625" r="-0.28460693359375" fill="rgba(97,97,148,0.38201904296875)"/>
  <circle cx="100.006103515625" cy="285.546875" r="-1.4306182861328125" fill="rgba(170,170,221,0.6666717529296875)"/>
  <circle cx="-129.1961669921875" cy="102.18505859375" r="2.4232940673828125" fill="rgba(242,242,255,0.951324462890625)"/>
  <circle cx="-358.3984375" cy="-81.16455078125" r="1.27728271484375" fill="rgba(60,60,111,0.2360076904296875)"/>
  <circle cx="412.384033203125" cy="-264.5263671875" r="0.13134765625" fill="rgba(132,132,183,0.5206451416015625)"/>
  <circle cx="183.1817626953125" cy="352.099609375" r="-1.0146636962890625" fill="rgba(205,205,255,0.8053131103515625)"/>
  <circle cx="-46.0052490234375" cy="168.7255859375" r="2.8392486572265625" fill="rgba(22,22,73,0.0899810791015625)"/>
  <circle cx="-275.20751953125" cy="-14.6240234375" r="1.6932373046875" fill="rgba(95,95,146,0.3746490478515625)"/>
  <circle cx="495.574951171875" cy="-197.98583984375" r="0.5472259521484375" fill="rgba(168,168,219,0.6592864990234375)"/>
  <circle cx="266.3726806640625" cy="-381.34765625" r="-0.5987091064453125" fill="rgba(240,240,255,0.9439544677734375)"/>
  <circle cx="37.17041015625" cy="235.2783203125" r="-1.7447967529296875" fill="rgba(58,58,109,0.2286376953125)"/>
  <circle cx="-192.0166015625" cy="51.91650390625" r="2.1091156005859375" fill="rgba(130,130,181,0.513275146484375)"/>
  <circle cx="-421.2188720703125" cy="-131.43310546875" r="0.963104248046875" fill="rgba(203,203,254,0.797943115234375)"/>
  <circle cx="349.5635986328125" cy="-314.794921875" r="-0.182830810546875" fill="rgba(21,21,72,0.082611083984375)"/>
  <circle cx="120.3460693359375" cy="301.8310546875" r="-1.3288421630859375" fill="rgba(93,93,144,0.367279052734375)"/>
  <circle cx="-108.8409423828125" cy="118.46923828125" r="2.5250701904296875" fill="rgba(166,166,217,0.65191650390625)"/>
  <circle cx="-338.043212890625" cy="-64.88037109375" r="1.379058837890625" fill="rgba(238,238,255,0.93658447265625)"/>
  <circle cx="432.7392578125" cy="-248.2421875" r="0.233123779296875" fill="rgba(56,56,107,0.22125244140625)"/>
  <circle cx="203.5369873046875" cy="368.37158203125" r="-0.9128875732421875" fill="rgba(129,129,180,0.5059051513671875)"/>
  <circle cx="-25.6500244140625" cy="185.009765625" r="2.9410247802734375" fill="rgba(201,201,252,0.790557861328125)"/>
  <circle cx="-254.852294921875" cy="1.64794921875" r="1.795013427734375" fill="rgba(19,19,70,0.0752410888671875)"/>
  <circle cx="-484.0545654296875" cy="-181.70166015625" r="0.6490020751953125" fill="rgba(91,91,142,0.359893798828125)"/>
  <circle cx="286.7279052734375" cy="-365.0634765625" r="-0.49700927734375" fill="rgba(164,164,215,0.6445465087890625)"/>
  <circle cx="57.525634765625" cy="251.5625" r="-1.6430206298828125" fill="rgba(236,236,255,0.92919921875)"/>
  <circle cx="-171.661376953125" cy="68.20068359375" r="2.2108917236328125" fill="rgba(54,54,105,0.2138824462890625)"/>
  <circle cx="-400.8636474609375" cy="-115.14892578125" r="1.06488037109375" fill="rgba(127,127,178,0.4985504150390625)"/>
  <circle cx="369.9188232421875" cy="-298.5107421875" r="-0.0810546875" fill="rgba(199,199,250,0.7831878662109375)"/>
  <circle cx="140.7012939453125" cy="318.115234375" r="-1.2270660400390625" fill="rgba(17,17,68,0.06787109375)"/>
  <circle cx="-88.4857177734375" cy="134.75341796875" r="2.6268463134765625" fill="rgba(89,89,140,0.3525238037109375)"/>
  <circle cx="-317.68798828125" cy="-48.59619140625" r="1.4808349609375" fill="rgba(162,162,213,0.637176513671875)"/>
  <circle cx="453.094482421875" cy="-231.9580078125" r="0.33489990234375" fill="rgba(235,235,255,0.9218292236328125)"/>
  <circle cx="223.8922119140625" cy="384.65576171875" r="-0.8111114501953125" fill="rgba(52,52,103,0.206512451171875)"/>
  <circle cx="-5.2947998046875" cy="201.2939453125" r="-1.957122802734375" fill="rgba(125,125,176,0.4911651611328125)"/>
  <circle cx="-234.4970703125" cy="17.93212890625" r="1.89678955078125" fill="rgba(197,197,248,0.77581787109375)"/>
  <circle cx="-463.6993408203125" cy="-165.41748046875" r="0.750701904296875" fill="rgba(15,15,66,0.06048583984375)"/>
  <circle cx="307.0831298828125" cy="-348.779296875" r="-0.395233154296875" fill="rgba(88,88,139,0.34515380859375)"/>
  <circle cx="77.880859375" cy="267.8466796875" r="-1.5412445068359375" fill="rgba(160,160,211,0.629791259765625)"/>
  <circle cx="-151.30615234375" cy="84.48486328125" r="2.3126678466796875" fill="rgba(233,233,255,0.914459228515625)"/>
  <circle cx="-380.5084228515625" cy="-98.86474609375" r="1.166656494140625" fill="rgba(50,50,101,0.199127197265625)"/>
  <circle cx="390.2587890625" cy="-282.2265625" r="0.020721435546875" fill="rgba(123,123,174,0.483795166015625)"/>
  <circle cx="161.0565185546875" cy="334.3994140625" r="-1.1252899169921875" fill="rgba(195,195,246,0.7684478759765625)"/>
  <circle cx="-68.1304931640625" cy="151.03759765625" r="2.7286224365234375" fill="rgba(13,13,64,0.0531158447265625)"/>
  <circle cx="-297.332763671875" cy="-32.31201171875" r="1.582611083984375" fill="rgba(86,86,137,0.3377838134765625)"/>
  <circle cx="473.44970703125" cy="-215.68603515625" r="0.436676025390625" fill="rgba(158,158,209,0.6224212646484375)"/>
  <circle cx="244.2474365234375" cy="-399.0478515625" r="-0.7093353271484375" fill="rgba(231,231,255,0.9070892333984375)"/>
  <circle cx="15.045166015625" cy="217.578125" r="-1.8553466796875" fill="rgba(48,48,99,0.1917572021484375)"/>
  <circle cx="-214.141845703125" cy="34.21630859375" r="1.998565673828125" fill="rgba(121,121,172,0.4764251708984375)"/>
  <circle cx="-443.3441162109375" cy="-149.13330078125" r="0.85247802734375" fill="rgba(194,194,245,0.7610626220703125)"/>
  <circle cx="327.4383544921875" cy="-332.4951171875" r="-0.29345703125" fill="rgba(11,11,62,0.045745849609375)"/>
  <circle cx="98.236083984375" cy="284.130859375" r="-1.4394683837890625" fill="rgba(84,84,135,0.3303985595703125)"/>
  <circle cx="-130.950927734375" cy="100.76904296875" r="2.4144439697265625" fill="rgba(156,156,207,0.61505126953125)"/>
  <circle cx="-360.16845703125" cy="-82.58056640625" r="1.2684326171875" fill="rgba(229,229,255,0.8997039794921875)"/>
  <circle cx="410.614013671875" cy="-265.9423828125" r="0.12249755859375" fill="rgba(47,47,98,0.18438720703125)"/>
  <circle cx="181.4117431640625" cy="350.68359375" r="-1.0235137939453125" fill="rgba(119,119,170,0.4690399169921875)"/>
  <circle cx="-47.7752685546875" cy="167.32177734375" r="2.8303985595703125" fill="rgba(192,192,243,0.753692626953125)"/>
  <circle cx="-276.9775390625" cy="-16.0400390625" r="1.68438720703125" fill="rgba(9,9,60,0.038360595703125)"/>
  <circle cx="493.804931640625" cy="-199.40185546875" r="0.5383758544921875" fill="rgba(82,82,133,0.323028564453125)"/>
  <circle cx="264.6026611328125" cy="-382.763671875" r="-0.6075592041015625" fill="rgba(154,154,205,0.6076812744140625)"/>
  <circle cx="35.400390625" cy="233.8623046875" r="-1.753570556640625" fill="rgba(227,227,255,0.892333984375)"/>
  <circle cx="-193.78662109375" cy="50.50048828125" r="2.1002655029296875" fill="rgba(45,45,96,0.1770172119140625)"/>
  <circle cx="-422.9888916015625" cy="-132.84912109375" r="0.954254150390625" fill="rgba(117,117,168,0.461669921875)"/>
  <circle cx="347.7935791015625" cy="-316.2109375" r="-0.191680908203125" fill="rgba(190,190,241,0.7463226318359375)"/>
  <circle cx="118.59130859375" cy="300.4150390625" r="-1.3376922607421875" fill="rgba(7,7,58,0.0309906005859375)"/>
  <circle cx="-110.595703125" cy="117.05322265625" r="2.5162200927734375" fill="rgba(80,80,131,0.3156585693359375)"/>
  <circle cx="-339.813232421875" cy="-66.29638671875" r="1.370208740234375" fill="rgba(153,153,204,0.6002960205078125)"/>
  <circle cx="430.96923828125" cy="-249.658203125" r="0.224273681640625" fill="rgba(225,225,255,0.8849639892578125)"/>
  <circle cx="201.7669677734375" cy="366.9677734375" r="-0.9217376708984375" fill="rgba(43,43,94,0.1696319580078125)"/>
  <circle cx="-27.4200439453125" cy="183.60595703125" r="2.9321746826171875" fill="rgba(115,115,166,0.4542999267578125)"/>
  <circle cx="-256.622314453125" cy="0.23193359375" r="1.786163330078125" fill="rgba(188,188,239,0.7389373779296875)"/>
  <circle cx="-485.8245849609375" cy="-183.11767578125" r="0.6401519775390625" fill="rgba(6,6,57,0.02362060546875)"/>
  <circle cx="284.9578857421875" cy="-366.4794921875" r="-0.5057830810546875" fill="rgba(78,78,129,0.3082733154296875)"/>
  <circle cx="55.755615234375" cy="250.146484375" r="-1.6518707275390625" fill="rgba(151,151,202,0.592926025390625)"/>
  <circle cx="-173.431396484375" cy="66.78466796875" r="2.2020416259765625" fill="rgba(223,223,255,0.877593994140625)"/>
  <circle cx="-402.6336669921875" cy="-116.56494140625" r="1.0560302734375" fill="rgba(41,41,92,0.162261962890625)"/>
  <circle cx="368.1488037109375" cy="-299.9267578125" r="-0.08990478515625" fill="rgba(113,113,164,0.446929931640625)"/>
  <circle cx="138.946533203125" cy="316.69921875" r="-1.2359161376953125" fill="rgba(186,186,237,0.7315673828125)"/>
  <circle cx="-90.2557373046875" cy="133.33740234375" r="2.6179962158203125" fill="rgba(4,4,55,0.0162506103515625)"/>
  <circle cx="-319.4580078125" cy="-50.01220703125" r="1.47198486328125" fill="rgba(76,76,127,0.3009033203125)"/>
  <circle cx="451.324462890625" cy="-233.3740234375" r="0.3260498046875" fill="rgba(149,149,200,0.5855560302734375)"/>
  <circle cx="222.1221923828125" cy="383.251953125" r="-0.8199615478515625" fill="rgba(221,221,255,0.870208740234375)"/>
  <circle cx="-7.0648193359375" cy="199.8779296875" r="-1.965972900390625" fill="rgba(39,39,90,0.1548919677734375)"/>
  <circle cx="-236.26708984375" cy="16.51611328125" r="1.887939453125" fill="rgba(112,112,163,0.439544677734375)"/>
  <circle cx="-465.4693603515625" cy="-166.83349609375" r="0.7419281005859375" fill="rgba(184,184,235,0.7241973876953125)"/>
  <circle cx="305.3131103515625" cy="-350.1953125" r="-0.4040069580078125" fill="rgba(2,2,53,0.0088653564453125)"/>
  <circle cx="76.11083984375" cy="266.4306640625" r="-1.5500946044921875" fill="rgba(74,74,125,0.2935333251953125)"/>
  <circle cx="-153.076171875" cy="83.06884765625" r="2.3038177490234375" fill="rgba(147,147,198,0.5781707763671875)"/>
  <circle cx="-382.2784423828125" cy="-100.28076171875" r="1.157806396484375" fill="rgba(220,220,255,0.8628387451171875)"/>
  <circle cx="388.5040283203125" cy="-283.642578125" r="0.011871337890625" fill="rgba(37,37,88,0.14752197265625)"/>
  <circle cx="-306.7779541015625" cy="-39.8681640625" r="4" fill="#FFFFFF"/>
  <circle cx="-306.7779541015625" cy="-39.8681640625" r="8" fill="rgba(255,255,255,0.3)"/>
  <circle cx="491.729736328125" cy="-201.0498046875" r="4" fill="#FFFFFF"/>
  <circle cx="491.729736328125" cy="-201.0498046875" r="8" fill="rgba(255,255,255,0.3)"/>
  <circle cx="290.2679443359375" cy="-362.2314453125" r="4" fill="#FFFFFF"/>
  <circle cx="290.2679443359375" cy="-362.2314453125" r="8" fill="rgba(255,255,255,0.3)"/>
  <circle cx="88.7908935546875" cy="276.57470703125" r="4" fill="#FFFFFF"/>
  <circle cx="88.7908935546875" cy="276.57470703125" r="8" fill="rgba(255,255,255,0.3)"/>
  <circle cx="-112.6708984375" cy="115.39306640625" r="4" fill="#FFFFFF"/>
  <circle cx="-112.6708984375" cy="115.39306640625" r="8" fill="rgba(255,255,255,0.3)"/>
  <circle cx="-314.14794921875" cy="-45.7763671875" r="4" fill="#FFFFFF"/>
  <circle cx="-314.14794921875" cy="-45.7763671875" r="8" fill="rgba(255,255,255,0.3)"/>
  <circle cx="484.3597412109375" cy="-206.9580078125" r="4" fill="#FFFFFF"/>
  <circle cx="484.3597412109375" cy="-206.9580078125" r="8" fill="rgba(255,255,255,0.3)"/>
  <circle cx="282.8826904296875" cy="-368.12744140625" r="4" fill="#FFFFFF"/>
  <circle cx="282.8826904296875" cy="-368.12744140625" r="8" fill="rgba(255,255,255,0.3)"/>
  <circle cx="81.4056396484375" cy="270.6787109375" r="4" fill="#FFFFFF"/>
  <circle cx="81.4056396484375" cy="270.6787109375" r="8" fill="rgba(255,255,255,0.3)"/>
  <circle cx="-120.0408935546875" cy="109.4970703125" r="4" fill="#FFFFFF"/>
  <circle cx="-120.0408935546875" cy="109.4970703125" r="8" fill="rgba(255,255,255,0.3)"/>
</svg>