<?xml version="1.0" encoding="UTF-8"?>
<svg xmlns="http://www.w3.org/2000/svg" width="100" height="80" viewBox="0 0 100 80">
  <rect x="0" y="3.2" width="4" height="3.2" fill="#FF0000"/>
  <rect x="0" y="6.4" width="4" height="3.2" fill="#FF0000"/>
  <rect x="0" y="9.600000000000001" width="4" height="3.2" fill="#FF0000"/>
  <rect x="0" y="12.8" width="4" height="3.2" fill="#FF0000"/>
  <rect x="0" y="16" width="4" height="3.2" fill="#FF0000"/>
  <rect x="0" y="22.400000000000002" width="4" height="3.2" fill="#FF0000"/>
  <rect x="0" y="25.6" width="4" height="3.2" fill="#FF0000"/>
  <rect x="0" y="28.8" width="4" height="3.2" fill="#FF0000"/>
  <rect x="0" y="32" width="4" height="3.2" fill="#FF0000"/>
  <rect x="0" y="35.2" width="4" height="3.2" fill="#FF0000"/>
  <rect x="0" y="44.800000000000004" width="4" height="3.2" fill="#FF0000"/>
  <rect x="0" y="48" width="4" height="3.2" fill="#FF0000"/>
  <rect x="0" y="51.2" width="4" height="3.2" fill="#FF0000"/>
  <rect x="0" y="54.400000000000006" width="4" height="3.2" fill="#FF0000"/>
  <rect x="0" y="57.6" width="4" height="3.2" fill="#FF0000"/>
  <rect x="0" y="64" width="4" height="3.2" fill="#FF0000"/>
  <rect x="0" y="67.2" width="4" height="3.2" fill="#FF0000"/>
  <rect x="0" y="70.4" width="4" height="3.2" fill="#FF0000"/>
  <rect x="0" y="73.60000000000001" width="4" height="3.2" fill="#FF0000"/>
  <rect x="0" y="76.80000000000001" width="4" height="3.2" fill="#FF0000"/>
  <rect x="4" y="3.2" width="4" height="3.2" fill="#FF0000"/>
  <rect x="4" y="6.4" width="4" height="3.2" fill="#FF0000"/>
  <rect x="4" y="9.600000000000001" width="4" height="3.2" fill="#FF0000"/>
  <rect x="4" y="12.8" width="4" height="3.2" fill="#FF0000"/>
  <rect x="4" y="16" width="4" height="3.2" fill="#FF0000"/>
  <rect x="4" y="25.6" width="4" height="3.2" fill="#FF0000"/>
  <rect x="4" y="28.8" width="4" height="3.2" fill="#FF0000"/>
  <rect x="4" y="32" width="4" height="3.2" fill="#FF0000"/>
  <rect x="4" y="35.2" width="4" height="3.2" fill="#FF0000"/>
  <rect x="4" y="44.800000000000004" width="4" height="3.2" fill="#FF0000"/>
  <rect x="4" y="48" width="4" height="3.2" fill="#FF0000"/>
  <rect x="4" y="51.2" width="4" height="3.2" fill="#FF0000"/>
  <rect x="4" y="54.400000000000006" width="4" height="3.2" fill="#FF0000"/>
  <rect x="4" y="64" width="4" height="3.2" fill="#FF0000"/>
  <rect x="4" y="67.2" width="4" height="3.2" fill="#FF0000"/>
  <rect x="4" y="70.4" width="4" height="3.2" fill="#FF0000"/>
  <rect x="4" y="73.60000000000001" width="4" height="3.2" fill="#FF0000"/>
  <rect x="4" y="76.80000000000001" width="4" height="3.2" fill="#FF0000"/>
  <rect x="16" y="3.2" width="4" height="3.2" fill="#FF0000"/>
  <rect x="16" y="6.4" width="4" height="3.2" fill="#FF0000"/>
  <rect x="16" y="9.600000000000001" width="4" height="3.2" fill="#FF0000"/>
  <rect x="16" y="12.8" width="4" height="3.2" fill="#FF0000"/>
  <rect x="16" y="16" width="4" height="3.2" fill="#FF0000"/>
  <rect x="16" y="25.6" width="4" height="3.2" fill="#FF0000"/>
  <rect x="16" y="28.8" width="4" height="3.2" fill="#FF0000"/>
  <rect x="16" y="32" width="4" height="3.2" fill="#FF0000"/>
  <rect x="16" y="35.2" width="4" height="3.2" fill="#FF0000"/>
  <rect x="16" y="44.800000000000004" width="4" height="3.2" fill="#FF0000"/>
  <rect x="16" y="48" width="4" height="3.2" fill="#FF0000"/>
  <rect x="16" y="51.2" width="4" height="3.2" fill="#FF0000"/>
  <rect x="16" y="54.400000000000006" width="4" height="3.2" fill="#FF0000"/>
  <rect x="16" y="64" width="4" height="3.2" fill="#FF0000"/>
  <rect x="16" y="67.2" width="4" height="3.2" fill="#FF0000"/>
  <rect x="16" y="70.4" width="4" height="3.2" fill="#FF0000"/>
  <rect x="16" y="73.60000000000001" width="4" height="3.2" fill="#FF0000"/>
  <rect x="16" y="76.80000000000001" width="4" height="3.2" fill="#FF0000"/>
  <rect x="20" y="3.2" width="4" height="3.2" fill="#FF0000"/>
  <rect x="20" y="6.4" width="4" height="3.2" fill="#FF0000"/>
  <rect x="20" y="9.600000000000001" width="4" height="3.2" fill="#FF0000"/>
  <rect x="20" y="12.8" width="4" height="3.2" fill="#FF0000"/>
  <rect x="20" y="16" width="4" height="3.2" fill="#FF0000"/>
  <rect x="20" y="22.400000000000002" width="4" height="3.2" fill="#FF0000"/>
  <rect x="20" y="25.6" width="4" height="3.2" fill="#FF0000"/>
  <rect x="20" y="28.8" width="4" height="3.2" fill="#FF0000"/>
  <rect x="20" y="32" width="4" height="3.2" fill="#FF0000"/>
  <rect x="20" y="35.2" width="4" height="3.2" fill="#FF0000"/>
  <rect x="20" y="44.800000000000004" width="4" height="3.2" fill="#FF0000"/>
  <rect x="20" y="48" width="4" height="3.2" fill="#FF0000"/>
  <rect x="20" y="51.2" width="4" height="3.2" fill="#FF0000"/>
  <rect x="20" y="54.400000000000006" width="4" height="3.2" fill="#FF0000"/>
  <rect x="20" y="57.6" width="4" height="3.2" fill="#FF0000"/>
  <rect x="20" y="64" width="4" height="3.2" fill="#FF0000"/>
  <rect x="20" y="67.2" width="4" height="3.2" fill="#FF0000"/>
  <rect x="20" y="70.4" width="4" height="3.2" fill="#FF0000"/>
  <rect x="20" y="73.60000000000001" width="4" height="3.2" fill="#FF0000"/>
  <rect x="20" y="76.80000000000001" width="4" height="3.2" fill="#FF0000"/>
  <rect x="24" y="3.2" width="4" height="3.2" fill="#FF0000"/>
  <rect x="24" y="6.4" width="4" height="3.2" fill="#FF0000"/>
  <rect x="24" y="9.600000000000001" width="4" height="3.2" fill="#FF0000"/>
  <rect x="24" y="12.8" width="4" height="3.2" fill="#FF0000"/>
  <rect x="24" y="16" width="4" height="3.2" fill="#FF0000"/>
  <rect x="24" y="25.6" width="4" height="3.2" fill="#FF0000"/>
  <rect x="24" y="28.8" width="4" height="3.2" fill="#FF0000"/>
  <rect x="24" y="32" width="4" height="3.2" fill="#FF0000"/>
  <rect x="24" y="35.2" width="4" height="3.2" fill="#FF0000"/>
  <rect x="24" y="44.800000000000004" width="4" height="3.2" fill="#FF0000"/>
  <rect x="24" y="48" width="4" height="3.2" fill="#FF0000"/>
  <rect x="24" y="51.2" width="4" height="3.2" fill="#FF0000"/>
  <rect x="24" y="54.400000000000006" width="4" height="3.2" fill="#FF0000"/>
  <rect x="24" y="64" width="4" height="3.2" fill="#FF0000"/>
  <rect x="24" y="67.2" width="4" height="3.2" fill="#FF0000"/>
  <rect x="24" y="70.4" width="4" height="3.2" fill="#FF0000"/>
  <rect x="24" y="73.60000000000001" width="4" height="3.2" fill="#FF0000"/>
  <rect x="24" y="76.80000000000001" width="4" height="3.2" fill="#FF0000"/>
  <rect x="36" y="3.2" width="4" height="3.2" fill="#FF0000"/>
  <rect x="36" y="6.4" width="4" height="3.2" fill="#FF0000"/>
  <rect x="36" y="9.600000000000001" width="4" height="3.2" fill="#FF0000"/>
  <rect x="36" y="12.8" width="4" height="3.2" fill="#FF0000"/>
  <rect x="36" y="16" width="4" height="3.2" fill="#FF0000"/>
  <rect x="36" y="25.6" width="4" height="3.2" fill="#FF0000"/>
  <rect x="36" y="28.8" width="4" height="3.2" fill="#FF0000"/>
  <rect x="36" y="32" width="4" height="3.2" fill="#FF0000"/>
  <rect x="36" y="35.2" width="4" height="3.2" fill="#FF0000"/>
  <rect x="36" y="44.800000000000004" width="4" height="3.2" fill="#FF0000"/>
  <rect x="36" y="48" width="4" height="3.2" fill="#FF0000"/>
  <rect x="36" y="51.2" width="4" height="3.2" fill="#FF0000"/>
  <rect x="36" y="54.400000000000006" width="4" height="3.2" fill="#FF0000"/>
  <rect x="36" y="64" width="4" height="3.2" fill="#FF0000"/>
  <rect x="36" y="67.2" width="4" height="3.2" fill="#FF0000"/>
  <rect x="36" y="70.4" width="4" height="3.2" fill="#FF0000"/>
  <rect x="36" y="73.60000000000001" width="4" height="3.2" fill="#FF0000"/>
  <rect x="36" y="76.80000000000001" width="4" height="3.2" fill="#FF0000"/>
  <rect x="40" y="3.2" width="4" height="3.2" fill="#FF0000"/>
  <rect x="40" y="6.4" width="4" height="3.2" fill="#FF0000"/>
  <rect x="40" y="9.600000000000001" width="4" height="3.2" fill="#FF0000"/>
  <rect x="40" y="12.8" width="4" height="3.2" fill="#FF0000"/>
  <rect x="40" y="16" width="4" height="3.2" fill="#FF0000"/>
  <rect x="40" y="22.400000000000002" width="4" height="3.2" fill="#FF0000"/>
  <rect x="40" y="25.6" width="4" height="3.2" fill="#FF0000"/>
  <rect x="40" y="28.8" width="4" height="3.2" fill="#FF0000"/>
  <rect x="40" y="32" width="4" height="3.2" fill="#FF0000"/>
  <rect x="40" y="35.2" width="4" height="3.2" fill="#FF0000"/>
  <rect x="40" y="44.800000000000004" width="4" height="3.2" fill="#FF0000"/>
  <rect x="40" y="48" width="4" height="3.2" fill="#FF0000"/>
  <rect x="40" y="51.2" width="4" height="3.2" fill="#FF0000"/>
  <rect x="40" y="54.400000000000006" width="4" height="3.2" fill="#FF0000"/>
  <rect x="40" y="57.6" width="4" height="3.2" fill="#FF0000"/>
  <rect x="40" y="64" width="4" height="3.2" fill="#FF0000"/>
  <rect x="40" y="67.2" width="4" height="3.2" fill="#FF0000"/>
  <rect x="40" y="70.4" width="4" height="3.2" fill="#FF0000"/>
  <rect x="40" y="73.60000000000001" width="4" height="3.2" fill="#FF0000"/>
  <rect x="40" y="76.80000000000001" width="4" height="3.2" fill="#FF0000"/>
  <rect x="44" y="3.2" width="4" height="3.2" fill="#FF0000"/>
  <rect x="44" y="6.4" width="4" height="3.2" fill="#FF0000"/>
  <rect x="44" y="9.600000000000001" width="4" height="3.2" fill="#FF0000"/>
  <rect x="44" y="12.8" width="4" height="3.2" fill="#FF0000"/>
  <rect x="44" y="16" width="4" height="3.2" fill="#FF0000"/>
  <rect x="44" y="25.6" width="4" height="3.2" fill="#FF0000"/>
  <rect x="44" y="28.8" width="4" height="3.2" fill="#FF0000"/>
  <rect x="44" y="32" width="4" height="3.2" fill="#FF0000"/>
  <rect x="44" y="35.2" width="4" height="3.2" fill="#FF0000"/>
  <rect x="44" y="44.800000000000004" width="4" height="3.2" fill="#FF0000"/>
  <rect x="44" y="48" width="4" height="3.2" fill="#FF0000"/>
  <rect x="44" y="51.2" width="4" height="3.2" fill="#FF0000"/>
  <rect x="44" y="54.400000000000006" width="4" height="3.2" fill="#FF0000"/>
  <rect x="44" y="64" width="4" height="3.2" fill="#FF0000"/>
  <rect x="44" y="67.2" width="4" height="3.2" fill="#FF0000"/>
  <rect x="44" y="70.4" width="4" height="3.2" fill="#FF0000"/>
  <rect x="44" y="73.60000000000001" width="4" height="3.2" fill="#FF0000"/>
  <rect x="44" y="76.80000000000001" width="4" height="3.2" fill="#FF0000"/>
  <rect x="56" y="3.2" width="4" height="3.2" fill="#FF0000"/>
  <rect x="56" y="6.4" width="4" height="3.2" fill="#FF0000"/>
  <rect x="56" y="9.600000000000001" width="4" height="3.2" fill="#FF0000"/>
  <rect x="56" y="12.8" width="4" height="3.2" fill="#FF0000"/>
  <rect x="56" y="16" width="4" height="3.2" fill="#FF0000"/>
  <rect x="56" y="25.6" width="4" height="3.2" fill="#FF0000"/>
  <rect x="56" y="28.8" width="4" height="3.2" fill="#FF0000"/>
  <rect x="56" y="32" width="4" height="3.2" fill="#FF0000"/>
  <rect x="56" y="35.2" width="4" height="3.2" fill="#FF0000"/>
  <rect x="56" y="44.800000000000004" width="4" height="3.2" fill="#FF0000"/>
  <rect x="56" y="48" width="4" height="3.2" fill="#FF0000"/>
  <rect x="56" y="51.2" width="4" height="3.2" fill="#FF0000"/>
  <rect x="56" y="54.400000000000006" width="4" height="3.2" fill="#FF0000"/>
  <rect x="56" y="64" width="4" height="3.2" fill="#FF0000"/>
  <rect x="56" y="67.2" width="4" height="3.2" fill="#FF0000"/>
  <rect x="56" y="70.4" width="4" height="3.2" fill="#FF0000"/>
  <rect x="56" y="73.60000000000001" width="4" height="3.2" fill="#FF0000"/>
  <rect x="56" y="76.80000000000001" width="4" height="3.2" fill="#FF0000"/>
  <rect x="60" y="3.2" width="4" height="3.2" fill="#FF0000"/>
  <rect x="60" y="6.4" width="4" height="3.2" fill="#FF0000"/>
  <rect x="60" y="9.600000000000001" width="4" height="3.2" fill="#FF0000"/>
  <rect x="60" y="12.8" width="4" height="3.2" fill="#FF0000"/>
  <rect x="60" y="16" width="4" height="3.2" fill="#FF0000"/>
  <rect x="60" y="22.400000000000002" width="4" height="3.2" fill="#FF0000"/>
  <rect x="60" y="25.6" width="4" height="3.2" fill="#FF0000"/>
  <rect x="60" y="28.8" width="4" height="3.2" fill="#FF0000"/>
  <rect x="60" y="32" width="4" height="3.2" fill="#FF0000"/>
  <rect x="60" y="35.2" width="4" height="3.2" fill="#FF0000"/>
  <rect x="60" y="44.800000000000004" width="4" height="3.2" fill="#FF0000"/>
  <rect x="60" y="48" width="4" height="3.2" fill="#FF0000"/>
  <rect x="60" y="51.2" width="4" height="3.2" fill="#FF0000"/>
  <rect x="60" y="54.400000000000006" width="4" height="3.2" fill="#FF0000"/>
  <rect x="60" y="57.6" width="4" height="3.2" fill="#FF0000"/>
  <rect x="60" y="64" width="4" height="3.2" fill="#FF0000"/>
  <rect x="60" y="67.2" width="4" height="3.2" fill="#FF0000"/>
  <rect x="60" y="70.4" width="4" height="3.2" fill="#FF0000"/>
  <rect x="60" y="73.60000000000001" width="4" height="3.2" fill="#FF0000"/>
  <rect x="60" y="76.80000000000001" width="4" height="3.2" fill="#FF0000"/>
  <rect x="64" y="3.2" width="4" height="3.2" fill="#FF0000"/>
  <rect x="64" y="6.4" width="4" height="3.2" fill="#FF0000"/>
  <rect x="64" y="9.600000000000001" width="4" height="3.2" fill="#FF0000"/>
  <rect x="64" y="12.8" width="4" height="3.2" fill="#FF0000"/>
  <rect x="64" y="16" width="4" height="3.2" fill="#FF0000"/>
  <rect x="64" y="25.6" width="4" height="3.2" fill="#FF0000"/>
  <rect x="64" y="28.8" width="4" height="3.2" fill="#FF0000"/>
  <rect x="64" y="32" width="4" height="3.2" fill="#FF0000"/>
  <rect x="64" y="35.2" width="4" height="3.2" fill="#FF0000"/>
  <rect x="64" y="44.800000000000004" width="4" height="3.2" fill="#FF0000"/>
  <rect x="64" y="48" width="4" height="3.2" fill="#FF0000"/>
  <rect x="64" y="51.2" width="4" height="3.2" fill="#FF0000"/>
  <rect x="64" y="54.400000000000006" width="4" height="3.2" fill="#FF0000"/>
  <rect x="64" y="64" width="4" height="3.2" fill="#FF0000"/>
  <rect x="64" y="67.2" width="4" height="3.2" fill="#FF0000"/>
  <rect x="64" y="70.4" width="4" height="3.2" fill="#FF0000"/>
  <rect x="64" y="73.60000000000001" width="4" height="3.2" fill="#FF0000"/>
  <rect x="64" y="76.80000000000001" width="4" height="3.2" fill="#FF0000"/>
  <rect x="76" y="3.2" width="4" height="3.2" fill="#FF0000"/>
  <rect x="76" y="6.4" width="4" height="3.2" fill="#FF0000"/>
  <rect x="76" y="9.600000000000001" width="4" height="3.2" fill="#FF0000"/>
  <rect x="76" y="12.8" width="4" height="3.2" fill="#FF0000"/>
  <rect x="76" y="16" width="4" height="3.2" fill="#FF0000"/>
  <rect x="76" y="25.6" width="4" height="3.2" fill="#FF0000"/>
  <rect x="76" y="28.8" width="4" height="3.2" fill="#FF0000"/>
  <rect x="76" y="32" width="4" height="3.2" fill="#FF0000"/>
  <rect x="76" y="35.2" width="4" height="3.2" fill="#FF0000"/>
  <rect x="76" y="44.800000000000004" width="4" height="3.2" fill="#FF0000"/>
  <rect x="76" y="48" width="4" height="3.2" fill="#FF0000"/>
  <rect x="76" y="51.2" width="4" height="3.2" fill="#FF0000"/>
  <rect x="76" y="54.400000000000006" width="4" height="3.2" fill="#FF0000"/>
  <rect x="76" y="64" width="4" height="3.2" fill="#FF0000"/>
  <rect x="76" y="67.2" width="4" height="3.2" fill="#FF0000"/>
  <rect x="76" y="70.4" width="4" height="3.2" fill="#FF0000"/>
  <rect x="76" y="73.60000000000001" width="4" height="3.2" fill="#FF0000"/>
  <rect x="76" y="76.80000000000001" width="4" height="3.2" fill="#FF0000"/>
  <rect x="80" y="3.2" width="4" height="3.2" fill="#FF0000"/>
  <rect x="80" y="6.4" width="4" height="3.2" fill="#FF0000"/>
  <rect x="80" y="9.600000000000001" width="4" height="3.2" fill="#FF0000"/>
  <rect x="80" y="12.8" width="4" height="3.2" fill="#FF0000"/>
  <rect x="80" y="16" width="4" height="3.2" fill="#FF0000"/>
  <rect x="80" y="22.400000000000002" width="4" height="3.2" fill="#FF0000"/>
  <rect x="80" y="25.6" width="4" height="3.2" fill="#FF0000"/>
  <rect x="80" y="28.8" width="4" height="3.2" fill="#FF0000"/>
  <rect x="80" y="32" width="4" height="3.2" fill="#FF0000"/>
  <rect x="80" y="35.2" width="4" height="3.2" fill="#FF0000"/>
  <rect x="80" y="44.800000000000004" width="4" height="3.2" fill="#FF0000"/>
  <rect x="80" y="48" width="4" height="3.2" fill="#FF0000"/>
  <rect x="80" y="51.2" width="4" height="3.2" fill="#FF0000"/>
  <rect x="80" y="54.400000000000006" width="4" height="3.2" fill="#FF0000"/>
  <rect x="80" y="57.6" width="4" height="3.2" fill="#FF0000"/>
  <rect x="80" y="64" width="4" height="3.2" fill="#FF0000"/>
  <rect x="80" y="67.2" width="4" height="3.2" fill="#FF0000"/>
  <rect x="80" y="70.4" width="4" height="3.2" fill="#FF0000"/>
  <rect x="80" y="73.60000000000001" width="4" height="3.2" fill="#FF0000"/>
  <rect x="80" y="76.80000000000001" width="4" height="3.2" fill="#FF0000"/>
  <rect x="84" y="3.2" width="4" height="3.2" fill="#FF0000"/>
  <rect x="84" y="6.4" width="4" height="3.2" fill="#FF0000"/>
  <rect x="84" y="9.600000000000001" width="4" height="3.2" fill="#FF0000"/>
  <rect x="84" y="12.8" width="4" height="3.2" fill="#FF0000"/>
  <rect x="84" y="16" width="4" height="3.2" fill="#FF0000"/>
  <rect x="84" y="25.6" width="4" height="3.2" fill="#FF0000"/>
  <rect x="84" y="28.8" width="4" height="3.2" fill="#FF0000"/>
  <rect x="84" y="32" width="4" height="3.2" fill="#FF0000"/>
  <rect x="84" y="35.2" width="4" height="3.2" fill="#FF0000"/>
  <rect x="84" y="44.800000000000004" width="4" height="3.2" fill="#FF0000"/>
  <rect x="84" y="48" width="4" height="3.2" fill="#FF0000"/>
  <rect x="84" y="51.2" width="4" height="3.2" fill="#FF0000"/>
  <rect x="84" y="54.400000000000006" width="4" height="3.2" fill="#FF0000"/>
  <rect x="84" y="64" width="4" height="3.2" fill="#FF0000"/>
  <rect x="84" y="67.2" width="4" height="3.2" fill="#FF0000"/>
  <rect x="84" y="70.4" width="4" height="3.2" fill="#FF0000"/>
  <rect x="84" y="73.60000000000001" width="4" height="3.2" fill="#FF0000"/>
  <rect x="84" y="76.80000000000001" width="4" height="3.2" fill="#FF0000"/>
  <rect x="96" y="3.2" width="4" height="3.2" fill="#FF0000"/>
  <rect x="96" y="6.4" width="4" height="3.2" fill="#FF0000"/>
  <rect x="96" y="9.600000000000001" width="4" height="3.2" fill="#FF0000"/>
  <rect x="96" y="12.8" width="4" height="3.2" fill="#FF0000"/>
  <rect x="96" y="16" width="4" height="3.2" fill="#FF0000"/>
  <rect x="96" y="25.6" width="4" height="3.2" fill="#FF0000"/>
  <rect x="96" y="28.8" width="4" height="3.2" fill="#FF0000"/>
  <rect x="96" y="32" width="4" height="3.2" fill="#FF0000"/>
  <rect x="96" y="35.2" width="4" height="3.2" fill="#FF0000"/>
  <rect x="96" y="44.800000000000004" width="4" height="3.2" fill="#FF0000"/>
  <rect x="96" y="48" width="4" height="3.2" fill="#FF0000"/>
  <rect x="96" y="51.2" width="4" height="3.2" fill="#FF0000"/>
  <rect x="96" y="54.400000000000006" width="4" height="3.2" fill="#FF0000"/>
  <rect x="96" y="64" width="4" height="3.2" fill="#FF0000"/>
  <rect x="96" y="67.2" width="4" height="3.2" fill="#FF0000"/>
  <rect x="96" y="70.4" width="4" height="3.2" fill="#FF0000"/>
  <rect x="96" y="73.60000000000001" width="4" height="3.2" fill="#FF0000"/>
  <rect x="96" y="76.80000000000001" width="4" height="3.2" fill="#FF0000"/>
</svg>