<?xml version="1.0" encoding="UTF-8"?>
<svg xmlns="http://www.w3.org/2000/svg" width="100" height="80" viewBox="0 0 100 80">
  <rect x="0" y="4" width="4" height="4" fill="#FF0000"/>
  <rect x="0" y="8" width="4" height="4" fill="#FF0000"/>
  <rect x="0" y="12" width="4" height="4" fill="#FF0000"/>
  <rect x="0" y="16" width="4" height="4" fill="#FF0000"/>
  <rect x="0" y="24" width="4" height="4" fill="#FF0000"/>
  <rect x="0" y="28" width="4" height="4" fill="#FF0000"/>
  <rect x="0" y="32" width="4" height="4" fill="#FF0000"/>
  <rect x="0" y="36" width="4" height="4" fill="#FF0000"/>
  <rect x="0" y="44" width="4" height="4" fill="#FF0000"/>
  <rect x="0" y="48" width="4" height="4" fill="#FF0000"/>
  <rect x="0" y="52" width="4" height="4" fill="#FF0000"/>
  <rect x="0" y="56" width="4" height="4" fill="#FF0000"/>
  <rect x="0" y="64" width="4" height="4" fill="#FF0000"/>
  <rect x="0" y="68" width="4" height="4" fill="#FF0000"/>
  <rect x="0" y="72" width="4" height="4" fill="#FF0000"/>
  <rect x="0" y="76" width="4" height="4" fill="#FF0000"/>
  <rect x="0" y="84" width="4" height="4" fill="#FF0000"/>
  <rect x="0" y="88" width="4" height="4" fill="#FF0000"/>
  <rect x="0" y="92" width="4" height="4" fill="#FF0000"/>
  <rect x="0" y="96" width="4" height="4" fill="#FF0000"/>
  <rect x="4" y="4" width="4" height="4" fill="#FF0000"/>
  <rect x="4" y="8" width="4" height="4" fill="#FF0000"/>
  <rect x="4" y="12" width="4" height="4" fill="#FF0000"/>
  <rect x="4" y="16" width="4" height="4" fill="#FF0000"/>
  <rect x="4" y="24" width="4" height="4" fill="#FF0000"/>
  <rect x="4" y="28" width="4" height="4" fill="#FF0000"/>
  <rect x="4" y="32" width="4" height="4" fill="#FF0000"/>
  <rect x="4" y="36" width="4" height="4" fill="#FF0000"/>
  <rect x="4" y="44" width="4" height="4" fill="#FF0000"/>
  <rect x="4" y="48" width="4" height="4" fill="#FF0000"/>
  <rect x="4" y="52" width="4" height="4" fill="#FF0000"/>
  <rect x="4" y="56" width="4" height="4" fill="#FF0000"/>
  <rect x="4" y="64" width="4" height="4" fill="#FF0000"/>
  <rect x="4" y="68" width="4" height="4" fill="#FF0000"/>
  <rect x="4" y="72" width="4" height="4" fill="#FF0000"/>
  <rect x="4" y="76" width="4" height="4" fill="#FF0000"/>
  <rect x="4" y="84" width="4" height="4" fill="#FF0000"/>
  <rect x="4" y="88" width="4" height="4" fill="#FF0000"/>
  <rect x="4" y="92" width="4" height="4" fill="#FF0000"/>
  <rect x="4" y="96" width="4" height="4" fill="#FF0000"/>
  <rect x="16" y="4" width="4" height="4" fill="#FF0000"/>
  <rect x="16" y="8" width="4" height="4" fill="#FF0000"/>
  <rect x="16" y="12" width="4" height="4" fill="#FF0000"/>
  <rect x="16" y="16" width="4" height="4" fill="#FF0000"/>
  <rect x="16" y="24" width="4" height="4" fill="#FF0000"/>
  <rect x="16" y="28" width="4" height="4" fill="#FF0000"/>
  <rect x="16" y="32" width="4" height="4" fill="#FF0000"/>
  <rect x="16" y="36" width="4" height="4" fill="#FF0000"/>
  <rect x="16" y="44" width="4" height="4" fill="#FF0000"/>
  <rect x="16" y="48" width="4" height="4" fill="#FF0000"/>
  <rect x="16" y="52" width="4" height="4" fill="#FF0000"/>
  <rect x="16" y="56" width="4" height="4" fill="#FF0000"/>
  <rect x="16" y="64" width="4" height="4" fill="#FF0000"/>
  <rect x="16" y="68" width="4" height="4" fill="#FF0000"/>
  <rect x="16" y="72" width="4" height="4" fill="#FF0000"/>
  <rect x="16" y="76" width="4" height="4" fill="#FF0000"/>
  <rect x="16" y="84" width="4" height="4" fill="#FF0000"/>
  <rect x="16" y="88" width="4" height="4" fill="#FF0000"/>
  <rect x="16" y="92" width="4" height="4" fill="#FF0000"/>
  <rect x="16" y="96" width="4" height="4" fill="#FF0000"/>
  <rect x="20" y="4" width="4" height="4" fill="#FF0000"/>
  <rect x="20" y="8" width="4" height="4" fill="#FF0000"/>
  <rect x="20" y="12" width="4" height="4" fill="#FF0000"/>
  <rect x="20" y="16" width="4" height="4" fill="#FF0000"/>
  <rect x="20" y="24" width="4" height="4" fill="#FF0000"/>
  <rect x="20" y="28" width="4" height="4" fill="#FF0000"/>
  <rect x="20" y="32" width="4" height="4" fill="#FF0000"/>
  <rect x="20" y="36" width="4" height="4" fill="#FF0000"/>
  <rect x="20" y="44" width="4" height="4" fill="#FF0000"/>
  <rect x="20" y="48" width="4" height="4" fill="#FF0000"/>
  <rect x="20" y="52" width="4" height="4" fill="#FF0000"/>
  <rect x="20" y="56" width="4" height="4" fill="#FF0000"/>
  <rect x="20" y="64" width="4" height="4" fill="#FF0000"/>
  <rect x="20" y="68" width="4" height="4" fill="#FF0000"/>
  <rect x="20" y="72" width="4" height="4" fill="#FF0000"/>
  <rect x="20" y="76" width="4" height="4" fill="#FF0000"/>
  <rect x="20" y="84" width="4" height="4" fill="#FF0000"/>
  <rect x="20" y="88" width="4" height="4" fill="#FF0000"/>
  <rect x="20" y="92" width="4" height="4" fill="#FF0000"/>
  <rect x="20" y="96" width="4" height="4" fill="#FF0000"/>
  <rect x="24" y="4" width="4" height="4" fill="#FF0000"/>
  <rect x="24" y="8" width="4" height="4" fill="#FF0000"/>
  <rect x="24" y="12" width="4" height="4" fill="#FF0000"/>
  <rect x="24" y="16" width="4" height="4" fill="#FF0000"/>
  <rect x="24" y="24" width="4" height="4" fill="#FF0000"/>
  <rect x="24" y="28" width="4" height="4" fill="#FF0000"/>
  <rect x="24" y="32" width="4" height="4" fill="#FF0000"/>
  <rect x="24" y="36" width="4" height="4" fill="#FF0000"/>
  <rect x="24" y="44" width="4" height="4" fill="#FF0000"/>
  <rect x="24" y="48" width="4" height="4" fill="#FF0000"/>
  <rect x="24" y="52" width="4" height="4" fill="#FF0000"/>
  <rect x="24" y="56" width="4" height="4" fill="#FF0000"/>
  <rect x="24" y="64" width="4" height="4" fill="#FF0000"/>
  <rect x="24" y="68" width="4" height="4" fill="#FF0000"/>
  <rect x="24" y="72" width="4" height="4" fill="#FF0000"/>
  <rect x="24" y="76" width="4" height="4" fill="#FF0000"/>
  <rect x="24" y="84" width="4" height="4" fill="#FF0000"/>
  <rect x="24" y="88" width="4" height="4" fill="#FF0000"/>
  <rect x="24" y="92" width="4" height="4" fill="#FF0000"/>
  <rect x="24" y="96" width="4" height="4" fill="#FF0000"/>
  <rect x="36" y="4" width="4" height="4" fill="#FF0000"/>
  <rect x="36" y="8" width="4" height="4" fill="#FF0000"/>
  <rect x="36" y="12" width="4" height="4" fill="#FF0000"/>
  <rect x="36" y="16" width="4" height="4" fill="#FF0000"/>
  <rect x="36" y="24" width="4" height="4" fill="#FF0000"/>
  <rect x="36" y="28" width="4" height="4" fill="#FF0000"/>
  <rect x="36" y="32" width="4" height="4" fill="#FF0000"/>
  <rect x="36" y="36" width="4" height="4" fill="#FF0000"/>
  <rect x="36" y="44" width="4" height="4" fill="#FF0000"/>
  <rect x="36" y="48" width="4" height="4" fill="#FF0000"/>
  <rect x="36" y="52" width="4" height="4" fill="#FF0000"/>
  <rect x="36" y="56" width="4" height="4" fill="#FF0000"/>
  <rect x="36" y="64" width="4" height="4" fill="#FF0000"/>
  <rect x="36" y="68" width="4" height="4" fill="#FF0000"/>
  <rect x="36" y="72" width="4" height="4" fill="#FF0000"/>
  <rect x="36" y="76" width="4" height="4" fill="#FF0000"/>
  <rect x="36" y="84" width="4" height="4" fill="#FF0000"/>
  <rect x="36" y="88" width="4" height="4" fill="#FF0000"/>
  <rect x="36" y="92" width="4" height="4" fill="#FF0000"/>
  <rect x="36" y="96" width="4" height="4" fill="#FF0000"/>
  <rect x="40" y="4" width="4" height="4" fill="#FF0000"/>
  <rect x="40" y="8" width="4" height="4" fill="#FF0000"/>
  <rect x="40" y="12" width="4" height="4" fill="#FF0000"/>
  <rect x="40" y="16" width="4" height="4" fill="#FF0000"/>
  <rect x="40" y="24" width="4" height="4" fill="#FF0000"/>
  <rect x="40" y="28" width="4" height="4" fill="#FF0000"/>
  <rect x="40" y="32" width="4" height="4" fill="#FF0000"/>
  <rect x="40" y="36" width="4" height="4" fill="#FF0000"/>
  <rect x="40" y="44" width="4" height="4" fill="#FF0000"/>
  <rect x="40" y="48" width="4" height="4" fill="#FF0000"/>
  <rect x="40" y="52" width="4" height="4" fill="#FF0000"/>
  <rect x="40" y="56" width="4" height="4" fill="#FF0000"/>
  <rect x="40" y="64" width="4" height="4" fill="#FF0000"/>
  <rect x="40" y="68" width="4" height="4" fill="#FF0000"/>
  <rect x="40" y="72" width="4" height="4" fill="#FF0000"/>
  <rect x="40" y="76" width="4" height="4" fill="#FF0000"/>
  <rect x="40" y="84" width="4" height="4" fill="#FF0000"/>
  <rect x="40" y="88" width="4" height="4" fill="#FF0000"/>
  <rect x="40" y="92" width="4" height="4" fill="#FF0000"/>
  <rect x="40" y="96" width="4" height="4" fill="#FF0000"/>
  <rect x="44" y="4" width="4" height="4" fill="#FF0000"/>
  <rect x="44" y="8" width="4" height="4" fill="#FF0000"/>
  <rect x="44" y="12" width="4" height="4" fill="#FF0000"/>
  <rect x="44" y="16" width="4" height="4" fill="#FF0000"/>
  <rect x="44" y="24" width="4" height="4" fill="#FF0000"/>
  <rect x="44" y="28" width="4" height="4" fill="#FF0000"/>
  <rect x="44" y="32" width="4" height="4" fill="#FF0000"/>
  <rect x="44" y="36" width="4" height="4" fill="#FF0000"/>
  <rect x="44" y="44" width="4" height="4" fill="#FF0000"/>
  <rect x="44" y="48" width="4" height="4" fill="#FF0000"/>
  <rect x="44" y="52" width="4" height="4" fill="#FF0000"/>
  <rect x="44" y="56" width="4" height="4" fill="#FF0000"/>
  <rect x="44" y="64" width="4" height="4" fill="#FF0000"/>
  <rect x="44" y="68" width="4" height="4" fill="#FF0000"/>
  <rect x="44" y="72" width="4" height="4" fill="#FF0000"/>
  <rect x="44" y="76" width="4" height="4" fill="#FF0000"/>
  <rect x="44" y="84" width="4" height="4" fill="#FF0000"/>
  <rect x="44" y="88" width="4" height="4" fill="#FF0000"/>
  <rect x="44" y="92" width="4" height="4" fill="#FF0000"/>
  <rect x="44" y="96" width="4" height="4" fill="#FF0000"/>
  <rect x="56" y="4" width="4" height="4" fill="#FF0000"/>
  <rect x="56" y="8" width="4" height="4" fill="#FF0000"/>
  <rect x="56" y="12" width="4" height="4" fill="#FF0000"/>
  <rect x="56" y="16" width="4" height="4" fill="#FF0000"/>
  <rect x="56" y="24" width="4" height="4" fill="#FF0000"/>
  <rect x="56" y="28" width="4" height="4" fill="#FF0000"/>
  <rect x="56" y="32" width="4" height="4" fill="#FF0000"/>
  <rect x="56" y="36" width="4" height="4" fill="#FF0000"/>
  <rect x="56" y="44" width="4" height="4" fill="#FF0000"/>
  <rect x="56" y="48" width="4" height="4" fill="#FF0000"/>
  <rect x="56" y="52" width="4" height="4" fill="#FF0000"/>
  <rect x="56" y="56" width="4" height="4" fill="#FF0000"/>
  <rect x="56" y="64" width="4" height="4" fill="#FF0000"/>
  <rect x="56" y="68" width="4" height="4" fill="#FF0000"/>
  <rect x="56" y="72" width="4" height="4" fill="#FF0000"/>
  <rect x="56" y="76" width="4" height="4" fill="#FF0000"/>
  <rect x="56" y="84" width="4" height="4" fill="#FF0000"/>
  <rect x="56" y="88" width="4" height="4" fill="#FF0000"/>
  <rect x="56" y="92" width="4" height="4" fill="#FF0000"/>
  <rect x="56" y="96" width="4" height="4" fill="#FF0000"/>
  <rect x="60" y="4" width="4" height="4" fill="#FF0000"/>
  <rect x="60" y="8" width="4" height="4" fill="#FF0000"/>
  <rect x="60" y="12" width="4" height="4" fill="#FF0000"/>
  <rect x="60" y="16" width="4" height="4" fill="#FF0000"/>
  <rect x="60" y="24" width="4" height="4" fill="#FF0000"/>
  <rect x="60" y="28" width="4" height="4" fill="#FF0000"/>
  <rect x="60" y="32" width="4" height="4" fill="#FF0000"/>
  <rect x="60" y="36" width="4" height="4" fill="#FF0000"/>
  <rect x="60" y="44" width="4" height="4" fill="#FF0000"/>
  <rect x="60" y="48" width="4" height="4" fill="#FF0000"/>
  <rect x="60" y="52" width="4" height="4" fill="#FF0000"/>
  <rect x="60" y="56" width="4" height="4" fill="#FF0000"/>
  <rect x="60" y="64" width="4" height="4" fill="#FF0000"/>
  <rect x="60" y="68" width="4" height="4" fill="#FF0000"/>
  <rect x="60" y="72" width="4" height="4" fill="#FF0000"/>
  <rect x="60" y="76" width="4" height="4" fill="#FF0000"/>
  <rect x="60" y="84" width="4" height="4" fill="#FF0000"/>
  <rect x="60" y="88" width="4" height="4" fill="#FF0000"/>
  <rect x="60" y="92" width="4" height="4" fill="#FF0000"/>
  <rect x="60" y="96" width="4" height="4" fill="#FF0000"/>
  <rect x="64" y="4" width="4" height="4" fill="#FF0000"/>
  <rect x="64" y="8" width="4" height="4" fill="#FF0000"/>
  <rect x="64" y="12" width="4" height="4" fill="#FF0000"/>
  <rect x="64" y="16" width="4" height="4" fill="#FF0000"/>
  <rect x="64" y="24" width="4" height="4" fill="#FF0000"/>
  <rect x="64" y="28" width="4" height="4" fill="#FF0000"/>
  <rect x="64" y="32" width="4" height="4" fill="#FF0000"/>
  <rect x="64" y="36" width="4" height="4" fill="#FF0000"/>
  <rect x="64" y="44" width="4" height="4" fill="#FF0000"/>
  <rect x="64" y="48" width="4" height="4" fill="#FF0000"/>
  <rect x="64" y="52" width="4" height="4" fill="#FF0000"/>
  <rect x="64" y="56" width="4" height="4" fill="#FF0000"/>
  <rect x="64" y="64" width="4" height="4" fill="#FF0000"/>
  <rect x="64" y="68" width="4" height="4" fill="#FF0000"/>
  <rect x="64" y="72" width="4" height="4" fill="#FF0000"/>
  <rect x="64" y="76" width="4" height="4" fill="#FF0000"/>
  <rect x="64" y="84" width="4" height="4" fill="#FF0000"/>
  <rect x="64" y="88" width="4" height="4" fill="#FF0000"/>
  <rect x="64" y="92" width="4" height="4" fill="#FF0000"/>
  <rect x="64" y="96" width="4" height="4" fill="#FF0000"/>
  <rect x="76" y="4" width="4" height="4" fill="#FF0000"/>
  <rect x="76" y="8" width="4" height="4" fill="#FF0000"/>
  <rect x="76" y="12" width="4" height="4" fill="#FF0000"/>
  <rect x="76" y="16" width="4" height="4" fill="#FF0000"/>
  <rect x="76" y="24" width="4" height="4" fill="#FF0000"/>
  <rect x="76" y="28" width="4" height="4" fill="#FF0000"/>
  <rect x="76" y="32" width="4" height="4" fill="#FF0000"/>
  <rect x="76" y="36" width="4" height="4" fill="#FF0000"/>
  <rect x="76" y="44" width="4" height="4" fill="#FF0000"/>
  <rect x="76" y="48" width="4" height="4" fill="#FF0000"/>
  <rect x="76" y="52" width="4" height="4" fill="#FF0000"/>
  <rect x="76" y="56" width="4" height="4" fill="#FF0000"/>
  <rect x="76" y="64" width="4" height="4" fill="#FF0000"/>
  <rect x="76" y="68" width="4" height="4" fill="#FF0000"/>
  <rect x="76" y="72" width="4" height="4" fill="#FF0000"/>
  <rect x="76" y="76" width="4" height="4" fill="#FF0000"/>
  <rect x="76" y="84" width="4" height="4" fill="#FF0000"/>
  <rect x="76" y="88" width="4" height="4" fill="#FF0000"/>
  <rect x="76" y="92" width="4" height="4" fill="#FF0000"/>
  <rect x="76" y="96" width="4" height="4" fill="#FF0000"/>
  <rect x="80" y="4" width="4" height="4" fill="#FF0000"/>
  <rect x="80" y="8" width="4" height="4" fill="#FF0000"/>
  <rect x="80" y="12" width="4" height="4" fill="#FF0000"/>
  <rect x="80" y="16" width="4" height="4" fill="#FF0000"/>
  <rect x="80" y="24" width="4" height="4" fill="#FF0000"/>
  <rect x="80" y="28" width="4" height="4" fill="#FF0000"/>
  <rect x="80" y="32" width="4" height="4" fill="#FF0000"/>
  <rect x="80" y="36" width="4" height="4" fill="#FF0000"/>
  <rect x="80" y="44" width="4" height="4" fill="#FF0000"/>
  <rect x="80" y="48" width="4" height="4" fill="#FF0000"/>
  <rect x="80" y="52" width="4" height="4" fill="#FF0000"/>
  <rect x="80" y="56" width="4" height="4" fill="#FF0000"/>
  <rect x="80" y="64" width="4" height="4" fill="#FF0000"/>
  <rect x="80" y="68" width="4" height="4" fill="#FF0000"/>
  <rect x="80" y="72" width="4" height="4" fill="#FF0000"/>
  <rect x="80" y="76" width="4" height="4" fill="#FF0000"/>
  <rect x="80" y="84" width="4" height="4" fill="#FF0000"/>
  <rect x="80" y="88" width="4" height="4" fill="#FF0000"/>
  <rect x="80" y="92" width="4" height="4" fill="#FF0000"/>
  <rect x="80" y="96" width="4" height="4" fill="#FF0000"/>
  <rect x="84" y="4" width="4" height="4" fill="#FF0000"/>
  <rect x="84" y="8" width="4" height="4" fill="#FF0000"/>
  <rect x="84" y="12" width="4" height="4" fill="#FF0000"/>
  <rect x="84" y="16" width="4" height="4" fill="#FF0000"/>
  <rect x="84" y="24" width="4" height="4" fill="#FF0000"/>
  <rect x="84" y="28" width="4" height="4" fill="#FF0000"/>
  <rect x="84" y="32" width="4" height="4" fill="#FF0000"/>
  <rect x="84" y="36" width="4" height="4" fill="#FF0000"/>
  <rect x="84" y="44" width="4" height="4" fill="#FF0000"/>
  <rect x="84" y="48" width="4" height="4" fill="#FF0000"/>
  <rect x="84" y="52" width="4" height="4" fill="#FF0000"/>
  <rect x="84" y="56" width="4" height="4" fill="#FF0000"/>
  <rect x="84" y="64" width="4" height="4" fill="#FF0000"/>
  <rect x="84" y="68" width="4" height="4" fill="#FF0000"/>
  <rect x="84" y="72" width="4" height="4" fill="#FF0000"/>
  <rect x="84" y="76" width="4" height="4" fill="#FF0000"/>
  <rect x="84" y="84" width="4" height="4" fill="#FF0000"/>
  <rect x="84" y="88" width="4" height="4" fill="#FF0000"/>
  <rect x="84" y="92" width="4" height="4" fill="#FF0000"/>
  <rect x="84" y="96" width="4" height="4" fill="#FF0000"/>
  <rect x="96" y="4" width="4" height="4" fill="#FF0000"/>
  <rect x="96" y="8" width="4" height="4" fill="#FF0000"/>
  <rect x="96" y="12" width="4" height="4" fill="#FF0000"/>
  <rect x="96" y="16" width="4" height="4" fill="#FF0000"/>
  <rect x="96" y="24" width="4" height="4" fill="#FF0000"/>
  <rect x="96" y="28" width="4" height="4" fill="#FF0000"/>
  <rect x="96" y="32" width="4" height="4" fill="#FF0000"/>
  <rect x="96" y="36" width="4" height="4" fill="#FF0000"/>
  <rect x="96" y="44" width="4" height="4" fill="#FF0000"/>
  <rect x="96" y="48" width="4" height="4" fill="#FF0000"/>
  <rect x="96" y="52" width="4" height="4" fill="#FF0000"/>
  <rect x="96" y="56" width="4" height="4" fill="#FF0000"/>
  <rect x="96" y="64" width="4" height="4" fill="#FF0000"/>
  <rect x="96" y="68" width="4" height="4" fill="#FF0000"/>
  <rect x="96" y="72" width="4" height="4" fill="#FF0000"/>
  <rect x="96" y="76" width="4" height="4" fill="#FF0000"/>
  <rect x="96" y="84" width="4" height="4" fill="#FF0000"/>
  <rect x="96" y="88" width="4" height="4" fill="#FF0000"/>
  <rect x="96" y="92" width="4" height="4" fill="#FF0000"/>
  <rect x="96" y="96" width="4" height="4" fill="#FF0000"/>
</svg>